<svg id="facebook-icon" width="36" height="36" xmlns="http://www.w3.org/2000/svg" x="0px" y="0px" viewBox="0 0 100 99.6" style="enable-background:new 0 0 100 99.6;" xml:space="preserve"><linearGradient id="facebook-icon_1_" gradientUnits="userSpaceOnUse" x1="0" y1="0" x2="85.1822" y2="14.7129"><stop offset="0" style="stop-color:#62c5e5"/><stop offset="1" style="stop-color:#3298cb"/></linearGradient><path style="fill:url(#facebook-icon_1_);" d="M50,0C22.4,0,0,22.4,0,50c0,23.5,16.4,43.9,39.4,48.8V59.5h-8.6v-14h8.6V34.6c0-7.8,4.6-15.7,17.5-15.7h11.9V33h-8.6c-2.2,0-3.8,1.9-3.8,5.1v7.3h12.4l-1.6,14H56.2v40.1c27.4-3.6,46.7-28.7,43.1-56C96.1,18.7,75,0.1,50,0z"/><path data-svggroup="hide" d="M50,0C22.4,0,0,22.4,0,50c0,23.5,16.4,43.9,39.4,48.8V59.5h-8.6v-14h8.6V34.6c0-7.8,4.6-15.7,17.5-15.7h11.9V33h-8.6c-2.2,0-3.8,1.9-3.8,5.1v7.3h12.4l-1.6,14H56.2v40.1c27.4-3.6,46.7-28.7,43.1-56C96.1,18.7,75,0.1,50,0z"/></svg>