<svg id="github-icon" width="37" height="37" xmlns="http://www.w3.org/2000/svg" x="0px" y="0px" viewBox="0 0 100 97.6" style="enable-background:new 0 0 100 97.6;" xml:space="preserve"><linearGradient id="github-icon_1_" gradientUnits="userSpaceOnUse" x1="14.6239" y1="85.2929" x2="85.3073" y2="14.6095"><stop offset="0" style="stop-color:#62c5e5"/><stop offset="1" style="stop-color:#63C6E5"/></linearGradient><path style="fill:url(#github-icon_1_);" d="M49.9,0C22.3,0.1,0,22.5,0,50.1c0,21.5,13.8,40.6,34.2,47.3c2.4,0.5,3.2-1.1,3.2-2.4v-9.2c-13.8,3-16.7-5.9-16.7-5.9c-2.2-5.7-5.7-7.3-5.7-7.3c-4.6-3,0.3-3,0.3-3c5.1,0.3,7.6,5.1,7.6,5.1c4.3,7.6,11.6,5.4,14.6,4c0.3-2.6,1.4-4.9,3.2-6.8c-11.1-1.3-22.7-5.6-22.7-24.8c0.1-5,1.9-9.7,5.1-13.5c-0.5-1.3-2.2-6.5,0.5-13.2c0,0,4.3-1.4,13.8,5.1c8.2-2.2,16.9-2.2,25.1,0c9.4-6.5,13.8-5.1,13.8-5.1c2.7,7,1.1,11.9,0.5,13.2c3.4,3.6,5.3,8.5,5.1,13.5c0,19.2-11.6,23.5-23,24.6c1.9,1.6,3.5,4.6,3.5,9.2v13.8c0,1.3,0.8,3,3.2,2.4c26.1-8.8,40.2-37,31.6-63.2C90.5,13.7,71.4,0,49.9,0z"/><path data-svggroup="hide" d="M49.9,0C22.3,0.1,0,22.5,0,50.1c0,21.5,13.8,40.6,34.2,47.3c2.4,0.5,3.2-1.1,3.2-2.4v-9.2c-13.8,3-16.7-5.9-16.7-5.9c-2.2-5.7-5.7-7.3-5.7-7.3c-4.6-3,0.3-3,0.3-3c5.1,0.3,7.6,5.1,7.6,5.1c4.3,7.6,11.6,5.4,14.6,4c0.3-2.6,1.4-4.9,3.2-6.8c-11.1-1.3-22.7-5.6-22.7-24.8c0.1-5,1.9-9.7,5.1-13.5c-0.5-1.3-2.2-6.5,0.5-13.2c0,0,4.3-1.4,13.8,5.1c8.2-2.2,16.9-2.2,25.1,0c9.4-6.5,13.8-5.1,13.8-5.1c2.7,7,1.1,11.9,0.5,13.2c3.4,3.6,5.3,8.5,5.1,13.5c0,19.2-11.6,23.5-23,24.6c1.9,1.6,3.5,4.6,3.5,9.2v13.8c0,1.3,0.8,3,3.2,2.4c26.1-8.8,40.2-37,31.6-63.2C90.5,13.7,71.4,0,49.9,0z"/></svg>