<svg id="medium-icon" width="36" height="36" xmlns="http://www.w3.org/2000/svg" x="0px" y="0px" viewBox="0 0 100 100" style="enable-background:new 0 0 100 100;" xml:space="preserve"><linearGradient id="medium-icon_1_" gradientUnits="userSpaceOnUse" x1="0" y1="0" x2="85.3378" y2="14.6622"><stop offset="0" style="stop-color:#62c5e5"/><stop offset="1" style="stop-color:#3298cb"/></linearGradient><path style="fill:url(#medium-icon_1_);" d="M50,0C22.4,0,0,22.4,0,50s22.4,50,50,50s50-22.4,50-50C100,22.4,77.6,0,50,0z M83.8,24.3l-5.4,5.1c-0.5,0.5-0.5,0.8-0.5,1.6v38.1c-0.3,0.5,0.3,1.1,0.5,1.6l5.1,5.1v1H57v-1.1l5.4-5.4C63,70,63,69.7,63,68.9V38.1L47.8,76.8h-2.2L28.1,38.1v25.7c-0.2,1.1,0.2,2.3,1.1,3l7,8.7v1.1H15.9v-1.1l7-8.7c0.8-0.8,1.1-1.9,0.8-3V34l0,0c-0.1-0.8-0.5-1.6-1.1-2.2l-6.2-7.6v-1.1h19.8l15.1,33.3l13.2-33.3h19.2V24.3z"/><path data-svggroup="hide" d="M50,0C22.4,0,0,22.4,0,50s22.4,50,50,50s50-22.4,50-50C100,22.4,77.6,0,50,0z M83.8,24.3l-5.4,5.1c-0.5,0.5-0.5,0.8-0.5,1.6v38.1c-0.3,0.5,0.3,1.1,0.5,1.6l5.1,5.1v1H57v-1.1l5.4-5.4C63,70,63,69.7,63,68.9V38.1L47.8,76.8h-2.2L28.1,38.1v25.7c-0.2,1.1,0.2,2.3,1.1,3l7,8.7v1.1H15.9v-1.1l7-8.7c0.8-0.8,1.1-1.9,0.8-3V34l0,0c-0.1-0.8-0.5-1.6-1.1-2.2l-6.2-7.6v-1.1h19.8l15.1,33.3l13.2-33.3h19.2V24.3z"/></svg>