<svg id="telegram-icon" width="36" height="36" xmlns="http://www.w3.org/2000/svg" x="0px" y="0px" viewBox="0 0 100 100" style="enable-background:new 0 0 100 100;" xml:space="preserve"><g><linearGradient id="telegram-icon_1_" gradientUnits="userSpaceOnUse" x1="28.8493" y1="67.4893" x2="67.7277" y2="28.611"><stop offset="0" style="stop-color:#62c5e5"/><stop offset="1" style="stop-color:#63c6e5"/></linearGradient><linearGradient id="telegram-icon_2_" gradientUnits="userSpaceOnUse" x1="14.6447" y1="85.3553" x2="85.3378" y2="14.6622"><stop offset="0" style="stop-color:#62c5e5"/><stop offset="1" style="stop-color:#63c6e5"/></linearGradient><path style="fill:url(#telegram-icon_1_);" d="M66.5,30.3L30,53.2c-0.5,0.4-0.7,1-0.5,1.6l6,19.2l0.8-13c0.1-0.6,0.3-1.2,0.8-1.6l31.7-28.4C70,29.7,68.4,29.2,66.5,30.3z"/><path style="fill:url(#telegram-icon_2_);" d="M50,0C22.4,0,0,22.4,0,50s22.4,50,50,50s50-22.4,50-50C100,22.4,77.6,0,50,0z M82.2,24L70.8,77.8c-0.8,3.8-3,4.9-6.2,3l-17.3-13l-8.4,8.1c-1.1,0.8-1.6,1.6-3.5,1.6c-1.3,0-1.9-0.3-2.2-1.1c0-0.3-0.3-0.5-0.3-0.8l-0.3-0.8v-0.3l-0.8-3l-5.1-16.2c0-0.3-0.5-0.5-0.5-0.5L9.5,49.7c-3.8-1.1-3.8-3.8,0.8-5.4l67-26C80.3,17.3,83.2,19.5,82.2,24z"/></g><g data-svggroup="hide"><path d="M66.5,30.3L30,53.2c-0.5,0.4-0.7,1-0.5,1.6l6,19.2l0.8-13c0.1-0.6,0.3-1.2,0.8-1.6l31.7-28.4C70,29.7,68.4,29.2,66.5,30.3z"/><path d="M50,0C22.4,0,0,22.4,0,50s22.4,50,50,50s50-22.4,50-50C100,22.4,77.6,0,50,0z M82.2,24L70.8,77.8c-0.8,3.8-3,4.9-6.2,3l-17.3-13l-8.4,8.1c-1.1,0.8-1.6,1.6-3.5,1.6c-1.3,0-1.9-0.3-2.2-1.1c0-0.3-0.3-0.5-0.3-0.8l-0.3-0.8v-0.3l-0.8-3l-5.1-16.2c0-0.3-0.5-0.5-0.5-0.5L9.5,49.7c-3.8-1.1-3.8-3.8,0.8-5.4l67-26C80.3,17.3,83.2,19.5,82.2,24z"/></g></svg>