<svg id="error404" xmlns="http://www.w3.org/2000/svg" xmlns:xlink="http://www.w3.org/1999/xlink" viewBox="0 0 432 150"><defs><style>.error404-1{fill:url(#lg-error404)}.error404-2{fill:url(#lg-error404-2)}.error404-3{fill:url(#lg-error404-3)}.error404-4{fill:url(#lg-error404-4)}.error404-5{fill:url(#lg-error404-5)}.error404-6{fill:url(#lg-error404-6)}.error404-7{fill:url(#lg-error404-7)}.error404-8{fill:url(#lg-error404-8)}.error404-9{fill:url(#lg-error404-9)}.error404-10{fill:url(#lg-error404-10)}</style><linearGradient id="lg-error404" x1="140.5" y1="85.58" x2="18.79" y2="136.17" gradientUnits="userSpaceOnUse"><stop offset="0" stop-color="#308ea4" /><stop offset="0.34" stop-color="#2f8ca1" /><stop offset="0.54" stop-color="#2c8599" /><stop offset="0.71" stop-color="#26798b" /><stop offset="0.85" stop-color="#1e6777" /><stop offset="0.99" stop-color="#13515d" /><stop offset="1" stop-color="#124f5a" /></linearGradient><linearGradient id="lg-error404-2" x1="9.51" y1="137.68" x2="62.84" y2="12.11" gradientUnits="userSpaceOnUse"><stop offset="0" stop-color="#a3ca80" /><stop offset="0.19" stop-color="#9bc178" /><stop offset="0.51" stop-color="#85a962" /><stop offset="0.9" stop-color="#62813f" /><stop offset="1" stop-color="#587635" /></linearGradient><linearGradient id="lg-error404-3" x1="66.43" y1="0.96" x2="126.39" y2="147.62" gradientUnits="userSpaceOnUse"><stop offset="0" stop-color="#62c5e4" /><stop offset="0.2" stop-color="#5ec1e0" /><stop offset="0.41" stop-color="#52b6d3" /><stop offset="0.63" stop-color="#3fa3bf" /><stop offset="0.84" stop-color="#2389a2" /><stop offset="1" stop-color="#0b7188" /></linearGradient><linearGradient id="lg-error404-4" x1="275.95" y1="137.15" x2="155.1" y2="137.15" xlink:href="#lg-error404-3" /><linearGradient id="lg-error404-5" x1="263.7" y1="122.51" x2="263.7" y2="26.35" xlink:href="#lg-error404" /><linearGradient id="lg-error404-6" x1="150.5" y1="129.76" x2="199.33" y2="14.77" xlink:href="#lg-error404-2" /><linearGradient id="lg-error404-7" x1="165.03" y1="12.85" x2="273.89" y2="12.85" xlink:href="#lg-error404-3" /><linearGradient id="lg-error404-8" x1="426.5" y1="85.58" x2="304.79" y2="136.17" xlink:href="#lg-error404" /><linearGradient id="lg-error404-9" x1="295.51" y1="137.68" x2="348.84" y2="12.11" xlink:href="#lg-error404-2" /><linearGradient id="lg-error404-10" x1="352.43" y1="0.96" x2="412.39" y2="147.62" xlink:href="#lg-error404-3" /></defs><g><g><polygon class="error404-1" points="19.89 150 33.72 115.71 136.04 73.14 146 97.23 19.89 150" /><polygon class="error404-2" points="66.4 34.7 52.37 0 0 129.76 19.89 150 66.4 34.7" /><polygon class="error404-3" points="52.37 0 80.4 0 141.02 150 113 150 52.37 0" /></g><g><polygon class="error404-4" points="155.5 124.31 276.5 124.31 250.91 150 181.09 150 155.5 124.31" /><polygon class="error404-5" points="276.5 25.69 276.5 124.31 250.91 150 250.91 0 276.5 25.69" /><polygon class="error404-6" points="181.09 0 181.09 150 155.5 124.31 155.5 25.69 181.09 0" /><polygon class="error404-7" points="181.09 0 250.91 0 276.5 25.69 155.5 25.69 181.09 0" /></g><g><polygon class="error404-8" points="305.89 150 319.72 115.71 422.04 73.14 432 97.23 305.89 150" /><polygon class="error404-9" points="352.4 34.7 338.37 0 286 129.76 305.89 150 352.4 34.7" /><polygon class="error404-10" points="338.37 0 366.4 0 427.02 150 399 150 338.37 0" /></g></g></svg>