<svg xmlns="http://www.w3.org/2000/svg" xmlns:xlink="http://www.w3.org/1999/xlink" x="0px" y="0px" width="30px" height="30px" viewBox="0 0 30 30"><defs><style>.cls-1{fill:url(#linear-gradient)}.cls-2{fill:url(#linear-gradient-2)}.cls-3,.cls-4,.cls-5,.cls-6{fill:none;stroke-linecap:round;stroke-linejoin:round}.cls-3{stroke:url(#linear-gradient-3)}.cls-4{stroke:url(#linear-gradient-4)}.cls-5{stroke:url(#linear-gradient-5)}.cls-6{stroke:url(#linear-gradient-6)}</style><linearGradient id="linear-gradient" x1="4.39" y1="25.61" x2="25.61" y2="4.39" gradientUnits="userSpaceOnUse"><stop offset="0" stop-color="#62c5e5"/><stop offset="1" stop-color="#63c6e5"/></linearGradient><linearGradient id="linear-gradient-2" x1="6.38" y1="23.62" x2="23.62" y2="6.38" xlink:href="#linear-gradient"/><linearGradient id="linear-gradient-3" x1="9.58" y1="17.46" x2="15.5" y2="17.46" xlink:href="#linear-gradient"/><linearGradient id="linear-gradient-4" x1="14.5" y1="12.54" x2="20.42" y2="12.54" xlink:href="#linear-gradient"/><linearGradient id="linear-gradient-5" x1="8" y1="12.54" x2="17.08" y2="12.54" xlink:href="#linear-gradient"/><linearGradient id="linear-gradient-6" x1="12.92" y1="17.46" x2="22" y2="17.46" xlink:href="#linear-gradient"/></defs><title>adtech-providers</title><g><path class="cls-1" d="M15,1A14,14,0,1,1,1,15,14,14,0,0,1,15,1m0-1A15,15,0,1,0,30,15,15,15,0,0,0,15,0Z"/><path class="cls-2" d="M15,3.81A11.19,11.19,0,1,1,3.81,15,11.2,11.2,0,0,1,15,3.81m0-1A12.19,12.19,0,1,0,27.19,15,12.19,12.19,0,0,0,15,2.81Z"/><g><path class="cls-3" d="M15,18.25a1,1,0,0,1-1.57-.84,1,1,0,0,1,1-.93,1,1,0,0,1,.6.2V15H13.32a1,1,0,0,0-.84-1.57,1,1,0,0,0-.93,1,1,1,0,0,0,.2.6H10.08v1.68a1,1,0,0,1,.6-.2,1,1,0,0,1,0,2,1,1,0,0,1-.59-.2v1.18a.49.49,0,0,0,.49.49h1.18a1,1,0,0,0,.84,1.57,1,1,0,0,0,.94-1,1,1,0,0,0-.2-.6H15Z"/><path class="cls-4" d="M16.48,15.59A1,1,0,1,0,18.25,15h1.68V13.32a1,1,0,0,1-.6.2,1,1,0,0,1,0-2,1,1,0,0,1,.59.2V10.57a.49.49,0,0,0-.49-.49H18.25a1,1,0,0,0,.2-.6,1,1,0,0,0-2,0,1,1,0,0,0,.2.59H15v1.68a1,1,0,0,1,.6-.2,1,1,0,0,1,0,2,1,1,0,0,1-.59-.2V15h1.68A1,1,0,0,0,16.48,15.59Z"/><path class="cls-5" d="M15.59,13.52A1,1,0,1,0,15,11.75V10.08H13.32a1,1,0,0,1,.2.6.92.92,0,0,1,0,.15,1,1,0,0,1,0,.21l0,.06a1,1,0,0,1-.46.46l-.15,0a.93.93,0,0,1-.22.05,1,1,0,0,1-.86-.46,1,1,0,0,1-.17-.53,1,1,0,0,1,.2-.59H10.57a.49.49,0,0,0-.49.49v1.18a1,1,0,0,0-.6-.2,1,1,0,0,0,0,2,1,1,0,0,0,.59-.2V15h1.68a1,1,0,0,1-.2-.6,1,1,0,0,1,2,0,1,1,0,0,1-.2.59H15V13.32A1,1,0,0,0,15.59,13.52Z"/><path class="cls-6" d="M20.53,16.48a1,1,0,0,0-.6.2V15H18.25a1,1,0,0,1,.2.6,1,1,0,0,1-2,0,1,1,0,0,1,.2-.59H15v1.68a1,1,0,0,0-.6-.2,1,1,0,0,0,0,2,1,1,0,0,0,.59-.2v1.68h1.68a1,1,0,0,1-.2-.6s0-.05,0-.08a1,1,0,0,1,.26-.59,1,1,0,0,1,.23-.17l.06,0a1,1,0,0,1,.2-.05.92.92,0,0,1,.16,0,.94.94,0,0,1,.22,0,1,1,0,0,1,.18,0,1,1,0,0,1,.13.08,1,1,0,0,1,.5.84,1,1,0,0,1-.2.59h1.18a.49.49,0,0,0,.49-.49V18.25a1,1,0,0,0,1.57-.84A1,1,0,0,0,20.53,16.48Z"/></g></g></svg>