<svg xmlns="http://www.w3.org/2000/svg" xmlns:xlink="http://www.w3.org/1999/xlink" x="0px" y="0px" width="30px" height="30px" viewBox="0 0 30 30"><defs><style>.cls-1{fill:url(#linear-gradient)}.cls-2{fill:url(#linear-gradient-2)}.cls-3{fill:#fff}.cls-4{fill:url(#linear-gradient-3)}.cls-5{fill:url(#linear-gradient-4)}.cls-6{fill:url(#linear-gradient-5)}.cls-7{fill:url(#linear-gradient-6)}.cls-8{fill:url(#linear-gradient-7)}</style><linearGradient id="linear-gradient" x1="4.39" y1="25.61" x2="25.61" y2="4.39" gradientUnits="userSpaceOnUse"><stop offset="0" stop-color="#62c5e5"/><stop offset="1" stop-color="#63c6e5"/></linearGradient><linearGradient id="linear-gradient-2" x1="6.38" y1="23.62" x2="23.62" y2="6.38" xlink:href="#linear-gradient"/><linearGradient id="linear-gradient-3" x1="20.68" y1="15.67" x2="22.48" y2="13.87" xlink:href="#linear-gradient"/><linearGradient id="linear-gradient-4" x1="12.15" y1="19.64" x2="21.9" y2="9.89" xlink:href="#linear-gradient"/><linearGradient id="linear-gradient-5" x1="7.49" y1="15.99" x2="9.93" y2="13.55" xlink:href="#linear-gradient"/><linearGradient id="linear-gradient-6" x1="17.73" y1="18.13" x2="24.44" y2="11.41" xlink:href="#linear-gradient"/><linearGradient id="linear-gradient-7" x1="8.41" y1="18.85" x2="14.11" y2="13.14" xlink:href="#linear-gradient"/></defs><g><g><path class="cls-1" d="M15,1A14,14,0,1,1,1,15,14,14,0,0,1,15,1m0-1A15,15,0,1,0,30,15,15,15,0,0,0,15,0Z"/><path class="cls-2" d="M15,3.81A11.19,11.19,0,1,1,3.81,15,11.2,11.2,0,0,1,15,3.81m0-1A12.19,12.19,0,1,0,27.19,15,12.19,12.19,0,0,0,15,2.81Z"/></g><g id="_Group_" data-name="&lt;Group&gt;"><g id="_Group_2" data-name="&lt;Group&gt;"><ellipse class="cls-3" cx="21.58" cy="14.77" rx="1.17" ry="1.36"/><path class="cls-4" d="M21.58,14.41s.17.12.17.36-.14.36-.17.36-.17-.12-.17-.36.14-.36.17-.36m0-1a1.28,1.28,0,0,0-1.17,1.36,1.18,1.18,0,1,0,2.34,0,1.28,1.28,0,0,0-1.17-1.36Z"/></g><g id="_Group_3" data-name="&lt;Group&gt;"><polygon class="cls-3" points="20.8 14.77 20.8 20.75 13.98 17.76 7.28 14.77 13.98 11.78 20.8 8.79 20.8 14.77"/><path class="cls-5" d="M19.8,10.32v8.9l-5.41-2.37L9.73,14.77l4.65-2.07,5.42-2.37m1-1.53-6.82,3-6.7,3,6.7,3,6.82,3v-12Z"/></g><g id="_Group_4" data-name="&lt;Group&gt;"><ellipse class="cls-3" cx="8.71" cy="14.77" rx="1.46" ry="1.95"/><path class="cls-6" d="M8.71,13.82c.16,0,.46.37.46.95s-.3.95-.46.95-.46-.37-.46-.95.3-.95.46-.95m0-1c-.81,0-1.46.87-1.46,1.95s.65,1.95,1.46,1.95,1.46-.87,1.46-1.95-.65-1.95-1.46-1.95Z"/></g><g id="_Rectangle_" data-name="&lt;Rectangle&gt;"><rect class="cls-3" x="20.59" y="8.44" width="0.99" height="12.66" rx="0.19" ry="0.19"/><path class="cls-7" d="M21.39,8.44h-.61a.19.19,0,0,0-.19.19V20.91a.19.19,0,0,0,.19.19h.61a.19.19,0,0,0,.19-.19V8.63a.19.19,0,0,0-.19-.19Z"/></g><g id="_Group_5" data-name="&lt;Group&gt;"><path class="cls-3" d="M12.61,11.8H9.69a1,1,0,0,0-1,1v3.9a1,1,0,0,0,1,1h.25a7.57,7.57,0,0,0,.61,3.14l0,0c.09.21.34.75.88.75a1,1,0,0,0,.78-.36.66.66,0,0,0,.12-.59c0-.16-.1-.33-.15-.5a7.21,7.21,0,0,1-.43-2.47h.84a.39.39,0,0,0,.39-.39V12.19A.39.39,0,0,0,12.61,11.8Z"/><path class="cls-8" d="M12,12.8v3.84H9.94l-.22,0,0-3.87H12m.61-1H9.69a1,1,0,0,0-1,1v3.9a1,1,0,0,0,1,1h.25a7.57,7.57,0,0,0,.61,3.14l0,0c.09.21.34.75.88.75a1,1,0,0,0,.78-.36.66.66,0,0,0,.12-.59c0-.16-.1-.33-.15-.5a7.21,7.21,0,0,1-.43-2.47h.84a.39.39,0,0,0,.39-.39V12.19a.39.39,0,0,0-.39-.39Z"/></g></g></g></svg>