<svg id="Layer_1" data-name="Layer 1" xmlns="http://www.w3.org/2000/svg" xmlns:xlink="http://www.w3.org/1999/xlink" x="0px" y="0px" width="30px" height="30px" viewBox="0 0 30 30">
  <defs>
    <style>
      .cls-1 {
        fill: url(#linear-gradient);
      }

      .cls-2 {
        fill: url(#linear-gradient-2);
      }

      .cls-3 {
        fill: url(#linear-gradient-3);
      }

      .cls-4 {
        fill: url(#linear-gradient-4);
      }

      .cls-5 {
        fill: url(#linear-gradient-5);
      }

      .cls-6 {
        fill: url(#linear-gradient-6);
      }

      .cls-7 {
        fill: #fff;
      }

      .cls-8 {
        fill: url(#linear-gradient-7);
      }

      .cls-9 {
        fill: url(#linear-gradient-8);
      }

      .cls-10 {
        fill: none;
        stroke-miterlimit: 10;
        stroke: url(#linear-gradient-9);
      }
    </style>
    <linearGradient id="linear-gradient" x1="4.39" y1="25.61" x2="25.61" y2="4.39" gradientUnits="userSpaceOnUse">
      <stop offset="0" stop-color="#62c5e5"/>
      <stop offset="1" stop-color="#63c6e5"/>
    </linearGradient>
    <linearGradient id="linear-gradient-2" x1="5.81" y1="24.19" x2="24.19" y2="5.81" xlink:href="#linear-gradient"/>
    <linearGradient id="linear-gradient-3" x1="7" y1="22.99" x2="10.12" y2="19.87" xlink:href="#linear-gradient"/>
    <linearGradient id="linear-gradient-4" x1="8.96" y1="17.54" x2="12.64" y2="13.85" xlink:href="#linear-gradient"/>
    <linearGradient id="linear-gradient-5" x1="10.34" y1="19.65" x2="11.05" y2="18.94" xlink:href="#linear-gradient"/>
    <linearGradient id="linear-gradient-6" x1="12.44" y1="21.02" x2="16.13" y2="17.33" xlink:href="#linear-gradient"/>
    <linearGradient id="linear-gradient-7" x1="10.62" y1="19.38" x2="22.92" y2="7.07" xlink:href="#linear-gradient"/>
    <linearGradient id="linear-gradient-8" x1="17.94" y1="12.05" x2="20.2" y2="9.8" xlink:href="#linear-gradient"/>
    <linearGradient id="linear-gradient-9" x1="14.56" y1="15.43" x2="16.16" y2="13.83" xlink:href="#linear-gradient"/>
  </defs>
  <title>blockchain-startups</title>
  <g>
    <path class="cls-1" d="M15,1A14,14,0,1,1,1,15,14,14,0,0,1,15,1m0-1A15,15,0,1,0,30,15,15,15,0,0,0,15,0Z"/>
    <path class="cls-2" d="M15,3A12,12,0,1,1,3,15,12,12,0,0,1,15,3m0-1A13,13,0,1,0,28,15,13,13,0,0,0,15,2Z"/>
    <path class="cls-3" d="M9.09,20.44a.46.46,0,0,1,.32.78,2.93,2.93,0,0,1-1.17.52,3,3,0,0,1,.52-1.17.46.46,0,0,1,.32-.13m0-1a1.45,1.45,0,0,0-1,.43C7.23,20.7,7,23,7,23s2.29-.23,3.12-1.06a1.46,1.46,0,0,0-1-2.49Z"/>
    <path class="cls-4" d="M10.44,14.86l1.76.62-1,1L9.4,15.9l1-1m-.21-1.12a.2.2,0,0,0-.14.06l-2.3,2.3a.2.2,0,0,0,.07.32l3.44,1.22h.07a.2.2,0,0,0,.14-.06l2.3-2.3a.2.2,0,0,0-.07-.32l-3.44-1.22Z"/>
    <path class="cls-5" d="M10,18.09a.47.47,0,0,0-.34.14l0,0a.48.48,0,0,0,0,.68l1.42,1.42a.48.48,0,0,0,.68,0l0,0a.48.48,0,0,0,0-.68l-1.42-1.42a.47.47,0,0,0-.34-.14Z"/>
    <path class="cls-6" d="M14.49,17.77l.62,1.76-1,1-.62-1.76,1-1m.33-1.67a.19.19,0,0,0-.14.06l-2.3,2.3a.2.2,0,0,0,0,.2l1.22,3.44a.2.2,0,0,0,.32.07l2.3-2.3a.2.2,0,0,0,0-.2L15,16.24a.19.19,0,0,0-.18-.13Z"/>
    <g>
      <path class="cls-7" d="M11.88,20.47a.43.43,0,0,1-.3-.12L9.66,18.42a.43.43,0,0,1,0-.59c.11-.17,1.79-2.68,3.73-5a19,19,0,0,1,4.25-4.18A21.48,21.48,0,0,1,22.7,7,.25.25,0,0,1,23,7.3h0a19.29,19.29,0,0,1-1.63,5.07,19.75,19.75,0,0,1-4.17,4.22c-2.34,1.94-4.85,3.64-5,3.75A.43.43,0,0,1,11.88,20.47Z"/>
      <path class="cls-8" d="M21.77,8.24a15.66,15.66,0,0,1-1.27,3.63c-.34.59-1.3,1.75-3.94,4-1.85,1.54-3.83,2.93-4.61,3.47l-1.24-1.24c.53-.77,1.91-2.75,3.44-4.6,2.2-2.66,3.37-3.61,4-3.94a16.48,16.48,0,0,1,3.65-1.27m1-1.24h0a21.48,21.48,0,0,0-5.07,1.63,19,19,0,0,0-4.25,4.18c-1.93,2.33-3.61,4.84-3.73,5a.43.43,0,0,0,0,.59l1.92,1.92a.43.43,0,0,0,.59,0c.17-.11,2.68-1.81,5-3.75a19.75,19.75,0,0,0,4.17-4.22A19.29,19.29,0,0,0,23,7.3a.25.25,0,0,0-.25-.3Z"/>
    </g>
    <path class="cls-9" d="M19.07,10.33a.58.58,0,0,1,.42.17.6.6,0,0,1,0,.84.6.6,0,0,1-.84,0,.6.6,0,0,1,0-.84.58.58,0,0,1,.42-.17m0-1a1.6,1.6,0,1,0,1.13.47,1.58,1.58,0,0,0-1.13-.47Z"/>
    <path class="cls-10" d="M14,13l-.37.45a5,5,0,0,1,3,3L17,16A5.28,5.28,0,0,0,14,13Z"/>
  </g>
</svg>
