<svg xmlns="http://www.w3.org/2000/svg" xmlns:xlink="http://www.w3.org/1999/xlink" x="0px" y="0px" width="30px" height="30px" viewBox="0 0 30 30"><defs><style>.cls-1{fill:url(#linear-gradient)}.cls-2{fill:url(#linear-gradient-2)}.cls-3,.cls-6{fill:#fff}.cls-4{fill:url(#linear-gradient-3)}.cls-5{fill:url(#linear-gradient-4)}.cls-6{stroke-miterlimit:10;stroke:url(#linear-gradient-5)}.cls-7{fill:url(#linear-gradient-6)}.cls-8{fill:url(#linear-gradient-7)}</style><linearGradient id="linear-gradient" x1="4.39" y1="25.61" x2="25.61" y2="4.39" gradientUnits="userSpaceOnUse"><stop offset="0" stop-color="#62c5e5"/><stop offset="1" stop-color="#63c6e5"/></linearGradient><linearGradient id="linear-gradient-2" x1="6.38" y1="23.62" x2="23.62" y2="6.38" xlink:href="#linear-gradient"/><linearGradient id="linear-gradient-3" x1="10.1" y1="18.72" x2="19.9" y2="8.91" xlink:href="#linear-gradient"/><linearGradient id="linear-gradient-4" x1="11.17" y1="21.89" x2="18.83" y2="14.23" xlink:href="#linear-gradient"/><linearGradient id="linear-gradient-5" x1="9.82" y1="18.95" x2="20.18" y2="8.59" xlink:href="#linear-gradient"/><linearGradient id="linear-gradient-6" x1="13.86" y1="19.06" x2="19.76" y2="13.16" xlink:href="#linear-gradient"/><linearGradient id="linear-gradient-7" x1="10.28" y1="19.06" x2="13.71" y2="15.64" xlink:href="#linear-gradient"/></defs><g><g><path class="cls-1" d="M15,1A14,14,0,1,1,1,15,14,14,0,0,1,15,1m0-1A15,15,0,1,0,30,15,15,15,0,0,0,15,0Z"/><path class="cls-2" d="M15,3.81A11.19,11.19,0,1,1,3.81,15,11.2,11.2,0,0,1,15,3.81m0-1A12.19,12.19,0,1,0,27.19,15,12.19,12.19,0,0,0,15,2.81Z"/></g><g><g id="_Rectangle_" data-name="&lt;Rectangle&gt;"><rect class="cls-3" x="8.51" y="10.17" width="12.97" height="7.3" rx="0.56" ry="0.56"/><path class="cls-4" d="M20.49,11.17v5.3h-11v-5.3h11m.44-1H9.08a.56.56,0,0,0-.56.56V16.9a.56.56,0,0,0,.56.56H20.92a.56.56,0,0,0,.56-.56V10.73a.56.56,0,0,0-.56-.56Z"/></g><g id="_Group_" data-name="&lt;Group&gt;"><path class="cls-3" d="M22.5,17.9H7.5s0,.16.2.49a2.28,2.28,0,0,0,.51.51H21.78a2.28,2.28,0,0,0,.51-.51C22.53,18.06,22.5,17.9,22.5,17.9Z"/><path class="cls-5" d="M22.5,17.9H7.5s0,.16.2.49a2.28,2.28,0,0,0,.51.51H21.78a2.28,2.28,0,0,0,.51-.51c.23-.33.2-.49.2-.49Z"/></g><rect class="cls-6" x="8.88" y="10.54" width="12.24" height="6.47"/><g id="_Rectangle_2" data-name="&lt;Rectangle&gt;"><rect class="cls-3" x="14.3" y="12.38" width="5.02" height="7.45" rx="0.56" ry="0.56"/><path class="cls-7" d="M18.32,13.38v5.45h-3V13.38h3m.44-1H14.86a.56.56,0,0,0-.56.56v6.32a.56.56,0,0,0,.56.56h3.89a.56.56,0,0,0,.56-.56V12.95a.56.56,0,0,0-.56-.56Z"/></g><g id="_Rectangle_3" data-name="&lt;Rectangle&gt;"><rect class="cls-3" x="10.72" y="14.87" width="2.55" height="4.97" rx="0.56" ry="0.56"/><path class="cls-8" d="M12.27,15.87v3h-.55v-3h.55m.44-1H11.29a.56.56,0,0,0-.56.56v3.84a.56.56,0,0,0,.56.56h1.42a.56.56,0,0,0,.56-.56V15.43a.56.56,0,0,0-.56-.56Z"/></g></g></g></svg>