<svg xmlns="http://www.w3.org/2000/svg" xmlns:xlink="http://www.w3.org/1999/xlink" x="0px" y="0px" width="30px" height="30px" viewBox="0 0 30 30"><defs><style>.cls-1{fill:url(#linear-gradient)}.cls-2{fill:url(#linear-gradient-2)}.cls-3{fill:url(#linear-gradient-3)}.cls-4{fill:url(#linear-gradient-4)}.cls-5{fill:url(#linear-gradient-5)}</style><linearGradient id="linear-gradient" x1="4.39" y1="25.61" x2="25.61" y2="4.39" gradientUnits="userSpaceOnUse"><stop offset="0" stop-color="#62c5e5"/><stop offset="1" stop-color="#63c6e5"/></linearGradient><linearGradient id="linear-gradient-2" x1="6.38" y1="23.62" x2="23.62" y2="6.38" xlink:href="#linear-gradient"/><linearGradient id="linear-gradient-3" x1="11.11" y1="19.36" x2="18.89" y2="11.58" xlink:href="#linear-gradient"/><linearGradient id="linear-gradient-4" x1="10.73" y1="18.88" x2="18.46" y2="11.15" xlink:href="#linear-gradient"/><linearGradient id="linear-gradient-5" x1="14.42" y1="18.81" x2="15.59" y2="17.63" xlink:href="#linear-gradient"/></defs><g><g><path class="cls-1" d="M15,1A14,14,0,1,1,1,15,14,14,0,0,1,15,1m0-1A15,15,0,1,0,30,15,15,15,0,0,0,15,0Z"/><path class="cls-2" d="M15,3.81A11.19,11.19,0,1,1,3.81,15,11.2,11.2,0,0,1,15,3.81m0-1A12.19,12.19,0,1,0,27.19,15,12.19,12.19,0,0,0,15,2.81Z"/></g><g id="_Group_" data-name="&lt;Group&gt;"><path class="cls-3" d="M15,10.56A3.36,3.36,0,0,1,17.8,12a4.29,4.29,0,0,1,.6,2.6c0,.1,0,.2,0,.29v0h0v.87l-.27.85a6.9,6.9,0,0,1-.54,1.23,2.67,2.67,0,0,1-1.32,1l-.56.27v1.36H14.31V19.2l-.56-.27a2.67,2.67,0,0,1-1.32-1,6.88,6.88,0,0,1-.54-1.23l-.27-.85v-.94c0-.09,0-.18,0-.28a4.29,4.29,0,0,1,.6-2.6A3.37,3.37,0,0,1,15,10.56h0m0-1h0a4.38,4.38,0,0,0-3.63,1.88,5.59,5.59,0,0,0-.76,3.42s0,0,0,.07l-.23,0c-.3,0-.62.1-.33.6.4.68.08,1.52.55,1.52a.92.92,0,0,0,.34-.09,7.89,7.89,0,0,0,.61,1.41,3.63,3.63,0,0,0,1.76,1.46v1.74h3.39V19.82a3.64,3.64,0,0,0,1.76-1.46A7.91,7.91,0,0,0,19.07,17a.92.92,0,0,0,.34.09c.46,0,.14-.84.55-1.52.3-.5,0-.6-.33-.6l-.23,0s0,0,0-.07a5.58,5.58,0,0,0-.76-3.42A4.38,4.38,0,0,0,15,9.56Z"/><path class="cls-4" d="M12.94,9.44a.52.52,0,0,1,.35.12l.16.72v.1l-.1,2.06a1.87,1.87,0,0,1-1.75,1.5,3.73,3.73,0,0,1,.6-2,2.82,2.82,0,0,1,.3-.38l.75-.81-.88-.67a.25.25,0,0,1-.1-.13.31.31,0,0,1,.05-.25.69.69,0,0,1,.39-.27l.21,0h0M15,10.56A3.36,3.36,0,0,1,17.8,12a3.62,3.62,0,0,1,.58,1.71,3.1,3.1,0,0,1-2.51-1.51L15,10.56h0M12.94,8.44a1.77,1.77,0,0,0-.48.07,1.48,1.48,0,0,0-1.13,1.76,1.25,1.25,0,0,0,.45.66,3.83,3.83,0,0,0-.41.52,4.88,4.88,0,0,0-.77,2.73A4.2,4.2,0,0,0,10.85,17a5.89,5.89,0,0,1,.7,2.7,5.78,5.78,0,0,0-.25-3A4.31,4.31,0,0,1,11.06,15h.1a3,3,0,0,0,3.2-2.49,4.35,4.35,0,0,0,2,2.75A6,6,0,0,1,15,12.67a4.12,4.12,0,0,0,3.51,2,3.77,3.77,0,0,1,.36,1.61c0,1.49.25,2.07,1,2.44a2.7,2.7,0,0,1-.5-2.42,4.4,4.4,0,0,0,.07-1.92,5.06,5.06,0,0,0-.77-3A4.38,4.38,0,0,0,15,9.56h-.15l-.47,0a1.22,1.22,0,0,0,0-.2,1.41,1.41,0,0,0-1.4-1Z"/><path class="cls-5" d="M15.27,18a.35.35,0,0,0-.18.06.2.2,0,0,1-.09,0,.2.2,0,0,1-.09,0,.35.35,0,0,0-.18-.06c-.12,0-.78.17-.86.19a0,0,0,0,0,0,.08,2.66,2.66,0,0,0,1.13.27h0a2.67,2.67,0,0,0,1.13-.27,0,0,0,0,0,0-.08c-.07,0-.73-.19-.86-.19Z"/></g></g></svg>