<svg id="benefits-adhash-bidder" xmlns="http://www.w3.org/2000/svg" x="0px" y="0px" viewBox="0 0 100 100" style="enable-background:new 0 0 100 100;" xml:space="preserve"><style type="text/css">.benefits-adhash-bidder-0{fill:none}.benefits-adhash-bidder-1{fill:#63C6E5}.benefits-adhash-bidder-2{fill:#585B61}.benefits-adhash-bidder-3{fill:none;stroke:#585B61;stroke-miterlimit:10}</style><g><rect class="benefits-adhash-bidder-0" width="100" height="100" /><g><path class="benefits-adhash-bidder-1" d="M48.8,7.5c5.4,2.5,13.8,11.6,16.7,16.7c2.3,3.9-0.4,6-4.8,4.8L44,12.3C43.3,8.4,45.3,5.9,48.8,7.5z" /><path class="benefits-adhash-bidder-1" d="M23.3,33l16.7,16.7c1.2,4.4-0.7,6.9-4.8,4.8C30,51.8,21.3,43,18.6,37.8C16.8,34.3,19.5,32.3,23.3,33z" /><g><path class="benefits-adhash-bidder-2" d="M61.6,73c0.1,0,0.2,0,0.2,0.1V81h7c0.5,0,1,0.3,1,0.8c0,0,0,0,0,0V91h-58v-9.2c0-0.5,0.5-0.9,1-0.8 c0,0,0,0,0,0h7v-7.9c0.1,0,0.1-0.1,0.2-0.1H61.6 M61.6,71H20c-1.2-0.1-2.1,0.8-2.2,2v6h-5c-1.6-0.1-2.9,1.2-3,2.8c0,0,0,0,0,0V93 h62V81.8c0-1.6-1.4-2.9-3-2.8c0,0,0,0,0,0h-5v-6C63.7,71.8,62.7,70.9,61.6,71L61.6,71z" /><line class="benefits-adhash-bidder-3" x1="19.8" y1="80.5" x2="61.8" y2="80.5" /></g><path class="benefits-adhash-bidder-1" d="M89.7,71.5C85.3,65,72.3,53.2,63.3,45.3c-0.1,0.1-0.2,0.2-0.3,0.4L56.6,52c-0.1,0.1-0.1,0.1-0.2,0.2 c8.1,9.2,20.1,22.5,26.2,26.5C85.9,80.9,91.8,74.6,89.7,71.5z" /><path class="benefits-adhash-bidder-1" d="M54.3,37.6c2-2.6,3.7-5.4,4.9-8.4L43.9,13.9C35.7,18,29,24.6,24.9,32.8l15.3,15.3c3-1.3,5.8-2.9,8.4-4.9 c0.7,0.8,2.3,2.7,4.5,5.2l6.3-6.3l0.1-0.1C57,39.8,55,38.2,54.3,37.6z" /><path class="benefits-adhash-bidder-1" d="M53.8,49.2c-0.6,0.6-0.6,1.5,0,2.1c0.6,0.6,1.5,0.6,2.1,0l6.4-6.3c0.6-0.6,0.6-1.5,0-2.1 c-0.3-0.3-0.7-0.4-1.1-0.4c-0.4,0-0.8,0.2-1.1,0.4L53.8,49.2z" /></g></g></svg>