<svg id="benefits-blockchain-transactions" xmlns="http://www.w3.org/2000/svg" x="0px" y="0px" viewBox="0 0 100 100" style="enable-background:new 0 0 100 100;" xml:space="preserve"><style type="text/css">.benefits-blockchain-transactions-0{fill:none}.benefits-blockchain-transactions-1{fill:none;stroke:#585B61;stroke-linecap:round;stroke-linejoin:round;enable-background:new}.benefits-blockchain-transactions-2{fill:#62c5e5}.benefits-blockchain-transactions-3{fill:none;stroke:#FFF;stroke-linecap:round;stroke-linejoin:round}.benefits-blockchain-transactions-4{fill:none;stroke:#585B61;stroke-linecap:round;stroke-linejoin:round}.benefits-blockchain-transactions-5{fill:#585B61}</style><g><rect class="benefits-blockchain-transactions-0" width="100" height="100" /><g><path class="benefits-blockchain-transactions-1" d="M33.5,20h-8.8c-2.8,0-5,2.2-5,5v33.4" /><path class="benefits-blockchain-transactions-1" d="M67,20h8.3c2.8,0,5,2.2,5,5v33.1" /><g><path class="benefits-blockchain-transactions-2" d="M66.5,69.8v12.9c0,0.9,0.5,1.7,1.3,2.2L79,91.4c0.8,0.4,1.7,0.4,2.5,0l11.3-6.5c0.8-0.4,1.2-1.3,1.3-2.2 V69.8c0-0.9-0.5-1.8-1.4-2.2l-11.3-5.8c-0.7-0.4-1.6-0.4-2.3,0l-11.3,5.8C67,68,66.5,68.9,66.5,69.8z" /><line class="benefits-blockchain-transactions-3" x1="80.2" y1="91.3" x2="80.2" y2="75.5" /><line class="benefits-blockchain-transactions-3" x1="80.2" y1="75.4" x2="66.9" y2="68.3" /><line class="benefits-blockchain-transactions-3" x1="94" y1="68.2" x2="80.2" y2="75.4" /></g><g><path class="benefits-blockchain-transactions-2" d="M6,70.1V83c0,0.9,0.5,1.7,1.3,2.2l11.3,6.5c0.8,0.4,1.7,0.4,2.5,0l11.3-6.5c0.8-0.4,1.3-1.3,1.3-2.2V70.1 c0-0.9-0.5-1.8-1.4-2.2l-11.3-5.8c-0.7-0.4-1.6-0.4-2.3,0L7.4,67.8C6.5,68.3,6,69.1,6,70.1z" /><line class="benefits-blockchain-transactions-3" x1="19.7" y1="91.5" x2="19.7" y2="75.7" /><line class="benefits-blockchain-transactions-3" x1="19.7" y1="75.7" x2="6.4" y2="68.5" /><line class="benefits-blockchain-transactions-3" x1="33.5" y1="68.4" x2="19.7" y2="75.7" /></g><g><line class="benefits-blockchain-transactions-4" x1="50.2" y1="36.7" x2="50.2" y2="22" /><line class="benefits-blockchain-transactions-4" x1="50.2" y1="21.9" x2="38" y2="15.4" /><line class="benefits-blockchain-transactions-4" x1="62.3" y1="15.6" x2="50.2" y2="21.9" /><path class="benefits-blockchain-transactions-5" d="M50.3,10c0.1,0,0.2,0,0.2,0.1l11.3,5.8c0.2,0.1,0.3,0.3,0.3,0.4v12.9c0,0.2-0.1,0.3-0.3,0.4l-11.3,6.5 c-0.2,0.1-0.3,0.1-0.5,0l-11.3-6.5c-0.2-0.1-0.2-0.3-0.3-0.4V16.3c0-0.2,0.1-0.4,0.3-0.4L50,10.1C50.1,10.1,50.2,10,50.3,10 M50.2,8.1c-0.4,0-0.8,0.1-1.1,0.3l-11.2,5.8c-0.8,0.4-1.4,1.3-1.4,2.2v12.9c0,0.9,0.5,1.7,1.3,2.2L49,37.9 c0.8,0.4,1.7,0.4,2.5,0l11.3-6.5c0.8-0.4,1.2-1.3,1.3-2.2V16.3c0-0.9-0.5-1.8-1.4-2.2L51.4,8.3C51,8.1,50.7,8,50.2,8.1L50.2,8.1z " /></g><line class="benefits-blockchain-transactions-1" x1="36.5" y1="76.3" x2="63.5" y2="76.3" /></g></g></svg>