<svg id="benefits-custom-communication-protocol" xmlns="http://www.w3.org/2000/svg" x="0px" y="0px" viewBox="0 0 100 100" style="enable-background:new 0 0 100 100;" xml:space="preserve"><style type="text/css">.benefits-custom-communication-protocol-0{fill:none}.benefits-custom-communication-protocol-1{fill:none;stroke:#585B61;stroke-linecap:round;stroke-linejoin:round}.benefits-custom-communication-protocol-2{fill:#63C6E5}</style><g><rect class="benefits-custom-communication-protocol-0" width="100" height="100" /><g><g><polyline id="arrow_blocklists_blockchain" class="benefits-custom-communication-protocol-1" points="40,24.5 41.1,25.2 40,23.5 38.9,25.2 40,24.5 40,33.5 			" /><polyline id="arrow_appeals_deposits_publ" class="benefits-custom-communication-protocol-1" points="74.4,53 75.2,51.9 73.5,53 75.2,54.1 74.4,53 74.4,53 82.3,53 " /><polyline id="arrow_appeals_deposits_adv" class="benefits-custom-communication-protocol-1" points="57.8,53 57,54.1 58.8,53 57,51.9 57.8,53 57.8,53 18.7,53 			" /><path id="arrow_creative_hashes" class="benefits-custom-communication-protocol-1" d="M20.1,18l-0.7,1.1l1.7-1.1l-1.7-1.1L20.1,18h-8.5c-1.3,0-3.3,1-3.3,2.3v26.2" /><path id="arrow_creative_hashes-2" class="benefits-custom-communication-protocol-1" d="M66,46.5V20.3c0-1.2-1-2.2-2.2-2.3H61l0.7-1.1L60,18l1.7,1.1L61,18" /><path id="arrow_off_chain_ver_publ" class="benefits-custom-communication-protocol-1" d="M89.5,46.5v-4.7c0-1.3-1-2.3-2.3-2.3c0,0,0,0,0,0H47.5l0.7,1.1l-1.7-1.1 l1.7-1.1l-0.7,1.1" /><path id="arrow_off_chain_ver_adv" class="benefits-custom-communication-protocol-1" d="M32.5,39.5l-0.7,1.1l1.7-1.1l-1.7-1.1L32.5,39.5H15.7c-1.3,0-2.3,1-2.3,2.3 l0,0v4.7" /><path id="arrow_individual_OCT_publ" class="benefits-custom-communication-protocol-1" d="M56.3,81.9l0.7-1.1l-1.7,1.1L57,83L56.3,81.9l33,0c1.3,0,2.3-1,2.3-2.3V60.2 l0,0l-1.1,0.7l1.1-1.7l1.1,1.7l-1.1-0.7" /><path id="arrow_individual_OCT_adv" class="benefits-custom-communication-protocol-1" d="M8.4,60.2l1.1,0.7l-1.1-1.7l-1.1,1.7L8.4,60.2L8.4,60.2v19.4 c0,1.3,1,2.3,2.3,2.3h13.7l-0.7-1.1l1.7,1.1L23.6,83l0.7-1.1" /><path id="arrow_6_encrypted_creatives" class="benefits-custom-communication-protocol-1" d="M13.4,59.1v5.8c0,1.3,1,2.3,2.3,2.3h16.8L31.8,66l1.7,1.1l-1.7,1.1 l0.7-1.1" /><path id="arrow_2_content_ad_placement" class="benefits-custom-communication-protocol-1" d="M48.1,67.2l0.7-1.2l-1.7,1.1l1.7,1.1L48.1,67.2l36.1-0.1 c1.3,0,2.3-1,2.3-2.3v-5.7" /><polyline id="arrow_blacklists" class="benefits-custom-communication-protocol-1" points="40.3,47.5 41.4,48.2 40.3,46.5 39.2,48.2 40.3,47.5 40.3,60.5 			" /></g><g id="outline_OCT"><path class="benefits-custom-communication-protocol-2" d="M30.3,78h20c1.8,0,3.3,1.5,3.3,3.3v0.4c0,1.8-1.5,3.3-3.3,3.3h-20c-1.8,0-3.3-1.5-3.3-3.3v-0.4 C27,79.5,28.5,78,30.3,78z" /></g><g id="outline_blockchain"><path class="benefits-custom-communication-protocol-2" d="M25.8,15h29.3c1.6,0,2.8,1.3,2.8,2.8v0.3c0,1.6-1.3,2.8-2.8,2.8H25.8c-1.6,0-2.8-1.3-2.8-2.8v-0.3 C23,16.3,24.3,15,25.8,15z" /></g><path class="benefits-custom-communication-protocol-2" d="M40,36c2.2,0,4,1.8,4,4s-1.8,4-4,4s-4-1.8-4-4S37.8,36,40,36 M40,35c-2.8,0-5,2.2-5,5s2.2,5,5,5s5-2.2,5-5 S42.8,35,40,35z" /><circle class="benefits-custom-communication-protocol-2" cx="40" cy="40" r="3" /><path class="benefits-custom-communication-protocol-2" d="M66,49c2.2,0,4,1.8,4,4s-1.8,4-4,4c-2.2,0-4-1.8-4-4S63.8,49,66,49 M66,48c-2.8,0-5,2.2-5,5s2.2,5,5,5 c2.8,0,5-2.2,5-5S68.8,48,66,48z" /><path class="benefits-custom-communication-protocol-2" d="M11,49c2.2,0,4,1.8,4,4s-1.8,4-4,4s-4-1.8-4-4S8.8,49,11,49 M11,48c-2.8,0-5,2.2-5,5s2.2,5,5,5s5-2.2,5-5 S13.8,48,11,48z" /><path class="benefits-custom-communication-protocol-2" d="M89,49c2.2,0,4,1.8,4,4s-1.8,4-4,4s-4-1.8-4-4S86.8,49,89,49 M89,48c-2.8,0-5,2.2-5,5s2.2,5,5,5s5-2.2,5-5 S91.8,48,89,48z" /><circle class="benefits-custom-communication-protocol-2" cx="66" cy="53" r="3" /><circle class="benefits-custom-communication-protocol-2" cx="11" cy="53" r="3" /><circle class="benefits-custom-communication-protocol-2" cx="89" cy="53" r="3" /><path class="benefits-custom-communication-protocol-2" d="M40.3,63.2c2.2,0,4,1.8,4,4s-1.8,4-4,4s-4-1.8-4-4S38.1,63.2,40.3,63.2 M40.3,62.2c-2.8,0-5,2.2-5,5 s2.2,5,5,5s5-2.2,5-5S43.1,62.2,40.3,62.2z" /><circle class="benefits-custom-communication-protocol-2" cx="40.3" cy="67.2" r="3" /></g></g></svg>