<svg id="benefits-native-cryptocurrency" xmlns="http://www.w3.org/2000/svg" viewBox="0 0 100 100"><style type="text/css">.benefits-native-cryptocurrency1,.benefits-native-cryptocurrency3{fill:none}.benefits-native-cryptocurrency2{fill:#63c6e5}.benefits-native-cryptocurrency3{stroke:#585b61;stroke-miterlimit:10}.benefits-native-cryptocurrency4{fill:#585b61}</style><g><rect class="benefits-native-cryptocurrency1" width="100" height="100" /><g><path class="benefits-native-cryptocurrency2" d="M50,11A39,39,0,1,1,11,50,39,39,0,0,1,50,11m0-6A45,45,0,1,0,95,50,45,45,0,0,0,50,5Z" /><g><line class="benefits-native-cryptocurrency3" x1="20" y1="65" x2="37.75" y2="65" /><line class="benefits-native-cryptocurrency3" x1="20" y1="35" x2="34.25" y2="35" /><polyline class="benefits-native-cryptocurrency3" points="17.5 57.5 46.25 57.5 54.5 65 65 65" /><line class="benefits-native-cryptocurrency3" x1="16.5" y1="50" x2="55" y2="50" /><polyline class="benefits-native-cryptocurrency3" points="17.5 42.5 41 42.5 47.75 35 60.5 35" /><path class="benefits-native-cryptocurrency4" d="M57.5,48a2,2,0,1,1-2,2,2,2,0,0,1,2-2m0-1a3,3,0,1,0,3,3,3,3,0,0,0-3-3Z" /><path class="benefits-native-cryptocurrency4" d="M67.5,63a2,2,0,1,1-2,2,2,2,0,0,1,2-2m0-1a3,3,0,1,0,3,3,3,3,0,0,0-3-3Z" /><path class="benefits-native-cryptocurrency4" d="M63,33a2,2,0,0,1,.11,4H63a2,2,0,0,1-.11-4H63m0-1h-.17A3,3,0,0,0,63,38h.17A3,3,0,0,0,63,32Z" /><path class="benefits-native-cryptocurrency4" d="M40.25,63a2,2,0,1,1-2,2,2,2,0,0,1,2-2m0-1a3,3,0,1,0,3,3,3,3,0,0,0-3-3Z" /><path class="benefits-native-cryptocurrency4" d="M36.75,33a2,2,0,1,1-2,2,2,2,0,0,1,2-2m0-1a3,3,0,1,0,3,3,3,3,0,0,0-3-3Z" /><path class="benefits-native-cryptocurrency4" d="M50.25,17a33,33,0,1,1-33,33,33,33,0,0,1,33-33m0-2a35,35,0,1,0,35,35,35,35,0,0,0-35-35Z" /></g></g></g></svg>