<svg id="benefits-off-chain-transactions" xmlns="http://www.w3.org/2000/svg" x="0px" y="0px" viewBox="0 0 100 100" style="enable-background:new 0 0 100 100;" xml:space="preserve"><style type="text/css">.benefits-off-chain-transactions-0{fill:none}.benefits-off-chain-transactions-1{fill:none;stroke:#84C9B2;stroke-width:2;stroke-linecap:round;stroke-linejoin:round}.benefits-off-chain-transactions-2{fill:#FFF}.benefits-off-chain-transactions-3{fill:#585B61}.benefits-off-chain-transactions-4{fill:#84C9B2}</style><g><rect class="benefits-off-chain-transactions-0" width="100" height="100" /><g><line class="benefits-off-chain-transactions-1" x1="47.8" y1="75" x2="73.3" y2="63.8" /><line class="benefits-off-chain-transactions-1" x1="24.5" y1="58" x2="36.3" y2="38.5" /><polyline class="benefits-off-chain-transactions-1" points="85.5,90 73.3,63.8 83.3,41 73.3,15 47.8,17.5 36.3,38.5 14.5,34.5 		" /><circle class="benefits-off-chain-transactions-2" cx="73.3" cy="15" r="10" /><circle class="benefits-off-chain-transactions-2" cx="36.3" cy="38.5" r="10" /><circle class="benefits-off-chain-transactions-2" cx="73.3" cy="63.8" r="10" /><g><g><path class="benefits-off-chain-transactions-3" d="M73.3,7c4.4,0,8,3.6,8,8s-3.6,8-8,8s-8-3.6-8-8S68.8,7,73.3,7 M73.3,5c-5.5,0-10,4.5-10,10s4.5,10,10,10 s10-4.5,10-10S78.8,5,73.3,5z" /></g><g><path class="benefits-off-chain-transactions-3" d="M73.3,9.8c2.9,0,5.3,2.4,5.3,5.3s-2.4,5.3-5.3,5.3S68,17.9,68,15C68,12.1,70.4,9.8,73.3,9.8 M73.3,8.8 c-3.5,0-6.3,2.8-6.3,6.3s2.8,6.3,6.3,6.3s6.3-2.8,6.3-6.3S76.7,8.8,73.3,8.8z" /></g></g><g><g><path class="benefits-off-chain-transactions-3" d="M36.3,30.5c4.4,0,8,3.6,8,8s-3.6,8-8,8s-8-3.6-8-8S31.8,30.5,36.3,30.5 M36.3,28.5c-5.5,0-10,4.5-10,10 s4.5,10,10,10s10-4.5,10-10S41.8,28.5,36.3,28.5z" /></g><g><path class="benefits-off-chain-transactions-3" d="M36.3,33.3c2.9,0,5.3,2.4,5.3,5.3s-2.4,5.3-5.3,5.3S31,41.4,31,38.5C31,35.6,33.4,33.3,36.3,33.3 M36.3,32.3c-3.5,0-6.3,2.8-6.3,6.3s2.8,6.3,6.3,6.3s6.3-2.8,6.3-6.3l0,0C42.5,35,39.7,32.3,36.3,32.3z" /></g></g><g><g><path class="benefits-off-chain-transactions-3" d="M73.3,55.8c4.4,0,8,3.6,8,8s-3.6,8-8,8s-8-3.6-8-8S68.8,55.8,73.3,55.8 M73.3,53.8c-5.5,0-10,4.5-10,10 s4.5,10,10,10s10-4.5,10-10S78.8,53.8,73.3,53.8z" /></g><g><path class="benefits-off-chain-transactions-3" d="M73.3,58.5c2.9,0,5.3,2.4,5.3,5.3c0,2.9-2.4,5.3-5.3,5.3S68,66.6,68,63.8C68,60.9,70.4,58.5,73.3,58.5 M73.3,57.5c-3.5,0-6.3,2.8-6.3,6.3c0,3.5,2.8,6.3,6.3,6.3s6.3-2.8,6.3-6.3l0,0C79.5,60.3,76.7,57.5,73.3,57.5z" /></g></g><circle class="benefits-off-chain-transactions-4" cx="83.5" cy="41" r="5" /><circle class="benefits-off-chain-transactions-4" cx="14.5" cy="34.5" r="5" /><circle class="benefits-off-chain-transactions-4" cx="47.8" cy="17.5" r="5" /><circle class="benefits-off-chain-transactions-4" cx="24.5" cy="58" r="5" /><circle class="benefits-off-chain-transactions-4" cx="47.8" cy="75" r="5" /><circle class="benefits-off-chain-transactions-4" cx="85.5" cy="90" r="5" /></g></g></svg>