<svg id="benefits-open-source-code" xmlns="http://www.w3.org/2000/svg" x="0px" y="0px" viewBox="0 0 100 100" style="enable-background:new 0 0 100 100;" xml:space="preserve"><style type="text/css">.benefits-open-source-code-0{fill:none;stroke:#585B61;stroke-width:2;stroke-linecap:round;stroke-linejoin:round}.benefits-open-source-code-1{fill:none;stroke:#585B61;stroke-linecap:round;stroke-linejoin:round}.benefits-open-source-code-2{fill:#84C9B2}.benefits-open-source-code-3{fill:none}</style><g><g><g><path class="benefits-open-source-code-0" d="M90.8,44.2c-1.4,0-2.5-1.1-2.5-2.5V15.6c0-1.4-1.1-2.5-2.5-2.5H69.3c-1.4,0-2.5,1.1-2.5,2.5v23.1 c0,1.4-1.1,2.5-2.5,2.5c-1.4,0-2.5-1.1-2.5-2.5V15.6c0-4.1,3.4-7.5,7.5-7.5h16.5c4.1,0,7.5,3.4,7.5,7.5v26.1 C93.3,43.1,92.2,44.2,90.8,44.2z" /><line class="benefits-line benefits-open-source-code-1" x1="51.3" y1="67.9" x2="62.3" y2="67.9" /><polyline id="arrow" class="benefits-open-source-code-1" points="40.1,67.9 47.6,61.6 40.1,55.3 			" /><path id="cog-small" class="benefits-open-source-code-0" d="M26.8,30.4l3.4-2.7l-0.6-2.8L25,25.2c-0.8-1.1-1.8-2-3-2.6l-0.6-4.2l-2.9-0.6l-1.9,3.8 c-1.3,0.1-2.6,0.6-3.7,1.3l-4-1.4l-2,2.1L9.3,27c-0.3,0.6-0.4,1.2-0.6,1.8c-0.1,0.7-0.2,1.4-0.2,2.1l-3.3,2.6l0.9,2.8l4.2-0.3 c0.8,1.1,1.8,2,3,2.6l0.6,4.2l2.9,0.6l1.9-3.8c1.3-0.2,2.6-0.6,3.7-1.3l4,1.6l2-2.2L26,34.3C26.5,33.1,26.8,31.7,26.8,30.4 L26.8,30.4z" /><path id="cog-small-2" class="benefits-open-source-code-1" d="M17.6,36.6c-3.3,0-6-2.7-6-6s2.7-6,6-6s6,2.7,6,6S21,36.6,17.6,36.6z" /></g><path class="benefits-open-source-code-2" d="M81.9,57.4c0-0.2-0.2-0.4-0.4-0.5l-7.2-2l4.8-5.8c0.1-0.2,0.1-0.4,0-0.6l-3.5-6c-0.1-0.2-0.3-0.3-0.6-0.2 l-7.2,2l1.3-7.5c0-0.2-0.1-0.4-0.2-0.5l-6-3.5c-0.2-0.1-0.4-0.1-0.6,0.1L57,38.1l-2.6-7.3c-0.1-0.2-0.3-0.3-0.5-0.3H47 c-0.2,0-0.4,0.2-0.5,0.4l-1.9,7.5l-5.8-4.7c-0.2-0.1-0.4-0.1-0.6,0l-6,3.5c-0.2,0.1-0.3,0.3-0.2,0.6l2,7.3l-7.5-1.3 c-0.2,0-0.4,0.1-0.5,0.2l-3.5,6c-0.1,0.2-0.1,0.4,0.1,0.6l5.3,5.3l-7.1,2.6c-0.2,0.1-0.3,0.3-0.3,0.5v7c0,0.2,0.2,0.4,0.4,0.5 l7.3,1.9L23.1,74c-0.1,0.2-0.1,0.4,0,0.6l3.5,6c0.1,0.2,0.3,0.3,0.6,0.2l7.2-2l-1.3,7.4c0,0.2,0.1,0.4,0.2,0.5l6,3.5 c0.2,0.1,0.4,0.1,0.6-0.1l5.3-5.2l2.6,7.1c0.1,0.2,0.3,0.3,0.5,0.3h7c0.2,0,0.4-0.2,0.5-0.4l1.9-7.2l5.8,4.8 c0.2,0.1,0.4,0.1,0.6,0l6-3.5c0.2-0.1,0.3-0.3,0.2-0.6l-2-7.2l7.4,1.3c0.2,0,0.4-0.1,0.5-0.2l3.5-6c0.1-0.2,0.1-0.4-0.1-0.6 l-5.3-5.3l7.1-2.6c0.2-0.1,0.3-0.3,0.3-0.5L81.9,57.4z M67.8,61.6c0,9.2-7.5,16.7-16.7,16.7s-16.7-7.5-16.7-16.7 s7.5-16.7,16.7-16.7C60.3,44.9,67.8,52.4,67.8,61.6z" /></g><rect class="benefits-open-source-code-3" width="100" height="100" /></g></svg>