<svg id="benefits-server-side-platform" xmlns="http://www.w3.org/2000/svg" x="0px" y="0px" viewBox="0 0 100 100" style="enable-background:new 0 0 100 100;" xml:space="preserve"><style type="text/css">.benefits-server-side-platform-0{fill:none}.benefits-server-side-platform-1{fill:#84C9B2}.benefits-server-side-platform-2{fill:none;stroke:#585B61;stroke-linecap:round;stroke-linejoin:round}.benefits-server-side-platform-3{fill:#585B61}</style><g><rect class="benefits-server-side-platform-0" width="100" height="100" /><g><path class="benefits-server-side-platform-1" d="M5,38.2v23.2h90V38.2H5z M57,50.3H16.3c-0.3,0-0.5-0.2-0.5-0.5s0.2-0.5,0.5-0.5H57c0.3,0,0.5,0.2,0.5,0.5 S57.3,50.3,57,50.3z M72.7,52.8c-1.7,0-3-1.3-3-3s1.3-3,3-3s3,1.3,3,3C75.7,51.5,74.3,52.9,72.7,52.8 C72.7,52.9,72.7,52.9,72.7,52.8L72.7,52.8z M84.9,52.8c-1.7,0-3-1.3-3-3s1.3-3,3-3s3,1.3,3,3C87.9,51.5,86.5,52.9,84.9,52.8 C84.9,52.9,84.9,52.9,84.9,52.8L84.9,52.8z" /><g><line class="benefits-server-side-platform-2" x1="16.3" y1="24.5" x2="57" y2="24.5" /><path class="benefits-server-side-platform-3" d="M84.8,22.5c1.1,0,2,0.9,2,2s-0.9,2-2,2s-2-0.9-2-2S83.7,22.5,84.8,22.5 M84.8,21.5c-1.7,0-3,1.3-3,3 s1.3,3,3,3s3-1.3,3-3S86.5,21.5,84.8,21.5z" /><path class="benefits-server-side-platform-3" d="M72.7,22.5c1.1,0,2,0.9,2,2s-0.9,2-2,2s-2-0.9-2-2S71.5,22.5,72.7,22.5 M72.7,21.5c-1.7,0-3,1.3-3,3 s1.3,3,3,3s3-1.3,3-3S74.3,21.5,72.7,21.5z" /><line class="benefits-server-side-platform-2" x1="16.3" y1="75.2" x2="57" y2="75.2" /><path class="benefits-server-side-platform-3" d="M84.8,73.2c1.1,0,2,0.9,2,2s-0.9,2-2,2s-2-0.9-2-2S83.7,73.2,84.8,73.2 M84.8,72.2c-1.7,0-3,1.3-3,3 s1.3,3,3,3s3-1.3,3-3S86.5,72.2,84.8,72.2z" /><path class="benefits-server-side-platform-3" d="M72.7,73.2c1.1,0,2,0.9,2,2s-0.9,2-2,2s-2-0.9-2-2S71.5,73.2,72.7,73.2 M72.7,72.2c-1.7,0-3,1.3-3,3 s1.3,3,3,3s3-1.3,3-3S74.3,72.2,72.7,72.2z" /><path class="benefits-server-side-platform-3" d="M93,65.9v16.2c0,1.7-1.3,3-3,3H10c-1.7,0-3-1.3-3-3V65.9H93 M95,63.9H5v18.2c0,2.8,2.2,5,5,5h80 c2.8,0,5-2.2,5-5V63.9z" /><path class="benefits-server-side-platform-3" d="M90,14.9c1.7,0,3,1.3,3,3v16.2H7V17.9c0-1.7,1.3-3,3-3L90,14.9 M90,12.9H10c-2.8,0-5,2.2-5,5v18.2h90V17.9 C95,15.1,92.8,12.9,90,12.9z" /></g></g></g></svg>