<svg id="benefits-unique-hash-ids" xmlns="http://www.w3.org/2000/svg" x="0px" y="0px" viewBox="0 0 100 100" style="enable-background:new 0 0 100 100;" xml:space="preserve"><style type="text/css">.benefits-unique-hash-ids-0{fill:none}.benefits-unique-hash-ids-1{fill:none;stroke:#585B61;stroke-width:2;stroke-miterlimit:10}.benefits-unique-hash-ids-2{fill:none;stroke:#585B61;stroke-miterlimit:10}.benefits-unique-hash-ids-3{fill:#62c5e5}.benefits-unique-hash-ids-4{fill:none;stroke:#62c5e5;stroke-width:2;stroke-miterlimit:10}</style><g><rect class="benefits-unique-hash-ids-0" width="100" height="100" /><g><g><path class="benefits-unique-hash-ids-1" d="M66.3,76c-5.9,9.7-14.9,16-25.1,16c-17.7,0-32-18.8-32-42s14.3-42,32-42c15.2,0,27.9,13.9,31.2,32.5" /><circle class="benefits-unique-hash-ids-2" cx="20.7" cy="33" r="5" /><path class="benefits-unique-hash-ids-2" d="M18.2,20.8c6.8-1.4,13.4,3,14.8,9.7c1.4,6.8-3,13.4-9.7,14.8c-5.1,1-10.2-1.1-13-5.5" /><path class="benefits-unique-hash-ids-2" d="M30.5,50.5c-6.7,3.7-14.9,3.3-21.2-1.1" /><path class="benefits-unique-hash-ids-2" d="M25.4,13.5c9,2.1,15.4,10.2,15.4,19.5c0,0.4,0,0.8,0,1.1" /><path class="benefits-unique-hash-ids-2" d="M30.8,58.6c-6.8,2.7-14.3,2.5-21-0.3" /><path class="benefits-unique-hash-ids-2" d="M47.8,38c-1.2,6.6-4.8,12.6-10.1,16.7" /><path class="benefits-unique-hash-ids-2" d="M34.2,9c8.1,4.5,13.4,12.8,14,22.1" /><path class="benefits-unique-hash-ids-2" d="M33.6,65.6c-6.9,2.7-14.5,3.2-21.7,1.3" /><path class="benefits-unique-hash-ids-2" d="M55.6,36.6C54.5,47.2,48,56.8,39.5,62.5" /><path class="benefits-unique-hash-ids-2" d="M45.6,8.4c5.9,6,9.5,13.9,10,22.3" /><path class="benefits-unique-hash-ids-2" d="M38.3,91.8c3.8-4.4,10-5.6,15.1-3" /><path class="benefits-unique-hash-ids-2" d="M30.6,89.6c5.7-9.4,18-12.5,27.5-6.7c0.6,0.4,1.2,0.8,1.8,1.2" /><path class="benefits-unique-hash-ids-2" d="M60.5,75.5c1.5,0.9,2.9,1.8,4.3,2.9" /><path class="benefits-unique-hash-ids-2" d="M24.3,85.6c3.9-6.3,10.1-10.8,17.3-12.4" /><path class="benefits-unique-hash-ids-2" d="M41.5,65.5c2.1-0.3,4.2-0.5,6.2-0.5c4.9,0,9.8,1,14.3,3" /><path class="benefits-unique-hash-ids-2" d="M19,80c4-5.7,9.5-10.1,16-12.6" /><path class="benefits-unique-hash-ids-2" d="M14.6,73.3c1.6-1.9,3.3-3.7,5.2-5.3" /><path class="benefits-unique-hash-ids-2" d="M66.5,34.6c1.1-1,2.4-1.7,3.7-2.3" /><path class="benefits-unique-hash-ids-2" d="M66.5,34.6" /><path class="benefits-unique-hash-ids-2" d="M70.2,55.6c-6.3-2.5-9.5-9.6-7.1-16" /><path class="benefits-unique-hash-ids-2" d="M59.3,31.2c2.1-2.6,4.9-4.6,7.9-5.8" /><path class="benefits-unique-hash-ids-2" d="M67.6,62.7c-10.3-4-15.4-15.5-11.5-25.9c0-0.1,0.1-0.2,0.1-0.2" /><path class="benefits-unique-hash-ids-2" d="M60.2,67.3c-5.1-3.2-9.1-8-11.2-13.6" /><path class="benefits-unique-hash-ids-2" d="M54.8,25c2.3-2.4,5.1-4.4,8.2-5.9" /><path class="benefits-unique-hash-ids-2" d="M46.8,65c-1.3-1.7-2.4-3.5-3.3-5.4" /><path class="benefits-unique-hash-ids-2" d="M52.1,17.4c1.6-1.4,3.4-2.6,5.2-3.7" /><line class="benefits-unique-hash-ids-2" x1="20.7" y1="45.5" x2="20.7" y2="53" /><line class="benefits-unique-hash-ids-2" x1="34.1" y1="18.6" x2="39.7" y2="13.1" /></g><g><path class="benefits-unique-hash-ids-3" d="M69.9,65.3c0,0,17.1,12.9,20.7,19.3c1.1,1.9-4.2,7.3-6.3,6.3c-5.9-3.2-19.3-20.7-19.3-20.7L69.9,65.3z" /><circle class="benefits-unique-hash-ids-4" cx="53.2" cy="53.4" r="20" /></g></g></g></svg>