<svg id="benefits-voting-mechanism" xmlns="http://www.w3.org/2000/svg" x="0px" y="0px" viewBox="0 0 100 100" style="enable-background:new 0 0 100 100;" xml:space="preserve"><style type="text/css">.benefits-voting-mechanism-0{fill:none}.benefits-voting-mechanism-1{fill:#62c5e5}.benefits-voting-mechanism-2{fill:#585B61}</style><g><rect class="benefits-voting-mechanism-0" width="100" height="100" /><g><g><path class="benefits-voting-mechanism-1" d="M43.7,71.8c-0.1-0.6-0.5-1.1-1-1.4c0.1-3.7-0.2-12.7-6.3-17c-4.5-3.2-10.9-3-19,0.5c-2.7,0.8-4.9,2.6-6.3,5 c-1.6,3-1.7,6.9-0.1,11.5c-0.7,0.3-1.3,1-1.4,1.8c-0.1,0.7-0.5,4.7,1.3,6.3c0.3,0.3,0.6,0.5,1,0.6c-0.1,1,0.1,2,0.4,2.9 c0.6,1.5,0.9,3,0.9,4.6c0,0.4,0.2,0.8,0.5,1c0.3,0.2,0.7,0.3,1.1,0.2c0.4-0.1,0.7-0.4,0.9-0.7c0.1,0.2,0.2,0.5,0.2,0.8 c-0.1,0.7,0.3,1.3,1,1.4c0.4,0.1,0.9-0.1,1.2-0.4c0.1-0.1,0.1-0.2,0.2-0.3c0.3,0.1,0.6,0.3,1,0.5l0.9,0.5V94h13.2v-4.9 c0.1,0.2,0.3,0.3,0.4,0.5c0.5,0.4,1.3,0.3,1.8-0.2c0.2-0.3,0.3-0.7,0.2-1c-0.1-0.2-0.1-0.5-0.1-0.7c0.6,0.6,1.4,0.9,2.2,0.9l0,0 c0.4,0,0.8-0.2,1-0.5c0.2-0.3,0.3-0.7,0.2-1.1c-0.3-1.2-0.4-2.5-0.2-3.8c0.9-1.2,1.6-2.6,1.9-4.1v-0.1c0.6,0.1,1.2-0.1,1.7-0.5 C44.3,76.9,43.9,72.5,43.7,71.8z M12.1,76.8c-0.8-0.7-0.9-3.3-0.6-4.4c0-0.2,0.2-0.4,0.6-0.3l1.1,0.1v-1.3v-0.2l-0.1-0.2 c-0.3-0.7-0.5-1.4-0.7-2.1c0.6-3.4,2.5-9.5,8.4-11.3c8.4-2.6,20.5,0.9,19.7,18.7c0,0.2-0.1,0.3-0.3,0.4l-0.7,0.3l-0.2-0.1v0.2 c-2.2,0.9-4,2.5-5.1,4.6c-0.1,0.1-0.2,0.2-0.3,0.2c-1.9-2-4.6-3-7.4-2.9c-3.7,0-6.8,1.6-8.1,4c-0.2-0.1-0.4-0.3-0.6-0.5l0,0 c-1-1.8-2.2-3.5-3.6-5.1l0.2-0.6l-1.8,0.6C12.3,77,12.2,76.9,12.1,76.8z M21.6,85.5c-0.1-0.1-0.2-0.2-0.2-0.4 c-0.3-1.4,2.2-3.1,5.3-3.1s5.2,1.6,5.3,3.1c0,0.1,0,0.2,0,0.3c-0.9,0.8-2.7-0.6-5.2-0.6S22.9,86.1,21.6,85.5z M22.1,92v-2.8 c1.5,0.7,3.1,0.9,4.6,0.7c1.6-0.2,3.1-0.6,4.5-1.2V92H22.1z M41.2,76.9c0,0-0.2,0.1-0.6,0c0.5-1.5,0.9-3.2,1-4.8h0.2v0.1l0,0 C42,73.4,41.9,76.3,41.2,76.9z" /><path class="benefits-voting-mechanism-1" d="M21.5,73.8c1.6,0,2.9-1.3,3-2.9c0.6-0.7,1.4-1.1,2.3-1.2l0,0c0.8,0.1,1.5,0.5,2,1.2c0,1.7,1.4,3,3.1,2.9 c1.7,0,3-1.4,2.9-3.1c0-1.7-1.4-3-3.1-2.9c-1.2,0-2.2,0.7-2.7,1.8c-0.6-0.6-1.4-0.9-2.3-0.9l0,0c-0.9,0-1.8,0.4-2.5,1 c-0.6-1.6-2.3-2.3-3.9-1.8s-2.3,2.3-1.8,3.9C19.1,73,20.2,73.8,21.5,73.8L21.5,73.8z" /></g><g><path class="benefits-voting-mechanism-1" d="M89.5,25.5L89.5,25.5c-0.2-0.7-0.8-1.3-1.5-1.7c0-0.1,0-0.2,0-0.3v-0.2c0-0.2,0-0.4,0-0.7v-0.6 c0-6.9-1.4-11.5-4.3-13.6c-1.3-1-3-1.4-4.7-1.1l-0.4-0.2c-0.5-0.2-0.9-0.3-1.4-0.5l-0.2-0.1c-0.5-0.1-0.9-0.3-1.4-0.3 C70.9,5,62.2,4,58.7,11.1c-2.8,5.6-2.5,9.9-1.7,12.5c0,0,0,0.1,0,0.1c-0.9,0.1-1.6,0.8-1.7,1.6c-0.2,1-0.4,5.2,1.4,6.7 c0.5,0.4,1.1,0.6,1.7,0.5c0.5,1.4,1.1,2.7,1.8,4c1.3,2.2,3.3,4,5.7,5v6.1h13.2v-6.2c2.4-1,4.4-2.8,5.7-5c0.7-1.3,1.3-2.6,1.8-3.9 c0.6,0.1,1.2-0.1,1.7-0.4C90.1,30.5,89.7,26.4,89.5,25.5z M87,30.4c-0.1,0-0.2,0.2-0.7,0l-1-0.4L85,31c-0.5,1.5-1.2,3-2,4.5 c-1.2,2.2-3.3,3.4-5.4,4.4l-0.6,0.3v5.4h-9.2v-5.4l-0.6-0.3c-2-1-4.2-2.2-5.4-4.4c-0.8-1.4-1.5-2.9-2-4.5l-0.3-1l-1,0.4 c-0.5,0.2-0.7,0.1-0.7,0c-0.8-0.7-1-3.7-0.7-4.7c0.2-0.1,0.4-0.1,0.7,0l0.6,0.1c0.3,0.7,0.6,1.4,1.1,1.5c1.5,0.3,0.1-6.1,2-8.7 c0.6-0.3,1.3-0.4,2-0.4c0.1,0,0.3-0.1,0.3-0.2c0-0.1-0.1-0.2-0.2-0.3c-0.4-0.2-0.7-0.3-1.1-0.4c0.2-0.2,0.4-0.4,0.7-0.6 c2-0.6,5.4-1.1,10.6-0.1c0.2,0.1,0.4,0,0.4-0.2c0.1-0.2,0-0.4-0.2-0.4c-1.7-0.7-2.6-1.5-5-1.8c3-0.7,6.1-0.4,9,0.7 c0.1,0,0.3,0,0.3-0.2c0-0.1,0-0.2-0.1-0.3c-1-0.6-0.9-1.2-2.7-1.5c11.3,0.5,8.5,9.7,9.5,14c0.1,0.6,0.9-0.4,1.5-1.3l0.5-0.1l0,0 c0.2,0.1,0.3,0.2,0.5,0.4C87.8,27.2,87.7,29.8,87,30.4z" /><path class="benefits-voting-mechanism-1" d="M70.3,30.8c-0.7,0.2-1.3,0.8-1.5,1.5c-0.1,0.2-0.4,0.4-0.7,0.5c-0.4,0-0.8-0.1-1.2-0.4 c-0.2-0.1-0.5-0.1-0.6,0.1c-0.1,0.2-0.1,0.4,0.1,0.6c0.5,0.3,1,0.5,1.6,0.5h0.3c0.5-0.1,1-0.4,1.3-0.8l0,0 c0.5-0.6,1.3-0.9,2.1-0.6c0.2,0.1,0.5,0,0.6-0.3c0.1-0.2,0-0.4-0.1-0.5C71.7,31,71,30.7,70.3,30.8z" /><path class="benefits-voting-mechanism-1" d="M78,32.4c-0.3,0.3-0.8,0.4-1.2,0.4c-0.3-0.1-0.5-0.2-0.7-0.5c-0.2-0.7-0.8-1.3-1.5-1.5 c-0.7-0.1-1.3,0.1-1.8,0.6c-0.2,0.2-0.2,0.4,0,0.6c0.1,0.1,0.3,0.2,0.5,0.1c0.8-0.3,1.6,0,2.1,0.6l0,0c0.3,0.4,0.7,0.8,1.3,0.8 H77c0.6,0,1.1-0.2,1.6-0.5c0.2-0.2,0.2-0.4,0-0.6C78.4,32.3,78.2,32.3,78,32.4L78,32.4z" /></g><g><path class="benefits-voting-mechanism-2" d="M41.7,32.4c0.4-0.1,0.7-0.3,1-0.6c1.6-1.6,1.2-5.4,1.1-6.3c-0.1-0.8-0.7-1.5-1.4-1.8c0-0.3-0.1-0.6-0.1-0.9 s0-0.5,0-0.8v-0.2c0-0.3,0-0.7,0-1v-0.1c0-0.3,0-0.7-0.1-1.1v-0.1c0-0.4-0.1-0.8-0.2-1.1v-0.2c-0.1-0.4-0.2-0.8-0.3-1.3 s-0.3-0.8-0.4-1.3L41,15.4c-0.2-0.4-0.4-0.8-0.6-1.3l-0.1-0.3c-0.3-0.5-0.5-0.9-0.8-1.3s-0.4-0.6-0.6-0.9l-0.2-0.2l-0.1-0.1 c-0.1-0.2-0.3-0.3-0.4-0.5l-0.2-0.2l-0.2-0.2l-0.3-0.4l-0.2-0.2l-0.2-0.1l-0.3-0.3l-0.3-0.2l-0.2-0.1L36,8.9l-0.3-0.2l-0.2-0.1 l-0.3-0.2l-0.4-0.2l-0.1-0.1l-0.3-0.2l-0.3-0.2l-0.2-0.1l-0.3-0.2l-0.3-0.2l-0.4,0.9l0.3-1l-0.4-0.2l-0.5-0.2l-0.4-0.1l-0.5-0.2 L31,6.5l-0.5-0.1l-0.4-0.1l-0.4-0.1l-0.4-0.1L28.9,6l-0.4,0h-0.4h-0.4h-0.5h-0.5h-0.6h-0.7C25,4.6,24,3.4,22.6,2.8 c-3-1.3-6.5-0.4-8.3,2.4c-0.9,1.3-1.1,2.8-0.7,4.3c0.2,0.7,0.6,1.4,1.1,2l-0.1,0.1c-0.2,0.2-0.3,0.4-0.5,0.7l-0.2,0.2 c-0.3,0.4-0.5,0.8-0.7,1.2L13,14c-0.2,0.4-0.4,0.7-0.5,1.1v0.1c-0.2,0.4-0.3,0.8-0.4,1.1L12,16.6c-0.1,0.3-0.2,0.6-0.3,1v0.1 c-0.1,0.4-0.1,0.7-0.2,1.1V19c0,0.3-0.1,0.6-0.1,0.9V20c0,0.3-0.1,0.6-0.1,1v0.2c0,0.2,0,0.5,0,0.7c-0.1,0.6-0.2,1.1-0.3,1.7 c-0.6,0.1-1.1,0.7-1.2,1.3c0,0-0.8,5,1.1,6.8c0.4,0.4,1,0.6,1.5,0.6c0.9,1.7,1.5,3.6,1.7,5.5c0.1,0.7,0.7,1.2,1.4,1.1 c0.3,0,0.5-0.2,0.7-0.3c1.1,1.1,2.4,1.9,3.9,2.6v6.1h13.2v-6.1c2.4-1,4.4-2.8,5.7-5c0.2-0.3,0.3-0.7,0.5-1 c0.3,0.7,0.8,1.3,1.4,1.8c0.5,0.4,1.3,0.4,1.8-0.1c0.3-0.4,0.4-1,0.1-1.4C42.2,34.6,41.8,33.5,41.7,32.4z M13.2,29.5 c-0.3-0.8-0.4-1.6-0.5-2.4C12.8,27.9,13,28.7,13.2,29.5z M12.8,24.3L12.8,24.3V24v-0.3v-0.2v-0.2v-0.2V23v-0.1v-0.2v-0.1v-0.1v0 v-0.1v-0.1l0,0c0-0.1,0-0.2,0-0.2c0,0,0,0,0-0.1l0,0c0-0.2,0-0.5,0-0.7v-0.2c0,0,0-0.1,0-0.1c0-0.2,0-0.5,0.1-0.7l0,0 c0-0.3,0.1-0.5,0.1-0.8v-0.2v-0.1c0-0.3,0.1-0.5,0.1-0.8c0-0.1,0-0.1,0-0.2c0.1-0.3,0.2-0.7,0.3-1l0.1-0.2c0.1-0.3,0.2-0.7,0.4-1 v-0.1c0.1-0.3,0.3-0.7,0.5-1l0.1-0.2c0.2-0.4,0.4-0.7,0.6-1.1l0.2-0.2c0.1-0.2,0.3-0.4,0.4-0.6l0.2-0.2l0,0 c0.1-0.2,0.3-0.4,0.5-0.5l0.8-0.8l-0.9-0.7c-0.2-0.2-0.4-0.4-0.6-0.6c-0.2-0.2-0.3-0.4-0.4-0.6V9.4C15.1,9.2,15,9.1,15,9 c-0.1-1,0.3-2,1-2.7c0.6-0.8,1.4-1.5,2.4-1.8l0.2-0.1l0,0c0.2-0.1,0.5-0.1,0.8-0.2h0.3h0.5h0.3c0.2,0,0.3,0,0.5,0.1h0.2 c0.2,0.1,0.5,0.1,0.7,0.3c0.2,0.1,0.4,0.2,0.6,0.3L22.5,5c0.1,0.1,0.2,0.2,0.4,0.3L23,5.5c0.1,0.1,0.2,0.2,0.3,0.4L23.4,6 c0.1,0.2,0.2,0.4,0.2,0.6c0,0.1,0,0.1,0,0.2c0,0.1,0,0.2,0.1,0.3l0,0l0.1,0.9l1-0.1h0.1c0.5-0.1,0.9-0.1,1.4-0.1h1h0.4H28h0.4 l1,0.2c3.1,0.5,5.9,2.2,7.9,4.6l0.2,0.2c0.2,0.2,0.4,0.5,0.5,0.7l0,0c0.2,0.3,0.4,0.6,0.6,1l0.1,0.2l0.1,0.2l0.1,0.1 c0.2,0.3,0.3,0.7,0.5,1l0.1,0.1c0.1,0.2,0.2,0.5,0.3,0.7l0.1,0.4c0.1,0.3,0.2,0.6,0.2,0.8l0.1,0.4c0,0.2,0.1,0.4,0.1,0.6 s0.1,0.4,0.1,0.5c0,0.3,0.1,0.7,0.1,1l0,0c0,0.4,0,0.7,0,1.1v0c0,0.4,0,0.7,0,1.1l0,0V23c0,0,0,0,0,0l0,0c0.1,0.5,0.1,1,0.2,1.5 c0.1,0.9,0.1,1.8,0,2.8c-0.2-1.4-0.6-2.7-1.2-3.9c-0.2-0.3-0.5-0.6-0.9-0.6c-4.4,0-8.5-2.4-10.7-6.2c-0.3-0.5-0.9-0.7-1.4-0.4 c-0.2,0.1-0.4,0.4-0.5,0.7c-0.1-0.2-0.1-0.4-0.2-0.6c-0.1-0.5-0.5-0.8-1-0.8h-0.1c-0.5,0-0.9,0.5-0.9,1c-0.2,4.1-4.4,7.2-9.6,7.2 h-0.3C13.4,23.7,13,23.9,12.8,24.3z M41.8,25.9c0.2,1.1,0.2,3.8-0.5,4.5c-0.1,0.1-0.2,0.1-0.4,0.1h-0.1c0.1-0.4,0.1-0.8,0.3-1.2 c0.3-1.2,0.5-2.4,0.5-3.6C41.7,25.6,41.7,25.6,41.8,25.9L41.8,25.9z M12.7,17.9L12.7,17.9z M12.3,30.3c-0.7-0.6-0.8-3.3-0.5-4.8 l0,0c-0.1,1.7,0.2,3.3,0.8,4.9C12.4,30.4,12.3,30.4,12.3,30.3L12.3,30.3z M38.8,32.1c-0.4,1.1-0.9,2.2-1.5,3.3 c-1.2,2.2-3.3,3.4-5.4,4.4l-0.6,0.3v5.4h-9.2v-5.3l-0.6-0.3c-2-0.8-3.8-2.2-5.1-3.9l-1-1.6c-0.2-1.3-0.5-2.6-0.9-3.9 c-0.6-1.8-0.9-3.7-0.8-5.6H14c5.7,0,10.4-3.6,10.6-8.2c0.8,3.2,2.6,6,5.2,8c0,0,0.1,0.1,0.1,0c0.1,0,0.3-0.1,0.3-0.3 c0-0.1,0-0.1,0-0.1c-1.6-2.1-2.8-4.5-3.4-7.1c2.4,4.1,6.8,6.6,11.6,6.7c0.8,1.7,1.2,3.5,1.2,5.3c0,0.4,0,0.7,0,1L38.8,32.1z" /><path class="benefits-voting-mechanism-2" d="M30.6,34.5c-1-0.3-2-0.5-3-0.6c-0.3,0-0.6,0.1-0.9,0.2h-0.1c-0.3-0.1-0.6-0.2-0.9-0.2c-1,0.1-2,0.4-3,0.6 c-0.5,0.1-0.8,0.6-0.7,1.1c0.1,0.3,0.3,0.6,0.6,0.7c2.5,1.2,5.5,1.2,8,0c0.5-0.2,0.7-0.7,0.6-1.2C31.2,34.8,30.9,34.6,30.6,34.5 L30.6,34.5z M26.7,36.2c-1.2,0-2.4-0.3-3.5-0.8c0.9-0.2,1.7-0.4,2.6-0.6c0.2,0,0.3,0.1,0.5,0.2c0.1,0,0.2,0.1,0.3,0.1h0.3 c0.1,0,0.2,0,0.3-0.1c0.1-0.1,0.3-0.2,0.5-0.2c0.9,0.1,1.8,0.3,2.6,0.6C29.1,36,27.9,36.2,26.7,36.2L26.7,36.2z" /></g><g><g><path class="benefits-voting-mechanism-2" d="M60,66.3l0.6-0.1c3.9-0.5,7.9-0.7,11.8-0.7c4-0.1,7.9,0.1,11.8,0.7l0.6,0.1v-3.9c0-2.4-0.8-4.8-2.4-6.6 c-2.1-2.4-5.5-3.6-10-3.6s-7.9,1.2-10,3.6C60.8,57.6,60,60,60,62.5V66.3z M63.2,56.4c1.9-2.2,5-3.3,9.2-3.3s7.3,1.1,9.3,3.3 c1.4,1.6,2.2,3.7,2.2,5.9v2.8c-3.8-0.4-7.6-0.6-11.4-0.6c-3.8-0.1-7.6,0.1-11.4,0.6v-2.8C61,60.2,61.8,58.1,63.2,56.4L63.2,56.4 z" /><path class="benefits-voting-mechanism-2" d="M89.6,72.8c0-0.3-0.1-0.6-0.1-0.8l0,0c0-0.2-0.1-0.4-0.2-0.6l-0.1-0.1c-0.1-0.1-0.2-0.3-0.3-0.4l-0.1-0.1 c-0.1-0.1-0.2-0.2-0.3-0.3l-0.2-0.1c-0.1,0-0.1-0.1-0.2-0.1c0.6-0.4,1-1.2,1-1.9c0-0.9-0.5-1.8-1.3-2.2v-4.3 c0.1-3.1-1.1-6-3.2-8.3c-2.7-2.9-6.8-4.3-12.3-4.3s-9.7,1.5-12.3,4.3c-2.1,2.2-3.2,5.2-3.2,8.2v4.3c-0.8,0.4-1.4,1.3-1.3,2.2 c0,0.8,0.4,1.5,1,1.9c-0.1,0-0.1,0.1-0.2,0.1l-0.2,0.1c-0.1,0.1-0.2,0.2-0.4,0.3l-0.1,0.1c-0.1,0.1-0.2,0.3-0.3,0.4l-0.1,0.1 c-0.1,0.2-0.2,0.4-0.3,0.6c-0.1,0.5-0.1,1-0.1,1.5l0,0c0,0,0,0.3,0,0.4V74c0,0.1,0,0.3,0,0.4s0,0.3,0,0.4l0,0 c0,1.3,0.6,2.6,1.5,3.5c0.5,0.4,1.2,0.6,1.8,0.5c0.4,1.2,0.9,2.3,1.5,3.4c0.1,0.2,0.2,0.3,0.2,0.5c-0.3,0.3-0.5,0.6-0.7,1 c-0.3,0.7-0.4,1.4-0.2,2.1c-0.5,0.5-0.7,1.1-0.8,1.7c-0.1,0.9,0.1,1.7,0.6,2.4c-0.4,1.2,0,2.5,0.9,3.4c-0.1,0.5,0,0.9,0.1,1.4 c0.5,1.1,1.2,2.1,2.3,2.8c0.5,0.4,1.3,0.3,1.8-0.2c0.1-0.1,0.1-0.2,0.2-0.3c0.6-1.1,0.8-2.3,0.6-3.5c-0.2-0.6-0.5-1.2-1-1.6 c0.2-1-0.1-2-0.8-2.7c0.3-0.7,0.4-1.5,0.2-2.2c0.2-0.1,0.3-0.3,0.4-0.4c0.7,0.5,1.5,0.9,2.3,1.3V94h13.2v-6.2 c2.4-1,4.4-2.8,5.7-5c0.7-1.3,1.3-2.6,1.8-3.9c0.6,0.1,1.3-0.1,1.8-0.5C89.6,77.2,89.7,74.3,89.6,72.8z M57.5,68.3 c0-0.1,0.1-0.3,0.7-0.6l0.7-0.2v-0.7l0,0v-5c0,0,0,0,0-0.1c0-0.2,0-0.4,0-0.6c0.2-2.3,1.1-4.4,2.6-6.1c0.5-0.5,1-1,1.6-1.4 c2.3-1.5,5.4-2.3,9.3-2.3c2.8-0.1,5.6,0.5,8.1,1.7c3.4,1.6,5.5,5.1,5.4,8.9v5.7l0.7,0.2c0.6,0.2,0.7,0.4,0.7,0.6s0,0,0,0.1 c0,0.2-0.1,0.3-0.3,0.3c-0.1,0-0.2,0-0.2-0.1c-0.1-0.1-0.3-0.2-0.4-0.3c-1.4-0.4-6.6-0.9-13.9-0.9s-12.5,0.5-13.9,0.9 c-0.2,0.1-0.3,0.1-0.4,0.3c0,0-0.1,0.1-0.1,0.1h-0.1c-0.1,0-0.1,0-0.2-0.1h-0.1c-0.1-0.1-0.1-0.1-0.1-0.2 C57.4,68.4,57.5,68.3,57.5,68.3z M85.8,69.2c0,0.3,0,0.5,0,0.7l0,0l0,0c0,0.3,0,0.6,0,0.9c0,0.6,0,1.3-0.1,1.9 c-0.9-1.2-1.6-2.5-2.2-3.9C84.3,68.9,85.1,69,85.8,69.2z M77.8,68.5c-1.2,2-3.4,3.1-5.7,3c-0.9,0-1.9-0.1-2.8-0.3 c-3-0.8-6.1-1.3-9.2-1.5c-0.4,0-0.9,0-1.3,0.1c0-0.2,0-0.3,0-0.5c1.2-0.4,6-0.8,13.5-0.8C74.3,68.4,76.2,68.4,77.8,68.5 L77.8,68.5z M59.7,91.6c-0.2-0.6-0.1-1.3,0.3-1.8c-0.7-0.4-1-1.2-0.9-2c0.1-0.7,0.5-1.3,1.1-1.6c-0.4-0.6-0.4-1.4,0-2 c0.1-0.2,0.2-0.4,0.4-0.5c0.6,0.8,1.3,1.6,2.1,2.2c-0.2,0.3-0.5,0.5-0.9,0.7c0.3,0.5,0.5,1,0.4,1.6c-0.1,0.5-0.3,0.9-0.6,1.2 c0.5,0.3,0.9,0.8,1.1,1.4c0.1,0.3,0.1,0.6,0,0.9c-0.4,0-0.8,0-1.2,0.2c-1,0.3-1.1,0.6-1.2,0.7l0,0C60,92.3,59.8,92,59.7,91.6z M63.6,93.8c0,1-0.2,2-0.6,2.9c-0.1,0.1-0.2,0.2-0.3,0.1c0,0,0,0-0.1,0c-0.8-0.6-1.5-1.3-1.9-2.2c-0.1-0.4-0.1-0.8,0-1.2l0,0 h0.2c0.1,0,0.2-0.1,0.3-0.2c0.2-0.1,0.4-0.2,0.6-0.3c0.2-0.1,0.4-0.1,0.6-0.2c0.2,0.1,0.4,0,0.5-0.1 C63.2,92.9,63.5,93.3,63.6,93.8z M86.9,76.9c-0.1,0.1-0.2,0.2-0.8,0l-1-0.4l-0.3,1c-0.5,1.6-1.2,3.1-1.9,4.5 c-1.2,2.2-3.2,3.3-5.4,4.4l-0.6,0.3V92h-9.2v-5.4l-0.6-0.3c-1.2-0.6-2.4-1.3-3.5-2.1l-0.3-0.3c-0.4-0.3-0.7-0.7-1-1.1l-0.2-0.3 c-0.1-0.2-0.3-0.4-0.4-0.6c-0.8-1.4-1.4-2.9-2-4.5l-0.3-1l-1,0.4c-0.5,0.2-0.7,0.1-0.8,0c-0.6-0.8-0.9-1.8-0.8-2.8l0,0 c0-0.2,0-0.4,0-0.6s0-0.2,0-0.2s0-0.2,0-0.3c0-0.2,0-0.3,0.1-0.5c0-0.2,0.3-0.4,0.7-0.3l1.1,0.2l0,0v-1.4c0,0,0,0,0-0.1 c0.4-0.1,0.9-0.1,1.3-0.1c3,0.2,6.1,0.7,9,1.4c1,0.2,2,0.4,3,0.4c2.8,0.2,5.5-1.4,6.8-3.9c1.4,0.1,2.6,0.1,3.5,0.2 c0.7,1.8,2,4.5,3.6,5.8c0.1,0.1,0.3,0.2,0.4,0.2c0.1-0.9,0.2-1.8,0.3-2.7h0.2c0.4,0,0.5,0.1,0.6,0.3c0.1,0.4,0.1,0.7,0.1,1.1 C87.7,74.8,87.4,76.4,86.9,76.9z" /></g></g></g></g></svg>