<svg id="ad_tech" xmlns="http://www.w3.org/2000/svg" x="0px" y="0px" viewBox="0 0 160 160" style="enable-background:new 0 0 160 160;" xml:space="preserve"><style type="text/css">.solution-ad-tech-providers-0{fill:url(#lg_solution_ad_tech_providers_0)}.solution-ad-tech-providers-1{fill:url(#lg-solution-ad-tech-providers-1)}.solution-ad-tech-providers-2{fill:url(#lg_solution_ad_tech_providers_2)}.solution-ad-tech-providers-3{fill:url(#lg_solution_ad_tech_providers_3)}.solution-ad-tech-providers-4{opacity:0.2}.solution-ad-tech-providers-5{clip-path:url(#solution_ad_tech_providers_mask);fill:#FFF}.solution-ad-tech-providers-6{fill:#20242C}</style><g id="solution_ad_tech_providers_hexagons" class="solution-ad-tech-providers-4"><defs><circle id="solution_ad_tech_providers_circle" class="solution-ad-tech-providers-4" cx="80.182" cy="80" r="65"/></defs><clipPath id="solution_ad_tech_providers_mask"><use xlink:href="#solution_ad_tech_providers_circle" style="overflow:visible;"/></clipPath><path class="solution-ad-tech-providers-5" id="solution_ad-tech-providers_hex_path" d="M22.871,51.183l0.194,0.112l3.762-6.517l-3.827-6.628h-7.653l-3.827,6.628l3.827,6.629h7.653l0.065-0.112 L22.871,51.183v-0.224h-7.265l-3.568-6.18l3.568-6.18h7.135l3.568,6.18l-3.633,6.293L22.871,51.183v-0.224V51.183z M22.871,63.99 l0.194,0.112l3.762-6.516l-3.827-6.628h-7.653l-3.827,6.628l3.827,6.628h7.653l0.065-0.112L22.871,63.99v-0.224h-7.265l-3.568-6.18 l3.568-6.18h7.135l3.568,6.18l-3.633,6.292L22.871,63.99v-0.224V63.99z M22.871,76.798l0.194,0.112l3.762-6.516l-3.827-6.629 h-7.653l-3.827,6.629l3.827,6.628h7.653l0.065-0.112L22.871,76.798v-0.224h-7.265l-3.568-6.18l3.568-6.18l7.135,0l3.568,6.18 l-3.633,6.292L22.871,76.798v-0.224V76.798z M33.964,44.778l0.194,0.112l3.762-6.516l-3.827-6.628h-7.654l-3.827,6.628l3.827,6.628 h7.654l0.065-0.112L33.964,44.778v-0.224h-7.266l-3.568-6.18l3.568-6.18h7.136l3.568,6.18l-3.633,6.292L33.964,44.778v-0.224 V44.778z M33.964,57.586l0.194,0.112l3.762-6.516l-3.827-6.629h-7.654l-3.827,6.629l3.827,6.628h7.654l0.065-0.112L33.964,57.586 v-0.224h-7.265l-3.568-6.18l3.568-6.18h7.136l3.568,6.18l-3.633,6.292L33.964,57.586v-0.224V57.586z M33.964,70.394l0.194,0.112 l3.762-6.517l-3.827-6.628h-7.654l-3.827,6.628l3.827,6.629h7.654l0.065-0.112L33.964,70.394V70.17h-7.266L23.13,63.99l3.568-6.18 h7.136l3.568,6.18l-3.633,6.292L33.964,70.394V70.17V70.394z M33.964,83.202l0.194,0.112l3.762-6.516l-3.827-6.628h-7.654 l-3.827,6.628l3.827,6.628h7.654l0.065-0.112L33.964,83.202v-0.224h-7.266l-3.568-6.18l3.568-6.18h7.136l3.568,6.18L33.77,83.09 L33.964,83.202v-0.224V83.202z M45.056,38.374l0.194,0.112l3.762-6.516l-3.827-6.628h-7.654l-3.827,6.628l3.827,6.628h7.654 l0.065-0.112L45.056,38.374V38.15H37.79l-3.568-6.18l3.568-6.18h7.136l3.568,6.18l-3.633,6.292L45.056,38.374V38.15V38.374z M45.056,51.183l0.194,0.112l3.762-6.517l-3.827-6.628h-7.654l-3.827,6.628l3.827,6.629h7.654l0.065-0.112L45.056,51.183v-0.224 H37.79l-3.568-6.18l3.568-6.18h7.136l3.568,6.18l-3.633,6.293L45.056,51.183v-0.224V51.183z M45.056,63.99l0.194,0.112l3.762-6.516 l-3.827-6.628h-7.654l-3.827,6.628l3.827,6.628h7.654l0.065-0.112L45.056,63.99v-0.224H37.79l-3.568-6.18l3.568-6.18h7.136 l3.568,6.18l-3.633,6.292L45.056,63.99v-0.224V63.99z M45.056,76.798l0.194,0.112l3.762-6.516l-3.827-6.629h-7.654l-3.827,6.629 l3.827,6.628h7.654l0.065-0.112L45.056,76.798v-0.224H37.79l-3.568-6.18l3.568-6.18h7.136l3.568,6.18l-3.633,6.292L45.056,76.798 v-0.224V76.798z M56.147,31.971l0.194,0.112l3.762-6.516l-3.827-6.629h-7.653l-3.827,6.629l3.827,6.628h7.653l0.065-0.112 L56.147,31.971v-0.224h-7.265l-3.568-6.18l3.568-6.18h7.135l3.568,6.18l-3.633,6.292L56.147,31.971v-0.224V31.971z M56.147,44.778 l0.194,0.112l3.762-6.516l-3.827-6.628h-7.653l-3.827,6.628l3.827,6.628h7.653l0.065-0.112L56.147,44.778v-0.224h-7.265 l-3.568-6.18l3.568-6.18h7.135l3.568,6.18l-3.633,6.292L56.147,44.778v-0.224V44.778z M56.147,57.586l0.194,0.112l3.762-6.516 l-3.827-6.629h-7.653l-3.827,6.629l3.827,6.628h7.653l0.065-0.112L56.147,57.586v-0.224h-7.265l-3.568-6.18l3.568-6.18h7.135 l3.568,6.18l-3.633,6.292L56.147,57.586v-0.224V57.586z M56.147,70.394l0.194,0.112l3.762-6.517l-3.827-6.628h-7.653l-3.827,6.628 l3.827,6.629h7.653l0.065-0.112L56.147,70.394V70.17h-7.265l-3.568-6.181l3.568-6.18h7.135l3.568,6.18l-3.633,6.292L56.147,70.394 V70.17V70.394z M56.147,83.202l0.194,0.112l3.762-6.516l-3.827-6.628h-7.653l-3.827,6.628l3.827,6.628h7.653l0.065-0.112 L56.147,83.202v-0.224h-7.265l-3.568-6.18l3.568-6.18l7.135,0l3.568,6.18l-3.633,6.292L56.147,83.202v-0.224V83.202z M67.239,25.567l0.194,0.112l3.762-6.517l-3.827-6.628h-7.654l-3.827,6.628l3.827,6.629h7.654l0.065-0.112L67.239,25.567v-0.224 h-7.266l-3.568-6.181l3.568-6.18h7.136l3.568,6.18l-3.633,6.292L67.239,25.567v-0.224V25.567z M67.239,38.374l0.194,0.112 l3.762-6.516l-3.827-6.628h-7.654l-3.827,6.628l3.827,6.628h7.654l0.065-0.112L67.239,38.374V38.15h-7.266l-3.568-6.18l3.568-6.18 h7.136l3.568,6.18l-3.633,6.292L67.239,38.374V38.15V38.374z M67.239,51.183l0.194,0.112l3.762-6.517l-3.827-6.628h-7.654 l-3.827,6.628l3.827,6.629h7.654l0.065-0.112L67.239,51.183v-0.224h-7.266l-3.568-6.18l3.568-6.18h7.136l3.568,6.18l-3.633,6.293 L67.239,51.183v-0.224V51.183z M67.239,63.99l0.194,0.112l3.762-6.516l-3.827-6.628h-7.654l-3.827,6.628l3.827,6.628h7.654 l0.065-0.112L67.239,63.99v-0.224h-7.266l-3.568-6.18l3.568-6.18h7.136l3.568,6.18l-3.633,6.292L67.239,63.99v-0.224V63.99z M67.239,76.798l0.194,0.112l3.762-6.516l-3.827-6.629h-7.654l-3.827,6.629l3.827,6.628h7.654l0.065-0.112L67.239,76.798v-0.224 h-7.266l-3.568-6.18l3.568-6.18h7.136l3.568,6.18l-3.633,6.292L67.239,76.798v-0.224V76.798z M78.332,31.971l0.194,0.112 l3.762-6.516l-3.827-6.629h-7.654l-3.827,6.629l3.827,6.628h7.654l0.065-0.112L78.332,31.971v-0.224h-7.266l-3.568-6.18l3.568-6.18 h7.136l3.568,6.18l-3.633,6.292L78.332,31.971v-0.224V31.971z M78.332,44.778l0.194,0.112l3.762-6.516l-3.827-6.628h-7.654 l-3.827,6.628l3.827,6.628h7.654l0.065-0.112L78.332,44.778v-0.224h-7.266l-3.568-6.18l3.568-6.18h7.136l3.568,6.18l-3.633,6.292 L78.332,44.778v-0.224V44.778z M78.332,57.586l0.194,0.112l3.762-6.516l-3.827-6.629h-7.654l-3.827,6.629l3.827,6.628h7.654 l0.065-0.112L78.332,57.586v-0.224h-7.265l-3.568-6.18l3.568-6.18h7.136l3.568,6.18l-3.633,6.292L78.332,57.586v-0.224V57.586z M78.332,70.394l0.194,0.112l3.762-6.517l-3.827-6.628h-7.654L66.98,63.99l3.827,6.629h7.654l0.065-0.112L78.332,70.394V70.17 h-7.266l-3.568-6.181l3.568-6.18h7.136l3.568,6.18l-3.633,6.292L78.332,70.394V70.17V70.394z M78.332,83.202l0.194,0.112 l3.762-6.516l-3.827-6.628h-7.654l-3.827,6.628l3.827,6.628h7.654l0.065-0.112L78.332,83.202v-0.224h-7.266l-3.568-6.18l3.568-6.18 h7.136l3.568,6.18l-3.633,6.292L78.332,83.202v-0.224V83.202z M22.871,89.606l0.194,0.112l3.762-6.516l-3.827-6.628h-7.653 l-3.827,6.628l3.827,6.628h7.653l0.065-0.112L22.871,89.606v-0.224h-7.265l-3.568-6.18l3.568-6.18h7.135l3.568,6.18l-3.633,6.292 L22.871,89.606v-0.224V89.606z M22.871,102.414l0.194,0.112l3.762-6.516l-3.827-6.629h-7.653l-3.827,6.629l3.827,6.628h7.653 l0.065-0.112L22.871,102.414v-0.224h-7.265l-3.568-6.18l3.568-6.18h7.135l3.568,6.18l-3.633,6.292L22.871,102.414v-0.224V102.414z M22.871,115.222l0.194,0.112l3.762-6.517l-3.827-6.628h-7.653l-3.827,6.628l3.827,6.629h7.653l0.065-0.112L22.871,115.222v-0.224 h-7.265l-3.568-6.181l3.568-6.18h7.135l3.568,6.18l-3.633,6.292L22.871,115.222v-0.224V115.222z M33.964,96.01l0.194,0.112 l3.762-6.517l-3.827-6.628h-7.654l-3.827,6.628l3.827,6.629h7.654l0.065-0.112L33.964,96.01v-0.224h-7.266l-3.568-6.18l3.568-6.18 h7.136l3.568,6.18l-3.633,6.293L33.964,96.01v-0.224V96.01z M33.964,108.817l0.194,0.112l3.762-6.516l-3.827-6.628h-7.654 l-3.827,6.628l3.827,6.628h7.654l0.065-0.112L33.964,108.817v-0.224h-7.265l-3.568-6.18l3.568-6.18h7.136l3.568,6.18l-3.633,6.292 L33.964,108.817v-0.224V108.817z M33.964,121.626l0.194,0.112l3.762-6.516l-3.827-6.629h-7.654l-3.827,6.629l3.827,6.628h7.654 l0.065-0.112L33.964,121.626v-0.224h-7.266l-3.568-6.18l3.568-6.18h7.136l3.568,6.18l-3.633,6.292L33.964,121.626v-0.224V121.626z M33.964,134.433l0.194,0.112l3.762-6.516l-3.827-6.628h-7.654l-3.827,6.628l3.827,6.628h7.654l0.065-0.112L33.964,134.433v-0.224 h-7.266l-3.568-6.18l3.568-6.18h7.136l3.568,6.18l-3.633,6.292L33.964,134.433v-0.224V134.433z M45.056,89.606l0.194,0.112 l3.762-6.516l-3.827-6.628h-7.654l-3.827,6.628l3.827,6.628h7.654l0.065-0.112L45.056,89.606v-0.224H37.79l-3.568-6.18l3.568-6.18 h7.136l3.568,6.18l-3.633,6.292L45.056,89.606v-0.224V89.606z M45.056,102.414l0.194,0.112l3.762-6.516l-3.827-6.629h-7.654 l-3.827,6.629l3.827,6.628h7.654l0.065-0.112L45.056,102.414v-0.224H37.79l-3.568-6.18l3.568-6.18h7.136l3.568,6.18l-3.633,6.292 L45.056,102.414v-0.224V102.414z M45.056,115.222l0.194,0.112l3.762-6.517l-3.827-6.628h-7.654l-3.827,6.628l3.827,6.629h7.654 l0.065-0.112L45.056,115.222v-0.224H37.79l-3.568-6.181l3.568-6.18h7.136l3.568,6.18l-3.633,6.292L45.056,115.222v-0.224V115.222z M45.056,128.029l0.194,0.112l3.762-6.516l-3.827-6.628h-7.654l-3.827,6.628l3.827,6.628h7.654l0.065-0.112L45.056,128.029v-0.224 H37.79l-3.568-6.18l3.568-6.18h7.136l3.568,6.18l-3.633,6.292L45.056,128.029v-0.224V128.029z M45.056,140.838l0.194,0.112 l3.762-6.517l-3.827-6.628h-7.654l-3.827,6.628l3.827,6.629h7.654l0.065-0.112L45.056,140.838v-0.224H37.79l-3.568-6.18l3.568-6.18 h7.136l3.568,6.18l-3.633,6.293L45.056,140.838v-0.224V140.838z M56.147,96.01l0.194,0.112l3.762-6.517l-3.827-6.628h-7.653 l-3.827,6.628l3.827,6.629h7.653l0.065-0.112L56.147,96.01v-0.224h-7.265l-3.568-6.18l3.568-6.18h7.135l3.568,6.18l-3.633,6.293 L56.147,96.01v-0.224V96.01z M56.147,108.817l0.194,0.112l3.762-6.516l-3.827-6.628h-7.653l-3.827,6.628l3.827,6.628h7.653 l0.065-0.112L56.147,108.817v-0.224h-7.265l-3.568-6.18l3.568-6.18h7.135l3.568,6.18l-3.633,6.292L56.147,108.817v-0.224V108.817z M56.147,121.626l0.194,0.112l3.762-6.516l-3.827-6.629h-7.653l-3.827,6.629l3.827,6.628h7.653l0.065-0.112L56.147,121.626v-0.224 h-7.265l-3.568-6.18l3.568-6.18h7.135l3.568,6.181l-3.633,6.292L56.147,121.626v-0.224V121.626z M56.147,134.433l0.194,0.112 l3.762-6.516l-3.827-6.628h-7.653l-3.827,6.628l3.827,6.628h7.653l0.065-0.112L56.147,134.433v-0.224h-7.265l-3.568-6.18 l3.568-6.18h7.135l3.568,6.18l-3.633,6.292L56.147,134.433v-0.224V134.433z M56.147,147.241l0.194,0.112l3.762-6.516l-3.827-6.629 h-7.653l-3.827,6.629l3.827,6.628h7.653l0.065-0.112L56.147,147.241v-0.224h-7.265l-3.568-6.18l3.568-6.18h7.135l3.568,6.18 l-3.633,6.292L56.147,147.241v-0.224V147.241z M67.239,89.606l0.194,0.112l3.762-6.516l-3.827-6.628h-7.654l-3.827,6.628 l3.827,6.628h7.654l0.065-0.112L67.239,89.606v-0.224h-7.266l-3.568-6.18l3.568-6.18h7.136l3.568,6.18l-3.633,6.292L67.239,89.606 v-0.224V89.606z M67.239,102.414l0.194,0.112l3.762-6.516l-3.827-6.629h-7.654l-3.827,6.629l3.827,6.628h7.654l0.065-0.112 L67.239,102.414v-0.224h-7.265l-3.568-6.18l3.568-6.18h7.136l3.568,6.18l-3.633,6.292L67.239,102.414v-0.224V102.414z M67.239,115.222l0.194,0.112l3.762-6.517l-3.827-6.628h-7.654l-3.827,6.628l3.827,6.629h7.654l0.065-0.112L67.239,115.222v-0.224 h-7.266l-3.568-6.181l3.568-6.18h7.136l3.568,6.18l-3.633,6.292L67.239,115.222v-0.224V115.222z M67.239,128.029l0.194,0.112 l3.762-6.516l-3.827-6.628h-7.654l-3.827,6.628l3.827,6.628h7.654l0.065-0.112L67.239,128.029v-0.224h-7.266l-3.568-6.18 l3.568-6.18h7.136l3.568,6.18l-3.633,6.292L67.239,128.029v-0.224V128.029z M67.239,140.838l0.194,0.112l3.762-6.517l-3.827-6.628 h-7.654l-3.827,6.628l3.827,6.629h7.654l0.065-0.112L67.239,140.838v-0.224h-7.266l-3.568-6.18l3.568-6.18h7.136l3.568,6.18 l-3.633,6.293L67.239,140.838v-0.224V140.838z M78.332,96.01l0.194,0.112l3.762-6.517l-3.827-6.628h-7.654l-3.827,6.628 l3.827,6.629h7.654l0.065-0.112L78.332,96.01v-0.224h-7.266l-3.568-6.18l3.568-6.18h7.136l3.568,6.18l-3.633,6.293L78.332,96.01 v-0.224V96.01z M78.332,108.817l0.194,0.112l3.762-6.516l-3.827-6.628h-7.654l-3.827,6.628l3.827,6.628h7.654l0.065-0.112 L78.332,108.817v-0.224h-7.265l-3.568-6.18l3.568-6.18h7.136l3.568,6.18l-3.633,6.292L78.332,108.817v-0.224V108.817z M78.332,121.626l0.194,0.112l3.762-6.516l-3.827-6.629h-7.654l-3.827,6.629l3.827,6.628h7.654l0.065-0.112L78.332,121.626v-0.224 h-7.266l-3.568-6.18l3.568-6.18h7.136l3.568,6.18l-3.633,6.292L78.332,121.626v-0.224V121.626z M78.332,134.433l0.194,0.112 l3.762-6.516l-3.827-6.628h-7.654l-3.827,6.628l3.827,6.628h7.654l0.065-0.112L78.332,134.433v-0.224h-7.266l-3.568-6.18 l3.568-6.18h7.136l3.568,6.18l-3.633,6.292L78.332,134.433v-0.224V134.433z M78.332,147.241l0.194,0.112l3.762-6.516l-3.827-6.629 h-7.654l-3.827,6.629l3.827,6.628h7.654l0.065-0.112L78.332,147.241v-0.224h-7.265l-3.568-6.18l3.568-6.18h7.136l3.568,6.18 l-3.633,6.292L78.332,147.241v-0.224V147.241z M89.427,25.567l0.194,0.112l3.762-6.517l-3.827-6.628h-7.654l-3.827,6.628 l3.827,6.629h7.654l0.065-0.112L89.427,25.567v-0.224h-7.266l-3.568-6.181l3.568-6.18h7.136l3.568,6.18l-3.633,6.292L89.427,25.567 v-0.224V25.567z M89.427,38.374l0.194,0.112l3.762-6.516l-3.827-6.628h-7.654l-3.827,6.628l3.827,6.628h7.654l0.065-0.112 L89.427,38.374V38.15h-7.266l-3.568-6.18l3.568-6.18h7.136l3.568,6.18l-3.633,6.292L89.427,38.374V38.15V38.374z M89.427,51.183 l0.194,0.112l3.762-6.517l-3.827-6.628h-7.654l-3.827,6.628l3.827,6.629h7.654l0.065-0.112L89.427,51.183v-0.224h-7.266 l-3.568-6.18l3.568-6.18h7.136l3.568,6.18l-3.633,6.293L89.427,51.183v-0.224V51.183z M89.427,63.99l0.194,0.112l3.762-6.516 l-3.827-6.628h-7.654l-3.827,6.628l3.827,6.628h7.654l0.065-0.112L89.427,63.99v-0.224h-7.266l-3.568-6.18l3.568-6.18h7.136 l3.568,6.18l-3.633,6.292L89.427,63.99v-0.224V63.99z M89.427,76.798l0.194,0.112l3.762-6.516l-3.827-6.629h-7.654l-3.827,6.629 l3.827,6.628h7.654l0.065-0.112L89.427,76.798v-0.224h-7.266l-3.568-6.18l3.568-6.18h7.136l3.568,6.18l-3.633,6.292L89.427,76.798 v-0.224V76.798z M100.52,31.971l0.194,0.112l3.762-6.516l-3.827-6.629h-7.654l-3.827,6.629l3.827,6.628h7.654l0.065-0.112 L100.52,31.971v-0.224h-7.266l-3.568-6.18l3.568-6.18h7.136l3.568,6.18l-3.633,6.292L100.52,31.971v-0.224V31.971z M100.52,44.778 l0.194,0.112l3.762-6.516l-3.827-6.628h-7.654l-3.827,6.628l3.827,6.628h7.654l0.065-0.112L100.52,44.778v-0.224h-7.266 l-3.568-6.18l3.568-6.18h7.136l3.568,6.18l-3.633,6.292L100.52,44.778v-0.224V44.778z M100.52,57.586l0.194,0.112l3.762-6.516 l-3.827-6.629h-7.654l-3.827,6.629l3.827,6.628h7.654l0.065-0.112L100.52,57.586v-0.224h-7.265l-3.568-6.18l3.568-6.18h7.136 l3.568,6.18l-3.633,6.292L100.52,57.586v-0.224V57.586z M100.52,70.394l0.194,0.112l3.762-6.517l-3.827-6.628h-7.654l-3.827,6.628 l3.827,6.629h7.654l0.065-0.112L100.52,70.394V70.17h-7.266l-3.568-6.181l3.568-6.18h7.136l3.568,6.18l-3.633,6.292L100.52,70.394 V70.17V70.394z M100.52,83.202l0.194,0.112l3.762-6.516l-3.827-6.628h-7.654l-3.827,6.628l3.827,6.628h7.654l0.065-0.112 L100.52,83.202v-0.224h-7.266l-3.568-6.18l3.568-6.18h7.136l3.568,6.18l-3.633,6.292L100.52,83.202v-0.224V83.202z M111.611,25.567 l0.194,0.112l3.762-6.517l-3.827-6.628h-7.653l-3.827,6.628l3.827,6.629h7.653l0.065-0.112L111.611,25.567v-0.224h-7.265 l-3.568-6.181l3.568-6.18h7.135l3.568,6.18l-3.633,6.292L111.611,25.567v-0.224V25.567z M111.611,38.374l0.194,0.112l3.762-6.516 l-3.827-6.628h-7.653l-3.827,6.628l3.827,6.628h7.653l0.065-0.112L111.611,38.374V38.15h-7.265l-3.568-6.18l3.568-6.18h7.135 l3.568,6.18l-3.633,6.292L111.611,38.374V38.15V38.374z M111.611,51.183l0.194,0.112l3.762-6.517l-3.827-6.628h-7.653l-3.827,6.628 l3.827,6.629h7.653l0.065-0.112L111.611,51.183v-0.224h-7.265l-3.568-6.18l3.568-6.18h7.135l3.568,6.18l-3.633,6.293 L111.611,51.183v-0.224V51.183z M111.611,63.99l0.194,0.112l3.762-6.516l-3.827-6.628h-7.653l-3.827,6.628l3.827,6.628h7.653 l0.065-0.112L111.611,63.99v-0.224h-7.265l-3.568-6.18l3.568-6.18h7.135l3.568,6.18l-3.633,6.292L111.611,63.99v-0.224V63.99z M111.611,76.798l0.194,0.112l3.762-6.516l-3.827-6.629h-7.653l-3.827,6.629l3.827,6.628h7.653l0.065-0.112L111.611,76.798v-0.224 h-7.265l-3.568-6.18l3.568-6.18l7.135,0l3.568,6.18l-3.633,6.292L111.611,76.798v-0.224V76.798z M122.703,31.971l0.194,0.112 l3.762-6.516l-3.827-6.629h-7.654l-3.827,6.629l3.827,6.628h7.654l0.065-0.112L122.703,31.971v-0.224h-7.266l-3.568-6.18 l3.568-6.18h7.136l3.568,6.18l-3.633,6.292L122.703,31.971v-0.224V31.971z M122.703,44.778l0.194,0.112l3.762-6.516l-3.827-6.628 h-7.654l-3.827,6.628l3.827,6.628h7.654l0.065-0.112L122.703,44.778v-0.224h-7.266l-3.568-6.18l3.568-6.18h7.136l3.568,6.18 l-3.633,6.292L122.703,44.778v-0.224V44.778z M122.703,57.586l0.194,0.112l3.762-6.516l-3.827-6.629h-7.654l-3.827,6.629 l3.827,6.628h7.654l0.065-0.112L122.703,57.586v-0.224h-7.265l-3.568-6.18l3.568-6.18h7.136l3.568,6.18l-3.633,6.292 L122.703,57.586v-0.224V57.586z M122.703,70.394l0.194,0.112l3.762-6.517l-3.827-6.628h-7.654l-3.827,6.628l3.827,6.629h7.654 l0.065-0.112L122.703,70.394V70.17h-7.266l-3.568-6.181l3.568-6.18h7.136l3.568,6.18l-3.633,6.292L122.703,70.394V70.17V70.394z M122.703,83.202l0.194,0.112l3.762-6.516l-3.827-6.628h-7.654l-3.827,6.628l3.827,6.628h7.654l0.065-0.112L122.703,83.202v-0.224 h-7.266l-3.568-6.18l3.568-6.18h7.136l3.568,6.18l-3.633,6.292L122.703,83.202v-0.224V83.202z M133.795,38.374l0.194,0.112 l3.762-6.516l-3.827-6.628h-7.654l-3.827,6.628l3.827,6.628h7.654l0.065-0.112L133.795,38.374V38.15h-7.266l-3.568-6.18l3.568-6.18 h7.136l3.568,6.18l-3.633,6.292L133.795,38.374V38.15V38.374z M133.795,51.183l0.194,0.112l3.762-6.517l-3.827-6.628h-7.654 l-3.827,6.628l3.827,6.629h7.654l0.065-0.112L133.795,51.183v-0.224h-7.266l-3.568-6.18l3.568-6.18h7.136l3.568,6.18l-3.633,6.293 L133.795,51.183v-0.224V51.183z M133.795,63.99l0.194,0.112l3.762-6.516l-3.827-6.628h-7.654l-3.827,6.628l3.827,6.628h7.654 l0.065-0.112L133.795,63.99v-0.224h-7.266l-3.568-6.18l3.568-6.18h7.136l3.568,6.18l-3.633,6.292L133.795,63.99v-0.224V63.99z M133.795,76.798l0.194,0.112l3.762-6.516l-3.827-6.629h-7.654l-3.827,6.629l3.827,6.628h7.654l0.065-0.112L133.795,76.798v-0.224 h-7.266l-3.568-6.18l3.568-6.18h7.136l3.568,6.18l-3.633,6.292L133.795,76.798v-0.224V76.798z M144.887,57.586l0.194,0.112 l3.762-6.516l-3.827-6.629h-7.654l-3.827,6.629l3.827,6.628h7.654l0.065-0.112L144.887,57.586v-0.224h-7.265l-3.568-6.18 l3.568-6.18h7.136l3.568,6.18l-3.633,6.292L144.887,57.586v-0.224V57.586z M144.887,70.394l0.194,0.112l3.762-6.517l-3.827-6.628 h-7.654l-3.827,6.628l3.827,6.629h7.654l0.065-0.112L144.887,70.394V70.17h-7.266l-3.568-6.181l3.568-6.18h7.136l3.568,6.18 l-3.633,6.292L144.887,70.394V70.17V70.394z M144.887,83.202l0.194,0.112l3.762-6.516l-3.827-6.628h-7.654l-3.827,6.628 l3.827,6.628h7.654l0.065-0.112L144.887,83.202v-0.224h-7.266l-3.568-6.18l3.568-6.18h7.136l3.568,6.18l-3.633,6.292 L144.887,83.202v-0.224V83.202z M89.427,89.606l0.194,0.112l3.762-6.516l-3.827-6.628h-7.654l-3.827,6.628l3.827,6.628h7.654 l0.065-0.112L89.427,89.606v-0.224h-7.266l-3.568-6.18l3.568-6.18h7.136l3.568,6.18l-3.633,6.292L89.427,89.606v-0.224V89.606z M89.427,102.414l0.194,0.112l3.762-6.516l-3.827-6.629h-7.654l-3.827,6.629l3.827,6.628h7.654l0.065-0.112L89.427,102.414v-0.224 h-7.265l-3.568-6.18l3.568-6.18h7.136l3.568,6.18l-3.633,6.292L89.427,102.414v-0.224V102.414z M89.427,115.222l0.194,0.112 l3.762-6.517l-3.827-6.628h-7.654l-3.827,6.628l3.827,6.629h7.654l0.065-0.112L89.427,115.222v-0.224h-7.266l-3.568-6.181 l3.568-6.18h7.136l3.568,6.18l-3.633,6.292L89.427,115.222v-0.224V115.222z M89.427,128.029l0.194,0.112l3.762-6.516l-3.827-6.628 h-7.654l-3.827,6.628l3.827,6.628h7.654l0.065-0.112L89.427,128.029v-0.224h-7.266l-3.568-6.18l3.568-6.18h7.136l3.568,6.18 l-3.633,6.292L89.427,128.029v-0.224V128.029z M89.427,140.838l0.194,0.112l3.762-6.517l-3.827-6.628h-7.654l-3.827,6.628 l3.827,6.629h7.654l0.065-0.112L89.427,140.838v-0.224h-7.266l-3.568-6.18l3.568-6.18h7.136l3.568,6.18l-3.633,6.293 L89.427,140.838v-0.224V140.838z M100.52,96.01l0.194,0.112l3.762-6.517l-3.827-6.628h-7.654l-3.827,6.628l3.827,6.629h7.654 l0.065-0.112L100.52,96.01v-0.224h-7.266l-3.568-6.18l3.568-6.18h7.136l3.568,6.18l-3.633,6.293L100.52,96.01v-0.224V96.01z M100.52,108.817l0.194,0.112l3.762-6.516l-3.827-6.628h-7.654l-3.827,6.628l3.827,6.628h7.654l0.065-0.112L100.52,108.817v-0.224 h-7.265l-3.568-6.18l3.568-6.18h7.136l3.568,6.18l-3.633,6.292L100.52,108.817v-0.224V108.817z M100.52,121.626l0.194,0.112 l3.762-6.516l-3.827-6.629h-7.654l-3.827,6.629l3.827,6.628h7.654l0.065-0.112L100.52,121.626v-0.224h-7.266l-3.568-6.18 l3.568-6.18h7.136l3.568,6.18l-3.633,6.292L100.52,121.626v-0.224V121.626z M100.52,134.433l0.194,0.112l3.762-6.516l-3.827-6.628 h-7.654l-3.827,6.628l3.827,6.628h7.654l0.065-0.112L100.52,134.433v-0.224h-7.266l-3.568-6.18l3.568-6.18h7.136l3.568,6.18 l-3.633,6.292L100.52,134.433v-0.224V134.433z M100.52,147.241l0.194,0.112l3.762-6.516l-3.827-6.629h-7.654l-3.827,6.629 l3.827,6.628h7.654l0.065-0.112L100.52,147.241v-0.224h-7.265l-3.568-6.18l3.568-6.18h7.136l3.568,6.18l-3.633,6.292 L100.52,147.241v-0.224V147.241z M111.611,89.606l0.194,0.112l3.762-6.516l-3.827-6.628h-7.653l-3.827,6.628l3.827,6.628h7.653 l0.065-0.112L111.611,89.606v-0.224h-7.265l-3.568-6.18l3.568-6.18h7.135l3.568,6.18l-3.633,6.292L111.611,89.606v-0.224V89.606z M111.611,102.414l0.194,0.112l3.762-6.516l-3.827-6.629h-7.653l-3.827,6.629l3.827,6.628h7.653l0.065-0.112L111.611,102.414 v-0.224h-7.265l-3.568-6.18l3.568-6.18h7.135l3.568,6.18l-3.633,6.292L111.611,102.414v-0.224V102.414z M111.611,115.222 l0.194,0.112l3.762-6.517l-3.827-6.628h-7.653l-3.827,6.628l3.827,6.629h7.653l0.065-0.112L111.611,115.222v-0.224h-7.265 l-3.568-6.181l3.568-6.18h7.135l3.568,6.18l-3.633,6.292L111.611,115.222v-0.224V115.222z M111.611,128.029l0.194,0.112 l3.762-6.516l-3.827-6.628h-7.653l-3.827,6.628l3.827,6.628h7.653l0.065-0.112L111.611,128.029v-0.224h-7.265l-3.568-6.18 l3.568-6.18h7.135l3.568,6.18l-3.633,6.292L111.611,128.029v-0.224V128.029z M111.611,140.838l0.194,0.112l3.762-6.517 l-3.827-6.628h-7.653l-3.827,6.628l3.827,6.629h7.653l0.065-0.112L111.611,140.838v-0.224h-7.265l-3.568-6.18l3.568-6.18h7.135 l3.568,6.18l-3.633,6.293L111.611,140.838v-0.224V140.838z M122.703,96.01l0.194,0.112l3.762-6.517l-3.827-6.628h-7.654 l-3.827,6.628l3.827,6.629h7.654l0.065-0.112L122.703,96.01v-0.224h-7.266l-3.568-6.18l3.568-6.18h7.136l3.568,6.18l-3.633,6.293 L122.703,96.01v-0.224V96.01z M122.703,108.817l0.194,0.112l3.762-6.516l-3.827-6.628h-7.654l-3.827,6.628l3.827,6.628h7.654 l0.065-0.112L122.703,108.817v-0.224h-7.265l-3.568-6.18l3.568-6.18h7.136l3.568,6.18l-3.633,6.292L122.703,108.817v-0.224V108.817 z M122.703,121.626l0.194,0.112l3.762-6.516l-3.827-6.629h-7.654l-3.827,6.629l3.827,6.628h7.654l0.065-0.112L122.703,121.626 v-0.224h-7.266l-3.568-6.18l3.568-6.18h7.136l3.568,6.18l-3.633,6.292L122.703,121.626v-0.224V121.626z M122.703,134.433 l0.194,0.112l3.762-6.516l-3.827-6.628h-7.654l-3.827,6.628l3.827,6.628h7.654l0.065-0.112L122.703,134.433v-0.224h-7.266 l-3.568-6.18l3.568-6.18h7.136l3.568,6.18l-3.633,6.292L122.703,134.433v-0.224V134.433z M133.795,89.606l0.194,0.112l3.762-6.516 l-3.827-6.628h-7.654l-3.827,6.628l3.827,6.628h7.654l0.065-0.112L133.795,89.606v-0.224h-7.266l-3.568-6.18l3.568-6.18h7.136 l3.568,6.18l-3.633,6.292L133.795,89.606v-0.224V89.606z M133.795,102.414l0.194,0.112l3.762-6.516l-3.827-6.629h-7.654 l-3.827,6.629l3.827,6.628h7.654l0.065-0.112L133.795,102.414v-0.224h-7.265l-3.568-6.18l3.568-6.18h7.136l3.568,6.18l-3.633,6.292 L133.795,102.414v-0.224V102.414z M133.795,115.222l0.194,0.112l3.762-6.517l-3.827-6.628h-7.654l-3.827,6.628l3.827,6.629h7.654 l0.065-0.112L133.795,115.222v-0.224h-7.266l-3.568-6.181l3.568-6.18h7.136l3.568,6.18l-3.633,6.292L133.795,115.222v-0.224 V115.222z M133.795,128.029l0.194,0.112l3.762-6.516l-3.827-6.628h-7.654l-3.827,6.628l3.827,6.628h7.654l0.065-0.112 L133.795,128.029v-0.224h-7.266l-3.568-6.18l3.568-6.18h7.136l3.568,6.18l-3.633,6.292L133.795,128.029v-0.224V128.029z M144.887,96.01l0.194,0.112l3.762-6.517l-3.827-6.628h-7.654l-3.827,6.628l3.827,6.629h7.654l0.065-0.112L144.887,96.01v-0.224 h-7.266l-3.568-6.18l3.568-6.18h7.136l3.568,6.18l-3.633,6.293L144.887,96.01v-0.224V96.01z M144.887,108.817l0.194,0.112 l3.762-6.516l-3.827-6.628h-7.654l-3.827,6.628l3.827,6.628h7.654l0.065-0.112L144.887,108.817v-0.224h-7.265l-3.568-6.18 l3.568-6.18h7.136l3.568,6.18l-3.633,6.292L144.887,108.817v-0.224V108.817z M144.887,121.626l0.194,0.112l3.762-6.516 l-3.827-6.629h-7.654l-3.827,6.629l3.827,6.628h7.654l0.065-0.112L144.887,121.626v-0.224h-7.266l-3.568-6.18l3.568-6.18h7.136 l3.568,6.18l-3.633,6.292L144.887,121.626v-0.224V121.626z"/></g><g class="solution-outer-circles"><g id="solutions_ad_tech_providers_outer_path" class="solution-outer-path"><linearGradient id="lg_solution_ad_tech_providers_0" gradientUnits="userSpaceOnUse" x1="23.4315" y1="136.5685" x2="136.5685" y2="23.4315"><stop offset="0" style="stop-color:#62c5e5"/><stop offset="1" style="stop-color:#63C6E5"/></linearGradient><path id="solution_ad_tech_providers_outer_path_gs" class="solution-ad-tech-providers-0" d="M80,6c40.804,0,74,33.196,74,74s-33.196,74-74,74S6,120.804,6,80S39.196,6,80,6 M80,0 C35.817,0,0,35.817,0,80s35.817,80,80,80s80-35.817,80-80S124.183,0,80,0L80,0z"/></g><g id="solutions_ad_tech_providers_inner_path" class="solution-inner-path"><linearGradient id="lg-solution-ad-tech-providers-1" gradientUnits="userSpaceOnUse" x1="34.0381" y1="125.9619" x2="125.9619" y2="34.0381"><stop offset="0" style="stop-color:#62c5e5"/><stop offset="1" style="stop-color:#63C6E5"/></linearGradient><path id="solution_ad_tech_providers_inner_path_gs" class="solution-ad-tech-providers-1" d="M80,17c34.738,0,63,28.262,63,63s-28.262,63-63,63s-63-28.262-63-63S45.262,17,80,17 M80,15 c-35.898,0-65,29.102-65,65s29.102,65,65,65s65-29.102,65-65S115.898,15,80,15L80,15z"/></g></g><g id="solution_ad_tech_providers_base_gs" class="solution-base"><path class="solution-ad-tech-providers-6" d="M109.323,87.906c-1.204,0-2.298,0.429-3.177,1.12V71.563c0,0-7.584,2.593-8.334-4.638 c0.906-7.488,8.334-4.394,8.334-4.394v-5.844c0-1.657-1.343-3-3-3h-5.77c0.544-0.818,0.863-1.798,0.863-2.854 c0-2.854-2.313-5.167-5.167-5.167s-5.167,2.313-5.167,5.167c0,1.056,0.32,2.036,0.863,2.854H71.542c0,0,3,7.604-4.614,8.646 c-7.719-1.25-4.47-8.646-4.47-8.646h-5.604c-1.657,0-3,1.343-3,3v6.261c-0.893-0.737-2.023-1.198-3.271-1.198 c-2.854,0-5.167,2.313-5.167,5.167c0,2.854,2.313,5.167,5.167,5.167c1.249,0,2.378-0.461,3.271-1.198v17.928 c0,0,7.334-3.532,8.428,4.259c-1.406,7.834-8.428,4.49-8.428,4.49v5.75c0,1.657,1.343,3,3,3h5.719 c-0.508,0.8-0.813,1.742-0.813,2.76c0,2.854,2.313,5.167,5.167,5.167s5.167-2.313,5.167-5.167c0-1.018-0.304-1.96-0.813-2.76 h17.282c0,0-3.094-7.188,4.519-8.625c7.761,1.219,4.558,8.625,4.558,8.625h5.506c1.657,0,3-1.343,3-3V97.12 c0.879,0.691,1.972,1.12,3.177,1.12c2.854,0,5.167-2.313,5.167-5.167C114.49,90.219,112.177,87.906,109.323,87.906z"/><linearGradient id="lg_solution_ad_tech_providers_3" gradientUnits="userSpaceOnUse" x1="54.2784" y1="105.7221" x2="105.7214" y2="54.2791"><stop offset="0" style="stop-color:#62c5e5"/><stop offset="1" style="stop-color:#63C6E5"/></linearGradient><path class="solution-ad-tech-providers-3" d="M109.363,87.368c-0.976-0.013-1.898,0.213-2.737,0.659V80.48v-0.959v-9.38l-0.768,0.578 c-0.851,0.641-1.873,0.961-2.915,0.956c-2.459-0.034-4.558-2.056-4.679-4.509c-0.065-1.317,0.398-2.565,1.302-3.516 c0.906-0.951,2.128-1.476,3.442-1.476c1.033,0,2.019,0.331,2.849,0.956l0.768,0.578v-7.244c0-1.706-1.388-3.094-3.093-3.094h-5.412 c0.434-0.817,0.661-1.722,0.661-2.659c0-1.579-0.63-3.048-1.773-4.136c-1.144-1.088-2.651-1.655-4.224-1.566 c-2.999,0.147-5.38,2.617-5.42,5.623c-0.013,0.965,0.213,1.897,0.66,2.738h-7.546h-0.959h-9.379l0.578,0.768 c0.64,0.851,0.971,1.859,0.956,2.915c-0.033,2.46-2.055,4.558-4.508,4.679c-1.314,0.057-2.564-0.398-3.516-1.303 c-0.951-0.906-1.476-2.128-1.476-3.442c0-1.032,0.331-2.018,0.957-2.849l0.578-0.768h-7.244c-1.706,0-3.093,1.388-3.093,3.094 v5.411c-0.84-0.446-1.784-0.661-2.737-0.659c-3.005,0.041-5.475,2.422-5.623,5.421c-0.078,1.582,0.478,3.083,1.566,4.226 c1.089,1.143,2.557,1.773,4.135,1.773c0.937,0,1.842-0.227,2.659-0.661v7.547v0.959v9.381l0.768-0.579 c0.85-0.64,1.882-0.971,2.915-0.956c2.459,0.033,4.558,2.055,4.679,4.508c0.065,1.317-0.398,2.566-1.303,3.517 c-0.905,0.951-2.127,1.476-3.441,1.476c-1.032,0-2.018-0.331-2.849-0.957l-0.768-0.578v7.244c0,1.706,1.388,3.095,3.093,3.095 h5.411c-0.447,0.839-0.673,1.771-0.66,2.737c0.041,3.006,2.422,5.476,5.421,5.624c0.097,0.005,0.195,0.007,0.291,0.007 c1.473,0,2.86-0.552,3.932-1.574c1.143-1.089,1.773-2.557,1.773-4.136c0-0.937-0.227-1.842-0.66-2.658h7.545h0.959h9.379 l-0.578-0.768c-0.64-0.851-0.971-1.859-0.956-2.915c0.033-2.459,2.055-4.558,4.508-4.68c1.318-0.066,2.564,0.398,3.516,1.304 c0.951,0.906,1.476,2.128,1.476,3.441c0,1.032-0.331,2.018-0.957,2.849l-0.578,0.768h7.244c1.706,0,3.093-1.389,3.093-3.095v-5.412 c0.817,0.434,1.722,0.661,2.659,0.661c1.578,0,3.047-0.629,4.135-1.774c1.088-1.142,1.644-2.643,1.566-4.224 C114.839,89.789,112.369,87.408,109.363,87.368z M80.479,54.329h9.378l-0.577-0.768c-0.64-0.852-0.971-1.86-0.956-2.916 c0.033-2.46,2.055-4.558,4.508-4.679c1.295-0.066,2.564,0.398,3.516,1.303c0.951,0.906,1.476,2.128,1.476,3.442 c0,1.032-0.331,2.018-0.957,2.85l-0.578,0.768h7.244c1.177,0,2.135,0.958,2.135,2.135v5.412c-0.816-0.434-1.721-0.66-2.658-0.66 c-1.579,0-3.048,0.63-4.136,1.774c-1.088,1.143-1.644,2.643-1.565,4.224c0.147,2.998,2.617,5.38,5.622,5.421 c0.949,0,1.896-0.214,2.737-0.659v7.547h-9.379h-0.001l0.579,0.768c0.158,0.209,0.296,0.429,0.416,0.656 c0.055,0.105,0.092,0.216,0.139,0.324c0.055,0.127,0.118,0.251,0.161,0.381c0.039,0.117,0.059,0.24,0.089,0.36 c0.032,0.128,0.071,0.254,0.092,0.385c0.019,0.121,0.02,0.246,0.03,0.369c0.01,0.133,0.028,0.265,0.027,0.401 c-0.001,0.177-0.032,0.348-0.052,0.521c-0.162,1.334-0.885,2.528-1.942,3.298c-0.008,0.006-0.016,0.013-0.025,0.019 c-0.197,0.142-0.411,0.26-0.628,0.371c-0.073,0.036-0.146,0.076-0.221,0.108c-0.167,0.074-0.342,0.132-0.517,0.186 c-0.144,0.043-0.288,0.084-0.437,0.113c-0.136,0.028-0.276,0.047-0.415,0.063c-0.17,0.018-0.342,0.027-0.515,0.028 c-0.166-0.001-0.33-0.009-0.492-0.026c-0.152-0.016-0.303-0.037-0.451-0.068c-0.133-0.027-0.263-0.064-0.393-0.102 c-0.19-0.058-0.379-0.12-0.558-0.201c-0.062-0.027-0.12-0.059-0.18-0.089c-0.228-0.115-0.451-0.239-0.657-0.388 c-0.001-0.001-0.002-0.001-0.002-0.001c-1.082-0.781-1.816-2.005-1.963-3.37c-0.016-0.153-0.045-0.302-0.046-0.457 c-0.001-0.155,0.017-0.307,0.031-0.459c0.009-0.104,0.009-0.21,0.025-0.312c0.023-0.149,0.067-0.293,0.104-0.438 c0.026-0.102,0.043-0.207,0.076-0.307c0.053-0.161,0.128-0.314,0.198-0.469c0.036-0.078,0.061-0.16,0.101-0.237 c0.12-0.228,0.259-0.449,0.417-0.659l0.578-0.768h-9.379v-7.547c0.816,0.434,1.721,0.66,2.658,0.66c1.579,0,3.047-0.63,4.136-1.774 c1.088-1.142,1.644-2.643,1.566-4.225c-0.148-2.998-2.618-5.38-5.623-5.421c-0.973-0.001-1.897,0.214-2.737,0.66V54.329z M53.564,70.719c-0.832,0.626-1.818,0.957-2.85,0.957c-1.313,0-2.535-0.524-3.44-1.475c-0.905-0.951-1.369-2.201-1.304-3.518 c0.122-2.452,2.221-4.475,4.68-4.509c1.045-0.002,2.064,0.317,2.915,0.956l0.768,0.578v-7.244c0-1.177,0.958-2.135,2.135-2.135 h5.411c-0.433,0.817-0.66,1.721-0.66,2.658c0,1.579,0.63,3.048,1.773,4.136c1.144,1.088,2.655,1.656,4.224,1.566 c2.999-0.147,5.38-2.617,5.42-5.623c0.013-0.965-0.213-1.897-0.659-2.737h7.545v9.379l0.768-0.578 c0.636-0.479,1.368-0.781,2.134-0.899c0.033-0.005,0.066-0.004,0.099-0.008c0.226-0.03,0.453-0.051,0.682-0.049 c2.459,0.034,4.558,2.056,4.68,4.509c0.065,1.318-0.399,2.567-1.304,3.517c-0.905,0.951-2.127,1.476-3.441,1.476 c-1.032,0-2.018-0.331-2.849-0.957l-0.768-0.578v9.38h-7.545c0.434-0.817,0.66-1.721,0.66-2.658c0-1.579-0.63-3.047-1.773-4.136 c-1.142-1.089-2.642-1.645-4.224-1.567l0,0l0,0h-0.001c-2.061,0.102-3.831,1.301-4.749,3.018c-0.417,0.78-0.659,1.667-0.672,2.607 c-0.013,0.966,0.213,1.898,0.66,2.737h-7.545v-9.38L53.564,70.719z M79.521,105.672h-9.379l0.578,0.768 c0.626,0.832,0.957,1.818,0.957,2.849c0,1.314-0.524,2.536-1.476,3.441c-0.951,0.906-2.193,1.362-3.516,1.304 c-2.452-0.122-4.475-2.221-4.509-4.68c-0.014-1.057,0.316-2.066,0.957-2.915l0.579-0.768h-7.245c-1.177,0-2.135-0.958-2.135-2.136 v-5.411c0.816,0.434,1.721,0.66,2.658,0.66c1.579,0,3.048-0.63,4.136-1.774c1.088-1.143,1.644-2.643,1.565-4.225 c-0.147-2.999-2.617-5.38-5.622-5.42c-0.956-0.013-1.898,0.213-2.737,0.659V80.48h9.38l-0.579-0.768 c-0.64-0.849-0.971-1.858-0.957-2.915c0.034-2.459,2.057-4.558,4.509-4.68c1.326-0.06,2.566,0.399,3.516,1.304 c0.951,0.906,1.476,2.128,1.476,3.441c0,1.032-0.331,2.018-0.957,2.849l-0.578,0.768h9.379v7.547 c-0.21-0.111-0.426-0.208-0.646-0.292c-0.016-0.006-0.034-0.01-0.05-0.016c-0.206-0.076-0.415-0.141-0.629-0.193 c-0.016-0.004-0.032-0.005-0.048-0.009c-0.21-0.049-0.423-0.087-0.639-0.112c-0.062-0.007-0.125-0.006-0.187-0.011 c-0.153-0.012-0.305-0.028-0.459-0.028c-0.016,0-0.032,0.002-0.049,0.002c-0.01,0-0.02-0.002-0.03-0.002 c-0.084,0.001-0.165,0.011-0.247,0.015c-0.099,0.006-0.198,0.008-0.295,0.018c-0.056,0.006-0.11,0.017-0.165,0.025 c-0.834,0.114-1.62,0.407-2.319,0.863c-0.015,0.009-0.029,0.018-0.044,0.027c-0.114,0.076-0.224,0.158-0.334,0.243 c-0.04,0.031-0.081,0.062-0.121,0.094c-0.09,0.074-0.177,0.152-0.263,0.231c-0.054,0.05-0.107,0.1-0.159,0.151 c-0.036,0.036-0.075,0.067-0.11,0.104c-0.04,0.041-0.073,0.087-0.111,0.129c-0.051,0.057-0.102,0.116-0.151,0.175 c-0.071,0.085-0.14,0.172-0.205,0.26c-0.04,0.054-0.077,0.109-0.115,0.164c-0.068,0.099-0.134,0.199-0.195,0.301 c-0.028,0.047-0.053,0.096-0.08,0.143c-0.063,0.113-0.125,0.227-0.179,0.343c-0.019,0.041-0.036,0.084-0.054,0.126 c-0.055,0.125-0.109,0.25-0.154,0.379c-0.015,0.042-0.026,0.085-0.04,0.127c-0.043,0.131-0.085,0.261-0.119,0.395 c-0.014,0.055-0.022,0.112-0.034,0.168c-0.027,0.124-0.055,0.247-0.074,0.373c-0.013,0.089-0.018,0.181-0.027,0.271 c-0.01,0.096-0.024,0.192-0.028,0.289l0,0.004c-0.005,0.097,0,0.192,0,0.288s-0.005,0.191,0,0.288l0,0.004 c0.005,0.097,0.019,0.192,0.028,0.288c0.009,0.091,0.014,0.183,0.028,0.272c0.019,0.126,0.047,0.25,0.074,0.374 c0.012,0.056,0.021,0.113,0.034,0.168c0.033,0.134,0.076,0.265,0.119,0.396c0.014,0.042,0.025,0.085,0.04,0.127 c0.045,0.129,0.099,0.254,0.154,0.379c0.019,0.042,0.035,0.085,0.054,0.126c0.055,0.117,0.116,0.23,0.179,0.343 c0.027,0.048,0.052,0.097,0.08,0.144c0.061,0.102,0.127,0.202,0.195,0.301c0.038,0.055,0.075,0.11,0.114,0.164 c0.065,0.089,0.134,0.175,0.205,0.261c0.049,0.059,0.099,0.118,0.151,0.175c0.038,0.042,0.072,0.088,0.111,0.129 c0.035,0.037,0.074,0.069,0.11,0.104c0.052,0.052,0.105,0.102,0.159,0.151c0.086,0.08,0.173,0.157,0.263,0.231 c0.039,0.032,0.08,0.062,0.121,0.094c0.11,0.085,0.22,0.167,0.334,0.244c0.014,0.009,0.028,0.017,0.041,0.026 c0.7,0.457,1.488,0.75,2.323,0.864c0.055,0.008,0.108,0.019,0.163,0.025c0.097,0.01,0.197,0.013,0.295,0.018 c0.083,0.005,0.164,0.014,0.247,0.015c0.008,0,0.017-0.002,0.026-0.002c0.018,0,0.035,0.003,0.053,0.003 c0.937,0,1.842-0.227,2.658-0.66V105.672z M112.726,96.351c-0.905,0.951-2.127,1.476-3.44,1.476c-1.032,0-2.018-0.331-2.85-0.957 l-0.768-0.578v7.244c0,1.178-0.958,2.136-2.135,2.136h-5.411c0.434-0.817,0.66-1.721,0.66-2.658c0-1.579-0.63-3.047-1.773-4.136 c-1.142-1.088-2.644-1.645-4.224-1.567c-2.999,0.148-5.38,2.618-5.42,5.624c-0.013,0.965,0.213,1.897,0.659,2.737h-7.545v-9.38 l-0.768,0.578c-0.842,0.634-1.843,0.941-2.883,0.954c-0.155-0.001-0.303-0.03-0.455-0.046c-1.364-0.148-2.587-0.881-3.367-1.961 c-0.001-0.002-0.003-0.003-0.004-0.005c-0.149-0.207-0.273-0.43-0.388-0.658c-0.029-0.059-0.06-0.117-0.087-0.177 c-0.083-0.183-0.146-0.375-0.205-0.569c-0.036-0.124-0.071-0.248-0.097-0.375c-0.033-0.155-0.054-0.312-0.071-0.471 c-0.016-0.16-0.025-0.322-0.025-0.485s0.008-0.325,0.025-0.485c0.017-0.159,0.038-0.317,0.071-0.471 c0.026-0.127,0.061-0.251,0.097-0.375c0.059-0.194,0.122-0.386,0.205-0.569c0.027-0.06,0.058-0.118,0.087-0.177 c0.115-0.228,0.239-0.451,0.388-0.658c0.001-0.002,0.003-0.003,0.004-0.005c0.78-1.08,2.003-1.813,3.367-1.961 c0.151-0.016,0.3-0.044,0.454-0.046c1.007,0.016,2.042,0.319,2.884,0.953l0.768,0.579V89.86v-9.38h7.545 c-0.11,0.207-0.206,0.419-0.288,0.636c-0.033,0.086-0.054,0.175-0.083,0.262c-0.044,0.134-0.091,0.267-0.125,0.404 c-0.023,0.092-0.034,0.188-0.052,0.281c-0.026,0.136-0.056,0.272-0.072,0.41c-0.011,0.092-0.011,0.187-0.017,0.28 c-0.009,0.128-0.023,0.256-0.023,0.385c0,0.016,0.002,0.032,0.002,0.048c0,0.01-0.001,0.02-0.001,0.03 c0.001,0.084,0.011,0.165,0.015,0.247c0.005,0.099,0.008,0.198,0.018,0.295c0.006,0.055,0.017,0.108,0.025,0.163 c0.114,0.835,0.407,1.623,0.864,2.323c0.009,0.014,0.017,0.028,0.026,0.041c0.076,0.114,0.159,0.225,0.243,0.334 c0.031,0.04,0.061,0.081,0.094,0.121c0.074,0.09,0.151,0.177,0.231,0.263c0.05,0.054,0.1,0.107,0.151,0.159 c0.036,0.036,0.067,0.075,0.104,0.11c0.042,0.04,0.088,0.074,0.13,0.112c0.056,0.05,0.113,0.099,0.17,0.147 c0.088,0.073,0.178,0.144,0.269,0.212c0.048,0.035,0.097,0.068,0.146,0.102c0.106,0.073,0.213,0.144,0.324,0.209 c0.034,0.02,0.07,0.039,0.105,0.058c0.126,0.071,0.254,0.14,0.385,0.201c0.02,0.009,0.041,0.017,0.062,0.026 c0.145,0.066,0.292,0.127,0.443,0.18c0.011,0.004,0.023,0.007,0.034,0.011c0.159,0.055,0.32,0.105,0.485,0.145 c0.018,0.004,0.037,0.007,0.055,0.011c0.159,0.038,0.319,0.071,0.482,0.095c0.056,0.008,0.114,0.011,0.171,0.017 c0.128,0.015,0.255,0.032,0.385,0.038c0.001,0,0.002,0,0.004,0c0.097,0.006,0.195,0.007,0.291,0.007 c0.027,0,0.053-0.007,0.081-0.008c0.069-0.001,0.136,0.003,0.205,0c0.245-0.012,0.484-0.045,0.72-0.087 c0.055-0.01,0.11-0.021,0.165-0.033c0.295-0.062,0.582-0.145,0.858-0.251c0.06-0.023,0.119-0.048,0.179-0.073 c0.272-0.115,0.534-0.249,0.782-0.404c0.053-0.033,0.106-0.067,0.158-0.102c0.254-0.169,0.492-0.357,0.716-0.563 c0.021-0.02,0.047-0.033,0.068-0.054c0.036-0.034,0.067-0.073,0.102-0.108c0.054-0.054,0.105-0.109,0.157-0.165 c0.078-0.084,0.154-0.169,0.226-0.257c0.034-0.042,0.066-0.085,0.099-0.128c0.083-0.107,0.163-0.215,0.238-0.326 c0.012-0.018,0.022-0.037,0.034-0.055c0.437-0.673,0.723-1.426,0.844-2.225c0.013-0.087,0.03-0.172,0.039-0.26 c0.007-0.071,0.008-0.143,0.013-0.214c0.007-0.106,0.018-0.212,0.02-0.319c0-0.013-0.002-0.027-0.002-0.04 c0-0.013,0.002-0.026,0.002-0.039c0-0.106-0.013-0.21-0.019-0.316c-0.007-0.119-0.008-0.239-0.022-0.357 c-0.013-0.11-0.038-0.217-0.057-0.325c-0.022-0.122-0.038-0.244-0.067-0.364c-0.026-0.105-0.064-0.207-0.096-0.311 c-0.036-0.118-0.067-0.238-0.111-0.353c-0.083-0.216-0.178-0.427-0.287-0.633h7.545v9.381l0.768-0.579 c0.849-0.641,1.855-0.952,2.915-0.956c2.459,0.033,4.558,2.055,4.68,4.509C114.095,94.152,113.631,95.401,112.726,96.351z"/></g><linearGradient id="lg_solution_ad_tech_providers_2" gradientUnits="userSpaceOnUse" x1="54.7932" y1="105.311" x2="105.3735" y2="54.7307"><stop offset="0" style="stop-color:#62c5e5"/><stop offset="1" style="stop-color:#63C6E5"/></linearGradient><path id="solution_ad_tech_providers_hover" class="solution-hover solution-ad-tech-providers-2" d="M79,80h-8c0,0,1.75-3.688,0.875-5.031s-2.563-3.656-5.719-3.219s-4.719,4.313-4.531,5.094 S62.813,80,62.813,80H54l-0.25,9.125c0,0,1.844-1.476,3.594-1.253c1.75,0.222,4.094,1.816,4.438,3.722s-0.031,4.656-0.969,5.375 s-4.125,1.969-7.063,0.375l0.156,6.344c0,0,0.156,2.281,3.25,2.406s5.438,0,5.438,0s-1.69,4.061-0.063,6.125 c1.628,2.064,4.438,2.643,6.781,1.822s3.75-4.853,1.719-7.915L80,106.292V97c0,0-3.146,2.917-6.354,0.125 c-3.208-2.792-1.833-6.938-0.208-8.063s4.354-1.729,6.562-0.188l0.25-8.708L88.771,80c0,0-1.479,3.063-0.333,4.979 c1.146,1.917,3.063,3.58,5.25,3.354c2.187-0.225,5.313-3.125,4.583-5.271C97.542,80.917,97.229,80,97.229,80H106l0.188-8.917 c0,0-3.396,2.021-6.396,0.146s-1.896-6.583-0.854-7.604c1.042-1.021,3.979-3.188,7.25-0.958l-0.146-7.021 c0,0-0.396-1.583-3.458-1.813c-3.063-0.229-5.229-0.125-5.229-0.125s1.917-4.042,0.083-5.896s-3.854-3.208-7.021-1.625 c-3.167,1.583-2.833,6.167-1.563,7.708L80,53.917l-0.031,8.854c0,0,4.135-3.229,7.698,1.438s-3.604,8.708-5.313,8.063 C80.646,71.625,80,70.875,80,70.875V79c0,0,0.021,0.972-0.146,0.945C79.688,79.917,79,80,79,80z"/></svg>