<svg id="solution_advertisers" xmlns="http://www.w3.org/2000/svg" x="0px" y="0px" viewBox="0 0 160 160" style="enable-background:new 0 0 160 160;" xml:space="preserve"><style type="text/css">.solution-advertisers-0{fill:url(#lg_solution_advertisers_0)}.solution-advertisers-1{fill:url(#lg_solution_advertisers_1)}.solution-advertisers-2{fill:url(#lg_solution_advertisers_2)}.solution-advertisers-3{fill:#20242C}.solution-advertisers-4{fill:url(#lg_solution_advertisers_4)}.solution-advertisers-5{fill:url(#lg_solution_advertisers_5)}.solution-advertisers-6{fill:url(#lg_solution_advertisers_6)}.solution-advertisers-7{fill:url(#lg_solution_advertisers_7)}.solution-advertisers-8{fill:url(#lg_solution_advertisers_8)}.solution-advertisers-9{fill:url(#lg_solution_advertisers_9)}.solution-advertisers-10{fill:url(#lg_solution_advertisers_10)}.solution-advertisers-11{fill:url(#lg-solution-advertisers-11)}.solution-advertisers-12{opacity:0.2}.solution-advertisers-13{clip-path:url(#solution_advertiser_mask);fill:#FFF}</style><g id="solution_advertiser_hexagons" class="solution-advertisers-12"><defs><circle id="solution_advertiser_circle" class="solution-advertisers-12" cx="80.182" cy="80" r="65"/></defs><clipPath id="solution_advertiser_mask"><use xlink:href="#solution_advertiser_circle" style="overflow:visible;"/></clipPath><path class="solution-advertisers-13" id="solution_advertiser_hex_path" d="M22.871,51.183l0.194,0.112l3.762-6.517l-3.827-6.628h-7.653l-3.827,6.628l3.827,6.629h7.653l0.065-0.112 L22.871,51.183v-0.224h-7.265l-3.568-6.18l3.568-6.18h7.135l3.568,6.18l-3.633,6.293L22.871,51.183v-0.224V51.183z M22.871,63.99 l0.194,0.112l3.762-6.516l-3.827-6.628h-7.653l-3.827,6.628l3.827,6.628h7.653l0.065-0.112L22.871,63.99v-0.224h-7.265l-3.568-6.18 l3.568-6.18h7.135l3.568,6.18l-3.633,6.292L22.871,63.99v-0.224V63.99z M22.871,76.798l0.194,0.112l3.762-6.516l-3.827-6.629 h-7.653l-3.827,6.629l3.827,6.628h7.653l0.065-0.112L22.871,76.798v-0.224h-7.265l-3.568-6.18l3.568-6.18l7.135,0l3.568,6.18 l-3.633,6.292L22.871,76.798v-0.224V76.798z M33.964,44.778l0.194,0.112l3.762-6.516l-3.827-6.628h-7.654l-3.827,6.628l3.827,6.628 h7.654l0.065-0.112L33.964,44.778v-0.224h-7.266l-3.568-6.18l3.568-6.18h7.136l3.568,6.18l-3.633,6.292L33.964,44.778v-0.224 V44.778z M33.964,57.586l0.194,0.112l3.762-6.516l-3.827-6.629h-7.654l-3.827,6.629l3.827,6.628h7.654l0.065-0.112L33.964,57.586 v-0.224h-7.265l-3.568-6.18l3.568-6.18h7.136l3.568,6.18l-3.633,6.292L33.964,57.586v-0.224V57.586z M33.964,70.394l0.194,0.112 l3.762-6.517l-3.827-6.628h-7.654l-3.827,6.628l3.827,6.629h7.654l0.065-0.112L33.964,70.394V70.17h-7.266L23.13,63.99l3.568-6.18 h7.136l3.568,6.18l-3.633,6.292L33.964,70.394V70.17V70.394z M33.964,83.202l0.194,0.112l3.762-6.516l-3.827-6.628h-7.654 l-3.827,6.628l3.827,6.628h7.654l0.065-0.112L33.964,83.202v-0.224h-7.266l-3.568-6.18l3.568-6.18h7.136l3.568,6.18L33.77,83.09 L33.964,83.202v-0.224V83.202z M45.056,38.374l0.194,0.112l3.762-6.516l-3.827-6.628h-7.654l-3.827,6.628l3.827,6.628h7.654 l0.065-0.112L45.056,38.374V38.15H37.79l-3.568-6.18l3.568-6.18h7.136l3.568,6.18l-3.633,6.292L45.056,38.374V38.15V38.374z M45.056,51.183l0.194,0.112l3.762-6.517l-3.827-6.628h-7.654l-3.827,6.628l3.827,6.629h7.654l0.065-0.112L45.056,51.183v-0.224 H37.79l-3.568-6.18l3.568-6.18h7.136l3.568,6.18l-3.633,6.293L45.056,51.183v-0.224V51.183z M45.056,63.99l0.194,0.112l3.762-6.516 l-3.827-6.628h-7.654l-3.827,6.628l3.827,6.628h7.654l0.065-0.112L45.056,63.99v-0.224H37.79l-3.568-6.18l3.568-6.18h7.136 l3.568,6.18l-3.633,6.292L45.056,63.99v-0.224V63.99z M45.056,76.798l0.194,0.112l3.762-6.516l-3.827-6.629h-7.654l-3.827,6.629 l3.827,6.628h7.654l0.065-0.112L45.056,76.798v-0.224H37.79l-3.568-6.18l3.568-6.18h7.136l3.568,6.18l-3.633,6.292L45.056,76.798 v-0.224V76.798z M56.147,31.971l0.194,0.112l3.762-6.516l-3.827-6.629h-7.653l-3.827,6.629l3.827,6.628h7.653l0.065-0.112 L56.147,31.971v-0.224h-7.265l-3.568-6.18l3.568-6.18h7.135l3.568,6.18l-3.633,6.292L56.147,31.971v-0.224V31.971z M56.147,44.778 l0.194,0.112l3.762-6.516l-3.827-6.628h-7.653l-3.827,6.628l3.827,6.628h7.653l0.065-0.112L56.147,44.778v-0.224h-7.265 l-3.568-6.18l3.568-6.18h7.135l3.568,6.18l-3.633,6.292L56.147,44.778v-0.224V44.778z M56.147,57.586l0.194,0.112l3.762-6.516 l-3.827-6.629h-7.653l-3.827,6.629l3.827,6.628h7.653l0.065-0.112L56.147,57.586v-0.224h-7.265l-3.568-6.18l3.568-6.18h7.135 l3.568,6.18l-3.633,6.292L56.147,57.586v-0.224V57.586z M56.147,70.394l0.194,0.112l3.762-6.517l-3.827-6.628h-7.653l-3.827,6.628 l3.827,6.629h7.653l0.065-0.112L56.147,70.394V70.17h-7.265l-3.568-6.181l3.568-6.18h7.135l3.568,6.18l-3.633,6.292L56.147,70.394 V70.17V70.394z M56.147,83.202l0.194,0.112l3.762-6.516l-3.827-6.628h-7.653l-3.827,6.628l3.827,6.628h7.653l0.065-0.112 L56.147,83.202v-0.224h-7.265l-3.568-6.18l3.568-6.18l7.135,0l3.568,6.18l-3.633,6.292L56.147,83.202v-0.224V83.202z M67.239,25.567l0.194,0.112l3.762-6.517l-3.827-6.628h-7.654l-3.827,6.628l3.827,6.629h7.654l0.065-0.112L67.239,25.567v-0.224 h-7.266l-3.568-6.181l3.568-6.18h7.136l3.568,6.18l-3.633,6.292L67.239,25.567v-0.224V25.567z M67.239,38.374l0.194,0.112 l3.762-6.516l-3.827-6.628h-7.654l-3.827,6.628l3.827,6.628h7.654l0.065-0.112L67.239,38.374V38.15h-7.266l-3.568-6.18l3.568-6.18 h7.136l3.568,6.18l-3.633,6.292L67.239,38.374V38.15V38.374z M67.239,51.183l0.194,0.112l3.762-6.517l-3.827-6.628h-7.654 l-3.827,6.628l3.827,6.629h7.654l0.065-0.112L67.239,51.183v-0.224h-7.266l-3.568-6.18l3.568-6.18h7.136l3.568,6.18l-3.633,6.293 L67.239,51.183v-0.224V51.183z M67.239,63.99l0.194,0.112l3.762-6.516l-3.827-6.628h-7.654l-3.827,6.628l3.827,6.628h7.654 l0.065-0.112L67.239,63.99v-0.224h-7.266l-3.568-6.18l3.568-6.18h7.136l3.568,6.18l-3.633,6.292L67.239,63.99v-0.224V63.99z M67.239,76.798l0.194,0.112l3.762-6.516l-3.827-6.629h-7.654l-3.827,6.629l3.827,6.628h7.654l0.065-0.112L67.239,76.798v-0.224 h-7.266l-3.568-6.18l3.568-6.18h7.136l3.568,6.18l-3.633,6.292L67.239,76.798v-0.224V76.798z M78.332,31.971l0.194,0.112 l3.762-6.516l-3.827-6.629h-7.654l-3.827,6.629l3.827,6.628h7.654l0.065-0.112L78.332,31.971v-0.224h-7.266l-3.568-6.18l3.568-6.18 h7.136l3.568,6.18l-3.633,6.292L78.332,31.971v-0.224V31.971z M78.332,44.778l0.194,0.112l3.762-6.516l-3.827-6.628h-7.654 l-3.827,6.628l3.827,6.628h7.654l0.065-0.112L78.332,44.778v-0.224h-7.266l-3.568-6.18l3.568-6.18h7.136l3.568,6.18l-3.633,6.292 L78.332,44.778v-0.224V44.778z M78.332,57.586l0.194,0.112l3.762-6.516l-3.827-6.629h-7.654l-3.827,6.629l3.827,6.628h7.654 l0.065-0.112L78.332,57.586v-0.224h-7.265l-3.568-6.18l3.568-6.18h7.136l3.568,6.18l-3.633,6.292L78.332,57.586v-0.224V57.586z M78.332,70.394l0.194,0.112l3.762-6.517l-3.827-6.628h-7.654L66.98,63.99l3.827,6.629h7.654l0.065-0.112L78.332,70.394V70.17 h-7.266l-3.568-6.181l3.568-6.18h7.136l3.568,6.18l-3.633,6.292L78.332,70.394V70.17V70.394z M78.332,83.202l0.194,0.112 l3.762-6.516l-3.827-6.628h-7.654l-3.827,6.628l3.827,6.628h7.654l0.065-0.112L78.332,83.202v-0.224h-7.266l-3.568-6.18l3.568-6.18 h7.136l3.568,6.18l-3.633,6.292L78.332,83.202v-0.224V83.202z M22.871,89.606l0.194,0.112l3.762-6.516l-3.827-6.628h-7.653 l-3.827,6.628l3.827,6.628h7.653l0.065-0.112L22.871,89.606v-0.224h-7.265l-3.568-6.18l3.568-6.18h7.135l3.568,6.18l-3.633,6.292 L22.871,89.606v-0.224V89.606z M22.871,102.414l0.194,0.112l3.762-6.516l-3.827-6.629h-7.653l-3.827,6.629l3.827,6.628h7.653 l0.065-0.112L22.871,102.414v-0.224h-7.265l-3.568-6.18l3.568-6.18h7.135l3.568,6.18l-3.633,6.292L22.871,102.414v-0.224V102.414z M22.871,115.222l0.194,0.112l3.762-6.517l-3.827-6.628h-7.653l-3.827,6.628l3.827,6.629h7.653l0.065-0.112L22.871,115.222v-0.224 h-7.265l-3.568-6.181l3.568-6.18h7.135l3.568,6.18l-3.633,6.292L22.871,115.222v-0.224V115.222z M33.964,96.01l0.194,0.112 l3.762-6.517l-3.827-6.628h-7.654l-3.827,6.628l3.827,6.629h7.654l0.065-0.112L33.964,96.01v-0.224h-7.266l-3.568-6.18l3.568-6.18 h7.136l3.568,6.18l-3.633,6.293L33.964,96.01v-0.224V96.01z M33.964,108.817l0.194,0.112l3.762-6.516l-3.827-6.628h-7.654 l-3.827,6.628l3.827,6.628h7.654l0.065-0.112L33.964,108.817v-0.224h-7.265l-3.568-6.18l3.568-6.18h7.136l3.568,6.18l-3.633,6.292 L33.964,108.817v-0.224V108.817z M33.964,121.626l0.194,0.112l3.762-6.516l-3.827-6.629h-7.654l-3.827,6.629l3.827,6.628h7.654 l0.065-0.112L33.964,121.626v-0.224h-7.266l-3.568-6.18l3.568-6.18h7.136l3.568,6.18l-3.633,6.292L33.964,121.626v-0.224V121.626z M33.964,134.433l0.194,0.112l3.762-6.516l-3.827-6.628h-7.654l-3.827,6.628l3.827,6.628h7.654l0.065-0.112L33.964,134.433v-0.224 h-7.266l-3.568-6.18l3.568-6.18h7.136l3.568,6.18l-3.633,6.292L33.964,134.433v-0.224V134.433z M45.056,89.606l0.194,0.112 l3.762-6.516l-3.827-6.628h-7.654l-3.827,6.628l3.827,6.628h7.654l0.065-0.112L45.056,89.606v-0.224H37.79l-3.568-6.18l3.568-6.18 h7.136l3.568,6.18l-3.633,6.292L45.056,89.606v-0.224V89.606z M45.056,102.414l0.194,0.112l3.762-6.516l-3.827-6.629h-7.654 l-3.827,6.629l3.827,6.628h7.654l0.065-0.112L45.056,102.414v-0.224H37.79l-3.568-6.18l3.568-6.18h7.136l3.568,6.18l-3.633,6.292 L45.056,102.414v-0.224V102.414z M45.056,115.222l0.194,0.112l3.762-6.517l-3.827-6.628h-7.654l-3.827,6.628l3.827,6.629h7.654 l0.065-0.112L45.056,115.222v-0.224H37.79l-3.568-6.181l3.568-6.18h7.136l3.568,6.18l-3.633,6.292L45.056,115.222v-0.224V115.222z M45.056,128.029l0.194,0.112l3.762-6.516l-3.827-6.628h-7.654l-3.827,6.628l3.827,6.628h7.654l0.065-0.112L45.056,128.029v-0.224 H37.79l-3.568-6.18l3.568-6.18h7.136l3.568,6.18l-3.633,6.292L45.056,128.029v-0.224V128.029z M45.056,140.838l0.194,0.112 l3.762-6.517l-3.827-6.628h-7.654l-3.827,6.628l3.827,6.629h7.654l0.065-0.112L45.056,140.838v-0.224H37.79l-3.568-6.18l3.568-6.18 h7.136l3.568,6.18l-3.633,6.293L45.056,140.838v-0.224V140.838z M56.147,96.01l0.194,0.112l3.762-6.517l-3.827-6.628h-7.653 l-3.827,6.628l3.827,6.629h7.653l0.065-0.112L56.147,96.01v-0.224h-7.265l-3.568-6.18l3.568-6.18h7.135l3.568,6.18l-3.633,6.293 L56.147,96.01v-0.224V96.01z M56.147,108.817l0.194,0.112l3.762-6.516l-3.827-6.628h-7.653l-3.827,6.628l3.827,6.628h7.653 l0.065-0.112L56.147,108.817v-0.224h-7.265l-3.568-6.18l3.568-6.18h7.135l3.568,6.18l-3.633,6.292L56.147,108.817v-0.224V108.817z M56.147,121.626l0.194,0.112l3.762-6.516l-3.827-6.629h-7.653l-3.827,6.629l3.827,6.628h7.653l0.065-0.112L56.147,121.626v-0.224 h-7.265l-3.568-6.18l3.568-6.18h7.135l3.568,6.181l-3.633,6.292L56.147,121.626v-0.224V121.626z M56.147,134.433l0.194,0.112 l3.762-6.516l-3.827-6.628h-7.653l-3.827,6.628l3.827,6.628h7.653l0.065-0.112L56.147,134.433v-0.224h-7.265l-3.568-6.18 l3.568-6.18h7.135l3.568,6.18l-3.633,6.292L56.147,134.433v-0.224V134.433z M56.147,147.241l0.194,0.112l3.762-6.516l-3.827-6.629 h-7.653l-3.827,6.629l3.827,6.628h7.653l0.065-0.112L56.147,147.241v-0.224h-7.265l-3.568-6.18l3.568-6.18h7.135l3.568,6.18 l-3.633,6.292L56.147,147.241v-0.224V147.241z M67.239,89.606l0.194,0.112l3.762-6.516l-3.827-6.628h-7.654l-3.827,6.628 l3.827,6.628h7.654l0.065-0.112L67.239,89.606v-0.224h-7.266l-3.568-6.18l3.568-6.18h7.136l3.568,6.18l-3.633,6.292L67.239,89.606 v-0.224V89.606z M67.239,102.414l0.194,0.112l3.762-6.516l-3.827-6.629h-7.654l-3.827,6.629l3.827,6.628h7.654l0.065-0.112 L67.239,102.414v-0.224h-7.265l-3.568-6.18l3.568-6.18h7.136l3.568,6.18l-3.633,6.292L67.239,102.414v-0.224V102.414z M67.239,115.222l0.194,0.112l3.762-6.517l-3.827-6.628h-7.654l-3.827,6.628l3.827,6.629h7.654l0.065-0.112L67.239,115.222v-0.224 h-7.266l-3.568-6.181l3.568-6.18h7.136l3.568,6.18l-3.633,6.292L67.239,115.222v-0.224V115.222z M67.239,128.029l0.194,0.112 l3.762-6.516l-3.827-6.628h-7.654l-3.827,6.628l3.827,6.628h7.654l0.065-0.112L67.239,128.029v-0.224h-7.266l-3.568-6.18 l3.568-6.18h7.136l3.568,6.18l-3.633,6.292L67.239,128.029v-0.224V128.029z M67.239,140.838l0.194,0.112l3.762-6.517l-3.827-6.628 h-7.654l-3.827,6.628l3.827,6.629h7.654l0.065-0.112L67.239,140.838v-0.224h-7.266l-3.568-6.18l3.568-6.18h7.136l3.568,6.18 l-3.633,6.293L67.239,140.838v-0.224V140.838z M78.332,96.01l0.194,0.112l3.762-6.517l-3.827-6.628h-7.654l-3.827,6.628 l3.827,6.629h7.654l0.065-0.112L78.332,96.01v-0.224h-7.266l-3.568-6.18l3.568-6.18h7.136l3.568,6.18l-3.633,6.293L78.332,96.01 v-0.224V96.01z M78.332,108.817l0.194,0.112l3.762-6.516l-3.827-6.628h-7.654l-3.827,6.628l3.827,6.628h7.654l0.065-0.112 L78.332,108.817v-0.224h-7.265l-3.568-6.18l3.568-6.18h7.136l3.568,6.18l-3.633,6.292L78.332,108.817v-0.224V108.817z M78.332,121.626l0.194,0.112l3.762-6.516l-3.827-6.629h-7.654l-3.827,6.629l3.827,6.628h7.654l0.065-0.112L78.332,121.626v-0.224 h-7.266l-3.568-6.18l3.568-6.18h7.136l3.568,6.18l-3.633,6.292L78.332,121.626v-0.224V121.626z M78.332,134.433l0.194,0.112 l3.762-6.516l-3.827-6.628h-7.654l-3.827,6.628l3.827,6.628h7.654l0.065-0.112L78.332,134.433v-0.224h-7.266l-3.568-6.18 l3.568-6.18h7.136l3.568,6.18l-3.633,6.292L78.332,134.433v-0.224V134.433z M78.332,147.241l0.194,0.112l3.762-6.516l-3.827-6.629 h-7.654l-3.827,6.629l3.827,6.628h7.654l0.065-0.112L78.332,147.241v-0.224h-7.265l-3.568-6.18l3.568-6.18h7.136l3.568,6.18 l-3.633,6.292L78.332,147.241v-0.224V147.241z M89.427,25.567l0.194,0.112l3.762-6.517l-3.827-6.628h-7.654l-3.827,6.628 l3.827,6.629h7.654l0.065-0.112L89.427,25.567v-0.224h-7.266l-3.568-6.181l3.568-6.18h7.136l3.568,6.18l-3.633,6.292L89.427,25.567 v-0.224V25.567z M89.427,38.374l0.194,0.112l3.762-6.516l-3.827-6.628h-7.654l-3.827,6.628l3.827,6.628h7.654l0.065-0.112 L89.427,38.374V38.15h-7.266l-3.568-6.18l3.568-6.18h7.136l3.568,6.18l-3.633,6.292L89.427,38.374V38.15V38.374z M89.427,51.183 l0.194,0.112l3.762-6.517l-3.827-6.628h-7.654l-3.827,6.628l3.827,6.629h7.654l0.065-0.112L89.427,51.183v-0.224h-7.266 l-3.568-6.18l3.568-6.18h7.136l3.568,6.18l-3.633,6.293L89.427,51.183v-0.224V51.183z M89.427,63.99l0.194,0.112l3.762-6.516 l-3.827-6.628h-7.654l-3.827,6.628l3.827,6.628h7.654l0.065-0.112L89.427,63.99v-0.224h-7.266l-3.568-6.18l3.568-6.18h7.136 l3.568,6.18l-3.633,6.292L89.427,63.99v-0.224V63.99z M89.427,76.798l0.194,0.112l3.762-6.516l-3.827-6.629h-7.654l-3.827,6.629 l3.827,6.628h7.654l0.065-0.112L89.427,76.798v-0.224h-7.266l-3.568-6.18l3.568-6.18h7.136l3.568,6.18l-3.633,6.292L89.427,76.798 v-0.224V76.798z M100.52,31.971l0.194,0.112l3.762-6.516l-3.827-6.629h-7.654l-3.827,6.629l3.827,6.628h7.654l0.065-0.112 L100.52,31.971v-0.224h-7.266l-3.568-6.18l3.568-6.18h7.136l3.568,6.18l-3.633,6.292L100.52,31.971v-0.224V31.971z M100.52,44.778 l0.194,0.112l3.762-6.516l-3.827-6.628h-7.654l-3.827,6.628l3.827,6.628h7.654l0.065-0.112L100.52,44.778v-0.224h-7.266 l-3.568-6.18l3.568-6.18h7.136l3.568,6.18l-3.633,6.292L100.52,44.778v-0.224V44.778z M100.52,57.586l0.194,0.112l3.762-6.516 l-3.827-6.629h-7.654l-3.827,6.629l3.827,6.628h7.654l0.065-0.112L100.52,57.586v-0.224h-7.265l-3.568-6.18l3.568-6.18h7.136 l3.568,6.18l-3.633,6.292L100.52,57.586v-0.224V57.586z M100.52,70.394l0.194,0.112l3.762-6.517l-3.827-6.628h-7.654l-3.827,6.628 l3.827,6.629h7.654l0.065-0.112L100.52,70.394V70.17h-7.266l-3.568-6.181l3.568-6.18h7.136l3.568,6.18l-3.633,6.292L100.52,70.394 V70.17V70.394z M100.52,83.202l0.194,0.112l3.762-6.516l-3.827-6.628h-7.654l-3.827,6.628l3.827,6.628h7.654l0.065-0.112 L100.52,83.202v-0.224h-7.266l-3.568-6.18l3.568-6.18h7.136l3.568,6.18l-3.633,6.292L100.52,83.202v-0.224V83.202z M111.611,25.567 l0.194,0.112l3.762-6.517l-3.827-6.628h-7.653l-3.827,6.628l3.827,6.629h7.653l0.065-0.112L111.611,25.567v-0.224h-7.265 l-3.568-6.181l3.568-6.18h7.135l3.568,6.18l-3.633,6.292L111.611,25.567v-0.224V25.567z M111.611,38.374l0.194,0.112l3.762-6.516 l-3.827-6.628h-7.653l-3.827,6.628l3.827,6.628h7.653l0.065-0.112L111.611,38.374V38.15h-7.265l-3.568-6.18l3.568-6.18h7.135 l3.568,6.18l-3.633,6.292L111.611,38.374V38.15V38.374z M111.611,51.183l0.194,0.112l3.762-6.517l-3.827-6.628h-7.653l-3.827,6.628 l3.827,6.629h7.653l0.065-0.112L111.611,51.183v-0.224h-7.265l-3.568-6.18l3.568-6.18h7.135l3.568,6.18l-3.633,6.293 L111.611,51.183v-0.224V51.183z M111.611,63.99l0.194,0.112l3.762-6.516l-3.827-6.628h-7.653l-3.827,6.628l3.827,6.628h7.653 l0.065-0.112L111.611,63.99v-0.224h-7.265l-3.568-6.18l3.568-6.18h7.135l3.568,6.18l-3.633,6.292L111.611,63.99v-0.224V63.99z M111.611,76.798l0.194,0.112l3.762-6.516l-3.827-6.629h-7.653l-3.827,6.629l3.827,6.628h7.653l0.065-0.112L111.611,76.798v-0.224 h-7.265l-3.568-6.18l3.568-6.18l7.135,0l3.568,6.18l-3.633,6.292L111.611,76.798v-0.224V76.798z M122.703,31.971l0.194,0.112 l3.762-6.516l-3.827-6.629h-7.654l-3.827,6.629l3.827,6.628h7.654l0.065-0.112L122.703,31.971v-0.224h-7.266l-3.568-6.18 l3.568-6.18h7.136l3.568,6.18l-3.633,6.292L122.703,31.971v-0.224V31.971z M122.703,44.778l0.194,0.112l3.762-6.516l-3.827-6.628 h-7.654l-3.827,6.628l3.827,6.628h7.654l0.065-0.112L122.703,44.778v-0.224h-7.266l-3.568-6.18l3.568-6.18h7.136l3.568,6.18 l-3.633,6.292L122.703,44.778v-0.224V44.778z M122.703,57.586l0.194,0.112l3.762-6.516l-3.827-6.629h-7.654l-3.827,6.629 l3.827,6.628h7.654l0.065-0.112L122.703,57.586v-0.224h-7.265l-3.568-6.18l3.568-6.18h7.136l3.568,6.18l-3.633,6.292 L122.703,57.586v-0.224V57.586z M122.703,70.394l0.194,0.112l3.762-6.517l-3.827-6.628h-7.654l-3.827,6.628l3.827,6.629h7.654 l0.065-0.112L122.703,70.394V70.17h-7.266l-3.568-6.181l3.568-6.18h7.136l3.568,6.18l-3.633,6.292L122.703,70.394V70.17V70.394z M122.703,83.202l0.194,0.112l3.762-6.516l-3.827-6.628h-7.654l-3.827,6.628l3.827,6.628h7.654l0.065-0.112L122.703,83.202v-0.224 h-7.266l-3.568-6.18l3.568-6.18h7.136l3.568,6.18l-3.633,6.292L122.703,83.202v-0.224V83.202z M133.795,38.374l0.194,0.112 l3.762-6.516l-3.827-6.628h-7.654l-3.827,6.628l3.827,6.628h7.654l0.065-0.112L133.795,38.374V38.15h-7.266l-3.568-6.18l3.568-6.18 h7.136l3.568,6.18l-3.633,6.292L133.795,38.374V38.15V38.374z M133.795,51.183l0.194,0.112l3.762-6.517l-3.827-6.628h-7.654 l-3.827,6.628l3.827,6.629h7.654l0.065-0.112L133.795,51.183v-0.224h-7.266l-3.568-6.18l3.568-6.18h7.136l3.568,6.18l-3.633,6.293 L133.795,51.183v-0.224V51.183z M133.795,63.99l0.194,0.112l3.762-6.516l-3.827-6.628h-7.654l-3.827,6.628l3.827,6.628h7.654 l0.065-0.112L133.795,63.99v-0.224h-7.266l-3.568-6.18l3.568-6.18h7.136l3.568,6.18l-3.633,6.292L133.795,63.99v-0.224V63.99z M133.795,76.798l0.194,0.112l3.762-6.516l-3.827-6.629h-7.654l-3.827,6.629l3.827,6.628h7.654l0.065-0.112L133.795,76.798v-0.224 h-7.266l-3.568-6.18l3.568-6.18h7.136l3.568,6.18l-3.633,6.292L133.795,76.798v-0.224V76.798z M144.887,57.586l0.194,0.112 l3.762-6.516l-3.827-6.629h-7.654l-3.827,6.629l3.827,6.628h7.654l0.065-0.112L144.887,57.586v-0.224h-7.265l-3.568-6.18 l3.568-6.18h7.136l3.568,6.18l-3.633,6.292L144.887,57.586v-0.224V57.586z M144.887,70.394l0.194,0.112l3.762-6.517l-3.827-6.628 h-7.654l-3.827,6.628l3.827,6.629h7.654l0.065-0.112L144.887,70.394V70.17h-7.266l-3.568-6.181l3.568-6.18h7.136l3.568,6.18 l-3.633,6.292L144.887,70.394V70.17V70.394z M144.887,83.202l0.194,0.112l3.762-6.516l-3.827-6.628h-7.654l-3.827,6.628 l3.827,6.628h7.654l0.065-0.112L144.887,83.202v-0.224h-7.266l-3.568-6.18l3.568-6.18h7.136l3.568,6.18l-3.633,6.292 L144.887,83.202v-0.224V83.202z M89.427,89.606l0.194,0.112l3.762-6.516l-3.827-6.628h-7.654l-3.827,6.628l3.827,6.628h7.654 l0.065-0.112L89.427,89.606v-0.224h-7.266l-3.568-6.18l3.568-6.18h7.136l3.568,6.18l-3.633,6.292L89.427,89.606v-0.224V89.606z M89.427,102.414l0.194,0.112l3.762-6.516l-3.827-6.629h-7.654l-3.827,6.629l3.827,6.628h7.654l0.065-0.112L89.427,102.414v-0.224 h-7.265l-3.568-6.18l3.568-6.18h7.136l3.568,6.18l-3.633,6.292L89.427,102.414v-0.224V102.414z M89.427,115.222l0.194,0.112 l3.762-6.517l-3.827-6.628h-7.654l-3.827,6.628l3.827,6.629h7.654l0.065-0.112L89.427,115.222v-0.224h-7.266l-3.568-6.181 l3.568-6.18h7.136l3.568,6.18l-3.633,6.292L89.427,115.222v-0.224V115.222z M89.427,128.029l0.194,0.112l3.762-6.516l-3.827-6.628 h-7.654l-3.827,6.628l3.827,6.628h7.654l0.065-0.112L89.427,128.029v-0.224h-7.266l-3.568-6.18l3.568-6.18h7.136l3.568,6.18 l-3.633,6.292L89.427,128.029v-0.224V128.029z M89.427,140.838l0.194,0.112l3.762-6.517l-3.827-6.628h-7.654l-3.827,6.628 l3.827,6.629h7.654l0.065-0.112L89.427,140.838v-0.224h-7.266l-3.568-6.18l3.568-6.18h7.136l3.568,6.18l-3.633,6.293 L89.427,140.838v-0.224V140.838z M100.52,96.01l0.194,0.112l3.762-6.517l-3.827-6.628h-7.654l-3.827,6.628l3.827,6.629h7.654 l0.065-0.112L100.52,96.01v-0.224h-7.266l-3.568-6.18l3.568-6.18h7.136l3.568,6.18l-3.633,6.293L100.52,96.01v-0.224V96.01z M100.52,108.817l0.194,0.112l3.762-6.516l-3.827-6.628h-7.654l-3.827,6.628l3.827,6.628h7.654l0.065-0.112L100.52,108.817v-0.224 h-7.265l-3.568-6.18l3.568-6.18h7.136l3.568,6.18l-3.633,6.292L100.52,108.817v-0.224V108.817z M100.52,121.626l0.194,0.112 l3.762-6.516l-3.827-6.629h-7.654l-3.827,6.629l3.827,6.628h7.654l0.065-0.112L100.52,121.626v-0.224h-7.266l-3.568-6.18 l3.568-6.18h7.136l3.568,6.18l-3.633,6.292L100.52,121.626v-0.224V121.626z M100.52,134.433l0.194,0.112l3.762-6.516l-3.827-6.628 h-7.654l-3.827,6.628l3.827,6.628h7.654l0.065-0.112L100.52,134.433v-0.224h-7.266l-3.568-6.18l3.568-6.18h7.136l3.568,6.18 l-3.633,6.292L100.52,134.433v-0.224V134.433z M100.52,147.241l0.194,0.112l3.762-6.516l-3.827-6.629h-7.654l-3.827,6.629 l3.827,6.628h7.654l0.065-0.112L100.52,147.241v-0.224h-7.265l-3.568-6.18l3.568-6.18h7.136l3.568,6.18l-3.633,6.292 L100.52,147.241v-0.224V147.241z M111.611,89.606l0.194,0.112l3.762-6.516l-3.827-6.628h-7.653l-3.827,6.628l3.827,6.628h7.653 l0.065-0.112L111.611,89.606v-0.224h-7.265l-3.568-6.18l3.568-6.18h7.135l3.568,6.18l-3.633,6.292L111.611,89.606v-0.224V89.606z M111.611,102.414l0.194,0.112l3.762-6.516l-3.827-6.629h-7.653l-3.827,6.629l3.827,6.628h7.653l0.065-0.112L111.611,102.414 v-0.224h-7.265l-3.568-6.18l3.568-6.18h7.135l3.568,6.18l-3.633,6.292L111.611,102.414v-0.224V102.414z M111.611,115.222 l0.194,0.112l3.762-6.517l-3.827-6.628h-7.653l-3.827,6.628l3.827,6.629h7.653l0.065-0.112L111.611,115.222v-0.224h-7.265 l-3.568-6.181l3.568-6.18h7.135l3.568,6.18l-3.633,6.292L111.611,115.222v-0.224V115.222z M111.611,128.029l0.194,0.112 l3.762-6.516l-3.827-6.628h-7.653l-3.827,6.628l3.827,6.628h7.653l0.065-0.112L111.611,128.029v-0.224h-7.265l-3.568-6.18 l3.568-6.18h7.135l3.568,6.18l-3.633,6.292L111.611,128.029v-0.224V128.029z M111.611,140.838l0.194,0.112l3.762-6.517 l-3.827-6.628h-7.653l-3.827,6.628l3.827,6.629h7.653l0.065-0.112L111.611,140.838v-0.224h-7.265l-3.568-6.18l3.568-6.18h7.135 l3.568,6.18l-3.633,6.293L111.611,140.838v-0.224V140.838z M122.703,96.01l0.194,0.112l3.762-6.517l-3.827-6.628h-7.654 l-3.827,6.628l3.827,6.629h7.654l0.065-0.112L122.703,96.01v-0.224h-7.266l-3.568-6.18l3.568-6.18h7.136l3.568,6.18l-3.633,6.293 L122.703,96.01v-0.224V96.01z M122.703,108.817l0.194,0.112l3.762-6.516l-3.827-6.628h-7.654l-3.827,6.628l3.827,6.628h7.654 l0.065-0.112L122.703,108.817v-0.224h-7.265l-3.568-6.18l3.568-6.18h7.136l3.568,6.18l-3.633,6.292L122.703,108.817v-0.224V108.817 z M122.703,121.626l0.194,0.112l3.762-6.516l-3.827-6.629h-7.654l-3.827,6.629l3.827,6.628h7.654l0.065-0.112L122.703,121.626 v-0.224h-7.266l-3.568-6.18l3.568-6.18h7.136l3.568,6.18l-3.633,6.292L122.703,121.626v-0.224V121.626z M122.703,134.433 l0.194,0.112l3.762-6.516l-3.827-6.628h-7.654l-3.827,6.628l3.827,6.628h7.654l0.065-0.112L122.703,134.433v-0.224h-7.266 l-3.568-6.18l3.568-6.18h7.136l3.568,6.18l-3.633,6.292L122.703,134.433v-0.224V134.433z M133.795,89.606l0.194,0.112l3.762-6.516 l-3.827-6.628h-7.654l-3.827,6.628l3.827,6.628h7.654l0.065-0.112L133.795,89.606v-0.224h-7.266l-3.568-6.18l3.568-6.18h7.136 l3.568,6.18l-3.633,6.292L133.795,89.606v-0.224V89.606z M133.795,102.414l0.194,0.112l3.762-6.516l-3.827-6.629h-7.654 l-3.827,6.629l3.827,6.628h7.654l0.065-0.112L133.795,102.414v-0.224h-7.265l-3.568-6.18l3.568-6.18h7.136l3.568,6.18l-3.633,6.292 L133.795,102.414v-0.224V102.414z M133.795,115.222l0.194,0.112l3.762-6.517l-3.827-6.628h-7.654l-3.827,6.628l3.827,6.629h7.654 l0.065-0.112L133.795,115.222v-0.224h-7.266l-3.568-6.181l3.568-6.18h7.136l3.568,6.18l-3.633,6.292L133.795,115.222v-0.224 V115.222z M133.795,128.029l0.194,0.112l3.762-6.516l-3.827-6.628h-7.654l-3.827,6.628l3.827,6.628h7.654l0.065-0.112 L133.795,128.029v-0.224h-7.266l-3.568-6.18l3.568-6.18h7.136l3.568,6.18l-3.633,6.292L133.795,128.029v-0.224V128.029z M144.887,96.01l0.194,0.112l3.762-6.517l-3.827-6.628h-7.654l-3.827,6.628l3.827,6.629h7.654l0.065-0.112L144.887,96.01v-0.224 h-7.266l-3.568-6.18l3.568-6.18h7.136l3.568,6.18l-3.633,6.293L144.887,96.01v-0.224V96.01z M144.887,108.817l0.194,0.112 l3.762-6.516l-3.827-6.628h-7.654l-3.827,6.628l3.827,6.628h7.654l0.065-0.112L144.887,108.817v-0.224h-7.265l-3.568-6.18 l3.568-6.18h7.136l3.568,6.18l-3.633,6.292L144.887,108.817v-0.224V108.817z M144.887,121.626l0.194,0.112l3.762-6.516 l-3.827-6.629h-7.654l-3.827,6.629l3.827,6.628h7.654l0.065-0.112L144.887,121.626v-0.224h-7.266l-3.568-6.18l3.568-6.18h7.136 l3.568,6.18l-3.633,6.292L144.887,121.626v-0.224V121.626z"/></g><g class="solution-outer-circles"><g id="solution_advertisers_outer_path" class="solution-outer-path"><linearGradient id="lg_solution_advertisers_0" gradientUnits="userSpaceOnUse" x1="23.4315" y1="136.5685" x2="136.5685" y2="23.4315"><stop offset="0" style="stop-color:#62c5e5"/><stop offset="1" style="stop-color:#63C6E5"/></linearGradient><path id="solution_advertisers_outer_path_gs" class="solution-advertisers-0" d="M80,6c40.804,0,74,33.196,74,74s-33.196,74-74,74S6,120.804,6,80S39.196,6,80,6 M80,0 C35.817,0,0,35.817,0,80s35.817,80,80,80s80-35.817,80-80S124.183,0,80,0L80,0z"/></g><g id="solution_advertisers_inner_path" class="solution-inner-path"><linearGradient id="lg_solution_advertisers_1" gradientUnits="userSpaceOnUse" x1="34.0381" y1="125.9619" x2="125.9619" y2="34.0381"><stop offset="0" style="stop-color:#62c5e5"/><stop offset="1" style="stop-color:#63C6E5"/></linearGradient><path id="solution_advertisers_inner_path_gs" class="solution-advertisers-1" d="M80,17c34.738,0,63,28.262,63,63s-28.262,63-63,63s-63-28.262-63-63S45.262,17,80,17 M80,15 c-35.898,0-65,29.102-65,65s29.102,65,65,65s65-29.102,65-65S115.898,15,80,15L80,15z"/></g></g><g id="solution_advertiser_base_gs" class="solution-base"><g id="front"><linearGradient id="lg_solution_advertisers_2" gradientUnits="userSpaceOnUse" x1="110.3901" y1="82.6099" x2="119.6099" y2="73.3901"><stop offset="0" style="stop-color:#62c5e5"/><stop offset="1" style="stop-color:#63C6E5"/></linearGradient><path class="solution-advertisers-2" d="M115,72c2.757,0,5,2.692,5,6s-2.243,6-5,6s-5-2.692-5-6S112.243,72,115,72 M115,71 c-3.314,0-6,3.134-6,7s2.686,7,6,7s6-3.134,6-7S118.314,71,115,71L115,71z"/></g><g id="cone"><polygon class="solution-advertisers-3" points="110,78 110,109.5 74.706,93.75 40,78 74.706,62.25 110,46.5 		"/><linearGradient id="lg_solution_advertisers_4" gradientUnits="userSpaceOnUse" x1="65.375" y1="103.375" x2="116.125" y2="52.625"><stop offset="0" style="stop-color:#62c5e5"/><stop offset="1" style="stop-color:#63C6E5"/></linearGradient><path class="solution-advertisers-4" d="M109,48v30v29.959L75.119,92.839L42.42,78l32.694-14.837L109,48.021 M110,46.5L74.706,62.25 L40,78l34.706,15.75L110,109.5V78V46.5L110,46.5z"/></g><g id="back"><ellipse class="solution-advertisers-3" cx="47" cy="78" rx="7.5" ry="10.5"/><linearGradient id="lg_solution_advertisers_5" gradientUnits="userSpaceOnUse" x1="40.5478" y1="84.4522" x2="53.4522" y2="71.5478"><stop offset="0" style="stop-color:#62c5e5"/><stop offset="1" style="stop-color:#63C6E5"/></linearGradient><path id="XMLID_21_" class="solution-advertisers-5" d="M47,68.5c3.584,0,6.5,4.262,6.5,9.5s-2.916,9.5-6.5,9.5s-6.5-4.262-6.5-9.5 S43.416,68.5,47,68.5 M47,67.5c-4.142,0-7.5,4.701-7.5,10.5s3.358,10.5,7.5,10.5s7.5-4.701,7.5-10.5S51.142,67.5,47,67.5L47,67.5z "/></g><g id="solution_line"><path class="solution-advertisers-3" d="M112,112L112,112c-1.657,0-3-1.343-3-3V47c0-1.657,1.343-3,3-3l0,0c1.657,0,3,1.343,3,3v62 C115,110.657,113.657,112,112,112z"/><linearGradient id="lg_solution_advertisers_6" gradientUnits="userSpaceOnUse" x1="94.3787" y1="95.6213" x2="129.6213" y2="60.3787"><stop offset="0" style="stop-color:#62c5e5"/><stop offset="1" style="stop-color:#63C6E5"/></linearGradient><path class="solution-advertisers-6" d="M112,45c1.103,0,2,0.897,2,2v62c0,1.103-0.897,2-2,2s-2-0.897-2-2V47 C110,45.897,110.897,45,112,45 M112,44c-1.657,0-3,1.343-3,3v62c0,1.657,1.343,3,3,3s3-1.343,3-3V47C115,45.343,113.657,44,112,44 L112,44z"/></g><g id="grip"><path class="solution-advertisers-3" d="M67,63H52c-2.761,0-5,2.322-5,5.187v20.748C47,91.8,49.239,94,52,94h1.286 c0,5,0.545,11.075,3.141,16.772l0.077,0.201c0.477,1.093,1.745,4.012,4.507,4.012c1.586,0,3.167-0.752,4.028-1.929 c0.683-0.932,0.896-2.047,0.6-3.145c-0.234-0.867-0.503-1.796-0.785-2.702C63.831,103.91,62.671,100,62.671,94H67 c1.105,0,2-0.807,2-1.952V65.075C69,63.929,68.105,63,67,63z"/><linearGradient id="lg_solution_advertisers_7" gradientUnits="userSpaceOnUse" x1="45.0254" y1="100.5468" x2="75.1896" y2="70.3826"><stop offset="0" style="stop-color:#62c5e5"/><stop offset="1" style="stop-color:#63C6E5"/></linearGradient><path class="solution-advertisers-7" d="M67,64c0.551,0,1,0.482,1,1.075v26.973C68,92.64,67.551,93,67,93h-4.329H62v1.122 c0,6.265,1.02,10.08,2.065,13.445c0.265,0.852,0.456,1.733,0.692,2.606c0.215,0.8,0.017,1.616-0.483,2.299 c-0.668,0.914-1.983,1.527-3.241,1.527c-1.869,0-2.911-1.815-3.607-3.41l-0.226-0.172C54.678,104.885,54,98.502,54,94.122V93 h-0.714H52c-2.206,0-4-1.756-4-4.065V68.187C48,65.878,49.794,64,52,64H67 M67,63H52c-2.761,0-5,2.322-5,5.187v20.748 C47,91.8,49.239,94,52,94h1.286c0,5,0.545,11.075,3.141,16.772l0.077,0.201c0.477,1.093,1.745,4.012,4.507,4.012 c1.586,0,3.167-0.752,4.028-1.929c0.683-0.932,0.896-2.047,0.6-3.145c-0.234-0.867-0.503-1.796-0.785-2.702 C63.831,103.91,62.671,100,62.671,94H67c1.105,0,2-0.807,2-1.952V65.075C69,63.929,68.105,63,67,63L67,63z"/></g></g><g id="solution_advertisers_hover" class="solution-hover"><g class="line-hover"><linearGradient id="lg_solution_advertisers_8" gradientUnits="userSpaceOnUse" x1="94.3787" y1="95.6213" x2="129.6213" y2="60.3787"><stop offset="0" style="stop-color:#62c5e5"/><stop offset="1" style="stop-color:#63C6E5"/></linearGradient><path class="solution-advertisers-8" d="M112,112L112,112c-1.657,0-3-1.343-3-3V47c0-1.657,1.343-3,3-3l0,0c1.657,0,3,1.343,3,3v62 C115,110.657,113.657,112,112,112z"/><linearGradient id="lg_solution_advertisers_9" gradientUnits="userSpaceOnUse" x1="94.3787" y1="95.6213" x2="129.6213" y2="60.3787"><stop offset="0" style="stop-color:#62c5e5"/><stop offset="1" style="stop-color:#63C6E5"/></linearGradient><path class="solution-advertisers-9" d="M112,45c1.103,0,2,0.897,2,2v62c0,1.103-0.897,2-2,2s-2-0.897-2-2V47 C110,45.897,110.897,45,112,45 M112,44c-1.657,0-3,1.343-3,3v62c0,1.657,1.343,3,3,3s3-1.343,3-3V47C115,45.343,113.657,44,112,44 L112,44z"/></g><g id="grip-hover"><linearGradient id="lg_solution_advertisers_10" gradientUnits="userSpaceOnUse" x1="45.0254" y1="100.5468" x2="75.1895" y2="70.3826"><stop offset="0" style="stop-color:#62c5e5"/><stop offset="1" style="stop-color:#63C6E5"/></linearGradient><path id="XMLID_46_" class="solution-advertisers-10" d="M67,63H52c-2.761,0-5,2.322-5,5.187v20.748C47,91.8,49.239,94,52,94h1.286 c0,5,0.545,11.075,3.141,16.772l0.077,0.201c0.477,1.093,1.745,4.012,4.507,4.012c1.586,0,3.167-0.752,4.028-1.929 c0.683-0.932,0.896-2.047,0.6-3.145c-0.234-0.867-0.503-1.796-0.785-2.702C63.831,103.91,62.671,100,62.671,94H67 c1.105,0,2-0.807,2-1.952V65.075C69,63.929,68.105,63,67,63z"/><linearGradient id="lg-solution-advertisers-11" gradientUnits="userSpaceOnUse" x1="45.0254" y1="100.5468" x2="75.1896" y2="70.3826"><stop offset="0" style="stop-color:#62c5e5"/><stop offset="1" style="stop-color:#63C6E5"/></linearGradient><path class="solution-advertisers-11" d="M67,64c0.551,0,1,0.482,1,1.075v26.973C68,92.64,67.551,93,67,93h-4.329H62v1.122 c0,6.265,1.02,10.08,2.065,13.445c0.265,0.852,0.456,1.733,0.692,2.606c0.215,0.8,0.017,1.616-0.483,2.299 c-0.668,0.914-1.983,1.527-3.241,1.527c-1.869,0-2.911-1.815-3.607-3.41l-0.226-0.172C54.678,104.885,54,98.502,54,94.122V93 h-0.714H52c-2.206,0-4-1.756-4-4.065V68.187C48,65.878,49.794,64,52,64H67 M67,63H52c-2.761,0-5,2.322-5,5.187v20.748 C47,91.8,49.239,94,52,94h1.286c0,5,0.545,11.075,3.141,16.772l0.077,0.201c0.477,1.093,1.745,4.012,4.507,4.012 c1.586,0,3.167-0.752,4.028-1.929c0.683-0.932,0.896-2.047,0.6-3.145c-0.234-0.867-0.503-1.796-0.785-2.702 C63.831,103.91,62.671,100,62.671,94H67c1.105,0,2-0.807,2-1.952V65.075C69,63.929,68.105,63,67,63L67,63z"/></g></g></svg>