<svg id="solution_blockchain_startups" xmlns="http://www.w3.org/2000/svg" x="0px" y="0px" width="160px" height="160px" viewBox="0 0 160 160" style="enable-background:new 0 0 160 160;" xml:space="preserve"><style type="text/css">.solution-blockchain-startups-0{fill:url(#lg_solution_blockchain_startups_0)}.solution-blockchain-startups-1{fill:url(#lg_solution_blockchain_startups_1)}.solution-blockchain-startups-2{fill:url(#lg_solution_blockchain_startups_2)}.solution-blockchain-startups-3{fill:url(#lg_solution_blockchain_startups_3)}.solution-blockchain-startups-4{fill:url(#lg_solution_blockchain_startups_4)}.solution-blockchain-startups-5{fill:url(#lg_solution_blockchain_startups_5)}.solution-blockchain-startups-6{fill:url(#lg_solution_blockchain_startups_6)}.solution-blockchain-startups-7{fill:#20242C}.solution-blockchain-startups-8{fill:url(#lg_solution_blockchain_startups_8)}.solution-blockchain-startups-9{fill:url(#lg_solution_blockchain_startups_9)}.solution-blockchain-startups-10{fill:url(#lg_solution_blockchain_startups_10)}.solution-blockchain-startups-11{fill:none;stroke:url(#lg_solution_blockchain_startups_11);stroke-miterlimit:10}.solution-blockchain-startups-12{fill:url(#lg_solution_blockchain_startups_12)}.solution-blockchain-startups-13{fill:url(#lg_solution_blockchain_startups_13)}.solution-blockchain-startups-14{fill:url(#lg_solution_blockchain_startups_14)}.solution-blockchain-startups-15{fill:url(#lg_solution_blockchain_startups_15)}.solution-blockchain-startups-16{fill:url(#lg_solution_blockchain_startups_16)}.solution-blockchain-startups-17{fill:url(#lg_solution_blockchain_startups_17)}.solution-blockchain-startups-18{fill:url(#lg_solution_blockchain_startups_18)}.solution-blockchain-startups-19{fill:url(#lg_solution_blockchain_startups_19)}.solution-blockchain-startups-20{fill:url(#lg_solution_blockchain_startups_20)}.solution-blockchain-startups-21{fill:url(#lg_solution_blockchain_startups_21)}.solution-blockchain-startups-22{fill:url(#lg_solution_blockchain_startups_22)}.solution-blockchain-startups-23{fill:url(#lg_solution_blockchain_startups_23)}.solution-blockchain-startups-24{fill:none;stroke:url(#lg_solution_blockchain_startups_24);stroke-miterlimit:10}.solution-blockchain-startups-25{opacity:0.2}.solution-blockchain-startups-26{clip-path:url(#solution_blockchain_startups_mask);fill:#FFF}</style><g id="solution_blockchain_startups_hexagons" class="solution-blockchain-startups-25"><defs><circle id="solution_blockchain_startups_circle" class="solution-blockchain-startups-25" cx="80.182" cy="80" r="65"/></defs><clipPath id="solution_blockchain_startups_mask"><use xlink:href="#solution_blockchain_startups_circle" style="overflow:visible;"/></clipPath><path class="solution-blockchain-startups-26" id="solution_blockchain_startups_hex_path" d="M22.871,51.183l0.194,0.112l3.762-6.517l-3.827-6.628h-7.653l-3.827,6.628l3.827,6.629h7.653l0.065-0.112 L22.871,51.183v-0.224h-7.265l-3.568-6.18l3.568-6.18h7.135l3.568,6.18l-3.633,6.293L22.871,51.183v-0.224V51.183z M22.871,63.99 l0.194,0.112l3.762-6.516l-3.827-6.628h-7.653l-3.827,6.628l3.827,6.628h7.653l0.065-0.112L22.871,63.99v-0.224h-7.265l-3.568-6.18 l3.568-6.18h7.135l3.568,6.18l-3.633,6.292L22.871,63.99v-0.224V63.99z M22.871,76.798l0.194,0.112l3.762-6.516l-3.827-6.629 h-7.653l-3.827,6.629l3.827,6.628h7.653l0.065-0.112L22.871,76.798v-0.224h-7.265l-3.568-6.18l3.568-6.18l7.135,0l3.568,6.18 l-3.633,6.292L22.871,76.798v-0.224V76.798z M33.964,44.778l0.194,0.112l3.762-6.516l-3.827-6.628h-7.654l-3.827,6.628l3.827,6.628 h7.654l0.065-0.112L33.964,44.778v-0.224h-7.266l-3.568-6.18l3.568-6.18h7.136l3.568,6.18l-3.633,6.292L33.964,44.778v-0.224 V44.778z M33.964,57.586l0.194,0.112l3.762-6.516l-3.827-6.629h-7.654l-3.827,6.629l3.827,6.628h7.654l0.065-0.112L33.964,57.586 v-0.224h-7.265l-3.568-6.18l3.568-6.18h7.136l3.568,6.18l-3.633,6.292L33.964,57.586v-0.224V57.586z M33.964,70.394l0.194,0.112 l3.762-6.517l-3.827-6.628h-7.654l-3.827,6.628l3.827,6.629h7.654l0.065-0.112L33.964,70.394V70.17h-7.266L23.13,63.99l3.568-6.18 h7.136l3.568,6.18l-3.633,6.292L33.964,70.394V70.17V70.394z M33.964,83.202l0.194,0.112l3.762-6.516l-3.827-6.628h-7.654 l-3.827,6.628l3.827,6.628h7.654l0.065-0.112L33.964,83.202v-0.224h-7.266l-3.568-6.18l3.568-6.18h7.136l3.568,6.18L33.77,83.09 L33.964,83.202v-0.224V83.202z M45.056,38.374l0.194,0.112l3.762-6.516l-3.827-6.628h-7.654l-3.827,6.628l3.827,6.628h7.654 l0.065-0.112L45.056,38.374V38.15H37.79l-3.568-6.18l3.568-6.18h7.136l3.568,6.18l-3.633,6.292L45.056,38.374V38.15V38.374z M45.056,51.183l0.194,0.112l3.762-6.517l-3.827-6.628h-7.654l-3.827,6.628l3.827,6.629h7.654l0.065-0.112L45.056,51.183v-0.224 H37.79l-3.568-6.18l3.568-6.18h7.136l3.568,6.18l-3.633,6.293L45.056,51.183v-0.224V51.183z M45.056,63.99l0.194,0.112l3.762-6.516 l-3.827-6.628h-7.654l-3.827,6.628l3.827,6.628h7.654l0.065-0.112L45.056,63.99v-0.224H37.79l-3.568-6.18l3.568-6.18h7.136 l3.568,6.18l-3.633,6.292L45.056,63.99v-0.224V63.99z M45.056,76.798l0.194,0.112l3.762-6.516l-3.827-6.629h-7.654l-3.827,6.629 l3.827,6.628h7.654l0.065-0.112L45.056,76.798v-0.224H37.79l-3.568-6.18l3.568-6.18h7.136l3.568,6.18l-3.633,6.292L45.056,76.798 v-0.224V76.798z M56.147,31.971l0.194,0.112l3.762-6.516l-3.827-6.629h-7.653l-3.827,6.629l3.827,6.628h7.653l0.065-0.112 L56.147,31.971v-0.224h-7.265l-3.568-6.18l3.568-6.18h7.135l3.568,6.18l-3.633,6.292L56.147,31.971v-0.224V31.971z M56.147,44.778 l0.194,0.112l3.762-6.516l-3.827-6.628h-7.653l-3.827,6.628l3.827,6.628h7.653l0.065-0.112L56.147,44.778v-0.224h-7.265 l-3.568-6.18l3.568-6.18h7.135l3.568,6.18l-3.633,6.292L56.147,44.778v-0.224V44.778z M56.147,57.586l0.194,0.112l3.762-6.516 l-3.827-6.629h-7.653l-3.827,6.629l3.827,6.628h7.653l0.065-0.112L56.147,57.586v-0.224h-7.265l-3.568-6.18l3.568-6.18h7.135 l3.568,6.18l-3.633,6.292L56.147,57.586v-0.224V57.586z M56.147,70.394l0.194,0.112l3.762-6.517l-3.827-6.628h-7.653l-3.827,6.628 l3.827,6.629h7.653l0.065-0.112L56.147,70.394V70.17h-7.265l-3.568-6.181l3.568-6.18h7.135l3.568,6.18l-3.633,6.292L56.147,70.394 V70.17V70.394z M56.147,83.202l0.194,0.112l3.762-6.516l-3.827-6.628h-7.653l-3.827,6.628l3.827,6.628h7.653l0.065-0.112 L56.147,83.202v-0.224h-7.265l-3.568-6.18l3.568-6.18l7.135,0l3.568,6.18l-3.633,6.292L56.147,83.202v-0.224V83.202z M67.239,25.567l0.194,0.112l3.762-6.517l-3.827-6.628h-7.654l-3.827,6.628l3.827,6.629h7.654l0.065-0.112L67.239,25.567v-0.224 h-7.266l-3.568-6.181l3.568-6.18h7.136l3.568,6.18l-3.633,6.292L67.239,25.567v-0.224V25.567z M67.239,38.374l0.194,0.112 l3.762-6.516l-3.827-6.628h-7.654l-3.827,6.628l3.827,6.628h7.654l0.065-0.112L67.239,38.374V38.15h-7.266l-3.568-6.18l3.568-6.18 h7.136l3.568,6.18l-3.633,6.292L67.239,38.374V38.15V38.374z M67.239,51.183l0.194,0.112l3.762-6.517l-3.827-6.628h-7.654 l-3.827,6.628l3.827,6.629h7.654l0.065-0.112L67.239,51.183v-0.224h-7.266l-3.568-6.18l3.568-6.18h7.136l3.568,6.18l-3.633,6.293 L67.239,51.183v-0.224V51.183z M67.239,63.99l0.194,0.112l3.762-6.516l-3.827-6.628h-7.654l-3.827,6.628l3.827,6.628h7.654 l0.065-0.112L67.239,63.99v-0.224h-7.266l-3.568-6.18l3.568-6.18h7.136l3.568,6.18l-3.633,6.292L67.239,63.99v-0.224V63.99z M67.239,76.798l0.194,0.112l3.762-6.516l-3.827-6.629h-7.654l-3.827,6.629l3.827,6.628h7.654l0.065-0.112L67.239,76.798v-0.224 h-7.266l-3.568-6.18l3.568-6.18h7.136l3.568,6.18l-3.633,6.292L67.239,76.798v-0.224V76.798z M78.332,31.971l0.194,0.112 l3.762-6.516l-3.827-6.629h-7.654l-3.827,6.629l3.827,6.628h7.654l0.065-0.112L78.332,31.971v-0.224h-7.266l-3.568-6.18l3.568-6.18 h7.136l3.568,6.18l-3.633,6.292L78.332,31.971v-0.224V31.971z M78.332,44.778l0.194,0.112l3.762-6.516l-3.827-6.628h-7.654 l-3.827,6.628l3.827,6.628h7.654l0.065-0.112L78.332,44.778v-0.224h-7.266l-3.568-6.18l3.568-6.18h7.136l3.568,6.18l-3.633,6.292 L78.332,44.778v-0.224V44.778z M78.332,57.586l0.194,0.112l3.762-6.516l-3.827-6.629h-7.654l-3.827,6.629l3.827,6.628h7.654 l0.065-0.112L78.332,57.586v-0.224h-7.265l-3.568-6.18l3.568-6.18h7.136l3.568,6.18l-3.633,6.292L78.332,57.586v-0.224V57.586z M78.332,70.394l0.194,0.112l3.762-6.517l-3.827-6.628h-7.654L66.98,63.99l3.827,6.629h7.654l0.065-0.112L78.332,70.394V70.17 h-7.266l-3.568-6.181l3.568-6.18h7.136l3.568,6.18l-3.633,6.292L78.332,70.394V70.17V70.394z M78.332,83.202l0.194,0.112 l3.762-6.516l-3.827-6.628h-7.654l-3.827,6.628l3.827,6.628h7.654l0.065-0.112L78.332,83.202v-0.224h-7.266l-3.568-6.18l3.568-6.18 h7.136l3.568,6.18l-3.633,6.292L78.332,83.202v-0.224V83.202z M22.871,89.606l0.194,0.112l3.762-6.516l-3.827-6.628h-7.653 l-3.827,6.628l3.827,6.628h7.653l0.065-0.112L22.871,89.606v-0.224h-7.265l-3.568-6.18l3.568-6.18h7.135l3.568,6.18l-3.633,6.292 L22.871,89.606v-0.224V89.606z M22.871,102.414l0.194,0.112l3.762-6.516l-3.827-6.629h-7.653l-3.827,6.629l3.827,6.628h7.653 l0.065-0.112L22.871,102.414v-0.224h-7.265l-3.568-6.18l3.568-6.18h7.135l3.568,6.18l-3.633,6.292L22.871,102.414v-0.224V102.414z M22.871,115.222l0.194,0.112l3.762-6.517l-3.827-6.628h-7.653l-3.827,6.628l3.827,6.629h7.653l0.065-0.112L22.871,115.222v-0.224 h-7.265l-3.568-6.181l3.568-6.18h7.135l3.568,6.18l-3.633,6.292L22.871,115.222v-0.224V115.222z M33.964,96.01l0.194,0.112 l3.762-6.517l-3.827-6.628h-7.654l-3.827,6.628l3.827,6.629h7.654l0.065-0.112L33.964,96.01v-0.224h-7.266l-3.568-6.18l3.568-6.18 h7.136l3.568,6.18l-3.633,6.293L33.964,96.01v-0.224V96.01z M33.964,108.817l0.194,0.112l3.762-6.516l-3.827-6.628h-7.654 l-3.827,6.628l3.827,6.628h7.654l0.065-0.112L33.964,108.817v-0.224h-7.265l-3.568-6.18l3.568-6.18h7.136l3.568,6.18l-3.633,6.292 L33.964,108.817v-0.224V108.817z M33.964,121.626l0.194,0.112l3.762-6.516l-3.827-6.629h-7.654l-3.827,6.629l3.827,6.628h7.654 l0.065-0.112L33.964,121.626v-0.224h-7.266l-3.568-6.18l3.568-6.18h7.136l3.568,6.18l-3.633,6.292L33.964,121.626v-0.224V121.626z M33.964,134.433l0.194,0.112l3.762-6.516l-3.827-6.628h-7.654l-3.827,6.628l3.827,6.628h7.654l0.065-0.112L33.964,134.433v-0.224 h-7.266l-3.568-6.18l3.568-6.18h7.136l3.568,6.18l-3.633,6.292L33.964,134.433v-0.224V134.433z M45.056,89.606l0.194,0.112 l3.762-6.516l-3.827-6.628h-7.654l-3.827,6.628l3.827,6.628h7.654l0.065-0.112L45.056,89.606v-0.224H37.79l-3.568-6.18l3.568-6.18 h7.136l3.568,6.18l-3.633,6.292L45.056,89.606v-0.224V89.606z M45.056,102.414l0.194,0.112l3.762-6.516l-3.827-6.629h-7.654 l-3.827,6.629l3.827,6.628h7.654l0.065-0.112L45.056,102.414v-0.224H37.79l-3.568-6.18l3.568-6.18h7.136l3.568,6.18l-3.633,6.292 L45.056,102.414v-0.224V102.414z M45.056,115.222l0.194,0.112l3.762-6.517l-3.827-6.628h-7.654l-3.827,6.628l3.827,6.629h7.654 l0.065-0.112L45.056,115.222v-0.224H37.79l-3.568-6.181l3.568-6.18h7.136l3.568,6.18l-3.633,6.292L45.056,115.222v-0.224V115.222z M45.056,128.029l0.194,0.112l3.762-6.516l-3.827-6.628h-7.654l-3.827,6.628l3.827,6.628h7.654l0.065-0.112L45.056,128.029v-0.224 H37.79l-3.568-6.18l3.568-6.18h7.136l3.568,6.18l-3.633,6.292L45.056,128.029v-0.224V128.029z M45.056,140.838l0.194,0.112 l3.762-6.517l-3.827-6.628h-7.654l-3.827,6.628l3.827,6.629h7.654l0.065-0.112L45.056,140.838v-0.224H37.79l-3.568-6.18l3.568-6.18 h7.136l3.568,6.18l-3.633,6.293L45.056,140.838v-0.224V140.838z M56.147,96.01l0.194,0.112l3.762-6.517l-3.827-6.628h-7.653 l-3.827,6.628l3.827,6.629h7.653l0.065-0.112L56.147,96.01v-0.224h-7.265l-3.568-6.18l3.568-6.18h7.135l3.568,6.18l-3.633,6.293 L56.147,96.01v-0.224V96.01z M56.147,108.817l0.194,0.112l3.762-6.516l-3.827-6.628h-7.653l-3.827,6.628l3.827,6.628h7.653 l0.065-0.112L56.147,108.817v-0.224h-7.265l-3.568-6.18l3.568-6.18h7.135l3.568,6.18l-3.633,6.292L56.147,108.817v-0.224V108.817z M56.147,121.626l0.194,0.112l3.762-6.516l-3.827-6.629h-7.653l-3.827,6.629l3.827,6.628h7.653l0.065-0.112L56.147,121.626v-0.224 h-7.265l-3.568-6.18l3.568-6.18h7.135l3.568,6.181l-3.633,6.292L56.147,121.626v-0.224V121.626z M56.147,134.433l0.194,0.112 l3.762-6.516l-3.827-6.628h-7.653l-3.827,6.628l3.827,6.628h7.653l0.065-0.112L56.147,134.433v-0.224h-7.265l-3.568-6.18 l3.568-6.18h7.135l3.568,6.18l-3.633,6.292L56.147,134.433v-0.224V134.433z M56.147,147.241l0.194,0.112l3.762-6.516l-3.827-6.629 h-7.653l-3.827,6.629l3.827,6.628h7.653l0.065-0.112L56.147,147.241v-0.224h-7.265l-3.568-6.18l3.568-6.18h7.135l3.568,6.18 l-3.633,6.292L56.147,147.241v-0.224V147.241z M67.239,89.606l0.194,0.112l3.762-6.516l-3.827-6.628h-7.654l-3.827,6.628 l3.827,6.628h7.654l0.065-0.112L67.239,89.606v-0.224h-7.266l-3.568-6.18l3.568-6.18h7.136l3.568,6.18l-3.633,6.292L67.239,89.606 v-0.224V89.606z M67.239,102.414l0.194,0.112l3.762-6.516l-3.827-6.629h-7.654l-3.827,6.629l3.827,6.628h7.654l0.065-0.112 L67.239,102.414v-0.224h-7.265l-3.568-6.18l3.568-6.18h7.136l3.568,6.18l-3.633,6.292L67.239,102.414v-0.224V102.414z M67.239,115.222l0.194,0.112l3.762-6.517l-3.827-6.628h-7.654l-3.827,6.628l3.827,6.629h7.654l0.065-0.112L67.239,115.222v-0.224 h-7.266l-3.568-6.181l3.568-6.18h7.136l3.568,6.18l-3.633,6.292L67.239,115.222v-0.224V115.222z M67.239,128.029l0.194,0.112 l3.762-6.516l-3.827-6.628h-7.654l-3.827,6.628l3.827,6.628h7.654l0.065-0.112L67.239,128.029v-0.224h-7.266l-3.568-6.18 l3.568-6.18h7.136l3.568,6.18l-3.633,6.292L67.239,128.029v-0.224V128.029z M67.239,140.838l0.194,0.112l3.762-6.517l-3.827-6.628 h-7.654l-3.827,6.628l3.827,6.629h7.654l0.065-0.112L67.239,140.838v-0.224h-7.266l-3.568-6.18l3.568-6.18h7.136l3.568,6.18 l-3.633,6.293L67.239,140.838v-0.224V140.838z M78.332,96.01l0.194,0.112l3.762-6.517l-3.827-6.628h-7.654l-3.827,6.628 l3.827,6.629h7.654l0.065-0.112L78.332,96.01v-0.224h-7.266l-3.568-6.18l3.568-6.18h7.136l3.568,6.18l-3.633,6.293L78.332,96.01 v-0.224V96.01z M78.332,108.817l0.194,0.112l3.762-6.516l-3.827-6.628h-7.654l-3.827,6.628l3.827,6.628h7.654l0.065-0.112 L78.332,108.817v-0.224h-7.265l-3.568-6.18l3.568-6.18h7.136l3.568,6.18l-3.633,6.292L78.332,108.817v-0.224V108.817z M78.332,121.626l0.194,0.112l3.762-6.516l-3.827-6.629h-7.654l-3.827,6.629l3.827,6.628h7.654l0.065-0.112L78.332,121.626v-0.224 h-7.266l-3.568-6.18l3.568-6.18h7.136l3.568,6.18l-3.633,6.292L78.332,121.626v-0.224V121.626z M78.332,134.433l0.194,0.112 l3.762-6.516l-3.827-6.628h-7.654l-3.827,6.628l3.827,6.628h7.654l0.065-0.112L78.332,134.433v-0.224h-7.266l-3.568-6.18 l3.568-6.18h7.136l3.568,6.18l-3.633,6.292L78.332,134.433v-0.224V134.433z M78.332,147.241l0.194,0.112l3.762-6.516l-3.827-6.629 h-7.654l-3.827,6.629l3.827,6.628h7.654l0.065-0.112L78.332,147.241v-0.224h-7.265l-3.568-6.18l3.568-6.18h7.136l3.568,6.18 l-3.633,6.292L78.332,147.241v-0.224V147.241z M89.427,25.567l0.194,0.112l3.762-6.517l-3.827-6.628h-7.654l-3.827,6.628 l3.827,6.629h7.654l0.065-0.112L89.427,25.567v-0.224h-7.266l-3.568-6.181l3.568-6.18h7.136l3.568,6.18l-3.633,6.292L89.427,25.567 v-0.224V25.567z M89.427,38.374l0.194,0.112l3.762-6.516l-3.827-6.628h-7.654l-3.827,6.628l3.827,6.628h7.654l0.065-0.112 L89.427,38.374V38.15h-7.266l-3.568-6.18l3.568-6.18h7.136l3.568,6.18l-3.633,6.292L89.427,38.374V38.15V38.374z M89.427,51.183 l0.194,0.112l3.762-6.517l-3.827-6.628h-7.654l-3.827,6.628l3.827,6.629h7.654l0.065-0.112L89.427,51.183v-0.224h-7.266 l-3.568-6.18l3.568-6.18h7.136l3.568,6.18l-3.633,6.293L89.427,51.183v-0.224V51.183z M89.427,63.99l0.194,0.112l3.762-6.516 l-3.827-6.628h-7.654l-3.827,6.628l3.827,6.628h7.654l0.065-0.112L89.427,63.99v-0.224h-7.266l-3.568-6.18l3.568-6.18h7.136 l3.568,6.18l-3.633,6.292L89.427,63.99v-0.224V63.99z M89.427,76.798l0.194,0.112l3.762-6.516l-3.827-6.629h-7.654l-3.827,6.629 l3.827,6.628h7.654l0.065-0.112L89.427,76.798v-0.224h-7.266l-3.568-6.18l3.568-6.18h7.136l3.568,6.18l-3.633,6.292L89.427,76.798 v-0.224V76.798z M100.52,31.971l0.194,0.112l3.762-6.516l-3.827-6.629h-7.654l-3.827,6.629l3.827,6.628h7.654l0.065-0.112 L100.52,31.971v-0.224h-7.266l-3.568-6.18l3.568-6.18h7.136l3.568,6.18l-3.633,6.292L100.52,31.971v-0.224V31.971z M100.52,44.778 l0.194,0.112l3.762-6.516l-3.827-6.628h-7.654l-3.827,6.628l3.827,6.628h7.654l0.065-0.112L100.52,44.778v-0.224h-7.266 l-3.568-6.18l3.568-6.18h7.136l3.568,6.18l-3.633,6.292L100.52,44.778v-0.224V44.778z M100.52,57.586l0.194,0.112l3.762-6.516 l-3.827-6.629h-7.654l-3.827,6.629l3.827,6.628h7.654l0.065-0.112L100.52,57.586v-0.224h-7.265l-3.568-6.18l3.568-6.18h7.136 l3.568,6.18l-3.633,6.292L100.52,57.586v-0.224V57.586z M100.52,70.394l0.194,0.112l3.762-6.517l-3.827-6.628h-7.654l-3.827,6.628 l3.827,6.629h7.654l0.065-0.112L100.52,70.394V70.17h-7.266l-3.568-6.181l3.568-6.18h7.136l3.568,6.18l-3.633,6.292L100.52,70.394 V70.17V70.394z M100.52,83.202l0.194,0.112l3.762-6.516l-3.827-6.628h-7.654l-3.827,6.628l3.827,6.628h7.654l0.065-0.112 L100.52,83.202v-0.224h-7.266l-3.568-6.18l3.568-6.18h7.136l3.568,6.18l-3.633,6.292L100.52,83.202v-0.224V83.202z M111.611,25.567 l0.194,0.112l3.762-6.517l-3.827-6.628h-7.653l-3.827,6.628l3.827,6.629h7.653l0.065-0.112L111.611,25.567v-0.224h-7.265 l-3.568-6.181l3.568-6.18h7.135l3.568,6.18l-3.633,6.292L111.611,25.567v-0.224V25.567z M111.611,38.374l0.194,0.112l3.762-6.516 l-3.827-6.628h-7.653l-3.827,6.628l3.827,6.628h7.653l0.065-0.112L111.611,38.374V38.15h-7.265l-3.568-6.18l3.568-6.18h7.135 l3.568,6.18l-3.633,6.292L111.611,38.374V38.15V38.374z M111.611,51.183l0.194,0.112l3.762-6.517l-3.827-6.628h-7.653l-3.827,6.628 l3.827,6.629h7.653l0.065-0.112L111.611,51.183v-0.224h-7.265l-3.568-6.18l3.568-6.18h7.135l3.568,6.18l-3.633,6.293 L111.611,51.183v-0.224V51.183z M111.611,63.99l0.194,0.112l3.762-6.516l-3.827-6.628h-7.653l-3.827,6.628l3.827,6.628h7.653 l0.065-0.112L111.611,63.99v-0.224h-7.265l-3.568-6.18l3.568-6.18h7.135l3.568,6.18l-3.633,6.292L111.611,63.99v-0.224V63.99z M111.611,76.798l0.194,0.112l3.762-6.516l-3.827-6.629h-7.653l-3.827,6.629l3.827,6.628h7.653l0.065-0.112L111.611,76.798v-0.224 h-7.265l-3.568-6.18l3.568-6.18l7.135,0l3.568,6.18l-3.633,6.292L111.611,76.798v-0.224V76.798z M122.703,31.971l0.194,0.112 l3.762-6.516l-3.827-6.629h-7.654l-3.827,6.629l3.827,6.628h7.654l0.065-0.112L122.703,31.971v-0.224h-7.266l-3.568-6.18 l3.568-6.18h7.136l3.568,6.18l-3.633,6.292L122.703,31.971v-0.224V31.971z M122.703,44.778l0.194,0.112l3.762-6.516l-3.827-6.628 h-7.654l-3.827,6.628l3.827,6.628h7.654l0.065-0.112L122.703,44.778v-0.224h-7.266l-3.568-6.18l3.568-6.18h7.136l3.568,6.18 l-3.633,6.292L122.703,44.778v-0.224V44.778z M122.703,57.586l0.194,0.112l3.762-6.516l-3.827-6.629h-7.654l-3.827,6.629 l3.827,6.628h7.654l0.065-0.112L122.703,57.586v-0.224h-7.265l-3.568-6.18l3.568-6.18h7.136l3.568,6.18l-3.633,6.292 L122.703,57.586v-0.224V57.586z M122.703,70.394l0.194,0.112l3.762-6.517l-3.827-6.628h-7.654l-3.827,6.628l3.827,6.629h7.654 l0.065-0.112L122.703,70.394V70.17h-7.266l-3.568-6.181l3.568-6.18h7.136l3.568,6.18l-3.633,6.292L122.703,70.394V70.17V70.394z M122.703,83.202l0.194,0.112l3.762-6.516l-3.827-6.628h-7.654l-3.827,6.628l3.827,6.628h7.654l0.065-0.112L122.703,83.202v-0.224 h-7.266l-3.568-6.18l3.568-6.18h7.136l3.568,6.18l-3.633,6.292L122.703,83.202v-0.224V83.202z M133.795,38.374l0.194,0.112 l3.762-6.516l-3.827-6.628h-7.654l-3.827,6.628l3.827,6.628h7.654l0.065-0.112L133.795,38.374V38.15h-7.266l-3.568-6.18l3.568-6.18 h7.136l3.568,6.18l-3.633,6.292L133.795,38.374V38.15V38.374z M133.795,51.183l0.194,0.112l3.762-6.517l-3.827-6.628h-7.654 l-3.827,6.628l3.827,6.629h7.654l0.065-0.112L133.795,51.183v-0.224h-7.266l-3.568-6.18l3.568-6.18h7.136l3.568,6.18l-3.633,6.293 L133.795,51.183v-0.224V51.183z M133.795,63.99l0.194,0.112l3.762-6.516l-3.827-6.628h-7.654l-3.827,6.628l3.827,6.628h7.654 l0.065-0.112L133.795,63.99v-0.224h-7.266l-3.568-6.18l3.568-6.18h7.136l3.568,6.18l-3.633,6.292L133.795,63.99v-0.224V63.99z M133.795,76.798l0.194,0.112l3.762-6.516l-3.827-6.629h-7.654l-3.827,6.629l3.827,6.628h7.654l0.065-0.112L133.795,76.798v-0.224 h-7.266l-3.568-6.18l3.568-6.18h7.136l3.568,6.18l-3.633,6.292L133.795,76.798v-0.224V76.798z M144.887,57.586l0.194,0.112 l3.762-6.516l-3.827-6.629h-7.654l-3.827,6.629l3.827,6.628h7.654l0.065-0.112L144.887,57.586v-0.224h-7.265l-3.568-6.18 l3.568-6.18h7.136l3.568,6.18l-3.633,6.292L144.887,57.586v-0.224V57.586z M144.887,70.394l0.194,0.112l3.762-6.517l-3.827-6.628 h-7.654l-3.827,6.628l3.827,6.629h7.654l0.065-0.112L144.887,70.394V70.17h-7.266l-3.568-6.181l3.568-6.18h7.136l3.568,6.18 l-3.633,6.292L144.887,70.394V70.17V70.394z M144.887,83.202l0.194,0.112l3.762-6.516l-3.827-6.628h-7.654l-3.827,6.628 l3.827,6.628h7.654l0.065-0.112L144.887,83.202v-0.224h-7.266l-3.568-6.18l3.568-6.18h7.136l3.568,6.18l-3.633,6.292 L144.887,83.202v-0.224V83.202z M89.427,89.606l0.194,0.112l3.762-6.516l-3.827-6.628h-7.654l-3.827,6.628l3.827,6.628h7.654 l0.065-0.112L89.427,89.606v-0.224h-7.266l-3.568-6.18l3.568-6.18h7.136l3.568,6.18l-3.633,6.292L89.427,89.606v-0.224V89.606z M89.427,102.414l0.194,0.112l3.762-6.516l-3.827-6.629h-7.654l-3.827,6.629l3.827,6.628h7.654l0.065-0.112L89.427,102.414v-0.224 h-7.265l-3.568-6.18l3.568-6.18h7.136l3.568,6.18l-3.633,6.292L89.427,102.414v-0.224V102.414z M89.427,115.222l0.194,0.112 l3.762-6.517l-3.827-6.628h-7.654l-3.827,6.628l3.827,6.629h7.654l0.065-0.112L89.427,115.222v-0.224h-7.266l-3.568-6.181 l3.568-6.18h7.136l3.568,6.18l-3.633,6.292L89.427,115.222v-0.224V115.222z M89.427,128.029l0.194,0.112l3.762-6.516l-3.827-6.628 h-7.654l-3.827,6.628l3.827,6.628h7.654l0.065-0.112L89.427,128.029v-0.224h-7.266l-3.568-6.18l3.568-6.18h7.136l3.568,6.18 l-3.633,6.292L89.427,128.029v-0.224V128.029z M89.427,140.838l0.194,0.112l3.762-6.517l-3.827-6.628h-7.654l-3.827,6.628 l3.827,6.629h7.654l0.065-0.112L89.427,140.838v-0.224h-7.266l-3.568-6.18l3.568-6.18h7.136l3.568,6.18l-3.633,6.293 L89.427,140.838v-0.224V140.838z M100.52,96.01l0.194,0.112l3.762-6.517l-3.827-6.628h-7.654l-3.827,6.628l3.827,6.629h7.654 l0.065-0.112L100.52,96.01v-0.224h-7.266l-3.568-6.18l3.568-6.18h7.136l3.568,6.18l-3.633,6.293L100.52,96.01v-0.224V96.01z M100.52,108.817l0.194,0.112l3.762-6.516l-3.827-6.628h-7.654l-3.827,6.628l3.827,6.628h7.654l0.065-0.112L100.52,108.817v-0.224 h-7.265l-3.568-6.18l3.568-6.18h7.136l3.568,6.18l-3.633,6.292L100.52,108.817v-0.224V108.817z M100.52,121.626l0.194,0.112 l3.762-6.516l-3.827-6.629h-7.654l-3.827,6.629l3.827,6.628h7.654l0.065-0.112L100.52,121.626v-0.224h-7.266l-3.568-6.18 l3.568-6.18h7.136l3.568,6.18l-3.633,6.292L100.52,121.626v-0.224V121.626z M100.52,134.433l0.194,0.112l3.762-6.516l-3.827-6.628 h-7.654l-3.827,6.628l3.827,6.628h7.654l0.065-0.112L100.52,134.433v-0.224h-7.266l-3.568-6.18l3.568-6.18h7.136l3.568,6.18 l-3.633,6.292L100.52,134.433v-0.224V134.433z M100.52,147.241l0.194,0.112l3.762-6.516l-3.827-6.629h-7.654l-3.827,6.629 l3.827,6.628h7.654l0.065-0.112L100.52,147.241v-0.224h-7.265l-3.568-6.18l3.568-6.18h7.136l3.568,6.18l-3.633,6.292 L100.52,147.241v-0.224V147.241z M111.611,89.606l0.194,0.112l3.762-6.516l-3.827-6.628h-7.653l-3.827,6.628l3.827,6.628h7.653 l0.065-0.112L111.611,89.606v-0.224h-7.265l-3.568-6.18l3.568-6.18h7.135l3.568,6.18l-3.633,6.292L111.611,89.606v-0.224V89.606z M111.611,102.414l0.194,0.112l3.762-6.516l-3.827-6.629h-7.653l-3.827,6.629l3.827,6.628h7.653l0.065-0.112L111.611,102.414 v-0.224h-7.265l-3.568-6.18l3.568-6.18h7.135l3.568,6.18l-3.633,6.292L111.611,102.414v-0.224V102.414z M111.611,115.222 l0.194,0.112l3.762-6.517l-3.827-6.628h-7.653l-3.827,6.628l3.827,6.629h7.653l0.065-0.112L111.611,115.222v-0.224h-7.265 l-3.568-6.181l3.568-6.18h7.135l3.568,6.18l-3.633,6.292L111.611,115.222v-0.224V115.222z M111.611,128.029l0.194,0.112 l3.762-6.516l-3.827-6.628h-7.653l-3.827,6.628l3.827,6.628h7.653l0.065-0.112L111.611,128.029v-0.224h-7.265l-3.568-6.18 l3.568-6.18h7.135l3.568,6.18l-3.633,6.292L111.611,128.029v-0.224V128.029z M111.611,140.838l0.194,0.112l3.762-6.517 l-3.827-6.628h-7.653l-3.827,6.628l3.827,6.629h7.653l0.065-0.112L111.611,140.838v-0.224h-7.265l-3.568-6.18l3.568-6.18h7.135 l3.568,6.18l-3.633,6.293L111.611,140.838v-0.224V140.838z M122.703,96.01l0.194,0.112l3.762-6.517l-3.827-6.628h-7.654 l-3.827,6.628l3.827,6.629h7.654l0.065-0.112L122.703,96.01v-0.224h-7.266l-3.568-6.18l3.568-6.18h7.136l3.568,6.18l-3.633,6.293 L122.703,96.01v-0.224V96.01z M122.703,108.817l0.194,0.112l3.762-6.516l-3.827-6.628h-7.654l-3.827,6.628l3.827,6.628h7.654 l0.065-0.112L122.703,108.817v-0.224h-7.265l-3.568-6.18l3.568-6.18h7.136l3.568,6.18l-3.633,6.292L122.703,108.817v-0.224V108.817 z M122.703,121.626l0.194,0.112l3.762-6.516l-3.827-6.629h-7.654l-3.827,6.629l3.827,6.628h7.654l0.065-0.112L122.703,121.626 v-0.224h-7.266l-3.568-6.18l3.568-6.18h7.136l3.568,6.18l-3.633,6.292L122.703,121.626v-0.224V121.626z M122.703,134.433 l0.194,0.112l3.762-6.516l-3.827-6.628h-7.654l-3.827,6.628l3.827,6.628h7.654l0.065-0.112L122.703,134.433v-0.224h-7.266 l-3.568-6.18l3.568-6.18h7.136l3.568,6.18l-3.633,6.292L122.703,134.433v-0.224V134.433z M133.795,89.606l0.194,0.112l3.762-6.516 l-3.827-6.628h-7.654l-3.827,6.628l3.827,6.628h7.654l0.065-0.112L133.795,89.606v-0.224h-7.266l-3.568-6.18l3.568-6.18h7.136 l3.568,6.18l-3.633,6.292L133.795,89.606v-0.224V89.606z M133.795,102.414l0.194,0.112l3.762-6.516l-3.827-6.629h-7.654 l-3.827,6.629l3.827,6.628h7.654l0.065-0.112L133.795,102.414v-0.224h-7.265l-3.568-6.18l3.568-6.18h7.136l3.568,6.18l-3.633,6.292 L133.795,102.414v-0.224V102.414z M133.795,115.222l0.194,0.112l3.762-6.517l-3.827-6.628h-7.654l-3.827,6.628l3.827,6.629h7.654 l0.065-0.112L133.795,115.222v-0.224h-7.266l-3.568-6.181l3.568-6.18h7.136l3.568,6.18l-3.633,6.292L133.795,115.222v-0.224 V115.222z M133.795,128.029l0.194,0.112l3.762-6.516l-3.827-6.628h-7.654l-3.827,6.628l3.827,6.628h7.654l0.065-0.112 L133.795,128.029v-0.224h-7.266l-3.568-6.18l3.568-6.18h7.136l3.568,6.18l-3.633,6.292L133.795,128.029v-0.224V128.029z M144.887,96.01l0.194,0.112l3.762-6.517l-3.827-6.628h-7.654l-3.827,6.628l3.827,6.629h7.654l0.065-0.112L144.887,96.01v-0.224 h-7.266l-3.568-6.18l3.568-6.18h7.136l3.568,6.18l-3.633,6.293L144.887,96.01v-0.224V96.01z M144.887,108.817l0.194,0.112 l3.762-6.516l-3.827-6.628h-7.654l-3.827,6.628l3.827,6.628h7.654l0.065-0.112L144.887,108.817v-0.224h-7.265l-3.568-6.18 l3.568-6.18h7.136l3.568,6.18l-3.633,6.292L144.887,108.817v-0.224V108.817z M144.887,121.626l0.194,0.112l3.762-6.516 l-3.827-6.629h-7.654l-3.827,6.629l3.827,6.628h7.654l0.065-0.112L144.887,121.626v-0.224h-7.266l-3.568-6.18l3.568-6.18h7.136 l3.568,6.18l-3.633,6.292L144.887,121.626v-0.224V121.626z"/></g><g class="solution-outer-circles"><g id="solution_blockchain_startups_outer_path" class="solution-outer-path"><linearGradient id="lg_solution_blockchain_startups_0" gradientUnits="userSpaceOnUse" x1="23.425" y1="140.575" x2="136.575" y2="27.425" gradientTransform="matrix(1 0 0 1 0 -4)"><stop offset="0" style="stop-color:#62c5e5"/><stop offset="1" style="stop-color:#63C6E5"/></linearGradient><path id="solution_blockchain_startups_outer_path_gs" class="solution-blockchain-startups-0" d="M80,6c40.8,0,74,33.2,74,74s-33.2,74-74,74S6,120.8,6,80S39.2,6,80,6 M80,0 C35.8,0,0,35.8,0,80s35.8,80,80,80s80-35.8,80-80S124.2,0,80,0L80,0z"/></g><g id="solution_blockchain_startups_inner_path" class="solution-inner-path"><linearGradient id="lg_solution_blockchain_startups_1" gradientUnits="userSpaceOnUse" x1="35.8125" y1="128.1875" x2="124.1875" y2="39.8125" gradientTransform="matrix(1 0 0 1 0 -4)"><stop offset="0" style="stop-color:#62c5e5"/><stop offset="1" style="stop-color:#63C6E5"/></linearGradient><path id="solution_blockchain_startups_inner_path_gs" class="solution-blockchain-startups-1" d="M80,17c34.738,0,63,28.262,63,63s-28.262,63-63,63s-63-28.262-63-63S45.262,17,80,17 M80,15 c-35.898,0-65,29.102-65,65s29.102,65,65,65s65-29.102,65-65S115.898,15,80,15L80,15z"/></g></g><g id="solution_blockchain_startups_base_gs" class="solution-base"><g><linearGradient id="lg_solution_blockchain_startups_2" gradientUnits="userSpaceOnUse" x1="44.7609" y1="119.2672" x2="58.8364" y2="105.1917" gradientTransform="matrix(1 0 0 1 0 -4)"><stop offset="0" style="stop-color:#62c5e5"/><stop offset="1" style="stop-color:#63C6E5"/></linearGradient><path class="solution-blockchain-startups-2" d="M54.131,100.3c1.5,0,2.9,0.6,3.9,1.6c1.1,1.1,1.6,2.5,1.6,3.9c0,1.5-0.6,2.9-1.6,3.9 c-2.7,2.7-9.4,3.9-12.2,4.3c0.4-2.8,1.6-9.5,4.3-12.2C51.231,100.9,52.631,100.3,54.131,100.3 M54.131,99.3 c-1.7,0-3.4,0.6-4.6,1.9c-3.7,3.7-4.8,14.1-4.8,14.1s10.3-1,14.1-4.8c2.6-2.6,2.6-6.7,0-9.3C57.431,99.9,55.831,99.3,54.131,99.3 L54.131,99.3z"/></g><g><linearGradient id="lg_solution_blockchain_startups_3" gradientUnits="userSpaceOnUse" x1="46.7704" y1="117.1608" x2="57.5429" y2="106.3883" gradientTransform="matrix(1 0 0 1 0 -4)"><stop offset="0" style="stop-color:#62c5e5"/><stop offset="1" style="stop-color:#63C6E5"/></linearGradient><path class="solution-blockchain-startups-3" d="M54.131,102L54.131,102c1,0,2,0.4,2.7,1.1c1.5,1.5,1.5,3.9,0,5.4c-1.4,1.4-4.6,2.6-8.8,3.4 c0.8-4.2,2.1-7.5,3.4-8.8C52.131,102.5,53.131,102,54.131,102 M54.131,101c-1.2,0-2.5,0.5-3.4,1.4c-2.1,2.1-3.4,7.4-4,10.8 c3.4-0.6,8.6-1.8,10.8-4c1.9-1.9,1.9-4.9,0-6.8C56.531,101.5,55.331,101,54.131,101L54.131,101z"/></g><g><linearGradient id="lg_solution_blockchain_startups_4" gradientUnits="userSpaceOnUse" x1="53.5725" y1="95.4587" x2="69.9529" y2="79.0784" gradientTransform="matrix(1 0 0 1 0 -4)"><stop offset="0" style="stop-color:#62c5e5"/><stop offset="1" style="stop-color:#63C6E5"/></linearGradient><path class="solution-blockchain-startups-4" d="M59.231,75.3l14.9,5.5l-10,10.4l-14.9-5.5L59.231,75.3 M59.131,74.3c-0.2,0-0.4,0.1-0.6,0.3 l-10.1,10.6c-0.4,0.5-0.3,1.3,0.3,1.5l15.2,5.6c0.1,0,0.2,0.1,0.3,0.1c0.2,0,0.4-0.1,0.6-0.3l10.1-10.7c0.4-0.5,0.3-1.3-0.3-1.5 l-15.2-5.6C59.331,74.3,59.231,74.3,59.131,74.3L59.131,74.3z"/></g><g><linearGradient id="lg_solution_blockchain_startups_5" gradientUnits="userSpaceOnUse" x1="68.8479" y1="110.4833" x2="85.2271" y2="94.1041" gradientTransform="matrix(1 0 0 1 0 -4)"><stop offset="0" style="stop-color:#62c5e5"/><stop offset="1" style="stop-color:#63C6E5"/></linearGradient><path class="solution-blockchain-startups-5" d="M79.431,85.9l5.5,14.9l-10.4,10l-5.6-15L79.431,85.9 M79.431,84.8c-0.2,0-0.5,0.1-0.6,0.3 l-10.6,10.1c-0.2,0.2-0.3,0.6-0.2,0.9l5.6,15.2c0.1,0.4,0.5,0.6,0.9,0.6c0.2,0,0.5-0.1,0.6-0.3l10.6-10.1c0.2-0.2,0.3-0.6,0.2-0.9 l-5.6-15.2C80.131,84.9,79.831,84.8,79.431,84.8L79.431,84.8z"/></g><g><linearGradient id="lg_solution_blockchain_startups_6" gradientUnits="userSpaceOnUse" x1="59.3274" y1="104.6038" x2="62.4524" y2="101.4788" gradientTransform="matrix(1 0 0 1 0 -4)"><stop offset="0" style="stop-color:#62c5e5"/><stop offset="1" style="stop-color:#63C6E5"/></linearGradient><path class="solution-blockchain-startups-6" d="M57.831,94.8c0.3,0,0.6,0.1,0.8,0.3l6.2,6.2c0.4,0.4,0.4,1.1,0,1.6l-0.2,0.2 c-0.2,0.2-0.5,0.3-0.8,0.3s-0.6-0.1-0.8-0.3l-6.2-6.2c-0.4-0.4-0.4-1.1,0-1.6l0.2-0.2C57.231,94.9,57.531,94.8,57.831,94.8 M57.831,93.8c-0.6,0-1.1,0.2-1.5,0.6l-0.2,0.2c-0.8,0.8-0.8,2.1,0,3l6.2,6.2c0.4,0.4,0.9,0.6,1.5,0.6s1.1-0.2,1.5-0.6l0.2-0.2 c0.8-0.8,0.8-2.1,0-3l-6.2-6.2C58.931,94,58.331,93.8,57.831,93.8L57.831,93.8z"/></g><g><g><path class="solution-blockchain-startups-7" d="M66.431,103.8c-0.5,0-1-0.2-1.3-0.5l-8.4-8.4c-0.4-0.4-0.5-0.8-0.5-1.3s0.2-0.9,0.5-1.3 c0.5-0.7,7.9-11.7,16.3-22c8.1-9.8,14.4-15.9,18.6-18.3c8-4.4,22.1-7.1,22.2-7.1c0.4-0.1,0.7,0,1,0.3s0.4,0.6,0.3,1l0,0 c-0.9,5-3.6,16-7.1,22.2c-2.4,4.2-8.6,10.4-18.3,18.5c-10.2,8.5-21.3,16-22,16.5C67.431,103.5,66.931,103.8,66.431,103.8z"/></g><linearGradient id="lg_solution_blockchain_startups_8" gradientUnits="userSpaceOnUse" x1="60.9084" y1="102.9088" x2="114.8584" y2="48.9588" gradientTransform="matrix(1 0 0 1 0 -4)"><stop offset="0" style="stop-color:#62c5e5"/><stop offset="1" style="stop-color:#63C6E5"/></linearGradient><path class="solution-blockchain-startups-8" d="M114.131,45.7L114.131,45.7c0.1,0,0.1,0.1,0.1,0.1c-0.9,4.9-3.5,15.8-7,21.9 c-2.4,4.1-8.4,10.3-18.1,18.2c-10.3,8.5-21.4,16.1-21.9,16.4h-0.1l-0.1,0.1c-0.2,0.2-0.4,0.2-0.6,0.2c-0.2,0-0.5-0.1-0.6-0.3 l-8.4-8.4c-0.2-0.2-0.3-0.4-0.3-0.6s0.1-0.4,0.2-0.6l0.1-0.1v-0.1c0.3-0.5,7.8-11.6,16.3-21.9c8-9.7,14.2-15.8,18.4-18.1 C99.931,48.5,113.931,45.7,114.131,45.7L114.131,45.7 M114.131,44.7c-0.1,0-0.1,0-0.2,0c-0.1,0-14.2,2.7-22.2,7.1 c-4.3,2.4-10.5,8.5-18.6,18.3c-8.5,10.2-15.8,21.2-16.3,22c-0.3,0.3-0.5,0.8-0.5,1.3s0.2,1,0.5,1.3l8.4,8.4 c0.4,0.4,0.8,0.5,1.3,0.5s0.9-0.2,1.3-0.5c0.7-0.5,11.7-7.9,22-16.5c9.7-8.1,15.9-14.3,18.3-18.5c3.6-6.3,6.2-17.3,7.1-22.2 c0.1-0.4,0-0.7-0.3-1C114.631,44.9,114.331,44.7,114.131,44.7L114.131,44.7z"/></g><g><linearGradient id="lg_solution_blockchain_startups_9" gradientUnits="userSpaceOnUse" x1="94.496" y1="68.4352" x2="100.93" y2="62.0012" gradientTransform="matrix(1 0 0 1 0 -4)"><stop offset="0" style="stop-color:#62c5e5"/><stop offset="1" style="stop-color:#63C6E5"/></linearGradient><path class="solution-blockchain-startups-9" d="M97.731,57.7c0.9,0,1.8,0.4,2.5,1c0.7,0.7,1,1.6,1,2.5c0,0.9-0.4,1.8-1,2.5 c-0.7,0.7-1.6,1-2.5,1s-1.8-0.4-2.5-1c-0.7-0.7-1-1.6-1-2.5c0-0.9,0.4-1.8,1-2.5S96.731,57.7,97.731,57.7 M97.731,56.7 c-1.2,0-2.4,0.5-3.2,1.3c-0.9,0.9-1.3,2-1.3,3.2s0.5,2.4,1.3,3.2c0.9,0.9,2,1.3,3.2,1.3s2.4-0.5,3.2-1.3c0.8-0.8,1.3-2,1.3-3.2 s-0.5-2.4-1.3-3.2C100.031,57.1,98.931,56.7,97.731,56.7L97.731,56.7z"/></g><g><linearGradient id="lg_solution_blockchain_startups_10" gradientUnits="userSpaceOnUse" x1="92.7369" y1="70.1443" x2="102.6379" y2="60.2433" gradientTransform="matrix(1 0 0 1 0 -4)"><stop offset="0" style="stop-color:#62c5e5"/><stop offset="1" style="stop-color:#63C6E5"/></linearGradient><path class="solution-blockchain-startups-10" d="M97.731,55.2c1.6,0,3.1,0.6,4.2,1.8c1.1,1.1,1.8,2.6,1.8,4.2s-0.6,3.1-1.8,4.2 c-1.1,1.1-2.6,1.8-4.2,1.8s-3.1-0.6-4.2-1.8c-1.1-1.1-1.8-2.6-1.8-4.2s0.6-3.1,1.8-4.2C94.531,55.9,96.031,55.2,97.731,55.2 M97.731,54.2c-1.9,0-3.6,0.7-5,2c-2.7,2.7-2.7,7.2,0,9.9c1.3,1.3,3.1,2.1,5,2.1s3.6-0.7,5-2.1c2.7-2.7,2.7-7.2,0-9.9 C101.331,55,99.531,54.2,97.731,54.2L97.731,54.2z"/></g><linearGradient id="lg_solution_blockchain_startups_11" gradientUnits="userSpaceOnUse" x1="79.7886" y1="84.1422" x2="84.5286" y2="79.4023" gradientTransform="matrix(1 0 0 1 0 -4)"><stop offset="0" style="stop-color:#62c5e5"/><stop offset="1" style="stop-color:#63C6E5"/></linearGradient><path class="solution-blockchain-startups-11" d="M74.331,69.5l-2,2.4c7.7,3.1,12.6,8.1,15.7,15.7l2.4-2C87.431,77.8,82.031,72.6,74.331,69.5z" /></g><g id="solution_blockchain_startus_hover" class="solution-hover"><g><linearGradient id="lg_solution_blockchain_startups_12" gradientUnits="userSpaceOnUse" x1="44.7609" y1="119.2672" x2="58.8364" y2="105.1917" gradientTransform="matrix(1 0 0 1 0 -4)"><stop offset="0" style="stop-color:#62c5e5"/><stop offset="1" style="stop-color:#63C6E5"/></linearGradient><path id="XMLID_109_" class="solution-blockchain-startups-12" d="M54.131,100.3c1.5,0,2.9,0.6,3.9,1.6c1.1,1.1,1.6,2.5,1.6,3.9c0,1.5-0.6,2.9-1.6,3.9 c-2.7,2.7-9.4,3.9-12.2,4.3c0.4-2.8,1.6-9.5,4.3-12.2C51.231,100.9,52.631,100.3,54.131,100.3 M54.131,99.3 c-1.7,0-3.4,0.6-4.6,1.9c-3.7,3.7-4.8,14.1-4.8,14.1s10.3-1,14.1-4.8c2.6-2.6,2.6-6.7,0-9.3C57.431,99.9,55.831,99.3,54.131,99.3 L54.131,99.3z"/></g><g><linearGradient id="lg_solution_blockchain_startups_13" gradientUnits="userSpaceOnUse" x1="46.8203" y1="117.2106" x2="57.5928" y2="106.4382" gradientTransform="matrix(1 0 0 1 0 -4)"><stop offset="0" style="stop-color:#62c5e5"/><stop offset="1" style="stop-color:#63C6E5"/></linearGradient><path class="solution-blockchain-startups-13" d="M57.531,102.5c1.9,1.9,1.9,4.9,0,6.8c-2.1,2.2-7.4,3.4-10.8,4c0.6-3.4,1.8-8.6,4-10.8 C52.631,100.5,55.631,100.5,57.531,102.5z"/><linearGradient id="lg_solution_blockchain_startups_14" gradientUnits="userSpaceOnUse" x1="46.7704" y1="117.1608" x2="57.5429" y2="106.3883" gradientTransform="matrix(1 0 0 1 0 -4)"><stop offset="0" style="stop-color:#62c5e5"/><stop offset="1" style="stop-color:#63C6E5"/></linearGradient><path class="vsolution-blockchain-startups-14" d="M54.131,102L54.131,102c1,0,2,0.4,2.7,1.1c1.5,1.5,1.5,3.9,0,5.4c-1.4,1.4-4.6,2.6-8.8,3.4 c0.8-4.2,2.1-7.5,3.4-8.8C52.131,102.5,53.131,102,54.131,102 M54.131,101c-1.2,0-2.5,0.5-3.4,1.4c-2.1,2.1-3.4,7.4-4,10.8 c3.4-0.6,8.6-1.8,10.8-4c1.9-1.9,1.9-4.9,0-6.8C56.531,101.5,55.331,101,54.131,101L54.131,101z"/></g><g><linearGradient id="lg_solution_blockchain_startups_15" gradientUnits="userSpaceOnUse" x1="53.5225" y1="95.4087" x2="69.9023" y2="79.029" gradientTransform="matrix(1 0 0 1 0 -4)"><stop offset="0" style="stop-color:#62c5e5"/><stop offset="1" style="stop-color:#63C6E5"/></linearGradient><path class="solution-blockchain-startups-15" d="M74.631,79.9l-15.2-5.6c-0.1,0-0.2-0.1-0.3-0.1c-0.2,0-0.4,0.1-0.6,0.3l-10.1,10.6 c-0.4,0.5-0.3,1.3,0.3,1.5l15.2,5.6c0.1,0,0.2,0.1,0.3,0.1c0.2,0,0.4-0.1,0.6-0.3l10.1-10.7C75.331,80.9,75.231,80.2,74.631,79.9z "/><linearGradient id="lg_solution_blockchain_startups_16" gradientUnits="userSpaceOnUse" x1="53.5725" y1="95.4587" x2="69.9529" y2="79.0784" gradientTransform="matrix(1 0 0 1 0 -4)"><stop offset="0" style="stop-color:#62c5e5"/><stop offset="1" style="stop-color:#63C6E5"/></linearGradient><path id="XMLID_101_" class="solution-blockchain-startups-16" d="M59.231,75.3l14.9,5.5l-10,10.4l-14.9-5.5L59.231,75.3 M59.131,74.3c-0.2,0-0.4,0.1-0.6,0.3 l-10.1,10.6c-0.4,0.5-0.3,1.3,0.3,1.5l15.2,5.6c0.1,0,0.2,0.1,0.3,0.1c0.2,0,0.4-0.1,0.6-0.3l10.1-10.7c0.4-0.5,0.3-1.3-0.3-1.5 l-15.2-5.6C59.331,74.3,59.231,74.3,59.131,74.3L59.131,74.3z"/></g><g><linearGradient id="lg_solution_blockchain_startups_17" gradientUnits="userSpaceOnUse" x1="68.7479" y1="110.3833" x2="85.1271" y2="94.0042" gradientTransform="matrix(1 0 0 1 0 -4)"><stop offset="0" style="stop-color:#62c5e5"/><stop offset="1" style="stop-color:#63C6E5"/></linearGradient><path class="solution-blockchain-startups-17" d="M85.831,100.5l-5.6-15.2c-0.1-0.4-0.5-0.6-0.9-0.6c-0.2,0-0.5,0.1-0.6,0.3l-10.6,10.1 c-0.2,0.2-0.3,0.6-0.2,0.9l5.6,15.2c0.1,0.4,0.5,0.6,0.9,0.6c0.2,0,0.5-0.1,0.6-0.3l10.6-10.1 C85.931,101.1,86.031,100.8,85.831,100.5z"/><linearGradient id="lg_solution_blockchain_startups_18" gradientUnits="userSpaceOnUse" x1="68.8479" y1="110.4833" x2="85.2271" y2="94.1041" gradientTransform="matrix(1 0 0 1 0 -4)"><stop offset="0" style="stop-color:#62c5e5"/><stop offset="1" style="stop-color:#63C6E5"/></linearGradient><path class="solution-blockchain-startups-18" d="M79.431,85.9l5.5,14.9l-10.4,10l-5.6-15L79.431,85.9 M79.431,84.8c-0.2,0-0.5,0.1-0.6,0.3 l-10.6,10.1c-0.2,0.2-0.3,0.6-0.2,0.9l5.6,15.2c0.1,0.4,0.5,0.6,0.9,0.6c0.2,0,0.5-0.1,0.6-0.3l10.6-10.1c0.2-0.2,0.3-0.6,0.2-0.9 l-5.6-15.2C80.131,84.9,79.831,84.8,79.431,84.8L79.431,84.8z"/></g><g><linearGradient id="lg_solution_blockchain_startups_19" gradientUnits="userSpaceOnUse" x1="59.3274" y1="104.6038" x2="62.4524" y2="101.4788" gradientTransform="matrix(1 0 0 1 0 -4)"><stop offset="0" style="stop-color:#62c5e5"/><stop offset="1" style="stop-color:#63C6E5"/></linearGradient><path class="solution-blockchain-startups-19" d="M57.831,94.8c0.3,0,0.6,0.1,0.8,0.3l6.2,6.2c0.4,0.4,0.4,1.1,0,1.6l-0.2,0.2 c-0.2,0.2-0.5,0.3-0.8,0.3s-0.6-0.1-0.8-0.3l-6.2-6.2c-0.4-0.4-0.4-1.1,0-1.6l0.2-0.2C57.231,94.9,57.531,94.8,57.831,94.8 M57.831,93.8c-0.6,0-1.1,0.2-1.5,0.6l-0.2,0.2c-0.8,0.8-0.8,2.1,0,3l6.2,6.2c0.4,0.4,0.9,0.6,1.5,0.6s1.1-0.2,1.5-0.6l0.2-0.2 c0.8-0.8,0.8-2.1,0-3l-6.2-6.2C58.931,94,58.331,93.8,57.831,93.8L57.831,93.8z"/></g><g><g><path class="solution-blockchain-startups-7" d="M66.431,103.8c-0.5,0-1-0.2-1.3-0.5l-8.4-8.4c-0.4-0.4-0.5-0.8-0.5-1.3s0.2-0.9,0.5-1.3 c0.5-0.7,7.9-11.7,16.3-22c8.1-9.8,14.4-15.9,18.6-18.3c8-4.4,22.1-7.1,22.2-7.1c0.4-0.1,0.7,0,1,0.3s0.4,0.6,0.3,1l0,0 c-0.9,5-3.6,16-7.1,22.2c-2.4,4.2-8.6,10.4-18.3,18.5c-10.2,8.5-21.3,16-22,16.5C67.431,103.5,66.931,103.8,66.431,103.8z"/></g><linearGradient id="lg_solution_blockchain_startups_20" gradientUnits="userSpaceOnUse" x1="60.9084" y1="102.9088" x2="114.8584" y2="48.9588" gradientTransform="matrix(1 0 0 1 0 -4)"><stop offset="0" style="stop-color:#62c5e5"/><stop offset="1" style="stop-color:#63C6E5"/></linearGradient><path class="solution-blockchain-startups-20" d="M114.131,45.7L114.131,45.7c0.1,0,0.1,0.1,0.1,0.1c-0.9,4.9-3.5,15.8-7,21.9 c-2.4,4.1-8.4,10.3-18.1,18.2c-10.3,8.5-21.4,16.1-21.9,16.4h-0.1l-0.1,0.1c-0.2,0.2-0.4,0.2-0.6,0.2c-0.2,0-0.5-0.1-0.6-0.3 l-8.4-8.4c-0.2-0.2-0.3-0.4-0.3-0.6s0.1-0.4,0.2-0.6l0.1-0.1v-0.1c0.3-0.5,7.8-11.6,16.3-21.9c8-9.7,14.2-15.8,18.4-18.1 C99.931,48.5,113.931,45.7,114.131,45.7L114.131,45.7 M114.131,44.7c-0.1,0-0.1,0-0.2,0c-0.1,0-14.2,2.7-22.2,7.1 c-4.3,2.4-10.5,8.5-18.6,18.3c-8.5,10.2-15.8,21.2-16.3,22c-0.3,0.3-0.5,0.8-0.5,1.3s0.2,1,0.5,1.3l8.4,8.4 c0.4,0.4,0.8,0.5,1.3,0.5s0.9-0.2,1.3-0.5c0.7-0.5,11.7-7.9,22-16.5c9.7-8.1,15.9-14.3,18.3-18.5c3.6-6.3,6.2-17.3,7.1-22.2 c0.1-0.4,0-0.7-0.3-1C114.631,44.9,114.331,44.7,114.131,44.7L114.131,44.7z"/></g><g><linearGradient id="lg_solution_blockchain_startups_21" gradientUnits="userSpaceOnUse" x1="94.495" y1="68.4363" x2="100.9289" y2="62.0023" gradientTransform="matrix(1 0 0 1 0 -4)"><stop offset="0" style="stop-color:#62c5e5"/><stop offset="1" style="stop-color:#63C6E5"/></linearGradient><path class="solution-blockchain-startups-21" d="M97.731,65.7c-1.2,0-2.4-0.5-3.2-1.3c-0.9-0.9-1.3-2-1.3-3.2s0.5-2.4,1.3-3.2 c0.9-0.9,2-1.3,3.2-1.3s2.4,0.5,3.2,1.3c0.8,0.8,1.3,2,1.3,3.2s-0.5,2.4-1.3,3.2C100.031,65.3,98.931,65.7,97.731,65.7z"/><linearGradient id="lg_solution_blockchain_startups_22" gradientUnits="userSpaceOnUse" x1="94.496" y1="68.4352" x2="100.93" y2="62.0012" gradientTransform="matrix(1 0 0 1 0 -4)"><stop offset="0" style="stop-color:#62c5e5"/><stop offset="1" style="stop-color:#63C6E5"/></linearGradient><path class="solution-blockchain-startups-22" d="M97.731,57.7c0.9,0,1.8,0.4,2.5,1c0.7,0.7,1,1.6,1,2.5c0,0.9-0.4,1.8-1,2.5 c-0.7,0.7-1.6,1-2.5,1s-1.8-0.4-2.5-1c-0.7-0.7-1-1.6-1-2.5c0-0.9,0.4-1.8,1-2.5S96.731,57.7,97.731,57.7 M97.731,56.7 c-1.2,0-2.4,0.5-3.2,1.3c-0.9,0.9-1.3,2-1.3,3.2s0.5,2.4,1.3,3.2c0.9,0.9,2,1.3,3.2,1.3s2.4-0.5,3.2-1.3c0.8-0.8,1.3-2,1.3-3.2 s-0.5-2.4-1.3-3.2C100.031,57.1,98.931,56.7,97.731,56.7L97.731,56.7z"/></g><g><linearGradient id="lg_solution_blockchain_startups_23" gradientUnits="userSpaceOnUse" x1="92.7369" y1="70.1443" x2="102.6379" y2="60.2433" gradientTransform="matrix(1 0 0 1 0 -4)"><stop offset="0" style="stop-color:#62c5e5"/><stop offset="1" style="stop-color:#63C6E5"/></linearGradient><path class="solution-blockchain-startups-23" d="M97.731,55.2c1.6,0,3.1,0.6,4.2,1.8c1.1,1.1,1.8,2.6,1.8,4.2s-0.6,3.1-1.8,4.2 c-1.1,1.1-2.6,1.8-4.2,1.8s-3.1-0.6-4.2-1.8c-1.1-1.1-1.8-2.6-1.8-4.2s0.6-3.1,1.8-4.2C94.531,55.9,96.031,55.2,97.731,55.2 M97.731,54.2c-1.9,0-3.6,0.7-5,2c-2.7,2.7-2.7,7.2,0,9.9c1.3,1.3,3.1,2.1,5,2.1s3.6-0.7,5-2.1c2.7-2.7,2.7-7.2,0-9.9 C101.331,55,99.531,54.2,97.731,54.2L97.731,54.2z"/></g><linearGradient id="lg_solution_blockchain_startups_24" gradientUnits="userSpaceOnUse" x1="79.7886" y1="84.1422" x2="84.5286" y2="79.4023" gradientTransform="matrix(1 0 0 1 0 -4)"><stop offset="0" style="stop-color:#62c5e5"/><stop offset="1" style="stop-color:#63C6E5"/></linearGradient><path class="solution-blockchain-startups-24" d="M74.331,69.5l-2,2.4c7.7,3.1,12.6,8.1,15.7,15.7l2.4-2C87.431,77.8,82.031,72.6,74.331,69.5z" /></g></svg>