<svg id="solution_publishers" xmlns="http://www.w3.org/2000/svg" x="0px" y="0px" viewBox="0 0 160 160" style="enable-background:new 0 0 160 160;" xml:space="preserve"><style type="text/css">.solution-publishers-0{fill:url(#lg_solution_publishers_0)}.solution-publishers-1{fill:url(#lg_solution_publishers_1)}.solution-publishers-2{fill:url(#lg_solution_publishers_2)}.solution-publishers-3{fill:url(#lg_solution_publishers_3)}.solution-publishers-4{fill:url(#lg_solution_publishers_4)}.solution-publishers-5{fill:#20242C}.solution-publishers-6{fill:url(#lg_solution_publishers_6)}.solution-publishers-7{fill:url(#lg_solution_publishers_7)}.solution-publishers-8{fill:url(#lg_solution_publishers_8)}.solution-publishers-9{fill:url(#lg_solution_publishers_9)}.solution-publishers-10{fill:url(#lg_solution_publishers_10)}.solution-publishers-11{fill:url(#lg_solution_publishers_11)}.solution-publishers-12{fill:url(#lg_solution_publishers_12)}.solution-publishers-13{fill:url(#lg_solution_publishers_13)}.solution-publishers-14{fill:url(#lg_solution_publishers_14)}.solution-publishers-15{fill:url(#lg_solution_publishers_15)}.solution-publishers-16{fill:url(#lg_solution_publishers_16)}.solution-publishers-17{fill:url(#lg_solution_publishers_17)}.solution-publishers-18{fill:url(#lg_solution_publishers_18)}.solution-publishers-19{fill:url(#lg_solution_publishers_19)}.solution-publishers-20{fill:url(#lg_solution_publishers_20)}.solution-publishers-21{fill:url(#lg_solution_publishers_21)}.solution-publishers-22{fill:url(#lg_solution_publishers_22)}.solution-publishers-23{fill:url(#lg_solution_publishers_23)}.solution-publishers-24{opacity:0.2}.solution-publishers-25{clip-path:url(#solution_publishers_mask);fill:#FFF}</style><g id="solution_publishers_hexagons" class="solution-publishers-24"><defs><circle id="solution_publishers_circle" class="solution-publishers-24" cx="80.182" cy="80" r="65" /></defs><clipPath id="solution_publishers_mask"><use xlink:href="#solution_publishers_circle" style="overflow:visible;" /></clipPath><path class="solution-publishers-25" id="solution_publishers_hex_path" d="M22.871,51.183l0.194,0.112l3.762-6.517l-3.827-6.628h-7.653l-3.827,6.628l3.827,6.629h7.653l0.065-0.112 L22.871,51.183v-0.224h-7.265l-3.568-6.18l3.568-6.18h7.135l3.568,6.18l-3.633,6.293L22.871,51.183v-0.224V51.183z M22.871,63.99 l0.194,0.112l3.762-6.516l-3.827-6.628h-7.653l-3.827,6.628l3.827,6.628h7.653l0.065-0.112L22.871,63.99v-0.224h-7.265l-3.568-6.18 l3.568-6.18h7.135l3.568,6.18l-3.633,6.292L22.871,63.99v-0.224V63.99z M22.871,76.798l0.194,0.112l3.762-6.516l-3.827-6.629 h-7.653l-3.827,6.629l3.827,6.628h7.653l0.065-0.112L22.871,76.798v-0.224h-7.265l-3.568-6.18l3.568-6.18l7.135,0l3.568,6.18 l-3.633,6.292L22.871,76.798v-0.224V76.798z M33.964,44.778l0.194,0.112l3.762-6.516l-3.827-6.628h-7.654l-3.827,6.628l3.827,6.628 h7.654l0.065-0.112L33.964,44.778v-0.224h-7.266l-3.568-6.18l3.568-6.18h7.136l3.568,6.18l-3.633,6.292L33.964,44.778v-0.224 V44.778z M33.964,57.586l0.194,0.112l3.762-6.516l-3.827-6.629h-7.654l-3.827,6.629l3.827,6.628h7.654l0.065-0.112L33.964,57.586 v-0.224h-7.265l-3.568-6.18l3.568-6.18h7.136l3.568,6.18l-3.633,6.292L33.964,57.586v-0.224V57.586z M33.964,70.394l0.194,0.112 l3.762-6.517l-3.827-6.628h-7.654l-3.827,6.628l3.827,6.629h7.654l0.065-0.112L33.964,70.394V70.17h-7.266L23.13,63.99l3.568-6.18 h7.136l3.568,6.18l-3.633,6.292L33.964,70.394V70.17V70.394z M33.964,83.202l0.194,0.112l3.762-6.516l-3.827-6.628h-7.654 l-3.827,6.628l3.827,6.628h7.654l0.065-0.112L33.964,83.202v-0.224h-7.266l-3.568-6.18l3.568-6.18h7.136l3.568,6.18L33.77,83.09 L33.964,83.202v-0.224V83.202z M45.056,38.374l0.194,0.112l3.762-6.516l-3.827-6.628h-7.654l-3.827,6.628l3.827,6.628h7.654 l0.065-0.112L45.056,38.374V38.15H37.79l-3.568-6.18l3.568-6.18h7.136l3.568,6.18l-3.633,6.292L45.056,38.374V38.15V38.374z M45.056,51.183l0.194,0.112l3.762-6.517l-3.827-6.628h-7.654l-3.827,6.628l3.827,6.629h7.654l0.065-0.112L45.056,51.183v-0.224 H37.79l-3.568-6.18l3.568-6.18h7.136l3.568,6.18l-3.633,6.293L45.056,51.183v-0.224V51.183z M45.056,63.99l0.194,0.112l3.762-6.516 l-3.827-6.628h-7.654l-3.827,6.628l3.827,6.628h7.654l0.065-0.112L45.056,63.99v-0.224H37.79l-3.568-6.18l3.568-6.18h7.136 l3.568,6.18l-3.633,6.292L45.056,63.99v-0.224V63.99z M45.056,76.798l0.194,0.112l3.762-6.516l-3.827-6.629h-7.654l-3.827,6.629 l3.827,6.628h7.654l0.065-0.112L45.056,76.798v-0.224H37.79l-3.568-6.18l3.568-6.18h7.136l3.568,6.18l-3.633,6.292L45.056,76.798 v-0.224V76.798z M56.147,31.971l0.194,0.112l3.762-6.516l-3.827-6.629h-7.653l-3.827,6.629l3.827,6.628h7.653l0.065-0.112 L56.147,31.971v-0.224h-7.265l-3.568-6.18l3.568-6.18h7.135l3.568,6.18l-3.633,6.292L56.147,31.971v-0.224V31.971z M56.147,44.778 l0.194,0.112l3.762-6.516l-3.827-6.628h-7.653l-3.827,6.628l3.827,6.628h7.653l0.065-0.112L56.147,44.778v-0.224h-7.265 l-3.568-6.18l3.568-6.18h7.135l3.568,6.18l-3.633,6.292L56.147,44.778v-0.224V44.778z M56.147,57.586l0.194,0.112l3.762-6.516 l-3.827-6.629h-7.653l-3.827,6.629l3.827,6.628h7.653l0.065-0.112L56.147,57.586v-0.224h-7.265l-3.568-6.18l3.568-6.18h7.135 l3.568,6.18l-3.633,6.292L56.147,57.586v-0.224V57.586z M56.147,70.394l0.194,0.112l3.762-6.517l-3.827-6.628h-7.653l-3.827,6.628 l3.827,6.629h7.653l0.065-0.112L56.147,70.394V70.17h-7.265l-3.568-6.181l3.568-6.18h7.135l3.568,6.18l-3.633,6.292L56.147,70.394 V70.17V70.394z M56.147,83.202l0.194,0.112l3.762-6.516l-3.827-6.628h-7.653l-3.827,6.628l3.827,6.628h7.653l0.065-0.112 L56.147,83.202v-0.224h-7.265l-3.568-6.18l3.568-6.18l7.135,0l3.568,6.18l-3.633,6.292L56.147,83.202v-0.224V83.202z M67.239,25.567l0.194,0.112l3.762-6.517l-3.827-6.628h-7.654l-3.827,6.628l3.827,6.629h7.654l0.065-0.112L67.239,25.567v-0.224 h-7.266l-3.568-6.181l3.568-6.18h7.136l3.568,6.18l-3.633,6.292L67.239,25.567v-0.224V25.567z M67.239,38.374l0.194,0.112 l3.762-6.516l-3.827-6.628h-7.654l-3.827,6.628l3.827,6.628h7.654l0.065-0.112L67.239,38.374V38.15h-7.266l-3.568-6.18l3.568-6.18 h7.136l3.568,6.18l-3.633,6.292L67.239,38.374V38.15V38.374z M67.239,51.183l0.194,0.112l3.762-6.517l-3.827-6.628h-7.654 l-3.827,6.628l3.827,6.629h7.654l0.065-0.112L67.239,51.183v-0.224h-7.266l-3.568-6.18l3.568-6.18h7.136l3.568,6.18l-3.633,6.293 L67.239,51.183v-0.224V51.183z M67.239,63.99l0.194,0.112l3.762-6.516l-3.827-6.628h-7.654l-3.827,6.628l3.827,6.628h7.654 l0.065-0.112L67.239,63.99v-0.224h-7.266l-3.568-6.18l3.568-6.18h7.136l3.568,6.18l-3.633,6.292L67.239,63.99v-0.224V63.99z M67.239,76.798l0.194,0.112l3.762-6.516l-3.827-6.629h-7.654l-3.827,6.629l3.827,6.628h7.654l0.065-0.112L67.239,76.798v-0.224 h-7.266l-3.568-6.18l3.568-6.18h7.136l3.568,6.18l-3.633,6.292L67.239,76.798v-0.224V76.798z M78.332,31.971l0.194,0.112 l3.762-6.516l-3.827-6.629h-7.654l-3.827,6.629l3.827,6.628h7.654l0.065-0.112L78.332,31.971v-0.224h-7.266l-3.568-6.18l3.568-6.18 h7.136l3.568,6.18l-3.633,6.292L78.332,31.971v-0.224V31.971z M78.332,44.778l0.194,0.112l3.762-6.516l-3.827-6.628h-7.654 l-3.827,6.628l3.827,6.628h7.654l0.065-0.112L78.332,44.778v-0.224h-7.266l-3.568-6.18l3.568-6.18h7.136l3.568,6.18l-3.633,6.292 L78.332,44.778v-0.224V44.778z M78.332,57.586l0.194,0.112l3.762-6.516l-3.827-6.629h-7.654l-3.827,6.629l3.827,6.628h7.654 l0.065-0.112L78.332,57.586v-0.224h-7.265l-3.568-6.18l3.568-6.18h7.136l3.568,6.18l-3.633,6.292L78.332,57.586v-0.224V57.586z M78.332,70.394l0.194,0.112l3.762-6.517l-3.827-6.628h-7.654L66.98,63.99l3.827,6.629h7.654l0.065-0.112L78.332,70.394V70.17 h-7.266l-3.568-6.181l3.568-6.18h7.136l3.568,6.18l-3.633,6.292L78.332,70.394V70.17V70.394z M78.332,83.202l0.194,0.112 l3.762-6.516l-3.827-6.628h-7.654l-3.827,6.628l3.827,6.628h7.654l0.065-0.112L78.332,83.202v-0.224h-7.266l-3.568-6.18l3.568-6.18 h7.136l3.568,6.18l-3.633,6.292L78.332,83.202v-0.224V83.202z M22.871,89.606l0.194,0.112l3.762-6.516l-3.827-6.628h-7.653 l-3.827,6.628l3.827,6.628h7.653l0.065-0.112L22.871,89.606v-0.224h-7.265l-3.568-6.18l3.568-6.18h7.135l3.568,6.18l-3.633,6.292 L22.871,89.606v-0.224V89.606z M22.871,102.414l0.194,0.112l3.762-6.516l-3.827-6.629h-7.653l-3.827,6.629l3.827,6.628h7.653 l0.065-0.112L22.871,102.414v-0.224h-7.265l-3.568-6.18l3.568-6.18h7.135l3.568,6.18l-3.633,6.292L22.871,102.414v-0.224V102.414z M22.871,115.222l0.194,0.112l3.762-6.517l-3.827-6.628h-7.653l-3.827,6.628l3.827,6.629h7.653l0.065-0.112L22.871,115.222v-0.224 h-7.265l-3.568-6.181l3.568-6.18h7.135l3.568,6.18l-3.633,6.292L22.871,115.222v-0.224V115.222z M33.964,96.01l0.194,0.112 l3.762-6.517l-3.827-6.628h-7.654l-3.827,6.628l3.827,6.629h7.654l0.065-0.112L33.964,96.01v-0.224h-7.266l-3.568-6.18l3.568-6.18 h7.136l3.568,6.18l-3.633,6.293L33.964,96.01v-0.224V96.01z M33.964,108.817l0.194,0.112l3.762-6.516l-3.827-6.628h-7.654 l-3.827,6.628l3.827,6.628h7.654l0.065-0.112L33.964,108.817v-0.224h-7.265l-3.568-6.18l3.568-6.18h7.136l3.568,6.18l-3.633,6.292 L33.964,108.817v-0.224V108.817z M33.964,121.626l0.194,0.112l3.762-6.516l-3.827-6.629h-7.654l-3.827,6.629l3.827,6.628h7.654 l0.065-0.112L33.964,121.626v-0.224h-7.266l-3.568-6.18l3.568-6.18h7.136l3.568,6.18l-3.633,6.292L33.964,121.626v-0.224V121.626z M33.964,134.433l0.194,0.112l3.762-6.516l-3.827-6.628h-7.654l-3.827,6.628l3.827,6.628h7.654l0.065-0.112L33.964,134.433v-0.224 h-7.266l-3.568-6.18l3.568-6.18h7.136l3.568,6.18l-3.633,6.292L33.964,134.433v-0.224V134.433z M45.056,89.606l0.194,0.112 l3.762-6.516l-3.827-6.628h-7.654l-3.827,6.628l3.827,6.628h7.654l0.065-0.112L45.056,89.606v-0.224H37.79l-3.568-6.18l3.568-6.18 h7.136l3.568,6.18l-3.633,6.292L45.056,89.606v-0.224V89.606z M45.056,102.414l0.194,0.112l3.762-6.516l-3.827-6.629h-7.654 l-3.827,6.629l3.827,6.628h7.654l0.065-0.112L45.056,102.414v-0.224H37.79l-3.568-6.18l3.568-6.18h7.136l3.568,6.18l-3.633,6.292 L45.056,102.414v-0.224V102.414z M45.056,115.222l0.194,0.112l3.762-6.517l-3.827-6.628h-7.654l-3.827,6.628l3.827,6.629h7.654 l0.065-0.112L45.056,115.222v-0.224H37.79l-3.568-6.181l3.568-6.18h7.136l3.568,6.18l-3.633,6.292L45.056,115.222v-0.224V115.222z M45.056,128.029l0.194,0.112l3.762-6.516l-3.827-6.628h-7.654l-3.827,6.628l3.827,6.628h7.654l0.065-0.112L45.056,128.029v-0.224 H37.79l-3.568-6.18l3.568-6.18h7.136l3.568,6.18l-3.633,6.292L45.056,128.029v-0.224V128.029z M45.056,140.838l0.194,0.112 l3.762-6.517l-3.827-6.628h-7.654l-3.827,6.628l3.827,6.629h7.654l0.065-0.112L45.056,140.838v-0.224H37.79l-3.568-6.18l3.568-6.18 h7.136l3.568,6.18l-3.633,6.293L45.056,140.838v-0.224V140.838z M56.147,96.01l0.194,0.112l3.762-6.517l-3.827-6.628h-7.653 l-3.827,6.628l3.827,6.629h7.653l0.065-0.112L56.147,96.01v-0.224h-7.265l-3.568-6.18l3.568-6.18h7.135l3.568,6.18l-3.633,6.293 L56.147,96.01v-0.224V96.01z M56.147,108.817l0.194,0.112l3.762-6.516l-3.827-6.628h-7.653l-3.827,6.628l3.827,6.628h7.653 l0.065-0.112L56.147,108.817v-0.224h-7.265l-3.568-6.18l3.568-6.18h7.135l3.568,6.18l-3.633,6.292L56.147,108.817v-0.224V108.817z M56.147,121.626l0.194,0.112l3.762-6.516l-3.827-6.629h-7.653l-3.827,6.629l3.827,6.628h7.653l0.065-0.112L56.147,121.626v-0.224 h-7.265l-3.568-6.18l3.568-6.18h7.135l3.568,6.181l-3.633,6.292L56.147,121.626v-0.224V121.626z M56.147,134.433l0.194,0.112 l3.762-6.516l-3.827-6.628h-7.653l-3.827,6.628l3.827,6.628h7.653l0.065-0.112L56.147,134.433v-0.224h-7.265l-3.568-6.18 l3.568-6.18h7.135l3.568,6.18l-3.633,6.292L56.147,134.433v-0.224V134.433z M56.147,147.241l0.194,0.112l3.762-6.516l-3.827-6.629 h-7.653l-3.827,6.629l3.827,6.628h7.653l0.065-0.112L56.147,147.241v-0.224h-7.265l-3.568-6.18l3.568-6.18h7.135l3.568,6.18 l-3.633,6.292L56.147,147.241v-0.224V147.241z M67.239,89.606l0.194,0.112l3.762-6.516l-3.827-6.628h-7.654l-3.827,6.628 l3.827,6.628h7.654l0.065-0.112L67.239,89.606v-0.224h-7.266l-3.568-6.18l3.568-6.18h7.136l3.568,6.18l-3.633,6.292L67.239,89.606 v-0.224V89.606z M67.239,102.414l0.194,0.112l3.762-6.516l-3.827-6.629h-7.654l-3.827,6.629l3.827,6.628h7.654l0.065-0.112 L67.239,102.414v-0.224h-7.265l-3.568-6.18l3.568-6.18h7.136l3.568,6.18l-3.633,6.292L67.239,102.414v-0.224V102.414z M67.239,115.222l0.194,0.112l3.762-6.517l-3.827-6.628h-7.654l-3.827,6.628l3.827,6.629h7.654l0.065-0.112L67.239,115.222v-0.224 h-7.266l-3.568-6.181l3.568-6.18h7.136l3.568,6.18l-3.633,6.292L67.239,115.222v-0.224V115.222z M67.239,128.029l0.194,0.112 l3.762-6.516l-3.827-6.628h-7.654l-3.827,6.628l3.827,6.628h7.654l0.065-0.112L67.239,128.029v-0.224h-7.266l-3.568-6.18 l3.568-6.18h7.136l3.568,6.18l-3.633,6.292L67.239,128.029v-0.224V128.029z M67.239,140.838l0.194,0.112l3.762-6.517l-3.827-6.628 h-7.654l-3.827,6.628l3.827,6.629h7.654l0.065-0.112L67.239,140.838v-0.224h-7.266l-3.568-6.18l3.568-6.18h7.136l3.568,6.18 l-3.633,6.293L67.239,140.838v-0.224V140.838z M78.332,96.01l0.194,0.112l3.762-6.517l-3.827-6.628h-7.654l-3.827,6.628 l3.827,6.629h7.654l0.065-0.112L78.332,96.01v-0.224h-7.266l-3.568-6.18l3.568-6.18h7.136l3.568,6.18l-3.633,6.293L78.332,96.01 v-0.224V96.01z M78.332,108.817l0.194,0.112l3.762-6.516l-3.827-6.628h-7.654l-3.827,6.628l3.827,6.628h7.654l0.065-0.112 L78.332,108.817v-0.224h-7.265l-3.568-6.18l3.568-6.18h7.136l3.568,6.18l-3.633,6.292L78.332,108.817v-0.224V108.817z M78.332,121.626l0.194,0.112l3.762-6.516l-3.827-6.629h-7.654l-3.827,6.629l3.827,6.628h7.654l0.065-0.112L78.332,121.626v-0.224 h-7.266l-3.568-6.18l3.568-6.18h7.136l3.568,6.18l-3.633,6.292L78.332,121.626v-0.224V121.626z M78.332,134.433l0.194,0.112 l3.762-6.516l-3.827-6.628h-7.654l-3.827,6.628l3.827,6.628h7.654l0.065-0.112L78.332,134.433v-0.224h-7.266l-3.568-6.18 l3.568-6.18h7.136l3.568,6.18l-3.633,6.292L78.332,134.433v-0.224V134.433z M78.332,147.241l0.194,0.112l3.762-6.516l-3.827-6.629 h-7.654l-3.827,6.629l3.827,6.628h7.654l0.065-0.112L78.332,147.241v-0.224h-7.265l-3.568-6.18l3.568-6.18h7.136l3.568,6.18 l-3.633,6.292L78.332,147.241v-0.224V147.241z M89.427,25.567l0.194,0.112l3.762-6.517l-3.827-6.628h-7.654l-3.827,6.628 l3.827,6.629h7.654l0.065-0.112L89.427,25.567v-0.224h-7.266l-3.568-6.181l3.568-6.18h7.136l3.568,6.18l-3.633,6.292L89.427,25.567 v-0.224V25.567z M89.427,38.374l0.194,0.112l3.762-6.516l-3.827-6.628h-7.654l-3.827,6.628l3.827,6.628h7.654l0.065-0.112 L89.427,38.374V38.15h-7.266l-3.568-6.18l3.568-6.18h7.136l3.568,6.18l-3.633,6.292L89.427,38.374V38.15V38.374z M89.427,51.183 l0.194,0.112l3.762-6.517l-3.827-6.628h-7.654l-3.827,6.628l3.827,6.629h7.654l0.065-0.112L89.427,51.183v-0.224h-7.266 l-3.568-6.18l3.568-6.18h7.136l3.568,6.18l-3.633,6.293L89.427,51.183v-0.224V51.183z M89.427,63.99l0.194,0.112l3.762-6.516 l-3.827-6.628h-7.654l-3.827,6.628l3.827,6.628h7.654l0.065-0.112L89.427,63.99v-0.224h-7.266l-3.568-6.18l3.568-6.18h7.136 l3.568,6.18l-3.633,6.292L89.427,63.99v-0.224V63.99z M89.427,76.798l0.194,0.112l3.762-6.516l-3.827-6.629h-7.654l-3.827,6.629 l3.827,6.628h7.654l0.065-0.112L89.427,76.798v-0.224h-7.266l-3.568-6.18l3.568-6.18h7.136l3.568,6.18l-3.633,6.292L89.427,76.798 v-0.224V76.798z M100.52,31.971l0.194,0.112l3.762-6.516l-3.827-6.629h-7.654l-3.827,6.629l3.827,6.628h7.654l0.065-0.112 L100.52,31.971v-0.224h-7.266l-3.568-6.18l3.568-6.18h7.136l3.568,6.18l-3.633,6.292L100.52,31.971v-0.224V31.971z M100.52,44.778 l0.194,0.112l3.762-6.516l-3.827-6.628h-7.654l-3.827,6.628l3.827,6.628h7.654l0.065-0.112L100.52,44.778v-0.224h-7.266 l-3.568-6.18l3.568-6.18h7.136l3.568,6.18l-3.633,6.292L100.52,44.778v-0.224V44.778z M100.52,57.586l0.194,0.112l3.762-6.516 l-3.827-6.629h-7.654l-3.827,6.629l3.827,6.628h7.654l0.065-0.112L100.52,57.586v-0.224h-7.265l-3.568-6.18l3.568-6.18h7.136 l3.568,6.18l-3.633,6.292L100.52,57.586v-0.224V57.586z M100.52,70.394l0.194,0.112l3.762-6.517l-3.827-6.628h-7.654l-3.827,6.628 l3.827,6.629h7.654l0.065-0.112L100.52,70.394V70.17h-7.266l-3.568-6.181l3.568-6.18h7.136l3.568,6.18l-3.633,6.292L100.52,70.394 V70.17V70.394z M100.52,83.202l0.194,0.112l3.762-6.516l-3.827-6.628h-7.654l-3.827,6.628l3.827,6.628h7.654l0.065-0.112 L100.52,83.202v-0.224h-7.266l-3.568-6.18l3.568-6.18h7.136l3.568,6.18l-3.633,6.292L100.52,83.202v-0.224V83.202z M111.611,25.567 l0.194,0.112l3.762-6.517l-3.827-6.628h-7.653l-3.827,6.628l3.827,6.629h7.653l0.065-0.112L111.611,25.567v-0.224h-7.265 l-3.568-6.181l3.568-6.18h7.135l3.568,6.18l-3.633,6.292L111.611,25.567v-0.224V25.567z M111.611,38.374l0.194,0.112l3.762-6.516 l-3.827-6.628h-7.653l-3.827,6.628l3.827,6.628h7.653l0.065-0.112L111.611,38.374V38.15h-7.265l-3.568-6.18l3.568-6.18h7.135 l3.568,6.18l-3.633,6.292L111.611,38.374V38.15V38.374z M111.611,51.183l0.194,0.112l3.762-6.517l-3.827-6.628h-7.653l-3.827,6.628 l3.827,6.629h7.653l0.065-0.112L111.611,51.183v-0.224h-7.265l-3.568-6.18l3.568-6.18h7.135l3.568,6.18l-3.633,6.293 L111.611,51.183v-0.224V51.183z M111.611,63.99l0.194,0.112l3.762-6.516l-3.827-6.628h-7.653l-3.827,6.628l3.827,6.628h7.653 l0.065-0.112L111.611,63.99v-0.224h-7.265l-3.568-6.18l3.568-6.18h7.135l3.568,6.18l-3.633,6.292L111.611,63.99v-0.224V63.99z M111.611,76.798l0.194,0.112l3.762-6.516l-3.827-6.629h-7.653l-3.827,6.629l3.827,6.628h7.653l0.065-0.112L111.611,76.798v-0.224 h-7.265l-3.568-6.18l3.568-6.18l7.135,0l3.568,6.18l-3.633,6.292L111.611,76.798v-0.224V76.798z M122.703,31.971l0.194,0.112 l3.762-6.516l-3.827-6.629h-7.654l-3.827,6.629l3.827,6.628h7.654l0.065-0.112L122.703,31.971v-0.224h-7.266l-3.568-6.18 l3.568-6.18h7.136l3.568,6.18l-3.633,6.292L122.703,31.971v-0.224V31.971z M122.703,44.778l0.194,0.112l3.762-6.516l-3.827-6.628 h-7.654l-3.827,6.628l3.827,6.628h7.654l0.065-0.112L122.703,44.778v-0.224h-7.266l-3.568-6.18l3.568-6.18h7.136l3.568,6.18 l-3.633,6.292L122.703,44.778v-0.224V44.778z M122.703,57.586l0.194,0.112l3.762-6.516l-3.827-6.629h-7.654l-3.827,6.629 l3.827,6.628h7.654l0.065-0.112L122.703,57.586v-0.224h-7.265l-3.568-6.18l3.568-6.18h7.136l3.568,6.18l-3.633,6.292 L122.703,57.586v-0.224V57.586z M122.703,70.394l0.194,0.112l3.762-6.517l-3.827-6.628h-7.654l-3.827,6.628l3.827,6.629h7.654 l0.065-0.112L122.703,70.394V70.17h-7.266l-3.568-6.181l3.568-6.18h7.136l3.568,6.18l-3.633,6.292L122.703,70.394V70.17V70.394z M122.703,83.202l0.194,0.112l3.762-6.516l-3.827-6.628h-7.654l-3.827,6.628l3.827,6.628h7.654l0.065-0.112L122.703,83.202v-0.224 h-7.266l-3.568-6.18l3.568-6.18h7.136l3.568,6.18l-3.633,6.292L122.703,83.202v-0.224V83.202z M133.795,38.374l0.194,0.112 l3.762-6.516l-3.827-6.628h-7.654l-3.827,6.628l3.827,6.628h7.654l0.065-0.112L133.795,38.374V38.15h-7.266l-3.568-6.18l3.568-6.18 h7.136l3.568,6.18l-3.633,6.292L133.795,38.374V38.15V38.374z M133.795,51.183l0.194,0.112l3.762-6.517l-3.827-6.628h-7.654 l-3.827,6.628l3.827,6.629h7.654l0.065-0.112L133.795,51.183v-0.224h-7.266l-3.568-6.18l3.568-6.18h7.136l3.568,6.18l-3.633,6.293 L133.795,51.183v-0.224V51.183z M133.795,63.99l0.194,0.112l3.762-6.516l-3.827-6.628h-7.654l-3.827,6.628l3.827,6.628h7.654 l0.065-0.112L133.795,63.99v-0.224h-7.266l-3.568-6.18l3.568-6.18h7.136l3.568,6.18l-3.633,6.292L133.795,63.99v-0.224V63.99z M133.795,76.798l0.194,0.112l3.762-6.516l-3.827-6.629h-7.654l-3.827,6.629l3.827,6.628h7.654l0.065-0.112L133.795,76.798v-0.224 h-7.266l-3.568-6.18l3.568-6.18h7.136l3.568,6.18l-3.633,6.292L133.795,76.798v-0.224V76.798z M144.887,57.586l0.194,0.112 l3.762-6.516l-3.827-6.629h-7.654l-3.827,6.629l3.827,6.628h7.654l0.065-0.112L144.887,57.586v-0.224h-7.265l-3.568-6.18 l3.568-6.18h7.136l3.568,6.18l-3.633,6.292L144.887,57.586v-0.224V57.586z M144.887,70.394l0.194,0.112l3.762-6.517l-3.827-6.628 h-7.654l-3.827,6.628l3.827,6.629h7.654l0.065-0.112L144.887,70.394V70.17h-7.266l-3.568-6.181l3.568-6.18h7.136l3.568,6.18 l-3.633,6.292L144.887,70.394V70.17V70.394z M144.887,83.202l0.194,0.112l3.762-6.516l-3.827-6.628h-7.654l-3.827,6.628 l3.827,6.628h7.654l0.065-0.112L144.887,83.202v-0.224h-7.266l-3.568-6.18l3.568-6.18h7.136l3.568,6.18l-3.633,6.292 L144.887,83.202v-0.224V83.202z M89.427,89.606l0.194,0.112l3.762-6.516l-3.827-6.628h-7.654l-3.827,6.628l3.827,6.628h7.654 l0.065-0.112L89.427,89.606v-0.224h-7.266l-3.568-6.18l3.568-6.18h7.136l3.568,6.18l-3.633,6.292L89.427,89.606v-0.224V89.606z M89.427,102.414l0.194,0.112l3.762-6.516l-3.827-6.629h-7.654l-3.827,6.629l3.827,6.628h7.654l0.065-0.112L89.427,102.414v-0.224 h-7.265l-3.568-6.18l3.568-6.18h7.136l3.568,6.18l-3.633,6.292L89.427,102.414v-0.224V102.414z M89.427,115.222l0.194,0.112 l3.762-6.517l-3.827-6.628h-7.654l-3.827,6.628l3.827,6.629h7.654l0.065-0.112L89.427,115.222v-0.224h-7.266l-3.568-6.181 l3.568-6.18h7.136l3.568,6.18l-3.633,6.292L89.427,115.222v-0.224V115.222z M89.427,128.029l0.194,0.112l3.762-6.516l-3.827-6.628 h-7.654l-3.827,6.628l3.827,6.628h7.654l0.065-0.112L89.427,128.029v-0.224h-7.266l-3.568-6.18l3.568-6.18h7.136l3.568,6.18 l-3.633,6.292L89.427,128.029v-0.224V128.029z M89.427,140.838l0.194,0.112l3.762-6.517l-3.827-6.628h-7.654l-3.827,6.628 l3.827,6.629h7.654l0.065-0.112L89.427,140.838v-0.224h-7.266l-3.568-6.18l3.568-6.18h7.136l3.568,6.18l-3.633,6.293 L89.427,140.838v-0.224V140.838z M100.52,96.01l0.194,0.112l3.762-6.517l-3.827-6.628h-7.654l-3.827,6.628l3.827,6.629h7.654 l0.065-0.112L100.52,96.01v-0.224h-7.266l-3.568-6.18l3.568-6.18h7.136l3.568,6.18l-3.633,6.293L100.52,96.01v-0.224V96.01z M100.52,108.817l0.194,0.112l3.762-6.516l-3.827-6.628h-7.654l-3.827,6.628l3.827,6.628h7.654l0.065-0.112L100.52,108.817v-0.224 h-7.265l-3.568-6.18l3.568-6.18h7.136l3.568,6.18l-3.633,6.292L100.52,108.817v-0.224V108.817z M100.52,121.626l0.194,0.112 l3.762-6.516l-3.827-6.629h-7.654l-3.827,6.629l3.827,6.628h7.654l0.065-0.112L100.52,121.626v-0.224h-7.266l-3.568-6.18 l3.568-6.18h7.136l3.568,6.18l-3.633,6.292L100.52,121.626v-0.224V121.626z M100.52,134.433l0.194,0.112l3.762-6.516l-3.827-6.628 h-7.654l-3.827,6.628l3.827,6.628h7.654l0.065-0.112L100.52,134.433v-0.224h-7.266l-3.568-6.18l3.568-6.18h7.136l3.568,6.18 l-3.633,6.292L100.52,134.433v-0.224V134.433z M100.52,147.241l0.194,0.112l3.762-6.516l-3.827-6.629h-7.654l-3.827,6.629 l3.827,6.628h7.654l0.065-0.112L100.52,147.241v-0.224h-7.265l-3.568-6.18l3.568-6.18h7.136l3.568,6.18l-3.633,6.292 L100.52,147.241v-0.224V147.241z M111.611,89.606l0.194,0.112l3.762-6.516l-3.827-6.628h-7.653l-3.827,6.628l3.827,6.628h7.653 l0.065-0.112L111.611,89.606v-0.224h-7.265l-3.568-6.18l3.568-6.18h7.135l3.568,6.18l-3.633,6.292L111.611,89.606v-0.224V89.606z M111.611,102.414l0.194,0.112l3.762-6.516l-3.827-6.629h-7.653l-3.827,6.629l3.827,6.628h7.653l0.065-0.112L111.611,102.414 v-0.224h-7.265l-3.568-6.18l3.568-6.18h7.135l3.568,6.18l-3.633,6.292L111.611,102.414v-0.224V102.414z M111.611,115.222 l0.194,0.112l3.762-6.517l-3.827-6.628h-7.653l-3.827,6.628l3.827,6.629h7.653l0.065-0.112L111.611,115.222v-0.224h-7.265 l-3.568-6.181l3.568-6.18h7.135l3.568,6.18l-3.633,6.292L111.611,115.222v-0.224V115.222z M111.611,128.029l0.194,0.112 l3.762-6.516l-3.827-6.628h-7.653l-3.827,6.628l3.827,6.628h7.653l0.065-0.112L111.611,128.029v-0.224h-7.265l-3.568-6.18 l3.568-6.18h7.135l3.568,6.18l-3.633,6.292L111.611,128.029v-0.224V128.029z M111.611,140.838l0.194,0.112l3.762-6.517 l-3.827-6.628h-7.653l-3.827,6.628l3.827,6.629h7.653l0.065-0.112L111.611,140.838v-0.224h-7.265l-3.568-6.18l3.568-6.18h7.135 l3.568,6.18l-3.633,6.293L111.611,140.838v-0.224V140.838z M122.703,96.01l0.194,0.112l3.762-6.517l-3.827-6.628h-7.654 l-3.827,6.628l3.827,6.629h7.654l0.065-0.112L122.703,96.01v-0.224h-7.266l-3.568-6.18l3.568-6.18h7.136l3.568,6.18l-3.633,6.293 L122.703,96.01v-0.224V96.01z M122.703,108.817l0.194,0.112l3.762-6.516l-3.827-6.628h-7.654l-3.827,6.628l3.827,6.628h7.654 l0.065-0.112L122.703,108.817v-0.224h-7.265l-3.568-6.18l3.568-6.18h7.136l3.568,6.18l-3.633,6.292L122.703,108.817v-0.224V108.817 z M122.703,121.626l0.194,0.112l3.762-6.516l-3.827-6.629h-7.654l-3.827,6.629l3.827,6.628h7.654l0.065-0.112L122.703,121.626 v-0.224h-7.266l-3.568-6.18l3.568-6.18h7.136l3.568,6.18l-3.633,6.292L122.703,121.626v-0.224V121.626z M122.703,134.433 l0.194,0.112l3.762-6.516l-3.827-6.628h-7.654l-3.827,6.628l3.827,6.628h7.654l0.065-0.112L122.703,134.433v-0.224h-7.266 l-3.568-6.18l3.568-6.18h7.136l3.568,6.18l-3.633,6.292L122.703,134.433v-0.224V134.433z M133.795,89.606l0.194,0.112l3.762-6.516 l-3.827-6.628h-7.654l-3.827,6.628l3.827,6.628h7.654l0.065-0.112L133.795,89.606v-0.224h-7.266l-3.568-6.18l3.568-6.18h7.136 l3.568,6.18l-3.633,6.292L133.795,89.606v-0.224V89.606z M133.795,102.414l0.194,0.112l3.762-6.516l-3.827-6.629h-7.654 l-3.827,6.629l3.827,6.628h7.654l0.065-0.112L133.795,102.414v-0.224h-7.265l-3.568-6.18l3.568-6.18h7.136l3.568,6.18l-3.633,6.292 L133.795,102.414v-0.224V102.414z M133.795,115.222l0.194,0.112l3.762-6.517l-3.827-6.628h-7.654l-3.827,6.628l3.827,6.629h7.654 l0.065-0.112L133.795,115.222v-0.224h-7.266l-3.568-6.181l3.568-6.18h7.136l3.568,6.18l-3.633,6.292L133.795,115.222v-0.224 V115.222z M133.795,128.029l0.194,0.112l3.762-6.516l-3.827-6.628h-7.654l-3.827,6.628l3.827,6.628h7.654l0.065-0.112 L133.795,128.029v-0.224h-7.266l-3.568-6.18l3.568-6.18h7.136l3.568,6.18l-3.633,6.292L133.795,128.029v-0.224V128.029z M144.887,96.01l0.194,0.112l3.762-6.517l-3.827-6.628h-7.654l-3.827,6.628l3.827,6.629h7.654l0.065-0.112L144.887,96.01v-0.224 h-7.266l-3.568-6.18l3.568-6.18h7.136l3.568,6.18l-3.633,6.293L144.887,96.01v-0.224V96.01z M144.887,108.817l0.194,0.112 l3.762-6.516l-3.827-6.628h-7.654l-3.827,6.628l3.827,6.628h7.654l0.065-0.112L144.887,108.817v-0.224h-7.265l-3.568-6.18 l3.568-6.18h7.136l3.568,6.18l-3.633,6.292L144.887,108.817v-0.224V108.817z M144.887,121.626l0.194,0.112l3.762-6.516 l-3.827-6.629h-7.654l-3.827,6.629l3.827,6.628h7.654l0.065-0.112L144.887,121.626v-0.224h-7.266l-3.568-6.18l3.568-6.18h7.136 l3.568,6.18l-3.633,6.292L144.887,121.626v-0.224V121.626z" /></g><g class="solution-outer-circles"><g id="solution_publishers_outer_path" class="solution-outer-path"><linearGradient id="lg_solution_publishers_0" gradientUnits="userSpaceOnUse" x1="23.4315" y1="136.5685" x2="136.5685" y2="23.4315"><stop offset="0" style="stop-color:#62c5e5" /><stop offset="1" style="stop-color:#63C6E5" /></linearGradient><path id="solution_publishers_outer_path_gs" class="solution-publishers-0" d="M80,6c40.8,0,74,33.2,74,74s-33.2,74-74,74S6,120.8,6,80S39.2,6,80,6 M80,0 C35.8,0,0,35.8,0,80s35.8,80,80,80s80-35.8,80-80S124.2,0,80,0L80,0z" /></g><g id="solution_publishers_inner_path" class="solution-inner-path"><linearGradient id="lg_solution_publishers_1" gradientUnits="userSpaceOnUse" x1="34.0381" y1="125.9619" x2="125.9619" y2="34.0381"><stop offset="0" style="stop-color:#62c5e5" /><stop offset="1" style="stop-color:#63C6E5" /></linearGradient><path id="solution_publishers_inner_path_gs" class="solution-publishers-1" d="M80,17c34.738,0,63,28.262,63,63s-28.262,63-63,63s-63-28.262-63-63S45.262,17,80,17 M80,15 c-35.898,0-65,29.102-65,65s29.102,65,65,65s65-29.102,65-65S115.898,15,80,15L80,15z" /></g></g><g id="solution_publisher_base_gs" class="solution-base"><g id="laptop"><g id="laptop-base"><linearGradient id="lg_solution_publishers_2" gradientUnits="userSpaceOnUse" x1="60" y1="116.5" x2="100" y2="76.5"><stop offset="0" style="stop-color:#62c5e5" /><stop offset="1" style="stop-color:#63C6E5" /></linearGradient><path class="solution-publishers-2" d="M117,97.5l-1.333,1H44.333L43,97.5H117 M120,96.5H40l4,3h72L120,96.5L120,96.5z" /></g><rect x="46.833" y="56" class="solution-publishers-5" width="66" height="36" /><g id="laptop-outer"><linearGradient id="lg_solution_publishers_3" gradientUnits="userSpaceOnUse" x1="53.3787" y1="100.6213" x2="106.6213" y2="47.3787"><stop offset="0" style="stop-color:#62c5e5" /><stop offset="1" style="stop-color:#63C6E5" /></linearGradient><path class="solution-publishers-3" d="M112,55c1.103,0,2,0.897,2,2v34c0,1.103-0.897,2-2,2H48c-1.103,0-2-0.897-2-2V57 c0-1.103,0.897-2,2-2H112 M112,54H48c-1.657,0-3,1.343-3,3v34c0,1.657,1.343,3,3,3h64c1.657,0,3-1.343,3-3V57 C115,55.343,113.657,54,112,54L112,54z" /></g><g id="laptop-inner"><linearGradient id="lg_solution_publishers_4" gradientUnits="userSpaceOnUse" x1="54.3333" y1="99.5" x2="105.3333" y2="48.5"><stop offset="0" style="stop-color:#62c5e5" /><stop offset="1" style="stop-color:#63C6E5" /></linearGradient><path class="solution-publishers-4" d="M111.833,57v34h-64V57H111.833 M112.833,56h-66v36h66V56L112.833,56z" /></g></g><g id="tablet"><g id="tablet-main"><path class="solution-publishers-5" d="M100.5,106h-21c-1.657,0-3-1.343-3-3V69c0-1.657,1.343-3,3-3h21c1.657,0,3,1.343,3,3v34 C103.5,104.657,102.157,106,100.5,106z" /><linearGradient id="lg_solution_publishers_6" gradientUnits="userSpaceOnUse" x1="74.1287" y1="101.8713" x2="105.8713" y2="70.1287"><stop offset="0" style="stop-color:#62c5e5" /><stop offset="1" style="stop-color:#63C6E5" /></linearGradient><path class="solution-publishers-6" d="M100.5,67c1.103,0,2,0.897,2,2v34c0,1.103-0.897,2-2,2h-21c-1.103,0-2-0.897-2-2V69 c0-1.103,0.897-2,2-2H100.5 M100.5,66h-21c-1.657,0-3,1.343-3,3v34c0,1.657,1.343,3,3,3h21c1.657,0,3-1.343,3-3V69 C103.5,67.343,102.157,66,100.5,66L100.5,66z" /></g><g id="tablet-btn"><circle class="solution-publishers-5" cx="90" cy="102" r="1.5" /><linearGradient id="lg_solution_publishers_7" gradientUnits="userSpaceOnUse" x1="88.9393" y1="103.0607" x2="91.0607" y2="100.9393"><stop offset="0" style="stop-color:#62c5e5" /><stop offset="1" style="stop-color:#63C6E5" /></linearGradient><path class="solution-publishers-7" d="M90,101.404c0.329,0,0.596,0.267,0.596,0.596s-0.267,0.596-0.596,0.596 s-0.596-0.267-0.596-0.596S89.671,101.404,90,101.404 M90,100.5c-0.828,0-1.5,0.672-1.5,1.5s0.672,1.5,1.5,1.5s1.5-0.672,1.5-1.5 S90.828,100.5,90,100.5L90,100.5z" /></g><g id="tablet-display"><rect x="78" y="69" class="solution-publishers-5" width="24" height="30" /><linearGradient id="lg_solution_publishers_8" gradientUnits="userSpaceOnUse" x1="76.5" y1="97.5" x2="103.5" y2="70.5"><stop offset="0" style="stop-color:#62c5e5" /><stop offset="1" style="stop-color:#63C6E5" /></linearGradient><path class="solution-publishers-8" d="M101,70v28H79V70H101 M102,69H78v30h24V69L102,69z" /></g></g><g id="phone"><g id="phone-main_1_"><path class="solution-publishers-5" d="M67.992,105.5h-8c-1.657,0-3-1.343-3-3v-21c0-1.657,1.343-3,3-3h8c1.657,0,3,1.343,3,3v21 C70.992,104.157,69.649,105.5,67.992,105.5z" /><linearGradient id="lg_solution_publishers_9" gradientUnits="userSpaceOnUse" x1="54.6211" y1="101.3713" x2="73.3637" y2="82.6287"><stop offset="0" style="stop-color:#62c5e5" /><stop offset="1" style="stop-color:#63C6E5" /></linearGradient><path class="solution-publishers-9" d="M67.992,79.5c1.103,0,2,0.897,2,2v21c0,1.103-0.897,2-2,2h-8c-1.103,0-2-0.897-2-2v-21 c0-1.103,0.897-2,2-2H67.992 M67.992,78.5h-8c-1.657,0-3,1.343-3,3v21c0,1.657,1.343,3,3,3h8c1.657,0,3-1.343,3-3v-21 C70.992,79.843,69.649,78.5,67.992,78.5L67.992,78.5z" /></g><g id="phone-btn"><circle class="solution-publishers-5" cx="64" cy="102" r="1.5" /><linearGradient id="lg_solution_publishers_10" gradientUnits="userSpaceOnUse" x1="62.9393" y1="103.0607" x2="65.0607" y2="100.9393"><stop offset="0" style="stop-color:#62c5e5" /><stop offset="1" style="stop-color:#63C6E5" /></linearGradient><path class="solution-publishers-10" d="M64,101.5c0.276,0,0.5,0.224,0.5,0.5s-0.224,0.5-0.5,0.5c-0.276,0-0.5-0.224-0.5-0.5 S63.724,101.5,64,101.5 M64,100.5c-0.828,0-1.5,0.672-1.5,1.5s0.672,1.5,1.5,1.5s1.5-0.672,1.5-1.5S64.828,100.5,64,100.5 L64,100.5z" /></g><g id="phone-display"><rect id="XMLID_58_" x="57" y="83" class="solution-publishers-5" width="14" height="16" /><linearGradient id="lg_solution_publishers_11" gradientUnits="userSpaceOnUse" x1="56.5" y1="98.5" x2="71.5" y2="83.5"><stop offset="0" style="stop-color:#62c5e5" /><stop offset="1" style="stop-color:#63C6E5" /></linearGradient><path class="solution-publishers-11" d="M70,84v14H58V84H70 M71,83H57v16h14V83L71,83z" /></g></g></g><g id="solution-publishers-hover" class="solution-hover"><g id="laptop_1_"><g id="laptop-base_1_"><linearGradient id="lg_solution_publishers_12" gradientUnits="userSpaceOnUse" x1="60" y1="116.5" x2="100" y2="76.5"><stop offset="0" style="stop-color:#62c5e5" /><stop offset="1" style="stop-color:#63C6E5" /></linearGradient><path class="solution-publishers-12" d="M117,97.5l-1.333,1H44.333L43,97.5H117 M120,96.5H40l4,3h72L120,96.5L120,96.5z" /></g><g id="laptop-outer_1_"><linearGradient id="lg_solution_publishers_13" gradientUnits="userSpaceOnUse" x1="53.3787" y1="100.6213" x2="106.6213" y2="47.3787"><stop offset="0" style="stop-color:#62c5e5" /><stop offset="1" style="stop-color:#63C6E5" /></linearGradient><path class="solution-publishers-13" d="M112,94H48c-1.657,0-3-1.343-3-3V57c0-1.657,1.343-3,3-3h64c1.657,0,3,1.343,3,3v34 C115,92.657,113.657,94,112,94z" /><linearGradient id="lg_solution_publishers_14" gradientUnits="userSpaceOnUse" x1="53.3787" y1="100.6213" x2="106.6213" y2="47.3787"><stop offset="0" style="stop-color:#62c5e5" /><stop offset="1" style="stop-color:#63C6E5" /></linearGradient><path class="solution-publishers-14" d="M112,55c1.103,0,2,0.897,2,2v34c0,1.103-0.897,2-2,2H48c-1.103,0-2-0.897-2-2V57 c0-1.103,0.897-2,2-2H112 M112,54H48c-1.657,0-3,1.343-3,3v34c0,1.657,1.343,3,3,3h64c1.657,0,3-1.343,3-3V57 C115,55.343,113.657,54,112,54L112,54z" /></g><g id="laptop-inner_1_"><rect x="46.833" y="56" class="solution-publishers-5" width="66" height="36" /><linearGradient id="lg_solution_publishers_15" gradientUnits="userSpaceOnUse" x1="54.3333" y1="99.5" x2="105.3333" y2="48.5"><stop offset="0" style="stop-color:#62c5e5" /><stop offset="1" style="stop-color:#63C6E5" /></linearGradient><path class="solution-publishers-15" d="M111.833,57v34h-64V57H111.833 M112.833,56h-66v36h66V56L112.833,56z" /></g></g><g id="tablet_1_"><g id="tablet-main-hover"><linearGradient id="lg_solution_publishers_16" gradientUnits="userSpaceOnUse" x1="74.1287" y1="101.8713" x2="105.8713" y2="70.1287"><stop offset="0" style="stop-color:#62c5e5" /><stop offset="1" style="stop-color:#63C6E5" /></linearGradient><path class="solution-publishers-16" d="M100.5,106h-21c-1.657,0-3-1.343-3-3V69c0-1.657,1.343-3,3-3h21c1.657,0,3,1.343,3,3v34 C103.5,104.657,102.157,106,100.5,106z" /><linearGradient id="lg_solution_publishers_17" gradientUnits="userSpaceOnUse" x1="74.1287" y1="101.8713" x2="105.8713" y2="70.1287"><stop offset="0" style="stop-color:#62c5e5" /><stop offset="1" style="stop-color:#63C6E5" /></linearGradient><path class="solution-publishers-17" d="M100.5,67c1.103,0,2,0.897,2,2v34c0,1.103-0.897,2-2,2h-21c-1.103,0-2-0.897-2-2V69 c0-1.103,0.897-2,2-2H100.5 M100.5,66h-21c-1.657,0-3,1.343-3,3v34c0,1.657,1.343,3,3,3h21c1.657,0,3-1.343,3-3V69 C103.5,67.343,102.157,66,100.5,66L100.5,66z" /></g><g id="tablet-btn-hover"><linearGradient id="lg_solution_publishers_18" gradientUnits="userSpaceOnUse" x1="89.2593" y1="102.7407" x2="90.7407" y2="101.2593"><stop offset="0" style="stop-color:#62c5e5" /><stop offset="1" style="stop-color:#63C6E5" /></linearGradient><circle class="solution-publishers-18" cx="90" cy="102" r="1.048" /><path id="XMLID_81_" class="solution-publishers-5" d="M90,101.404c0.329,0,0.596,0.267,0.596,0.596s-0.267,0.596-0.596,0.596 s-0.596-0.267-0.596-0.596S89.671,101.404,90,101.404 M90,100.5c-0.828,0-1.5,0.672-1.5,1.5s0.672,1.5,1.5,1.5s1.5-0.672,1.5-1.5 S90.828,100.5,90,100.5L90,100.5z" /></g><g id="tablet-display-hover"><rect x="78" y="69" class="solution-publishers-5" width="24" height="30" /><linearGradient id="lg_solution_publishers_19" gradientUnits="userSpaceOnUse" x1="76.5" y1="97.5" x2="103.5" y2="70.5"><stop offset="0" style="stop-color:#62c5e5" /><stop offset="1" style="stop-color:#63C6E5" /></linearGradient><path class="solution-publishers-19" d="M101,70v28H79V70H101 M102,69H78v30h24V69L102,69z" /></g></g><g id="phone-hover"><g id="phone-main-hover"><linearGradient id="lg_solution_publishers_20" gradientUnits="userSpaceOnUse" x1="54.6211" y1="101.3713" x2="73.3637" y2="82.6287"><stop offset="0" style="stop-color:#62c5e5" /><stop offset="1" style="stop-color:#63C6E5" /></linearGradient><path class="solution-publishers-20" d="M67.992,105.5h-8c-1.657,0-3-1.343-3-3v-21c0-1.657,1.343-3,3-3h8c1.657,0,3,1.343,3,3v21 C70.992,104.157,69.649,105.5,67.992,105.5z" /><linearGradient id="lg_solution_publishers_21" gradientUnits="userSpaceOnUse" x1="54.6211" y1="101.3713" x2="73.3637" y2="82.6287"><stop offset="0" style="stop-color:#62c5e5" /><stop offset="1" style="stop-color:#63C6E5" /></linearGradient><path class="solution-publishers-21" d="M67.992,79.5c1.103,0,2,0.897,2,2v21c0,1.103-0.897,2-2,2h-8c-1.103,0-2-0.897-2-2v-21 c0-1.103,0.897-2,2-2H67.992 M67.992,78.5h-8c-1.657,0-3,1.343-3,3v21c0,1.657,1.343,3,3,3h8c1.657,0,3-1.343,3-3v-21 C70.992,79.843,69.649,78.5,67.992,78.5L67.992,78.5z" /></g><g id="phone-btn-hover"><linearGradient id="lg_solution_publishers_22" gradientUnits="userSpaceOnUse" x1="63.2932" y1="102.7068" x2="64.7068" y2="101.2932"><stop offset="0" style="stop-color:#62c5e5" /><stop offset="1" style="stop-color:#63C6E5" /></linearGradient><circle class="solution-publishers-22" cx="64" cy="102" r="1" /><path class="solution-publishers-5" d="M64,101.5c0.276,0,0.5,0.224,0.5,0.5s-0.224,0.5-0.5,0.5c-0.276,0-0.5-0.224-0.5-0.5 S63.724,101.5,64,101.5 M64,100.5c-0.828,0-1.5,0.672-1.5,1.5s0.672,1.5,1.5,1.5s1.5-0.672,1.5-1.5S64.828,100.5,64,100.5 L64,100.5z" /></g><g id="phone-display-hover"><rect x="57" y="83" class="solution-publishers-5" width="14" height="16" /><linearGradient id="lg_solution_publishers_23" gradientUnits="userSpaceOnUse" x1="56.5" y1="98.5" x2="71.5" y2="83.5"><stop offset="0" style="stop-color:#62c5e5" /><stop offset="1" style="stop-color:#63C6E5" /></linearGradient><path class="solution-publishers-23" d="M70,84v14H58V84H70 M71,83H57v16h14V83L71,83z" /></g></g></g></svg>