<svg id="solution_users" xmlns="http://www.w3.org/2000/svg" x="0px" y="0px" viewBox="0 0 160 160" style="enable-background:new 0 0 160 160;" xml:space="preserve"><style type="text/css">.solution-users-0{fill:url(#lg_solution_users_0)}.solution-users-1{fill:url(#lg_solution_users_1)}.solution-users-2{fill:url(#lg_solution_users_2)}.solution-users-3{fill:url(#lg_solution_users_3)}.solution-users-4{fill:url(#lg_solution_users_4)}.solution-users-5{fill:url(#lg_solution_users_5)}.solution-users-6{fill:url(#lg_solution_users_6)}.solution-users-7{fill:url(#lg_solution_users_7)}.solution-users-8{fill:url(#lg_solution_users_8)}.solution-users-9{opacity:0.2}.solution-users-10{clip-path:url(#solution_users_mask);fill:#FFF}.solution-users-11{fill:#20242C}</style><g id="solution_users_hexagons" class="solution-users-9"><defs><circle id="solution_users_circle" class="solution-users-9" cx="80.182" cy="80" r="65"/></defs><clipPath id="solution_users_mask"><use xlink:href="#solution_users_circle" style="overflow:visible;"/></clipPath><path class="solution-users-10" id="solution_users_hex_path" d="M22.871,51.183l0.194,0.112l3.762-6.517l-3.827-6.628h-7.653l-3.827,6.628l3.827,6.629h7.653l0.065-0.112 L22.871,51.183v-0.224h-7.265l-3.568-6.18l3.568-6.18h7.135l3.568,6.18l-3.633,6.293L22.871,51.183v-0.224V51.183z M22.871,63.99 l0.194,0.112l3.762-6.516l-3.827-6.628h-7.653l-3.827,6.628l3.827,6.628h7.653l0.065-0.112L22.871,63.99v-0.224h-7.265l-3.568-6.18 l3.568-6.18h7.135l3.568,6.18l-3.633,6.292L22.871,63.99v-0.224V63.99z M22.871,76.798l0.194,0.112l3.762-6.516l-3.827-6.629 h-7.653l-3.827,6.629l3.827,6.628h7.653l0.065-0.112L22.871,76.798v-0.224h-7.265l-3.568-6.18l3.568-6.18l7.135,0l3.568,6.18 l-3.633,6.292L22.871,76.798v-0.224V76.798z M33.964,44.778l0.194,0.112l3.762-6.516l-3.827-6.628h-7.654l-3.827,6.628l3.827,6.628 h7.654l0.065-0.112L33.964,44.778v-0.224h-7.266l-3.568-6.18l3.568-6.18h7.136l3.568,6.18l-3.633,6.292L33.964,44.778v-0.224 V44.778z M33.964,57.586l0.194,0.112l3.762-6.516l-3.827-6.629h-7.654l-3.827,6.629l3.827,6.628h7.654l0.065-0.112L33.964,57.586 v-0.224h-7.265l-3.568-6.18l3.568-6.18h7.136l3.568,6.18l-3.633,6.292L33.964,57.586v-0.224V57.586z M33.964,70.394l0.194,0.112 l3.762-6.517l-3.827-6.628h-7.654l-3.827,6.628l3.827,6.629h7.654l0.065-0.112L33.964,70.394V70.17h-7.266L23.13,63.99l3.568-6.18 h7.136l3.568,6.18l-3.633,6.292L33.964,70.394V70.17V70.394z M33.964,83.202l0.194,0.112l3.762-6.516l-3.827-6.628h-7.654 l-3.827,6.628l3.827,6.628h7.654l0.065-0.112L33.964,83.202v-0.224h-7.266l-3.568-6.18l3.568-6.18h7.136l3.568,6.18L33.77,83.09 L33.964,83.202v-0.224V83.202z M45.056,38.374l0.194,0.112l3.762-6.516l-3.827-6.628h-7.654l-3.827,6.628l3.827,6.628h7.654 l0.065-0.112L45.056,38.374V38.15H37.79l-3.568-6.18l3.568-6.18h7.136l3.568,6.18l-3.633,6.292L45.056,38.374V38.15V38.374z M45.056,51.183l0.194,0.112l3.762-6.517l-3.827-6.628h-7.654l-3.827,6.628l3.827,6.629h7.654l0.065-0.112L45.056,51.183v-0.224 H37.79l-3.568-6.18l3.568-6.18h7.136l3.568,6.18l-3.633,6.293L45.056,51.183v-0.224V51.183z M45.056,63.99l0.194,0.112l3.762-6.516 l-3.827-6.628h-7.654l-3.827,6.628l3.827,6.628h7.654l0.065-0.112L45.056,63.99v-0.224H37.79l-3.568-6.18l3.568-6.18h7.136 l3.568,6.18l-3.633,6.292L45.056,63.99v-0.224V63.99z M45.056,76.798l0.194,0.112l3.762-6.516l-3.827-6.629h-7.654l-3.827,6.629 l3.827,6.628h7.654l0.065-0.112L45.056,76.798v-0.224H37.79l-3.568-6.18l3.568-6.18h7.136l3.568,6.18l-3.633,6.292L45.056,76.798 v-0.224V76.798z M56.147,31.971l0.194,0.112l3.762-6.516l-3.827-6.629h-7.653l-3.827,6.629l3.827,6.628h7.653l0.065-0.112 L56.147,31.971v-0.224h-7.265l-3.568-6.18l3.568-6.18h7.135l3.568,6.18l-3.633,6.292L56.147,31.971v-0.224V31.971z M56.147,44.778 l0.194,0.112l3.762-6.516l-3.827-6.628h-7.653l-3.827,6.628l3.827,6.628h7.653l0.065-0.112L56.147,44.778v-0.224h-7.265 l-3.568-6.18l3.568-6.18h7.135l3.568,6.18l-3.633,6.292L56.147,44.778v-0.224V44.778z M56.147,57.586l0.194,0.112l3.762-6.516 l-3.827-6.629h-7.653l-3.827,6.629l3.827,6.628h7.653l0.065-0.112L56.147,57.586v-0.224h-7.265l-3.568-6.18l3.568-6.18h7.135 l3.568,6.18l-3.633,6.292L56.147,57.586v-0.224V57.586z M56.147,70.394l0.194,0.112l3.762-6.517l-3.827-6.628h-7.653l-3.827,6.628 l3.827,6.629h7.653l0.065-0.112L56.147,70.394V70.17h-7.265l-3.568-6.181l3.568-6.18h7.135l3.568,6.18l-3.633,6.292L56.147,70.394 V70.17V70.394z M56.147,83.202l0.194,0.112l3.762-6.516l-3.827-6.628h-7.653l-3.827,6.628l3.827,6.628h7.653l0.065-0.112 L56.147,83.202v-0.224h-7.265l-3.568-6.18l3.568-6.18l7.135,0l3.568,6.18l-3.633,6.292L56.147,83.202v-0.224V83.202z M67.239,25.567l0.194,0.112l3.762-6.517l-3.827-6.628h-7.654l-3.827,6.628l3.827,6.629h7.654l0.065-0.112L67.239,25.567v-0.224 h-7.266l-3.568-6.181l3.568-6.18h7.136l3.568,6.18l-3.633,6.292L67.239,25.567v-0.224V25.567z M67.239,38.374l0.194,0.112 l3.762-6.516l-3.827-6.628h-7.654l-3.827,6.628l3.827,6.628h7.654l0.065-0.112L67.239,38.374V38.15h-7.266l-3.568-6.18l3.568-6.18 h7.136l3.568,6.18l-3.633,6.292L67.239,38.374V38.15V38.374z M67.239,51.183l0.194,0.112l3.762-6.517l-3.827-6.628h-7.654 l-3.827,6.628l3.827,6.629h7.654l0.065-0.112L67.239,51.183v-0.224h-7.266l-3.568-6.18l3.568-6.18h7.136l3.568,6.18l-3.633,6.293 L67.239,51.183v-0.224V51.183z M67.239,63.99l0.194,0.112l3.762-6.516l-3.827-6.628h-7.654l-3.827,6.628l3.827,6.628h7.654 l0.065-0.112L67.239,63.99v-0.224h-7.266l-3.568-6.18l3.568-6.18h7.136l3.568,6.18l-3.633,6.292L67.239,63.99v-0.224V63.99z M67.239,76.798l0.194,0.112l3.762-6.516l-3.827-6.629h-7.654l-3.827,6.629l3.827,6.628h7.654l0.065-0.112L67.239,76.798v-0.224 h-7.266l-3.568-6.18l3.568-6.18h7.136l3.568,6.18l-3.633,6.292L67.239,76.798v-0.224V76.798z M78.332,31.971l0.194,0.112 l3.762-6.516l-3.827-6.629h-7.654l-3.827,6.629l3.827,6.628h7.654l0.065-0.112L78.332,31.971v-0.224h-7.266l-3.568-6.18l3.568-6.18 h7.136l3.568,6.18l-3.633,6.292L78.332,31.971v-0.224V31.971z M78.332,44.778l0.194,0.112l3.762-6.516l-3.827-6.628h-7.654 l-3.827,6.628l3.827,6.628h7.654l0.065-0.112L78.332,44.778v-0.224h-7.266l-3.568-6.18l3.568-6.18h7.136l3.568,6.18l-3.633,6.292 L78.332,44.778v-0.224V44.778z M78.332,57.586l0.194,0.112l3.762-6.516l-3.827-6.629h-7.654l-3.827,6.629l3.827,6.628h7.654 l0.065-0.112L78.332,57.586v-0.224h-7.265l-3.568-6.18l3.568-6.18h7.136l3.568,6.18l-3.633,6.292L78.332,57.586v-0.224V57.586z M78.332,70.394l0.194,0.112l3.762-6.517l-3.827-6.628h-7.654L66.98,63.99l3.827,6.629h7.654l0.065-0.112L78.332,70.394V70.17 h-7.266l-3.568-6.181l3.568-6.18h7.136l3.568,6.18l-3.633,6.292L78.332,70.394V70.17V70.394z M78.332,83.202l0.194,0.112 l3.762-6.516l-3.827-6.628h-7.654l-3.827,6.628l3.827,6.628h7.654l0.065-0.112L78.332,83.202v-0.224h-7.266l-3.568-6.18l3.568-6.18 h7.136l3.568,6.18l-3.633,6.292L78.332,83.202v-0.224V83.202z M22.871,89.606l0.194,0.112l3.762-6.516l-3.827-6.628h-7.653 l-3.827,6.628l3.827,6.628h7.653l0.065-0.112L22.871,89.606v-0.224h-7.265l-3.568-6.18l3.568-6.18h7.135l3.568,6.18l-3.633,6.292 L22.871,89.606v-0.224V89.606z M22.871,102.414l0.194,0.112l3.762-6.516l-3.827-6.629h-7.653l-3.827,6.629l3.827,6.628h7.653 l0.065-0.112L22.871,102.414v-0.224h-7.265l-3.568-6.18l3.568-6.18h7.135l3.568,6.18l-3.633,6.292L22.871,102.414v-0.224V102.414z M22.871,115.222l0.194,0.112l3.762-6.517l-3.827-6.628h-7.653l-3.827,6.628l3.827,6.629h7.653l0.065-0.112L22.871,115.222v-0.224 h-7.265l-3.568-6.181l3.568-6.18h7.135l3.568,6.18l-3.633,6.292L22.871,115.222v-0.224V115.222z M33.964,96.01l0.194,0.112 l3.762-6.517l-3.827-6.628h-7.654l-3.827,6.628l3.827,6.629h7.654l0.065-0.112L33.964,96.01v-0.224h-7.266l-3.568-6.18l3.568-6.18 h7.136l3.568,6.18l-3.633,6.293L33.964,96.01v-0.224V96.01z M33.964,108.817l0.194,0.112l3.762-6.516l-3.827-6.628h-7.654 l-3.827,6.628l3.827,6.628h7.654l0.065-0.112L33.964,108.817v-0.224h-7.265l-3.568-6.18l3.568-6.18h7.136l3.568,6.18l-3.633,6.292 L33.964,108.817v-0.224V108.817z M33.964,121.626l0.194,0.112l3.762-6.516l-3.827-6.629h-7.654l-3.827,6.629l3.827,6.628h7.654 l0.065-0.112L33.964,121.626v-0.224h-7.266l-3.568-6.18l3.568-6.18h7.136l3.568,6.18l-3.633,6.292L33.964,121.626v-0.224V121.626z M33.964,134.433l0.194,0.112l3.762-6.516l-3.827-6.628h-7.654l-3.827,6.628l3.827,6.628h7.654l0.065-0.112L33.964,134.433v-0.224 h-7.266l-3.568-6.18l3.568-6.18h7.136l3.568,6.18l-3.633,6.292L33.964,134.433v-0.224V134.433z M45.056,89.606l0.194,0.112 l3.762-6.516l-3.827-6.628h-7.654l-3.827,6.628l3.827,6.628h7.654l0.065-0.112L45.056,89.606v-0.224H37.79l-3.568-6.18l3.568-6.18 h7.136l3.568,6.18l-3.633,6.292L45.056,89.606v-0.224V89.606z M45.056,102.414l0.194,0.112l3.762-6.516l-3.827-6.629h-7.654 l-3.827,6.629l3.827,6.628h7.654l0.065-0.112L45.056,102.414v-0.224H37.79l-3.568-6.18l3.568-6.18h7.136l3.568,6.18l-3.633,6.292 L45.056,102.414v-0.224V102.414z M45.056,115.222l0.194,0.112l3.762-6.517l-3.827-6.628h-7.654l-3.827,6.628l3.827,6.629h7.654 l0.065-0.112L45.056,115.222v-0.224H37.79l-3.568-6.181l3.568-6.18h7.136l3.568,6.18l-3.633,6.292L45.056,115.222v-0.224V115.222z M45.056,128.029l0.194,0.112l3.762-6.516l-3.827-6.628h-7.654l-3.827,6.628l3.827,6.628h7.654l0.065-0.112L45.056,128.029v-0.224 H37.79l-3.568-6.18l3.568-6.18h7.136l3.568,6.18l-3.633,6.292L45.056,128.029v-0.224V128.029z M45.056,140.838l0.194,0.112 l3.762-6.517l-3.827-6.628h-7.654l-3.827,6.628l3.827,6.629h7.654l0.065-0.112L45.056,140.838v-0.224H37.79l-3.568-6.18l3.568-6.18 h7.136l3.568,6.18l-3.633,6.293L45.056,140.838v-0.224V140.838z M56.147,96.01l0.194,0.112l3.762-6.517l-3.827-6.628h-7.653 l-3.827,6.628l3.827,6.629h7.653l0.065-0.112L56.147,96.01v-0.224h-7.265l-3.568-6.18l3.568-6.18h7.135l3.568,6.18l-3.633,6.293 L56.147,96.01v-0.224V96.01z M56.147,108.817l0.194,0.112l3.762-6.516l-3.827-6.628h-7.653l-3.827,6.628l3.827,6.628h7.653 l0.065-0.112L56.147,108.817v-0.224h-7.265l-3.568-6.18l3.568-6.18h7.135l3.568,6.18l-3.633,6.292L56.147,108.817v-0.224V108.817z M56.147,121.626l0.194,0.112l3.762-6.516l-3.827-6.629h-7.653l-3.827,6.629l3.827,6.628h7.653l0.065-0.112L56.147,121.626v-0.224 h-7.265l-3.568-6.18l3.568-6.18h7.135l3.568,6.181l-3.633,6.292L56.147,121.626v-0.224V121.626z M56.147,134.433l0.194,0.112 l3.762-6.516l-3.827-6.628h-7.653l-3.827,6.628l3.827,6.628h7.653l0.065-0.112L56.147,134.433v-0.224h-7.265l-3.568-6.18 l3.568-6.18h7.135l3.568,6.18l-3.633,6.292L56.147,134.433v-0.224V134.433z M56.147,147.241l0.194,0.112l3.762-6.516l-3.827-6.629 h-7.653l-3.827,6.629l3.827,6.628h7.653l0.065-0.112L56.147,147.241v-0.224h-7.265l-3.568-6.18l3.568-6.18h7.135l3.568,6.18 l-3.633,6.292L56.147,147.241v-0.224V147.241z M67.239,89.606l0.194,0.112l3.762-6.516l-3.827-6.628h-7.654l-3.827,6.628 l3.827,6.628h7.654l0.065-0.112L67.239,89.606v-0.224h-7.266l-3.568-6.18l3.568-6.18h7.136l3.568,6.18l-3.633,6.292L67.239,89.606 v-0.224V89.606z M67.239,102.414l0.194,0.112l3.762-6.516l-3.827-6.629h-7.654l-3.827,6.629l3.827,6.628h7.654l0.065-0.112 L67.239,102.414v-0.224h-7.265l-3.568-6.18l3.568-6.18h7.136l3.568,6.18l-3.633,6.292L67.239,102.414v-0.224V102.414z M67.239,115.222l0.194,0.112l3.762-6.517l-3.827-6.628h-7.654l-3.827,6.628l3.827,6.629h7.654l0.065-0.112L67.239,115.222v-0.224 h-7.266l-3.568-6.181l3.568-6.18h7.136l3.568,6.18l-3.633,6.292L67.239,115.222v-0.224V115.222z M67.239,128.029l0.194,0.112 l3.762-6.516l-3.827-6.628h-7.654l-3.827,6.628l3.827,6.628h7.654l0.065-0.112L67.239,128.029v-0.224h-7.266l-3.568-6.18 l3.568-6.18h7.136l3.568,6.18l-3.633,6.292L67.239,128.029v-0.224V128.029z M67.239,140.838l0.194,0.112l3.762-6.517l-3.827-6.628 h-7.654l-3.827,6.628l3.827,6.629h7.654l0.065-0.112L67.239,140.838v-0.224h-7.266l-3.568-6.18l3.568-6.18h7.136l3.568,6.18 l-3.633,6.293L67.239,140.838v-0.224V140.838z M78.332,96.01l0.194,0.112l3.762-6.517l-3.827-6.628h-7.654l-3.827,6.628 l3.827,6.629h7.654l0.065-0.112L78.332,96.01v-0.224h-7.266l-3.568-6.18l3.568-6.18h7.136l3.568,6.18l-3.633,6.293L78.332,96.01 v-0.224V96.01z M78.332,108.817l0.194,0.112l3.762-6.516l-3.827-6.628h-7.654l-3.827,6.628l3.827,6.628h7.654l0.065-0.112 L78.332,108.817v-0.224h-7.265l-3.568-6.18l3.568-6.18h7.136l3.568,6.18l-3.633,6.292L78.332,108.817v-0.224V108.817z M78.332,121.626l0.194,0.112l3.762-6.516l-3.827-6.629h-7.654l-3.827,6.629l3.827,6.628h7.654l0.065-0.112L78.332,121.626v-0.224 h-7.266l-3.568-6.18l3.568-6.18h7.136l3.568,6.18l-3.633,6.292L78.332,121.626v-0.224V121.626z M78.332,134.433l0.194,0.112 l3.762-6.516l-3.827-6.628h-7.654l-3.827,6.628l3.827,6.628h7.654l0.065-0.112L78.332,134.433v-0.224h-7.266l-3.568-6.18 l3.568-6.18h7.136l3.568,6.18l-3.633,6.292L78.332,134.433v-0.224V134.433z M78.332,147.241l0.194,0.112l3.762-6.516l-3.827-6.629 h-7.654l-3.827,6.629l3.827,6.628h7.654l0.065-0.112L78.332,147.241v-0.224h-7.265l-3.568-6.18l3.568-6.18h7.136l3.568,6.18 l-3.633,6.292L78.332,147.241v-0.224V147.241z M89.427,25.567l0.194,0.112l3.762-6.517l-3.827-6.628h-7.654l-3.827,6.628 l3.827,6.629h7.654l0.065-0.112L89.427,25.567v-0.224h-7.266l-3.568-6.181l3.568-6.18h7.136l3.568,6.18l-3.633,6.292L89.427,25.567 v-0.224V25.567z M89.427,38.374l0.194,0.112l3.762-6.516l-3.827-6.628h-7.654l-3.827,6.628l3.827,6.628h7.654l0.065-0.112 L89.427,38.374V38.15h-7.266l-3.568-6.18l3.568-6.18h7.136l3.568,6.18l-3.633,6.292L89.427,38.374V38.15V38.374z M89.427,51.183 l0.194,0.112l3.762-6.517l-3.827-6.628h-7.654l-3.827,6.628l3.827,6.629h7.654l0.065-0.112L89.427,51.183v-0.224h-7.266 l-3.568-6.18l3.568-6.18h7.136l3.568,6.18l-3.633,6.293L89.427,51.183v-0.224V51.183z M89.427,63.99l0.194,0.112l3.762-6.516 l-3.827-6.628h-7.654l-3.827,6.628l3.827,6.628h7.654l0.065-0.112L89.427,63.99v-0.224h-7.266l-3.568-6.18l3.568-6.18h7.136 l3.568,6.18l-3.633,6.292L89.427,63.99v-0.224V63.99z M89.427,76.798l0.194,0.112l3.762-6.516l-3.827-6.629h-7.654l-3.827,6.629 l3.827,6.628h7.654l0.065-0.112L89.427,76.798v-0.224h-7.266l-3.568-6.18l3.568-6.18h7.136l3.568,6.18l-3.633,6.292L89.427,76.798 v-0.224V76.798z M100.52,31.971l0.194,0.112l3.762-6.516l-3.827-6.629h-7.654l-3.827,6.629l3.827,6.628h7.654l0.065-0.112 L100.52,31.971v-0.224h-7.266l-3.568-6.18l3.568-6.18h7.136l3.568,6.18l-3.633,6.292L100.52,31.971v-0.224V31.971z M100.52,44.778 l0.194,0.112l3.762-6.516l-3.827-6.628h-7.654l-3.827,6.628l3.827,6.628h7.654l0.065-0.112L100.52,44.778v-0.224h-7.266 l-3.568-6.18l3.568-6.18h7.136l3.568,6.18l-3.633,6.292L100.52,44.778v-0.224V44.778z M100.52,57.586l0.194,0.112l3.762-6.516 l-3.827-6.629h-7.654l-3.827,6.629l3.827,6.628h7.654l0.065-0.112L100.52,57.586v-0.224h-7.265l-3.568-6.18l3.568-6.18h7.136 l3.568,6.18l-3.633,6.292L100.52,57.586v-0.224V57.586z M100.52,70.394l0.194,0.112l3.762-6.517l-3.827-6.628h-7.654l-3.827,6.628 l3.827,6.629h7.654l0.065-0.112L100.52,70.394V70.17h-7.266l-3.568-6.181l3.568-6.18h7.136l3.568,6.18l-3.633,6.292L100.52,70.394 V70.17V70.394z M100.52,83.202l0.194,0.112l3.762-6.516l-3.827-6.628h-7.654l-3.827,6.628l3.827,6.628h7.654l0.065-0.112 L100.52,83.202v-0.224h-7.266l-3.568-6.18l3.568-6.18h7.136l3.568,6.18l-3.633,6.292L100.52,83.202v-0.224V83.202z M111.611,25.567 l0.194,0.112l3.762-6.517l-3.827-6.628h-7.653l-3.827,6.628l3.827,6.629h7.653l0.065-0.112L111.611,25.567v-0.224h-7.265 l-3.568-6.181l3.568-6.18h7.135l3.568,6.18l-3.633,6.292L111.611,25.567v-0.224V25.567z M111.611,38.374l0.194,0.112l3.762-6.516 l-3.827-6.628h-7.653l-3.827,6.628l3.827,6.628h7.653l0.065-0.112L111.611,38.374V38.15h-7.265l-3.568-6.18l3.568-6.18h7.135 l3.568,6.18l-3.633,6.292L111.611,38.374V38.15V38.374z M111.611,51.183l0.194,0.112l3.762-6.517l-3.827-6.628h-7.653l-3.827,6.628 l3.827,6.629h7.653l0.065-0.112L111.611,51.183v-0.224h-7.265l-3.568-6.18l3.568-6.18h7.135l3.568,6.18l-3.633,6.293 L111.611,51.183v-0.224V51.183z M111.611,63.99l0.194,0.112l3.762-6.516l-3.827-6.628h-7.653l-3.827,6.628l3.827,6.628h7.653 l0.065-0.112L111.611,63.99v-0.224h-7.265l-3.568-6.18l3.568-6.18h7.135l3.568,6.18l-3.633,6.292L111.611,63.99v-0.224V63.99z M111.611,76.798l0.194,0.112l3.762-6.516l-3.827-6.629h-7.653l-3.827,6.629l3.827,6.628h7.653l0.065-0.112L111.611,76.798v-0.224 h-7.265l-3.568-6.18l3.568-6.18l7.135,0l3.568,6.18l-3.633,6.292L111.611,76.798v-0.224V76.798z M122.703,31.971l0.194,0.112 l3.762-6.516l-3.827-6.629h-7.654l-3.827,6.629l3.827,6.628h7.654l0.065-0.112L122.703,31.971v-0.224h-7.266l-3.568-6.18 l3.568-6.18h7.136l3.568,6.18l-3.633,6.292L122.703,31.971v-0.224V31.971z M122.703,44.778l0.194,0.112l3.762-6.516l-3.827-6.628 h-7.654l-3.827,6.628l3.827,6.628h7.654l0.065-0.112L122.703,44.778v-0.224h-7.266l-3.568-6.18l3.568-6.18h7.136l3.568,6.18 l-3.633,6.292L122.703,44.778v-0.224V44.778z M122.703,57.586l0.194,0.112l3.762-6.516l-3.827-6.629h-7.654l-3.827,6.629 l3.827,6.628h7.654l0.065-0.112L122.703,57.586v-0.224h-7.265l-3.568-6.18l3.568-6.18h7.136l3.568,6.18l-3.633,6.292 L122.703,57.586v-0.224V57.586z M122.703,70.394l0.194,0.112l3.762-6.517l-3.827-6.628h-7.654l-3.827,6.628l3.827,6.629h7.654 l0.065-0.112L122.703,70.394V70.17h-7.266l-3.568-6.181l3.568-6.18h7.136l3.568,6.18l-3.633,6.292L122.703,70.394V70.17V70.394z M122.703,83.202l0.194,0.112l3.762-6.516l-3.827-6.628h-7.654l-3.827,6.628l3.827,6.628h7.654l0.065-0.112L122.703,83.202v-0.224 h-7.266l-3.568-6.18l3.568-6.18h7.136l3.568,6.18l-3.633,6.292L122.703,83.202v-0.224V83.202z M133.795,38.374l0.194,0.112 l3.762-6.516l-3.827-6.628h-7.654l-3.827,6.628l3.827,6.628h7.654l0.065-0.112L133.795,38.374V38.15h-7.266l-3.568-6.18l3.568-6.18 h7.136l3.568,6.18l-3.633,6.292L133.795,38.374V38.15V38.374z M133.795,51.183l0.194,0.112l3.762-6.517l-3.827-6.628h-7.654 l-3.827,6.628l3.827,6.629h7.654l0.065-0.112L133.795,51.183v-0.224h-7.266l-3.568-6.18l3.568-6.18h7.136l3.568,6.18l-3.633,6.293 L133.795,51.183v-0.224V51.183z M133.795,63.99l0.194,0.112l3.762-6.516l-3.827-6.628h-7.654l-3.827,6.628l3.827,6.628h7.654 l0.065-0.112L133.795,63.99v-0.224h-7.266l-3.568-6.18l3.568-6.18h7.136l3.568,6.18l-3.633,6.292L133.795,63.99v-0.224V63.99z M133.795,76.798l0.194,0.112l3.762-6.516l-3.827-6.629h-7.654l-3.827,6.629l3.827,6.628h7.654l0.065-0.112L133.795,76.798v-0.224 h-7.266l-3.568-6.18l3.568-6.18h7.136l3.568,6.18l-3.633,6.292L133.795,76.798v-0.224V76.798z M144.887,57.586l0.194,0.112 l3.762-6.516l-3.827-6.629h-7.654l-3.827,6.629l3.827,6.628h7.654l0.065-0.112L144.887,57.586v-0.224h-7.265l-3.568-6.18 l3.568-6.18h7.136l3.568,6.18l-3.633,6.292L144.887,57.586v-0.224V57.586z M144.887,70.394l0.194,0.112l3.762-6.517l-3.827-6.628 h-7.654l-3.827,6.628l3.827,6.629h7.654l0.065-0.112L144.887,70.394V70.17h-7.266l-3.568-6.181l3.568-6.18h7.136l3.568,6.18 l-3.633,6.292L144.887,70.394V70.17V70.394z M144.887,83.202l0.194,0.112l3.762-6.516l-3.827-6.628h-7.654l-3.827,6.628 l3.827,6.628h7.654l0.065-0.112L144.887,83.202v-0.224h-7.266l-3.568-6.18l3.568-6.18h7.136l3.568,6.18l-3.633,6.292 L144.887,83.202v-0.224V83.202z M89.427,89.606l0.194,0.112l3.762-6.516l-3.827-6.628h-7.654l-3.827,6.628l3.827,6.628h7.654 l0.065-0.112L89.427,89.606v-0.224h-7.266l-3.568-6.18l3.568-6.18h7.136l3.568,6.18l-3.633,6.292L89.427,89.606v-0.224V89.606z M89.427,102.414l0.194,0.112l3.762-6.516l-3.827-6.629h-7.654l-3.827,6.629l3.827,6.628h7.654l0.065-0.112L89.427,102.414v-0.224 h-7.265l-3.568-6.18l3.568-6.18h7.136l3.568,6.18l-3.633,6.292L89.427,102.414v-0.224V102.414z M89.427,115.222l0.194,0.112 l3.762-6.517l-3.827-6.628h-7.654l-3.827,6.628l3.827,6.629h7.654l0.065-0.112L89.427,115.222v-0.224h-7.266l-3.568-6.181 l3.568-6.18h7.136l3.568,6.18l-3.633,6.292L89.427,115.222v-0.224V115.222z M89.427,128.029l0.194,0.112l3.762-6.516l-3.827-6.628 h-7.654l-3.827,6.628l3.827,6.628h7.654l0.065-0.112L89.427,128.029v-0.224h-7.266l-3.568-6.18l3.568-6.18h7.136l3.568,6.18 l-3.633,6.292L89.427,128.029v-0.224V128.029z M89.427,140.838l0.194,0.112l3.762-6.517l-3.827-6.628h-7.654l-3.827,6.628 l3.827,6.629h7.654l0.065-0.112L89.427,140.838v-0.224h-7.266l-3.568-6.18l3.568-6.18h7.136l3.568,6.18l-3.633,6.293 L89.427,140.838v-0.224V140.838z M100.52,96.01l0.194,0.112l3.762-6.517l-3.827-6.628h-7.654l-3.827,6.628l3.827,6.629h7.654 l0.065-0.112L100.52,96.01v-0.224h-7.266l-3.568-6.18l3.568-6.18h7.136l3.568,6.18l-3.633,6.293L100.52,96.01v-0.224V96.01z M100.52,108.817l0.194,0.112l3.762-6.516l-3.827-6.628h-7.654l-3.827,6.628l3.827,6.628h7.654l0.065-0.112L100.52,108.817v-0.224 h-7.265l-3.568-6.18l3.568-6.18h7.136l3.568,6.18l-3.633,6.292L100.52,108.817v-0.224V108.817z M100.52,121.626l0.194,0.112 l3.762-6.516l-3.827-6.629h-7.654l-3.827,6.629l3.827,6.628h7.654l0.065-0.112L100.52,121.626v-0.224h-7.266l-3.568-6.18 l3.568-6.18h7.136l3.568,6.18l-3.633,6.292L100.52,121.626v-0.224V121.626z M100.52,134.433l0.194,0.112l3.762-6.516l-3.827-6.628 h-7.654l-3.827,6.628l3.827,6.628h7.654l0.065-0.112L100.52,134.433v-0.224h-7.266l-3.568-6.18l3.568-6.18h7.136l3.568,6.18 l-3.633,6.292L100.52,134.433v-0.224V134.433z M100.52,147.241l0.194,0.112l3.762-6.516l-3.827-6.629h-7.654l-3.827,6.629 l3.827,6.628h7.654l0.065-0.112L100.52,147.241v-0.224h-7.265l-3.568-6.18l3.568-6.18h7.136l3.568,6.18l-3.633,6.292 L100.52,147.241v-0.224V147.241z M111.611,89.606l0.194,0.112l3.762-6.516l-3.827-6.628h-7.653l-3.827,6.628l3.827,6.628h7.653 l0.065-0.112L111.611,89.606v-0.224h-7.265l-3.568-6.18l3.568-6.18h7.135l3.568,6.18l-3.633,6.292L111.611,89.606v-0.224V89.606z M111.611,102.414l0.194,0.112l3.762-6.516l-3.827-6.629h-7.653l-3.827,6.629l3.827,6.628h7.653l0.065-0.112L111.611,102.414 v-0.224h-7.265l-3.568-6.18l3.568-6.18h7.135l3.568,6.18l-3.633,6.292L111.611,102.414v-0.224V102.414z M111.611,115.222 l0.194,0.112l3.762-6.517l-3.827-6.628h-7.653l-3.827,6.628l3.827,6.629h7.653l0.065-0.112L111.611,115.222v-0.224h-7.265 l-3.568-6.181l3.568-6.18h7.135l3.568,6.18l-3.633,6.292L111.611,115.222v-0.224V115.222z M111.611,128.029l0.194,0.112 l3.762-6.516l-3.827-6.628h-7.653l-3.827,6.628l3.827,6.628h7.653l0.065-0.112L111.611,128.029v-0.224h-7.265l-3.568-6.18 l3.568-6.18h7.135l3.568,6.18l-3.633,6.292L111.611,128.029v-0.224V128.029z M111.611,140.838l0.194,0.112l3.762-6.517 l-3.827-6.628h-7.653l-3.827,6.628l3.827,6.629h7.653l0.065-0.112L111.611,140.838v-0.224h-7.265l-3.568-6.18l3.568-6.18h7.135 l3.568,6.18l-3.633,6.293L111.611,140.838v-0.224V140.838z M122.703,96.01l0.194,0.112l3.762-6.517l-3.827-6.628h-7.654 l-3.827,6.628l3.827,6.629h7.654l0.065-0.112L122.703,96.01v-0.224h-7.266l-3.568-6.18l3.568-6.18h7.136l3.568,6.18l-3.633,6.293 L122.703,96.01v-0.224V96.01z M122.703,108.817l0.194,0.112l3.762-6.516l-3.827-6.628h-7.654l-3.827,6.628l3.827,6.628h7.654 l0.065-0.112L122.703,108.817v-0.224h-7.265l-3.568-6.18l3.568-6.18h7.136l3.568,6.18l-3.633,6.292L122.703,108.817v-0.224V108.817 z M122.703,121.626l0.194,0.112l3.762-6.516l-3.827-6.629h-7.654l-3.827,6.629l3.827,6.628h7.654l0.065-0.112L122.703,121.626 v-0.224h-7.266l-3.568-6.18l3.568-6.18h7.136l3.568,6.18l-3.633,6.292L122.703,121.626v-0.224V121.626z M122.703,134.433 l0.194,0.112l3.762-6.516l-3.827-6.628h-7.654l-3.827,6.628l3.827,6.628h7.654l0.065-0.112L122.703,134.433v-0.224h-7.266 l-3.568-6.18l3.568-6.18h7.136l3.568,6.18l-3.633,6.292L122.703,134.433v-0.224V134.433z M133.795,89.606l0.194,0.112l3.762-6.516 l-3.827-6.628h-7.654l-3.827,6.628l3.827,6.628h7.654l0.065-0.112L133.795,89.606v-0.224h-7.266l-3.568-6.18l3.568-6.18h7.136 l3.568,6.18l-3.633,6.292L133.795,89.606v-0.224V89.606z M133.795,102.414l0.194,0.112l3.762-6.516l-3.827-6.629h-7.654 l-3.827,6.629l3.827,6.628h7.654l0.065-0.112L133.795,102.414v-0.224h-7.265l-3.568-6.18l3.568-6.18h7.136l3.568,6.18l-3.633,6.292 L133.795,102.414v-0.224V102.414z M133.795,115.222l0.194,0.112l3.762-6.517l-3.827-6.628h-7.654l-3.827,6.628l3.827,6.629h7.654 l0.065-0.112L133.795,115.222v-0.224h-7.266l-3.568-6.181l3.568-6.18h7.136l3.568,6.18l-3.633,6.292L133.795,115.222v-0.224 V115.222z M133.795,128.029l0.194,0.112l3.762-6.516l-3.827-6.628h-7.654l-3.827,6.628l3.827,6.628h7.654l0.065-0.112 L133.795,128.029v-0.224h-7.266l-3.568-6.18l3.568-6.18h7.136l3.568,6.18l-3.633,6.292L133.795,128.029v-0.224V128.029z M144.887,96.01l0.194,0.112l3.762-6.517l-3.827-6.628h-7.654l-3.827,6.628l3.827,6.629h7.654l0.065-0.112L144.887,96.01v-0.224 h-7.266l-3.568-6.18l3.568-6.18h7.136l3.568,6.18l-3.633,6.293L144.887,96.01v-0.224V96.01z M144.887,108.817l0.194,0.112 l3.762-6.516l-3.827-6.628h-7.654l-3.827,6.628l3.827,6.628h7.654l0.065-0.112L144.887,108.817v-0.224h-7.265l-3.568-6.18 l3.568-6.18h7.136l3.568,6.18l-3.633,6.292L144.887,108.817v-0.224V108.817z M144.887,121.626l0.194,0.112l3.762-6.516 l-3.827-6.629h-7.654l-3.827,6.629l3.827,6.628h7.654l0.065-0.112L144.887,121.626v-0.224h-7.266l-3.568-6.18l3.568-6.18h7.136 l3.568,6.18l-3.633,6.292L144.887,121.626v-0.224V121.626z"/></g><g class="solution-outer-circles"><g id="solutions_users_outer_path" class="solution-outer-path"><linearGradient id="lg_solution_users_0" gradientUnits="userSpaceOnUse" x1="23.4314" y1="23.4314" x2="136.5686" y2="136.5686" gradientTransform="matrix(1 0 0 -1 0 160)"><stop offset="0" style="stop-color:#62c5e5"/><stop offset="1" style="stop-color:#63C6E5"/></linearGradient><path id="solution_users_outer_path_gs" class="solution-users-0" d="M80,6c40.804,0,74,33.196,74,74s-33.196,74-74,74S6,120.804,6,80S39.196,6,80,6 M80,0 C35.817,0,0,35.817,0,80s35.817,80,80,80s80-35.817,80-80S124.183,0,80,0L80,0z"/></g><g id="solutions_users_inner_path" class="solution-inner-path"><linearGradient id="lg_solution_users_1" gradientUnits="userSpaceOnUse" x1="34.0382" y1="34.0382" x2="125.9618" y2="125.9618" gradientTransform="matrix(1 0 0 -1 0 160)"><stop offset="0" style="stop-color:#62c5e5"/><stop offset="1" style="stop-color:#63C6E5"/></linearGradient><path id="solution_users_inner_path_gs" class="solution-users-1" d="M80,17c34.738,0,63,28.262,63,63s-28.262,63-63,63s-63-28.262-63-63S45.262,17,80,17 M80,15 c-35.898,0-65,29.102-65,65s29.102,65,65,65s65-29.102,65-65S115.898,15,80,15L80,15z"/></g></g><g id="solution_users_base_gs" class="solution-base"><path id="background" class="solution-users-11" d="M103.51,90.894c2.47,0,0.762-4.476,2.918-8.129c1.593-2.703-0.011-3.246-1.583-3.246 c-0.419,0-0.835,0.039-1.189,0.085c0.001-0.134-0.027-0.433-0.028-0.568c-0.014-3.55,0.381-9.372-2.914-15.742 c-0.052-0.103-0.11-0.206-0.164-0.308c-0.139-0.26-0.276-0.52-0.428-0.782c-0.232-0.402-0.477-0.806-0.741-1.21 C94.645,53.754,86.389,51,80.015,51c-0.007,0-0.012,0-0.012,0c-0.008,0-0.011,0-0.02,0c-0.256,0-0.519-0.003-0.78,0.007 c-0.134,0.005-0.272,0.018-0.407,0.025c-0.027,0.001-0.055,0.004-0.082,0.005c-0.38,0.021-0.764,0.051-1.153,0.092 c-0.045,0.005-0.09,0.011-0.135,0.016c-0.246,0.027-0.49,0.049-0.739,0.085c-0.039-0.356-0.098-0.717-0.199-1.071 C75.594,47.008,72.496,45,68.998,45c-0.846,0-1.714,0.117-2.581,0.363c-4.454,1.262-7.163,5.457-6.053,9.367 c0.405,1.431,1.27,2.623,2.418,3.501c-0.039,0.042-0.074,0.089-0.112,0.13c-0.184,0.201-0.359,0.413-0.536,0.623 c-0.194,0.228-0.391,0.453-0.577,0.692c-0.035,0.046-0.067,0.095-0.102,0.141c-0.287,0.376-0.572,0.755-0.838,1.16 c-2.067,3.161-3.096,6.278-3.606,9.12c-0.005,0.031-0.011,0.061-0.016,0.091c-0.139,0.792-0.24,1.562-0.31,2.306 c-0.002,0.018-0.003,0.036-0.005,0.053c-0.031,0.341-0.056,0.676-0.076,1.006c-0.003,0.049-0.006,0.097-0.009,0.146 c-0.036,0.627-0.056,1.234-0.063,1.812c-0.008,0.032-0.442,1.697-0.655,4.053c-0.135-0.009-0.272-0.016-0.415-0.016 c-1.704,0-3.803,0.667-2.17,3.436c2.182,3.702,0.876,8.002,3.09,8.002c0.369,0,0.835-0.119,1.431-0.38 c0.387,0.687,0.744,1.355,1.079,2.001c2.708,5.738,2.717,12.488,2.717,12.488s0.629-2.395,0.471-6.351 c2.166,3.452,5.204,5.339,8.92,6.981V115h18v-9.274c4-1.767,7.226-3.795,9.414-7.782c0.758-1.38,1.704-3.24,2.569-5.508 c0.582,4.081,2.025,6.129,4.761,7.579c0,0-3.321-3.792-3.211-9.295C102.914,90.833,103.241,90.894,103.51,90.894z"/><g id="face"><linearGradient id="lg_solution_users_2" gradientUnits="userSpaceOnUse" x1="59.2494" y1="56.7515" x2="100.7511" y2="98.2533" gradientTransform="matrix(1 0 0 -1 0 160)"><stop offset="0" style="stop-color:#62c5e5"/><stop offset="1" style="stop-color:#63C6E5"/></linearGradient><path class="solution-users-2" d="M80.013,52c5.943,0,13.931,2.51,18.529,9.541c4.161,6.359,4.118,12.388,4.089,16.382 c-0.003,0.396-0.006,0.767-0.004,1.121c0,0.079,0.008,0.202,0.016,0.328c0.006,0.085,0.012,0.171,0.012,0.225l-0.008,1.148 l1.138-0.15c0.386-0.051,0.742-0.077,1.059-0.077c0.874,0,1.183,0.196,1.222,0.264c0.002,0.003,0.163,0.35-0.499,1.474 c-1.11,1.881-1.293,3.879-1.44,5.484c-0.17,1.856-0.296,2.153-0.614,2.153c-0.221,0-0.647-0.069-1.422-0.397l-1.01-0.428 l-0.333,1.045c-0.784,2.46-1.828,4.864-3.192,7.349c-2.068,3.768-5.578,5.704-8.977,7.364L88,105.101v0.624V114H72v-8.274v-0.625 l-0.58-0.274c-3.399-1.659-6.901-3.595-8.967-7.365c-0.39-0.71-0.811-1.563-1.293-2.551c-0.696-1.427-1.487-3.044-2.473-4.795 l-0.445-0.788l-0.829,0.363c-0.56,0.245-0.87,0.296-1.031,0.296c-0.297,0-0.437-0.829-0.616-2.094 c-0.223-1.572-0.5-3.528-1.613-5.416c-0.46-0.779-0.51-1.256-0.404-1.442c0.134-0.234,0.727-0.487,1.712-0.487 c0.142,0,0.281,0.005,0.413,0.015c0.078,0.006,0.078,0.005,0.114,0.01c0.051,0.006,0.154,0.018,0.472,0.051l1.111,0.115 l-0.008-1.116l-0.004-0.2c-0.002-0.062-0.004-0.125-0.003-0.188c0.002-0.441-0.005-0.918-0.012-1.429 c-0.057-4.014-0.144-10.065,3.91-16.265C66.055,54.51,74.043,52,80.003,52H80 M80.015,51c-0.007,0-0.012,0-0.012,0 c-0.008,0-0.011,0-0.02,0c-6.373,0-14.627,2.754-19.365,9.994c-4.741,7.249-4.045,14.271-4.061,18.245 c0,0.135,0.007,0.261,0.008,0.395c-0.616-0.064-0.396-0.049-0.616-0.066c-0.156-0.012-0.319-0.019-0.486-0.019 c-1.704,0-3.803,0.667-2.17,3.436c2.182,3.702,0.876,8.002,3.09,8.002c0.369,0,0.835-0.119,1.431-0.38 c1.655,2.94,2.799,5.566,3.773,7.337c2.185,3.987,5.414,6.015,9.414,7.782V115h18v-9.274c4-1.767,7.226-3.795,9.414-7.782 c0.972-1.771,2.257-4.323,3.278-7.527c0.775,0.328,1.367,0.477,1.817,0.477c2.47,0,0.762-4.476,2.918-8.129 c1.593-2.703-0.011-3.246-1.583-3.246c-0.419,0-0.835,0.039-1.189,0.085c0.001-0.134-0.027-0.433-0.028-0.568 c-0.016-3.974,0.495-10.793-4.248-18.042C94.645,53.754,86.389,51,80.015,51L80.015,51z"/></g><g id="hair"><linearGradient id="lg_solution_users_3" gradientUnits="userSpaceOnUse" x1="57.2215" y1="59.2925" x2="98.4667" y2="100.5377" gradientTransform="matrix(1 0 0 -1 0 160)"><stop offset="0" style="stop-color:#62c5e5"/><stop offset="1" style="stop-color:#63C6E5"/></linearGradient><path class="solution-users-3" d="M68.998,46c3.153,0,5.776,1.779,6.527,4.427c0.075,0.264,0.128,0.551,0.167,0.903l0.113,1.025 l1.021-0.144c0.839-0.119,1.651-0.193,2.413-0.22l0.157-0.006c0.198-0.008,0.395-0.015,0.618-0.016 c5.943,0.01,13.931,2.526,18.529,9.557c3.521,5.381,3.967,10.551,3.924,15.365c0.016,0.762,0.061,1.53,0.11,2.342 c0.149,2.504,0.302,5.093-0.438,7.575c-0.199,0.666-0.345,1.317-0.446,1.951c-0.018-0.559-0.026-1.15-0.026-1.775 c0-3.138-0.681-6.175-2.024-9.025l-0.263-0.558l-0.617-0.016c-7.579-0.191-14.436-4.129-17.894-10.278l-3.291-5.851l1.443,6.557 c0.592,2.688,1.635,5.146,2.766,7.232c-2.406-3.005-3.624-6.153-4.236-8.68l-1.64-6.77l-0.331,6.957 c-0.329,6.902-7.398,12.308-16.094,12.308c-0.115,0-0.228-0.003-0.342-0.007L59,78.849l-0.937-0.023L57.98,79.76 c-0.249,2.793,0.208,5.997,1.356,9.524c0.519,1.593,0.896,3.104,1.165,4.514c-0.48-1.249-1.07-2.488-1.793-3.65 c-3.466-5.56-1.23-14.297-1.207-14.384l0.031-0.119l0.002-0.123c0.047-3.799,0.536-8.823,3.92-13.999 c0.596-0.91,1.27-1.765,2.06-2.613l0.752-0.807l-0.876-0.67c-1.019-0.779-1.732-1.809-2.064-2.979 c-0.457-1.611-0.167-3.337,0.818-4.861c1.011-1.565,2.626-2.727,4.546-3.271C67.45,46.109,68.227,46,68.998,46 M68.998,45 c-0.846,0-1.714,0.117-2.581,0.363c-4.454,1.262-7.163,5.457-6.053,9.367c0.405,1.431,1.27,2.623,2.418,3.501 c-0.778,0.835-1.508,1.743-2.165,2.747c-3.494,5.343-4.034,10.565-4.084,14.534c-0.02,0.076-2.412,9.172,1.325,15.168 c3.752,6.023,3.752,14.416,3.752,14.416s1.767-6.626-1.324-16.118c-1.293-3.971-1.503-6.973-1.311-9.126 c0.17,0.004,0.339,0.011,0.51,0.011c9.227,0,16.742-5.89,17.093-13.261c1.06,4.375,3.803,10.371,10.841,14.643 c0,0-5.716-5.89-7.423-13.645c3.522,6.262,10.569,10.581,18.741,10.787c1.016,2.155,1.929,5.072,1.929,8.598 c0,7.949,1.327,11.041,5.079,13.03c0,0-4.859-5.523-2.648-12.92c1.037-3.478,0.435-7.095,0.37-10.224 c0.037-4.089-0.174-9.898-4.087-15.877C94.645,53.754,86.389,51,80.015,51c-0.007,0-0.012,0-0.012,0c-0.008,0-0.011,0-0.02,0 c-0.256,0-0.519-0.003-0.78,0.007c-0.816,0.029-1.659,0.1-2.516,0.222c-0.039-0.356-0.098-0.717-0.199-1.071 C75.594,47.008,72.496,45,68.998,45L68.998,45z"/></g><g id="lips"><linearGradient id="lg_solution_users_4" gradientUnits="userSpaceOnUse" x1="76.8903" y1="59.6901" x2="83.1647" y2="65.9645" gradientTransform="matrix(1 0 0 -1 0 160)"><stop offset="0" style="stop-color:#62c5e5"/><stop offset="1" style="stop-color:#63C6E5"/></linearGradient><path class="solution-users-4" d="M78.596,96.953c0.142,0,0.261,0.063,0.458,0.176c0.232,0.131,0.549,0.311,0.991,0.317 c0.404-0.006,0.708-0.178,0.955-0.317c0.196-0.111,0.314-0.174,0.454-0.175c0.227,0.007,1.045,0.173,2.145,0.429 C82.636,97.706,81.381,98,79.999,98c-1.352,0-2.592-0.293-3.549-0.617C77.554,97.126,78.374,96.96,78.596,96.953 M81.457,95.953 c-0.411,0-0.71,0.169-0.95,0.305c-0.176,0.099-0.328,0.185-0.477,0.187c-0.156-0.002-0.307-0.088-0.483-0.187 c-0.24-0.136-0.539-0.305-0.951-0.305c-0.66,0-4.173,0.892-4.571,0.994c-0.099,0.025-0.17,0.112-0.175,0.214 c-0.005,0.102,0.057,0.196,0.153,0.231c0,0,2.653,1.608,5.997,1.608c3.385,0,6.052-1.608,6.052-1.608 c0.096-0.035,0.158-0.129,0.153-0.231c-0.005-0.102-0.076-0.189-0.175-0.214C85.63,96.845,82.117,95.953,81.457,95.953 L81.457,95.953z"/></g></g><g id="solution_user_hover" class="solution-hover"><g id="hover-hair"><linearGradient id="lg_solution_users_5" gradientUnits="userSpaceOnUse" x1="57.2229" y1="59.2911" x2="98.4678" y2="100.536" gradientTransform="matrix(1 0 0 -1 0 160)"><stop offset="0" style="stop-color:#62c5e5"/><stop offset="1" style="stop-color:#63C6E5"/></linearGradient><path class="solution-users-5" d="M103.096,87.095c1.037-3.478,0.435-7.095,0.37-10.224c0.037-4.089-0.174-9.898-4.087-15.877 C94.645,53.754,86.389,51,80.015,51c-0.007,0-0.012,0-0.012,0c-0.008,0-0.011,0-0.02,0c-0.256,0-0.519-0.003-0.78,0.007 c-0.816,0.029-1.659,0.1-2.516,0.222c-0.039-0.356-0.098-0.717-0.199-1.071c-1.109-3.912-5.617-6.057-10.07-4.792 c-4.454,1.262-7.163,5.456-6.053,9.366c0.405,1.431,1.27,2.623,2.418,3.5c-0.778,0.835-1.508,1.743-2.165,2.747 c-3.494,5.343-4.034,10.565-4.084,14.534c-0.02,0.076-2.412,9.172,1.325,15.168c3.752,6.023,3.752,14.416,3.752,14.416 s1.767-6.626-1.324-16.118c-1.293-3.971-1.503-6.973-1.311-9.126c0.17,0.004,0.339,0.011,0.51,0.011 c9.227,0,16.742-5.89,17.093-13.261c1.06,4.375,3.803,10.371,10.841,14.643c0,0-5.716-5.89-7.423-13.645 c3.522,6.262,10.569,10.581,18.741,10.787c1.016,2.155,1.929,5.072,1.929,8.598c0,7.949,1.327,11.041,5.079,13.03 C105.744,100.015,100.885,94.492,103.096,87.095z"/><g><linearGradient id="lg_solution_users_6" gradientUnits="userSpaceOnUse" x1="57.2215" y1="59.2925" x2="98.4667" y2="100.5377" gradientTransform="matrix(1 0 0 -1 0 160)"><stop offset="0" style="stop-color:#62c5e5"/><stop offset="1" style="stop-color:#63C6E5"/></linearGradient><path class="solution-users-6" d="M68.998,46c3.153,0,5.776,1.779,6.527,4.427c0.075,0.264,0.128,0.551,0.167,0.903 l0.113,1.025l1.021-0.144c0.839-0.119,1.651-0.193,2.413-0.22l0.157-0.006c0.198-0.008,0.395-0.015,0.618-0.016 c5.943,0.01,13.931,2.526,18.529,9.557c3.521,5.381,3.967,10.551,3.924,15.365c0.016,0.762,0.061,1.53,0.11,2.342 c0.149,2.504,0.302,5.093-0.438,7.575c-0.199,0.666-0.345,1.317-0.446,1.951c-0.018-0.559-0.026-1.15-0.026-1.775 c0-3.138-0.681-6.175-2.024-9.025l-0.263-0.558l-0.617-0.016c-7.579-0.191-14.436-4.129-17.894-10.278l-3.291-5.851l1.443,6.557 c0.592,2.688,1.635,5.146,2.766,7.232c-2.406-3.005-3.624-6.153-4.236-8.68l-1.64-6.77l-0.331,6.957 c-0.329,6.902-7.398,12.308-16.094,12.308c-0.115,0-0.228-0.003-0.342-0.007L59,78.849l-0.937-0.023L57.98,79.76 c-0.249,2.793,0.208,5.997,1.356,9.524c0.519,1.593,0.896,3.104,1.165,4.514c-0.48-1.249-1.07-2.488-1.793-3.65 c-3.466-5.56-1.23-14.297-1.207-14.384l0.031-0.119l0.002-0.123c0.047-3.799,0.536-8.823,3.92-13.999 c0.596-0.91,1.27-1.765,2.06-2.613l0.752-0.807l-0.876-0.67c-1.019-0.779-1.732-1.809-2.064-2.979 c-0.457-1.611-0.167-3.337,0.818-4.861c1.011-1.565,2.626-2.727,4.546-3.271C67.45,46.109,68.227,46,68.998,46 M68.998,45 c-0.846,0-1.714,0.117-2.581,0.363c-4.454,1.262-7.163,5.457-6.053,9.367c0.405,1.431,1.27,2.623,2.418,3.501 c-0.778,0.835-1.508,1.743-2.165,2.747c-3.494,5.343-4.034,10.565-4.084,14.534c-0.02,0.076-2.412,9.172,1.325,15.168 c3.752,6.023,3.752,14.416,3.752,14.416s1.767-6.626-1.324-16.118c-1.293-3.971-1.503-6.973-1.311-9.126 c0.17,0.004,0.339,0.011,0.51,0.011c9.227,0,16.742-5.89,17.093-13.261c1.06,4.375,3.803,10.371,10.841,14.643 c0,0-5.716-5.89-7.423-13.645c3.522,6.262,10.569,10.581,18.741,10.787c1.016,2.155,1.929,5.072,1.929,8.598 c0,7.949,1.327,11.041,5.079,13.03c0,0-4.859-5.523-2.648-12.92c1.037-3.478,0.435-7.095,0.37-10.224 c0.037-4.089-0.174-9.898-4.087-15.877C94.645,53.754,86.389,51,80.015,51c-0.007,0-0.012,0-0.012,0c-0.008,0-0.011,0-0.02,0 c-0.256,0-0.519-0.003-0.78,0.007c-0.816,0.029-1.659,0.1-2.516,0.222c-0.039-0.356-0.098-0.717-0.199-1.071 C75.594,47.008,72.496,45,68.998,45L68.998,45z"/></g></g><g id="hover-lips"><g><linearGradient id="lg_solution_users_7" gradientUnits="userSpaceOnUse" x1="76.89" y1="59.6903" x2="83.164" y2="65.9643" gradientTransform="matrix(1 0 0 -1 0 160)"><stop offset="0" style="stop-color:#62c5e5"/><stop offset="1" style="stop-color:#63C6E5"/></linearGradient><path class="solution-users-7" d="M79.999,99c3.385,0,6.052-1.608,6.052-1.608c0.096-0.035,0.158-0.129,0.153-0.231 c-0.005-0.102-0.076-0.189-0.175-0.214c-0.398-0.102-3.911-0.994-4.572-0.994c-0.411,0-0.71,0.169-0.95,0.305 c-0.176,0.099-0.328,0.185-0.477,0.187c-0.156-0.002-0.307-0.088-0.483-0.187c-0.24-0.136-0.539-0.305-0.951-0.305 c-0.66,0-4.173,0.892-4.571,0.994c-0.099,0.025-0.17,0.112-0.175,0.214c-0.005,0.102,0.057,0.196,0.153,0.231 C74.002,97.392,76.655,99,79.999,99z"/></g><g><linearGradient id="lg_solution_users_8" gradientUnits="userSpaceOnUse" x1="76.8903" y1="59.6901" x2="83.1647" y2="65.9645" gradientTransform="matrix(1 0 0 -1 0 160)"><stop offset="0" style="stop-color:#62c5e5"/><stop offset="1" style="stop-color:#63C6E5"/></linearGradient><path class="solution-users-8" d="M78.596,96.953c0.142,0,0.261,0.063,0.458,0.176c0.232,0.131,0.549,0.311,0.991,0.317 c0.404-0.006,0.708-0.178,0.955-0.317c0.196-0.111,0.314-0.174,0.454-0.175c0.227,0.007,1.045,0.173,2.145,0.429 C82.636,97.706,81.381,98,79.999,98c-1.352,0-2.592-0.293-3.549-0.617C77.554,97.126,78.374,96.96,78.596,96.953 M81.457,95.953 c-0.411,0-0.71,0.169-0.95,0.305c-0.176,0.099-0.328,0.185-0.477,0.187c-0.156-0.002-0.307-0.088-0.483-0.187 c-0.24-0.136-0.539-0.305-0.951-0.305c-0.66,0-4.173,0.892-4.571,0.994c-0.099,0.025-0.17,0.112-0.175,0.214 c-0.005,0.102,0.057,0.196,0.153,0.231c0,0,2.653,1.608,5.997,1.608c3.385,0,6.052-1.608,6.052-1.608 c0.096-0.035,0.158-0.129,0.153-0.231c-0.005-0.102-0.076-0.189-0.175-0.214C85.63,96.845,82.117,95.953,81.457,95.953 L81.457,95.953z"/></g></g></g></svg>