<svg id="adhash-logo-black" xmlns="http://www.w3.org/2000/svg" xmlns:xlink="http://www.w3.org/1999/xlink" viewBox="0 0 1519.16 325"><defs><style>.adhash-logo-black-1{fill:url(#linear-gradient)}.adhash-logo-black-2{fill:url(#linear-gradient-2)}.adhash-logo-black-3{fill:url(#linear-gradient-3)}.adhash-logo-black-4{fill:url(#linear-gradient-4)}.adhash-logo-black-5{fill:url(#linear-gradient-5)}.adhash-logo-black-6{fill:#2b2e36}</style><linearGradient id="linear-gradient" x1="278.5" x2="278.5" y2="325" gradientUnits="userSpaceOnUse"><stop offset="0" stop-color="#52b4d0"/><stop offset="0.3" stop-color="#398da3"/><stop offset="0.61" stop-color="#246b7b"/><stop offset="0.85" stop-color="#175763"/><stop offset="1" stop-color="#124f5a"/></linearGradient><linearGradient id="linear-gradient-2" x1="512.88" y1="98.91" x2="47.46" y2="292.36" gradientUnits="userSpaceOnUse"><stop offset="0" stop-color="#308ea4"/><stop offset="0.34" stop-color="#2f8ca1"/><stop offset="0.54" stop-color="#2c8599"/><stop offset="0.71" stop-color="#26798b"/><stop offset="0.85" stop-color="#1e6777"/><stop offset="0.99" stop-color="#13515d"/><stop offset="1" stop-color="#124f5a"/></linearGradient><linearGradient id="linear-gradient-3" x1="441.6" x2="441.6" y2="325" gradientUnits="userSpaceOnUse"><stop offset="0" stop-color="#62c5e4"/><stop offset="0.2" stop-color="#5ec1e0"/><stop offset="0.41" stop-color="#52b6d3"/><stop offset="0.63" stop-color="#3fa3bf"/><stop offset="0.84" stop-color="#2389a2"/><stop offset="1" stop-color="#0b7188"/></linearGradient><linearGradient id="linear-gradient-4" x1="20.9" y1="298.35" x2="136.48" y2="26.2" gradientUnits="userSpaceOnUse"><stop offset="0" stop-color="#a3ca80"/><stop offset="0.19" stop-color="#9bc178"/><stop offset="0.51" stop-color="#85a962"/><stop offset="0.9" stop-color="#62813f"/><stop offset="1" stop-color="#587635"/></linearGradient><linearGradient id="linear-gradient-5" x1="144.71" y1="1.96" x2="274.71" y2="319.96" xlink:href="#linear-gradient-3"/></defs><g><g><rect class="adhash-logo-black-1" x="250.25" width="56.5" height="325"/><polygon class="adhash-logo-black-2" points="43.26 325 73.35 250.7 504.35 71.83 526.01 124.01 43.26 325"/><rect class="adhash-logo-black-3" x="413.35" width="56.5" height="325"/><polygon class="adhash-logo-black-4" points="144.43 75.18 113.92 0 0 281.14 43.26 325 144.43 75.18"/><polygon class="adhash-logo-black-5" points="113.92 0 174.88 0 306.75 325 245.81 325 113.92 0"/></g><g><path class="adhash-logo-black-6" d="M658.83,20.5h36.56l54.78,325H723.93l-14.49-86.1H644.76L630.3,345.5H604Zm46.37,213.82L677.12,68.05,649,234.32Z" transform="translate(-12 -20.5)"/><path class="adhash-logo-black-6" d="M775.64,311v-93c0-26.93,2.81-35,38.15-34.52h34.36l18.57,16V20.5h24.39v325H866.73v-16l-18.57,16H813.8C786.87,345.5,775.64,337.91,775.64,311Zm91.09,9.28V208.65H807.46c-4.64,0-7.43,2.79-7.43,7.43v96.76c0,4.64,2.79,7.43,7.43,7.43Z" transform="translate(-12 -20.5)"/><path class="adhash-logo-black-6" d="M937.85,20.5H964.1V183.41h73.2V20.5h26.25v325H1037.3V208.65H964.1V345.5H937.85Z" transform="translate(-12 -20.5)"/><path class="adhash-logo-black-6" d="M1103.32,311V300.62c0-24.14,7.51-36.76,30.73-43.73l60.36-14v-26.8c0-4.64-2.78-7.43-7.43-7.43h-47.2c-4.64,0-7.43,2.79-7.43,7.43v18.24H1108V217.93c0-26.93,11.22-34.52,38.15-34.52h41.8c26.93,0,30.89,7.59,30.89,34.52l.08,127.56h-24.39l-.08-15.94-18.57,16h-34.37C1114.08,345.5,1103.32,337.91,1103.32,311Zm91.09,9.28V270.44l-60.66,15.32c-4.18,1.39-6,4.18-6,8.36v18.72c0,4.64,2.78,7.43,7.43,7.43Z" transform="translate(-12 -20.5)"/><path class="adhash-logo-black-6" d="M1259.5,311V294.59h24.38v18.24c0,4.64,2.79,7.43,7.43,7.43h51.84c4.64,0,7.43-2.78,7.43-7.43V295c0-3.71-.66-7.94-4.17-8.82-14.42-3.61-54.93-13.9-74.3-18.63-9.86-2.41-12.61-15.43-12.61-29.82V217.93c0-26.93,11.22-34.52,38.15-34.52h37.78c26.93,0,38.16,7.59,38.16,34.52v16.38h-24.39V216.08c0-4.64-2.78-7.43-7.43-7.43h-50.45c-4.64,0-7.43,2.79-7.43,7.43v20.29c0,3.71,1.86,6.06,4.64,8.38l69.74,18.17c7.5,2.42,16.71,15.87,16.71,30.26V311c0,26.93-4,34.52-30.89,34.52h-53.7C1263.45,345.5,1259.5,337.91,1259.5,311Zm29-66.23,69.74,18.17c9.34,3.18,16.71,15.87,16.71,30.26" transform="translate(-12 -20.5)"/><path class="adhash-logo-black-6" d="M1415.68,20.5h24.39V199.36l18.57-16h41.63c26.92,0,30.89,7.85,30.89,34.78V345.5h-24.39V216.33c0-4.64-2.78-7.68-7.43-7.68h-59.27V345.5h-24.39Z" transform="translate(-12 -20.5)"/></g></g></svg>