<svg id="adhash-logo-white" xmlns="http://www.w3.org/2000/svg" xmlns:xlink="http://www.w3.org/1999/xlink" viewBox="0 0 1519.16 325"><defs><style>.adhash-logo-white-1{fill: url(#lg-adhash-logo-white);}.adhash-logo-white-2{fill: url(#lg-adhash-logo-white-2);}.adhash-logo-white-3{fill: url(#lg-adhash-logo-white-3);}.adhash-logo-white-4{fill: url(#lg-adhash-logo-white-4);}.adhash-logo-white-5{fill: url(#lg-adhash-logo-white-5);}.adhash-logo-white-6{fill: #eee;}</style><linearGradient id="lg-adhash-logo-white" x1="278.5" x2="278.5" y2="325" gradientUnits="userSpaceOnUse"><stop offset="0" stop-color="#52b4d0"/><stop offset="0.3" stop-color="#398da3"/><stop offset="0.61" stop-color="#246b7b"/><stop offset="0.85" stop-color="#175763"/><stop offset="1" stop-color="#124f5a"/></linearGradient><linearGradient id="lg-adhash-logo-white-2" x1="512.88" y1="98.91" x2="47.46" y2="292.36" gradientUnits="userSpaceOnUse"><stop offset="0" stop-color="#308ea4"/><stop offset="0.34" stop-color="#2f8ca1"/><stop offset="0.54" stop-color="#2c8599"/><stop offset="0.71" stop-color="#26798b"/><stop offset="0.85" stop-color="#1e6777"/><stop offset="0.99" stop-color="#13515d"/><stop offset="1" stop-color="#124f5a"/></linearGradient><linearGradient id="lg-adhash-logo-white-3" x1="441.6" x2="441.6" y2="325" gradientUnits="userSpaceOnUse"><stop offset="0" stop-color="#62c5e4"/><stop offset="0.2" stop-color="#5ec1e0"/><stop offset="0.41" stop-color="#52b6d3"/><stop offset="0.63" stop-color="#3fa3bf"/><stop offset="0.84" stop-color="#2389a2"/><stop offset="1" stop-color="#0b7188"/></linearGradient><linearGradient id="lg-adhash-logo-white-4" x1="20.9" y1="298.35" x2="136.48" y2="26.2" gradientUnits="userSpaceOnUse"><stop offset="0" stop-color="#a3ca80"/><stop offset="0.19" stop-color="#9bc178"/><stop offset="0.51" stop-color="#85a962"/><stop offset="0.9" stop-color="#62813f"/><stop offset="1" stop-color="#587635"/></linearGradient><linearGradient id="lg-adhash-logo-white-5" x1="144.71" y1="1.96" x2="274.71" y2="319.96" xlink:href="#lg-adhash-logo-white-3"/></defs><g><g><rect class="adhash-logo-white-1" x="250.25" width="56.5" height="325"/><polygon class="adhash-logo-white-2" points="43.26 325 73.35 250.7 504.35 71.83 526.01 124.01 43.26 325"/><rect class="adhash-logo-white-3" x="413.35" width="56.5" height="325"/><polygon class="adhash-logo-white-4" points="144.43 75.18 113.92 0 0 281.14 43.26 325 144.43 75.18"/><polygon class="adhash-logo-white-5" points="113.92 0 174.88 0 306.75 325 245.81 325 113.92 0"/></g><g><path class="adhash-logo-white-6" d="M659.26,19.5h36.56l54.78,325H724.35l-14.49-86.1H645.18l-14.45,86.1H604.47Zm46.37,213.82L677.54,67.05,649.41,233.32Z" transform="translate(-12.42 -19.5)"/><path class="adhash-logo-white-6" d="M776.07,310v-93c0-26.93,2.81-35,38.15-34.52h34.36l18.57,16V19.5h24.39v325H867.15v-16l-18.57,16H814.22C787.29,344.5,776.07,336.91,776.07,310Zm91.09,9.28V207.65H807.89c-4.64,0-7.43,2.79-7.43,7.43v96.76c0,4.64,2.79,7.43,7.43,7.43Z" transform="translate(-12.42 -19.5)"/><path class="adhash-logo-white-6" d="M938.27,19.5h26.25V182.41h73.2V19.5H1064v325h-26.25V207.65h-73.2V344.5H938.27Z" transform="translate(-12.42 -19.5)"/><path class="adhash-logo-white-6" d="M1103.74,310V299.62c0-24.14,7.51-36.76,30.73-43.73l60.36-14v-26.8c0-4.64-2.78-7.43-7.43-7.43h-47.2c-4.64,0-7.43,2.79-7.43,7.43v18.24h-24.39V216.93c0-26.93,11.22-34.52,38.15-34.52h41.8c26.93,0,30.89,7.59,30.89,34.52l.08,127.56H1194.9l-.08-15.94-18.57,16h-34.37C1114.5,344.5,1103.74,336.91,1103.74,310Zm91.09,9.28V269.44l-60.66,15.32c-4.18,1.39-6,4.18-6,8.36v18.72c0,4.64,2.78,7.43,7.43,7.43Z" transform="translate(-12.42 -19.5)"/><path class="adhash-logo-white-6" d="M1259.92,310V293.59h24.38v18.24c0,4.64,2.79,7.43,7.43,7.43h51.84c4.64,0,7.43-2.78,7.43-7.43V294c0-3.71-.66-7.94-4.17-8.82-14.42-3.61-54.93-13.9-74.3-18.63-9.86-2.41-12.61-15.43-12.61-29.82V216.93c0-26.93,11.22-34.52,38.15-34.52h37.78c26.93,0,38.16,7.59,38.16,34.52v16.38h-24.39V215.08c0-4.64-2.78-7.43-7.43-7.43h-50.45c-4.64,0-7.43,2.79-7.43,7.43v20.29c0,3.71,1.86,6.06,4.64,8.38l69.74,18.17c7.5,2.42,16.71,15.87,16.71,30.26V310c0,26.93-4,34.52-30.89,34.52h-53.7C1263.88,344.5,1259.92,336.91,1259.92,310Zm29-66.23,69.74,18.17c9.34,3.18,16.71,15.87,16.71,30.26" transform="translate(-12.42 -19.5)"/><path class="adhash-logo-white-6" d="M1416.1,19.5h24.39V198.36l18.57-16h41.63c26.92,0,30.89,7.85,30.89,34.78V344.5h-24.39V215.33c0-4.64-2.78-7.68-7.43-7.68h-59.27V344.5H1416.1Z" transform="translate(-12.42 -19.5)"/></g></g></svg>