<svg version="1.1" id="Layer_1" xmlns="http://www.w3.org/2000/svg" xmlns:xlink="http://www.w3.org/1999/xlink" x="0px" y="0px"
	 viewBox="0 0 700 340" style="enable-background:new 0 0 700 340;" xml:space="preserve">
<style type="text/css">
	.Drop_x0020_Shadow{fill:none;}
	.Outer_x0020_Glow_x0020_5_x0020_pt{fill:none;}
	.Blue_x0020_Neon{fill:none;stroke:#8AACDA;stroke-width:7;stroke-linecap:round;stroke-linejoin:round;}
	.Chrome_x0020_Highlight{fill:url(#SVGID_1_);stroke:#FFFFFF;stroke-width:0.3629;stroke-miterlimit:1;}
	.Jive_GS{fill:#FFDD00;}
	.Alyssa_GS{fill:#A6D0E4;}
	.st0{fill:url(#XMLID_4_);}
	.st1{fill:url(#XMLID_5_);}
	.st2{fill:url(#XMLID_6_);}
	.st3{fill:#F1A68A;}
	.st4{fill:#62C4E4;}
</style>
<linearGradient id="SVGID_1_" gradientUnits="userSpaceOnUse" x1="0" y1="0" x2="4.489659e-011" y2="-1">
	<stop  offset="0" style="stop-color:#656565"/>
	<stop  offset="0.618" style="stop-color:#1B1B1B"/>
	<stop  offset="0.6292" style="stop-color:#545454"/>
	<stop  offset="0.9831" style="stop-color:#3E3E3E"/>
</linearGradient>
<g id="XMLID_2_">
	<g id="XMLID_116_">
		<linearGradient id="XMLID_4_" gradientUnits="userSpaceOnUse" x1="237.9758" y1="256.441" x2="237.9758" y2="59.4843">
			<stop  offset="0" style="stop-color:#3298CB"/>
			<stop  offset="0.5" style="stop-color:#62C4E4"/>
			<stop  offset="1" style="stop-color:#0C7C92"/>
		</linearGradient>
		<path id="XMLID_128_" class="st0" d="M292.452,183.597c-0.435,0-0.861,0.04-1.281,0.097l-21.029-21.215l19.695-20.407
			c0.517,0.087,1.044,0.143,1.585,0.143c5.238,0,9.5-4.262,9.5-9.5c0-5.238-4.262-9.5-9.5-9.5s-9.5,4.262-9.5,9.5
			c0,1.02,0.166,2.5,0.464,3.422L261.025,159h-24.849c-1.327-14-4.702-27-9.696-38h32.781l21.808-22.761
			c0.715,0.172,1.457-0.095,2.224-0.095c5.238,0,9.5-4.446,9.5-9.684s-4.262-9.592-9.5-9.592s-9.5,4.216-9.5,9.454
			c0,0.728,0.09,2.148,0.246,2.83L255.089,111H221.45C209.975,91,194,76.532,174,75.503V99h1.581c5.247,0,11.419,6.753,11.419,12v22
			c0,8.688-5.172,14-10.419,14H174v11v11h62.771h24.294l22.312,21.782c-0.276,0.89-0.426,1.585-0.426,2.564
			c0,5.238,4.262,9.375,9.5,9.375s9.5-4.324,9.5-9.563S297.69,183.597,292.452,183.597z M291.422,127.215c3.032,0,5.5,2.467,5.5,5.5
			s-2.468,5.5-5.5,5.5s-5.5-2.467-5.5-5.5S288.39,127.215,291.422,127.215z M283.292,82.774c3.032,0,5.5,2.467,5.5,5.5
			s-2.468,5.5-5.5,5.5s-5.5-2.467-5.5-5.5S280.26,82.774,283.292,82.774z M292.452,198.597c-3.032,0-5.5-2.468-5.5-5.5
			s2.468-5.5,5.5-5.5s5.5,2.468,5.5,5.5S295.484,198.597,292.452,198.597z"/>
		<linearGradient id="XMLID_5_" gradientUnits="userSpaceOnUse" x1="170.4583" y1="264.497" x2="170.4583" y2="81.1993">
			<stop  offset="0" style="stop-color:#0C7C92"/>
			<stop  offset="0.5" style="stop-color:#62C4E4"/>
			<stop  offset="1" style="stop-color:#3298CB"/>
		</linearGradient>
		<path id="XMLID_123_" class="st1" d="M278.718,245.497c-0.709,0-1.73,0.084-2.395,0.232L260,229.39V200h-25.514
			c1.443-8,2.223-15,2.307-24H104.207c0.08,9,0.823,16,2.215,24H80v29.39l-15.823,16.339c-0.665-0.148-1.27-0.232-1.979-0.232
			c-5.238,0-9.458,4.262-9.458,9.5s4.283,9.5,9.521,9.5s9.51-4.262,9.51-9.5c0-0.786-0.269-1.546-0.449-2.277L90,233.468V210h18.664
			c8.366,30,28.626,47.536,61.837,47.536c32.401,0,53.045-17.536,61.668-47.536H250v23.468l19.173,19.252
			c-0.181,0.731-0.121,1.491-0.121,2.277c0,5.238,4.345,9.5,9.583,9.5s9.542-4.262,9.542-9.5S283.957,245.497,278.718,245.497z
			 M62.282,260.497c-3.032,0-5.5-2.468-5.5-5.5s2.468-5.5,5.5-5.5s5.5,2.468,5.5,5.5S65.314,260.497,62.282,260.497z
			 M278.718,260.497c-3.032,0-5.5-2.468-5.5-5.5s2.468-5.5,5.5-5.5s5.5,2.468,5.5,5.5S281.75,260.497,278.718,260.497z"/>
		<linearGradient id="XMLID_6_" gradientUnits="userSpaceOnUse" x1="103.0242" y1="256.2639" x2="103.0242" y2="60.5828">
			<stop  offset="0" style="stop-color:#3298CB"/>
			<stop  offset="0.5" style="stop-color:#62C4E4"/>
			<stop  offset="1" style="stop-color:#0C7C92"/>
		</linearGradient>
		<path id="XMLID_118_" class="st2" d="M58.048,193.097c0-0.721-0.088-0.921-0.241-1.597L80.838,169h23.392H167v-11v-11h-1.419
			c-5.247,0-12.581-5.375-12.581-13.726V111c0-5.247,6.334-12,11.581-12H167V75.503C148,76.533,131.716,91,119.967,111H85.911
			L66.962,91.127c0.156-0.681,0.246-1.756,0.246-2.484c0-5.238-4.262-9.684-9.5-9.684s-9.5,4.169-9.5,9.408s4.262,9.454,9.5,9.454
			c0.767,0,1.509,0.614,2.224,0.441L81.739,121h33.071c-5.126,11-8.608,24-9.972,38h-23.96l-22.064-23.599
			c0.167-0.703,0.264-1.683,0.264-2.436c0-5.238-4.262-9.625-9.5-9.625s-9.5,4.199-9.5,9.437c0,5.238,4.262,9.469,9.5,9.469
			c0.807,0,1.587-0.128,2.335-0.318l19.849,20.558l-21.16,21.344c-0.662-0.147-1.347-0.232-2.053-0.232
			c-5.238,0-9.5,4.261-9.5,9.499s4.262,9.5,9.5,9.5S58.048,198.335,58.048,193.097z M52.208,88.274c0-3.033,2.468-5.5,5.5-5.5
			s5.5,2.467,5.5,5.5s-2.468,5.5-5.5,5.5S52.208,91.307,52.208,88.274z M44.078,132.715c0-3.033,2.468-5.5,5.5-5.5
			s5.5,2.467,5.5,5.5s-2.468,5.5-5.5,5.5S44.078,135.747,44.078,132.715z M48.548,198.597c-3.032,0-5.5-2.468-5.5-5.5
			s2.468-5.5,5.5-5.5s5.5,2.468,5.5,5.5S51.581,198.597,48.548,198.597z"/>
		<path id="XMLID_117_" class="st3" d="M180,114c0-4.418-3.582-8-8-8h-4c-4.418,0-8,3.582-8,8v18c0,4.418,3.582,8,8,8h4
			c4.418,0,8-3.582,8-8V114z"/>
	</g>
	<path id="XMLID_112_" class="st3" d="M361,158V2h44.793c6.696,0,12.698,0.87,18.001,2.472c5.307,1.604,9.792,4.131,13.461,7.514
		s6.463,7.693,8.386,12.89c1.923,5.201,2.886,11.44,2.886,18.704s-1.819,13.678-5.448,19.234
		c-3.633,5.554-8.547,9.868-14.745,12.929c3.778,1.14,7.106,2.886,9.992,5.236c2.882,2.351,5.303,5.145,7.262,8.387
		c1.959,3.242,3.436,6.855,4.432,10.844c1,3.988,1.497,8.19,1.497,12.606c0,7.264-1.032,13.692-3.099,19.282
		c-2.063,5.592-5.002,10.293-8.812,14.103s-8.423,6.834-13.834,8.757C420.358,156.88,414.34,158,407.716,158H361z M381,68h25.114
		c3.276,0,6.303-0.33,9.081-1.47c2.778-1.138,5.163-2.658,7.158-4.794c1.995-2.138,3.561-4.693,4.701-7.792
		c1.14-3.097,1.71-6.576,1.71-10.492c0-8.547-1.887-14.753-5.665-18.637c-3.774-3.88-9.543-5.815-17.307-5.815H381V68z M381,85v56
		h26.716c3.846,0,7.266-0.701,10.257-2.02c2.991-1.319,5.52-3.192,7.588-5.578c2.063-2.385,3.629-5.316,4.697-8.771
		c1.072-3.455,1.606-7.324,1.606-11.598c0-4.273-0.446-8.156-1.337-11.647c-0.891-3.489-2.28-6.447-4.167-8.868
		c-1.887-2.421-4.308-4.258-7.262-5.577C416.139,85.625,412.594,85,408.467,85H381z"/>
	<path id="XMLID_110_" class="st3" d="M579,2v109.664c0,8.76-1.718,16.185-4.351,22.273c-2.638,6.09-6.363,11.058-10.779,14.904
		s-9.607,6.624-15.376,8.332c-5.769,1.71-11.873,2.563-18.212,2.563c-6.696,0-12.972-0.853-18.773-2.563
		c-5.805-1.708-10.856-4.486-15.131-8.332c-4.271-3.846-7.434-8.814-9.891-14.904c-2.461-6.088-3.487-13.513-3.487-22.273V2h19
		v109.664c0,6.054,0.689,11.092,2.042,15.115c1.353,4.025,3.267,7.248,5.724,9.669c2.457,2.423,5.415,4.131,8.872,5.129
		c3.453,0.998,7.316,1.495,11.592,1.495c4.271,0,8.154-0.498,11.647-1.495c3.489-0.998,6.46-2.706,8.921-5.129
		c2.457-2.421,4.589-5.644,5.942-9.669c1.353-4.023,2.26-9.061,2.26-15.115V2H579z"/>
	<path id="XMLID_108_" class="st4" d="M381,321h71v19h-91V184h20V321z"/>
	<path id="XMLID_104_" class="st4" d="M610,340V184h44.07c6.696,0,12.698,0.989,18.001,2.591c5.307,1.604,9.792,4.191,13.461,7.573
		s6.463,7.723,8.386,12.92c1.923,5.201,2.886,11.455,2.886,18.719s-1.819,13.685-5.448,19.241
		c-3.633,5.554-8.547,9.872-14.745,12.933c3.778,1.14,7.106,2.887,9.992,5.238c2.883,2.351,5.303,5.146,7.262,8.388
		s3.436,6.856,4.432,10.844c1,3.988,1.497,8.19,1.497,12.606c0,7.264-1.032,13.692-3.099,19.282
		c-2.063,5.592-5.002,10.293-8.812,14.103s-8.423,6.715-13.834,8.638C668.635,339,662.617,340,655.993,340H610z M629,251h25.392
		c3.276,0,6.303-0.711,9.081-1.851c2.778-1.138,5.163-2.848,7.158-4.984c1.995-2.138,3.561-4.788,4.701-7.888
		c1.14-3.097,1.71-6.624,1.71-10.54c0-8.547-1.887-14.896-5.665-18.78c-3.774-3.88-9.543-5.958-17.307-5.958H629V251z M629,267v56
		h26.993c3.846,0,7.266-0.582,10.257-1.9s5.52-3.132,7.587-5.519c2.064-2.385,3.629-5.287,4.697-8.741
		c1.072-3.455,1.606-7.309,1.606-11.583s-0.446-8.149-1.337-11.64c-0.891-3.489-2.28-6.443-4.167-8.864s-4.308-4.376-7.262-5.694
		c-2.959-1.317-6.504-2.059-10.631-2.059H629z"/>
	<g id="XMLID_57_">
		<path id="XMLID_102_" class="st4" d="M483,340V230.229c0-8.76,1.108-16.185,3.742-22.273c2.638-6.09,6.058-11.058,10.474-14.904
			s9.454-6.624,15.223-8.332c5.769-1.71,11.797-2.563,18.136-2.563c6.696,0,12.934,0.853,18.735,2.563
			c5.805,1.708,10.837,4.486,15.112,8.332c4.271,3.846,8.033,8.814,10.49,14.904c2.461,6.088,4.087,13.513,4.087,22.273V340h-20
			V230.229c0-6.054-0.799-11.092-2.152-15.115c-1.353-4.025-3.322-7.248-5.779-9.669c-2.457-2.423-5.443-4.131-8.899-5.129
			c-3.453-0.998-7.33-1.495-11.606-1.495c-4.271,0-8.161,0.498-11.654,1.495c-3.489,0.998-6.463,2.706-8.924,5.129
			c-2.457,2.421-3.981,5.644-5.334,9.669c-1.353,4.023-1.653,9.061-1.653,15.115V340H483z"/>
		<rect id="XMLID_101_" x="490" y="258" class="st4" width="82" height="18"/>
	</g>
	<path id="XMLID_22_" class="st4" d="M309,21c5.5,0,10,4.5,10,10v278c0,5.5-4,10-9.5,10h-278C26,319,21,314.5,21,309V31
		c0-5.5,5-10,10.5-10H309 M309.5,0h-278C14.407,0,0,13.907,0,31v278c0,17.093,14.407,31,31.5,31h278c17.093,0,30.5-13.907,30.5-31
		V31c0-17.093-13.657-31-30.75-31H309.5z"/>
	<path id="XMLID_3_" class="st3" d="M657,83v17h22.988L680,134.875c-0.221,0.255-0.454,0.519-0.715,0.795
		c-1.081,1.14-2.478,2.28-4.288,3.418c-1.809,1.14-4.082,2.102-6.811,2.884c-2.73,0.785-6.099,1.175-10.099,1.175
		c-4.699,0-8.961-0.978-12.771-2.938c-3.81-1.958-7.082-4.931-9.78-8.92c-0.74-1.094-1.432-2.275-2.083-3.529
		c-1.381-3.482-2.219-7.794-3.246-12.103c-1.417-5.941-1.208-13.045-1.208-21.115V65.057c0-7.896-0.409-14.875,0.614-20.751
		c1.003-5.76,2.693-12.604,4.883-16.404c0.426-0.74,0.885-1.433,1.363-2.099c1.947-2.493,4.244-4.462,6.903-5.903
		c3.682-1.993,8.19-2.96,13.523-2.96c8.316,0,14.523,2.786,18.618,8.234c0.038,0.051,0.074,0.105,0.112,0.156
		c3.286,5.035,4.411,12.034,5.036,20.689l0.135,1.98h1.888c0.006,0,0.014-0.084,0.02,0h17.428c-0.004-0.085-0.011,0-0.015,0h0.015
		l-0.016-0.141c-0.395-7.871-1.571-14.16-3.579-20.005c-2.032-5.91-4.833-11.069-8.452-15.165
		c-3.619-4.095-8.001-7.243-13.238-9.417c-5.238-2.171-11.128-3.266-17.858-3.266c-31.046,0-46.38,21.75-46.38,65.263v29.271
		c0,10.896,0.989,20.441,3.339,28.629c2.348,8.191,5.464,14.993,9.719,20.404c4.253,5.413,9.355,9.472,15.293,12.178
		c5.936,2.706,12.505,4.06,19.68,4.06c6.729,0,12.49-0.801,17.22-2.404c4.729-1.602,8.773-3.525,12.011-5.769
		c3.238-2.243,5.943-4.593,7.881-7.05c1.936-2.457,2.858-4.54,4.858-6.249V83H657z"/>
</g>
</svg>
